<?xml version="1.0" encoding="UTF-8"?>
<svg width="884px" height="780px" viewBox="0 0 884 780" version="1.1" xmlns="http://www.w3.org/2000/svg" xmlns:xlink="http://www.w3.org/1999/xlink">
    <title>11A15311-EFF1-4747-BE48-C2CF876A88B0</title>
    <g id="BrainGym-New-(As-per-Mobile)" stroke="none" stroke-width="1" fill="none" fill-rule="evenodd">
        <g id="Brain-gym-page----Updated-2" transform="translate(-278.000000, 0.000000)">
            <g id="Background" transform="translate(278.000000, 0.000000)">
                <rect id="Rectangle-Copy" fill="#E3FFF6" x="0" y="2.71597715" width="884" height="777" rx="10"></rect>
                <path d="M452,339.153363 L433.666551,351.715977 L403.111265,345.43467 L384.777816,339.153363 L360.333449,345.43467 L342,339.153363 L354.221838,314.027424 L378.666205,314.027424 L402.621865,301.715977 C421.096527,311.106631 437.810181,323.782376 452,339.153363 Z" id="Path" fill="#F5FFFC" fill-rule="nonzero"></path>
                <path d="M176,28.3224787 L170.583776,44.4672407 L154.334492,49.8486248 L138.085207,76.7561549 L111.003475,92.9009168 L73.0892958,98.282301 L73.0892958,114.427063 L83.9217432,125.189831 L83.9217432,146.715977 L67.6736856,135.952599 L51.424401,125.189831 L42,97.0448508 C58.2216758,58.6363494 89.2305995,28.2737122 128.119675,12.7159771 L143.502044,22.9410946 L176,28.3224787 Z" id="Path" fill="#F5FFFC" fill-rule="nonzero"></path>
                <path d="M713,580.322479 L707.583776,596.467241 L691.334492,601.848625 L675.085207,628.756155 L648.003475,644.900917 L610.089296,650.282301 L610.089296,666.427063 L620.921743,677.189831 L620.921743,698.715977 L604.673686,687.952599 L588.424401,677.189831 L579,649.044851 C595.221676,610.636349 626.230599,580.273712 665.119675,564.715977 L680.502044,574.941095 L713,580.322479 Z" id="Path-Copy-3" fill="#F5FFFC" fill-rule="nonzero" transform="translate(646.000000, 631.715977) scale(-1, -1) translate(-646.000000, -631.715977) "></path>
                <polygon id="Path" fill="#F5FFFC" fill-rule="nonzero" points="840 374.233308 834.285838 402.853975 811.428541 425.750639 811.428541 442.923299 788.571244 460.09531 788.571244 488.715977 771.428756 482.991973 759.999784 454.371306 759.999784 397.129971 731.428325 391.405968 720 368.509304 720 351.336644 731.428325 339.888637 748.571459 322.715977 759.999784 345.612641 799.999568 345.612641 817.142703 374.233308"></polygon>
                <polygon id="Path-Copy-2" fill="#F5FFFC" fill-rule="nonzero" transform="translate(97.000000, 664.715977) scale(-1, -1) translate(-97.000000, -664.715977) " points="157 633.233308 151.285838 661.853975 128.428541 684.750639 128.428541 701.923299 105.571244 719.09531 105.571244 747.715977 88.4287564 741.991973 76.9997842 713.371306 76.9997842 656.129971 48.4283248 650.405968 37 627.509304 37 610.336644 48.4283248 598.888637 65.5714594 581.715977 76.9997842 604.612641 116.999568 604.612641 134.142703 633.233308"></polygon>
                <polygon id="Path-Copy" fill="#F5FFFC" fill-rule="nonzero" transform="translate(646.740185, 75.926771) rotate(110.000000) translate(-646.740185, -75.926771) " points="700.584254 47.7255193 695.4163 73.2808278 674.87088 93.7505859 674.847071 109.079241 654.309588 124.439062 654.269908 149.986434 638.893022 144.900883 628.675573 119.369383 628.754933 68.2746374 603.120919 63.2049586 592.896115 42.7828164 592.919923 27.4541612 603.192343 17.219572 618.601554 1.86710853 628.826357 22.2892508 664.724855 22.2336991 680.070578 47.7572635"></polygon>
                <g id="skull" transform="translate(309.000000, 491.000000)" fill-rule="nonzero">
                    <g id="Group">
                        <path d="M70.8281565,64.4756293 C70.6663863,64.6373998 70.5184592,64.8078624 70.3816387,64.9839588 L15.0158501,9.6182197 C15.1919461,9.48139891 15.3624084,9.3334715 15.5241785,9.17170103 C17.6223613,7.07351401 17.6223613,3.67182729 15.5241785,1.57364027 C13.4259957,-0.524546756 10.0243158,-0.524546756 7.92613302,1.57364027 C6.59752536,2.9022506 6.11141013,4.75335538 6.46537284,6.46538585 C4.75334581,6.11142242 2.90224476,6.59753863 1.5736371,7.92614897 C-0.524545701,10.024336 -0.524545701,13.4260227 1.5736371,15.5242097 C3.6718199,17.6223968 7.07349978,17.6223968 9.17168258,15.5242097 C9.33345272,15.3624393 9.48137983,15.1919767 9.61820035,15.0158803 L64.983989,70.3817803 C64.8078929,70.5186011 64.6374307,70.6665285 64.4756605,70.828299 C62.3774777,72.926486 62.3774777,76.3281727 64.4756605,78.4263597 C66.5738433,80.5245468 69.9755232,80.5245468 72.073706,78.4263597 C73.4023137,77.0977494 73.8884289,75.2466446 73.5344662,73.5346142 C75.2464932,73.8885776 77.0975943,73.4024614 78.4262019,72.073851 C80.5243847,69.975664 80.5243847,66.5739773 78.4262019,64.4757903 C76.3281801,62.3776032 72.9263393,62.3776032 70.8281565,64.4756293 Z" id="Path" fill="#F4FFFC"></path>
                        <path d="M9.17184355,64.4756293 C9.33361368,64.6373998 9.4815408,64.8078624 9.61836131,64.9839588 L64.9841499,9.6182197 C64.8080539,9.48139891 64.6375916,9.3334715 64.4758215,9.17170103 C62.3776387,7.07351401 62.3776387,3.67182729 64.4758215,1.57364027 C66.5740043,-0.524546756 69.9756842,-0.524546756 72.073867,1.57364027 C73.4024746,2.9022506 73.8885899,4.75335538 73.5346272,6.46538585 C75.2466542,6.11142242 77.0977552,6.59753863 78.4263629,7.92614897 C80.5245457,10.024336 80.5245457,13.4260227 78.4263629,15.5242097 C76.3281801,17.6223968 72.9265002,17.6223968 70.8283174,15.5242097 C70.6665473,15.3624393 70.5186202,15.1919767 70.3817997,15.0158803 L15.0158501,70.3816193 C15.1919461,70.5184401 15.3624084,70.6663675 15.5241785,70.828138 C17.6223613,72.926325 17.6223613,76.3280117 15.5241785,78.4261988 C13.4259957,80.5243858 10.0243158,80.5243858 7.92613302,78.4261988 C6.59752536,77.0975884 6.11141013,75.2464837 6.46537284,73.5344532 C4.75334581,73.8884166 2.90224476,73.4023004 1.5736371,72.0736901 C-0.524545701,69.975503 -0.524545701,66.5738163 1.5736371,64.4756293 C3.6718199,62.3776032 7.07366074,62.3776032 9.17184355,64.4756293 Z" id="Path" fill="#F4FFFC"></path>
                        <path d="M65.28097,16.670285 C64.0400884,15.429401 62.7232312,14.2918568 61.3423098,13.2600671 L13.6209247,60.9815483 C14.0793539,61.2719303 14.5529138,61.5502399 15.0446628,61.8137406 C15.4374182,62.0242837 15.6814416,62.4167179 15.6814416,62.837643 L15.6814416,63.9985272 C15.6814416,65.6175195 16.0750018,67.1845199 16.8122229,68.5854038 L66.9453513,18.4521746 C66.4123951,17.8430806 65.8586745,17.2479907 65.28097,16.670285 Z" id="Path" fill="#F5FFFC"></path>
                        <path d="M18.6576902,13.2600671 C17.2766078,14.2918568 15.9599116,15.429401 14.71903,16.670285 C14.1413255,17.2479907 13.5876049,17.8430806 13.0548097,18.4521746 L63.1879381,68.5854038 C63.9251592,67.1846809 64.3187194,65.6175195 64.3187194,63.9985272 L64.3187194,62.837643 C64.3187194,62.4167179 64.5627428,62.0244446 64.9556591,61.8137406 C65.4474081,61.5500789 65.9208071,61.2717693 66.3792363,60.9815483 L18.6576902,13.2600671 Z" id="Path" fill="#F5FFFC"></path>
                        <path d="M39.9999195,11.0274738 C22.9211783,11.0274738 9.07623015,24.8724498 9.07623015,41.9512254 C9.07623015,50.0703319 12.2073273,54.8138282 17.3258632,57.5578093 C19.2774066,58.6039249 20.5102399,60.6233998 20.5102399,62.837643 L20.5102399,63.9985272 C20.5102399,66.6534943 22.5918433,68.8976772 25.2456783,68.9704336 C27.9991509,69.0459265 30.2550797,66.8363513 30.2550797,64.0999355 C30.2550797,66.790959 32.4364816,68.9723652 35.1274996,68.9723652 C37.8185177,68.9723652 39.9999195,66.790959 39.9999195,64.0999355 C39.9999195,66.790959 42.1813214,68.9723652 44.8723394,68.9723652 C47.5633575,68.9723652 49.7447593,66.790959 49.7447593,64.0999355 C49.7447593,66.8363513 52.0006881,69.0459265 54.7541607,68.9704336 C57.4081567,68.8976772 59.4895991,66.6534943 59.4895991,63.9985272 L59.4895991,62.837643 C59.4895991,60.6232388 60.7222715,58.6039249 62.6739758,57.5578093 C67.7925117,54.8139891 70.9236089,50.0704929 70.9236089,41.9512254 C70.9236089,24.8724498 57.0786607,11.0274738 39.9999195,11.0274738 Z" id="Path" fill="#F4FFFC"></path>
                    </g>
                    <g id="Group" transform="translate(22.500000, 28.750000)" fill="#E3FFF6">
                        <path d="M0,1.51197484 L0,5.98802516 C0,6.82303846 0.693532166,7.5 1.54898489,7.5 C2.40443761,7.5 3.09796977,6.82303846 3.09796977,5.98802516 L3.09796977,1.51197484 C3.09796977,0.676961535 2.40443761,0 1.54898489,0 C0.693532166,0 0,0.676961535 0,1.51197484 Z" id="Path"></path>
                        <path d="M33.4510151,7.5 C34.3064678,7.5 35,6.82303846 35,5.98802516 L35,1.51197484 C35,0.676961535 34.3064678,0 33.4510151,0 C32.5955624,0 31.9020302,0.676961535 31.9020302,1.51197484 L31.9020302,5.98802516 C31.9020302,6.82303846 32.5955624,7.5 33.4510151,7.5 Z" id="Path"></path>
                    </g>
                </g>
                <path d="M610.244022,410.284462 C606.969236,410.284462 605.083427,409.985016 603.568136,414.153293 C603.568136,414.153293 599.930784,419.051148 597.820886,420.294062 C595.710988,421.536977 592.534445,423.51041 592.534445,423.51041 L591.49166,423.51041 C591.49166,423.51041 590.254726,417.515838 591.49166,417.515838 C592.728593,417.515838 593.456531,418.393963 595.129012,418.064431 C596.30834,417.903989 597.508875,418.04248 598.621337,418.467297 C598.621337,418.467297 598.914665,417.013313 597.023242,416.793781 C595.131819,416.57425 596.002444,417.222972 593.748455,416.857243 C592.403815,416.639582 591.172618,415.969459 590.256597,414.956674 C590.256597,414.956674 591.17307,414.724921 589.863623,410.046597 C589.863623,410.046597 590.31835,405.756567 596.586292,407.792522 C596.586292,407.792522 593.603429,404.200573 589.747602,406.288238 L589.747602,405.015237 L591.566512,401.506495 C591.566512,401.506495 590.548053,400.336914 590.03859,397.412962 C589.529127,394.48901 589.747602,393.464216 589.747602,393.464216 L590.111571,391.197918 L589.238606,390.832189 C589.238606,390.832189 588.802124,393.171351 588.074654,393.902339 L586.035398,390.833599 L587.271863,386.447201 L585.900663,386.447201 L584.83168,390.155731 C584.537616,391.175339 584.760379,392.27504 585.427691,393.098017 L587.562851,395.730514 C587.562851,395.730514 588.799785,397.996812 588.799785,399.604986 C588.799785,401.213159 589.745731,402.017481 587.999802,404.211855 C587.999802,404.211855 584.654841,399.569729 583.403405,399.112803 C582.151969,398.655876 581.806713,398.192369 581.806713,398.192369 L581.426837,399.333744 C582.638413,400.034975 583.655372,401.030666 584.384437,402.229491 C585.673768,404.28707 587.000992,404.592157 587.569869,405.963876 C588.138746,407.335595 588.214534,409.736339 588.214534,409.736339 C588.214534,409.736339 585.484298,406.230887 584.081286,405.354171 C582.678274,404.477456 582.14729,402.345603 581.616307,401.69641 C581.085324,401.047218 580.971642,402.344193 580.971642,402.344193 C580.971642,402.344193 579.720206,401.886796 579.381032,400.820165 C579.041857,399.753534 577.712294,398.267113 576.537113,397.581253 C575.361933,396.895394 575.757714,397.990231 576.554423,399.36195 C577.351132,400.733669 578.184799,400.505206 578.336843,402.105388 C578.488886,403.70557 580.938894,403.840015 580.938894,403.840015 C581.418035,404.639513 582.063966,405.325135 582.832189,405.849645 C584.083625,406.687813 587.572208,410.917202 587.572208,410.917202 C588.290036,412.147269 588.595724,413.576478 588.444237,414.994281 C588.328119,416.452092 588.315455,417.916361 588.406343,419.375979 C588.406343,419.375979 587.268589,416.937158 584.008773,415.336976 C580.748957,413.736794 581.729989,412.556871 578.545025,411.526437 C575.360062,410.496002 573.880794,410.383181 572.515676,409.468858 C571.150558,408.554535 570.998982,407.335125 569.558076,407.447476 L569.368606,409.209839 C569.368606,409.209839 570.733724,408.752443 570.733724,410.00899 L570.733724,410.456515 C570.733724,410.456515 572.324335,411.028143 573.805006,411.523616 C575.285677,412.01909 576.952544,412.704949 577.824572,412.704949 C578.696601,412.704949 580.251657,413.924359 580.896322,414.45791 C581.319809,414.820299 581.701452,415.229332 582.034076,415.67732 C582.034076,415.67732 578.657772,414.690134 578.051468,415.186548 C577.445165,415.682962 574.699958,416.267752 574.699958,416.267752 L575.760053,418.075243 C575.760053,418.075243 578.483272,416.060913 579.315536,416.327453 C580.147799,416.593994 581.186842,416.963013 581.754784,417.191476 C582.322725,417.41994 584.043392,417.088997 584.043392,417.088997 C584.043392,417.088997 587.495952,421.898475 587.723316,423.270194 C587.917486,424.522113 588.248204,425.748753 588.709495,426.927955 C589.392054,428.949337 588.783411,432.215983 588.859199,434.006552 C588.905982,435.102328 588.313245,438.179059 587.846354,440.40399 C586.709536,440.478734 582.394303,441.022156 579.648161,444.969492 C579.49242,445.204016 579.524892,445.516724 579.72546,445.71389 C579.926027,445.911056 580.237868,445.936821 580.467793,445.775224 C581.664493,444.919662 585.293424,442.440414 587.453848,442.222293 L587.451041,442.234515 C587.358293,442.652321 587.135227,443.029464 586.814329,443.311018 C586.206154,443.843629 585.176936,444.768294 584.51309,445.459794 C583.894623,446.104756 584.51309,446.350142 585.061382,446.44322 C585.413656,446.503391 586.058321,445.865481 586.310947,445.611163 C587.052518,444.872626 587.94703,444.307482 588.930777,443.95598 C590.864772,443.270121 590.942431,444.027434 592.005333,444.370128 C593.068235,444.712823 593.673603,445.094065 593.711497,444.560514 C593.762131,444.163899 593.877186,443.778319 594.052075,443.419139 C594.539922,443.537518 594.973069,443.819389 595.28012,444.21829 C596.000573,444.980304 596.05718,446.44369 596.05718,446.44369 L597.677263,446.44369 L597.578552,444.942226 L599.512547,446.085482 L600.801877,446.171509 C599.911522,445.253309 598.93728,444.421199 597.891996,443.686149 C596.513411,442.849969 595.050047,442.163837 593.526705,441.639383 L593.163204,432.282736 C593.163204,432.282736 599.690321,423.189339 603.764156,423.627932 L603.642521,421.682704 C603.642521,421.682704 596.933419,422.851815 592.721108,429.87024 C592.721108,429.87024 591.782648,426.653893 594.110553,424.826188 C596.438458,422.998483 600.803749,420.293592 601.458238,419.124011 C602.112728,417.95443 605.168571,415.322874 605.605053,413.787564 C606.041536,412.252254 608.951885,411.740797 610.844712,411.959858 L612.736135,412.17939 C612.736135,412.17939 613.517873,410.284462 610.244022,410.284462 Z" id="Path" fill="#FFE8C0" fill-rule="nonzero"></path>
                <path d="M94.1755715,410.284462 C90.9007851,410.284462 89.014976,409.985016 87.4996855,414.153293 C87.4996855,414.153293 83.8623335,419.051148 81.7524354,420.294062 C79.6425373,421.536977 76.4659944,423.51041 76.4659944,423.51041 L75.4232089,423.51041 C75.4232089,423.51041 74.1862753,417.515838 75.4232089,417.515838 C76.6601425,417.515838 77.3880807,418.393963 79.0605609,418.064431 C80.239889,417.903989 81.4404246,418.04248 82.5528867,418.467297 C82.5528867,418.467297 82.846214,417.013313 80.954791,416.793781 C79.0633679,416.57425 79.9339932,417.222972 77.6800045,416.857243 C76.3353643,416.639582 75.1041677,415.969459 74.1881466,414.956674 C74.1881466,414.956674 75.1046189,414.724921 73.7951722,410.046597 C73.7951722,410.046597 74.2498997,405.756567 80.5178409,407.792522 C80.5178409,407.792522 77.5349783,404.200573 73.6791512,406.288238 L73.6791512,405.015237 L75.4980611,401.506495 C75.4980611,401.506495 74.4796026,400.336914 73.9701394,397.412962 C73.4606762,394.48901 73.6791512,393.464216 73.6791512,393.464216 L74.0431203,391.197918 L73.1701558,390.832189 C73.1701558,390.832189 72.7336736,393.171351 72.0062032,393.902339 L69.9669469,390.833599 L71.2034127,386.447201 L69.8322128,386.447201 L68.763229,390.155731 C68.4691651,391.175339 68.6919286,392.27504 69.3592401,393.098017 L71.4944008,395.730514 C71.4944008,395.730514 72.7313344,397.996812 72.7313344,399.604986 C72.7313344,401.213159 73.6772799,402.017481 71.9313509,404.211855 C71.9313509,404.211855 68.5863905,399.569729 67.3349543,399.112803 C66.083518,398.655876 65.738262,398.192369 65.738262,398.192369 L65.3583868,399.333744 C66.5699626,400.034975 67.5869215,401.030666 68.3159867,402.229491 C69.6053169,404.28707 70.9325411,404.592157 71.5014182,405.963876 C72.0702954,407.335595 72.1460833,409.736339 72.1460833,409.736339 C72.1460833,409.736339 69.4158471,406.230887 68.0128351,405.354171 C66.609823,404.477456 66.0788398,402.345603 65.5478565,401.69641 C65.0168733,401.047218 64.9031914,402.344193 64.9031914,402.344193 C64.9031914,402.344193 63.6517552,401.886796 63.3125809,400.820165 C62.9734066,399.753534 61.6438433,398.267113 60.4686628,397.581253 C59.2934823,396.895394 59.6892636,397.990231 60.4859724,399.36195 C61.2826811,400.733669 62.1163482,400.505206 62.2683919,402.105388 C62.4204355,403.70557 64.8704436,403.840015 64.8704436,403.840015 C65.3495839,404.639513 65.9955157,405.325135 66.7637379,405.849645 C68.0151742,406.687813 71.5037574,410.917202 71.5037574,410.917202 C72.2215858,412.147269 72.5272731,413.576478 72.3757862,414.994281 C72.2596681,416.452092 72.2470048,417.916361 72.3378922,419.375979 C72.3378922,419.375979 71.2001379,416.937158 67.9403219,415.336976 C64.680506,413.736794 65.6615384,412.556871 62.4765747,411.526437 C59.291611,410.496002 57.8123432,410.383181 56.4472251,409.468858 C55.082107,408.554535 54.9305312,407.335125 53.4896251,407.447476 L53.3001554,409.209839 C53.3001554,409.209839 54.6652735,408.752443 54.6652735,410.00899 L54.6652735,410.456515 C54.6652735,410.456515 56.255884,411.028143 57.7365553,411.523616 C59.2172266,412.01909 60.8840929,412.704949 61.7561217,412.704949 C62.6281505,412.704949 64.1832063,413.924359 64.8278714,414.45791 C65.251358,414.820299 65.6330013,415.229332 65.9656257,415.67732 C65.9656257,415.67732 62.5893209,414.690134 61.9830176,415.186548 C61.3767143,415.682962 58.6315076,416.267752 58.6315076,416.267752 L59.6916028,418.075243 C59.6916028,418.075243 62.4148216,416.060913 63.2470852,416.327453 C64.0793487,416.593994 65.1183917,416.963013 65.6863332,417.191476 C66.2542747,417.41994 67.9749411,417.088997 67.9749411,417.088997 C67.9749411,417.088997 71.4275016,421.898475 71.6548654,423.270194 C71.8490357,424.522113 72.1797533,425.748753 72.6410439,426.927955 C73.323603,428.949337 72.7149605,432.215983 72.7907484,434.006552 C72.8375311,435.102328 72.2447947,438.179059 71.7779038,440.40399 C70.6410851,440.478734 66.3258522,441.022156 63.5797099,444.969492 C63.4239696,445.204016 63.4564416,445.516724 63.6570092,445.71389 C63.8575767,445.911056 64.1694171,445.936821 64.3993422,445.775224 C65.5960427,444.919662 69.2249738,442.440414 71.3853972,442.222293 L71.3825903,442.234515 C71.2898425,442.652321 71.0667765,443.029464 70.7458782,443.311018 C70.1377036,443.843629 69.108485,444.768294 68.444639,445.459794 C67.8261722,446.104756 68.444639,446.350142 68.9929318,446.44322 C69.3452053,446.503391 69.9898704,445.865481 70.2424968,445.611163 C70.9840669,444.872626 71.878579,444.307482 72.8623259,443.95598 C74.7963212,443.270121 74.8739804,444.027434 75.9368825,444.370128 C76.9997846,444.712823 77.6051523,445.094065 77.6430462,444.560514 C77.6936808,444.163899 77.808735,443.778319 77.983624,443.419139 C78.4714712,443.537518 78.9046185,443.819389 79.2116689,444.21829 C79.9321219,444.980304 79.988729,446.44369 79.988729,446.44369 L81.6088126,446.44369 L81.5101012,444.942226 L83.4440965,446.085482 L84.7334266,446.171509 C83.8430711,445.253309 82.8688292,444.421199 81.823545,443.686149 C80.4449602,442.849969 78.9815959,442.163837 77.4582547,441.639383 L77.0947534,432.282736 C77.0947534,432.282736 83.6218706,423.189339 87.6957049,423.627932 L87.5740699,421.682704 C87.5740699,421.682704 80.8649682,422.851815 76.6526573,429.87024 C76.6526573,429.87024 75.714197,426.653893 78.0421024,424.826188 C80.3700077,422.998483 84.735298,420.293592 85.3897874,419.124011 C86.0442769,417.95443 89.1001204,415.322874 89.5366027,413.787564 C89.9730849,412.252254 92.8834344,411.740797 94.7762609,411.959858 L96.667684,412.17939 C96.667684,412.17939 97.4494223,410.284462 94.1755715,410.284462 Z" id="Path-Copy-3" fill="#FFE8C0" fill-rule="nonzero"></path>
            </g>
        </g>
    </g>
</svg>