<?xml version="1.0" encoding="UTF-8"?>
<svg width="332px" height="150px" viewBox="0 0 332 150" version="1.1" xmlns="http://www.w3.org/2000/svg" xmlns:xlink="http://www.w3.org/1999/xlink">
    <title>E3EC855A-2F9E-4329-A75B-E199A86BE2D1@1.5x</title>
    <defs>
        <linearGradient x1="36.9708749%" y1="25.9063425%" x2="75.7552756%" y2="83.0013123%" id="linearGradient-1">
            <stop stop-color="#F774A5" offset="0%"></stop>
            <stop stop-color="#EC406C" offset="100%"></stop>
        </linearGradient>
    </defs>
    <g id="BrainGym-New-(As-per-Mobile)" stroke="none" stroke-width="1" fill="none" fill-rule="evenodd">
        <g id="Brain-gym-page---Updated-7" transform="translate(-545.000000, -146.000000)" fill-rule="nonzero">
            <g id="Group-2" transform="translate(489.000000, 106.000000)">
                <g id="Group-17" transform="translate(56.000000, 40.000000)">
                    <g id="undraw_treasure_of9i" transform="translate(165.864332, 75.500000) scale(-1, 1) translate(-165.864332, -75.500000) translate(0.364332, 1.000000)" fill="#FFE9E3" opacity="0.70719401">
                        <g id="Group-11">
                            <ellipse id="Oval" cx="111.415033" cy="127.869091" rx="108.710784" ry="21.1309091"></ellipse>
                            <path d="M24.8734885,122.743804 C24.8734885,122.743804 4.67860001,117.315743 0.868466253,117.716657 C-2.94166751,118.117571 6.64068128,99.1016688 13.0223604,101.420681 C19.4040396,103.739694 27.9129451,109.839875 32.776862,101.224155 C37.6407789,92.608434 40.3696053,87.9704092 46.2951694,88.4342117 C52.2207334,88.8980141 60.4268729,84.7277223 66.348505,88.4342117 C72.270137,92.140701 76.4302211,96.7119068 84.6088364,96.5153804 C92.7874517,96.3188539 100.541408,77.770685 106.911291,85.1915248 C113.281174,92.6123645 120.921102,99.400389 126.909578,96.9320165 C132.898055,94.463644 139.731917,98.1740638 145.201366,102.348286 C150.670815,106.522509 160.2453,104.667299 163.890288,101.420681 C167.535277,98.1740638 170.2759,95.8550514 178.021992,96.3109928 C185.768084,96.7669343 210.386503,102.340425 219.504872,109.28174 C228.623242,116.223055 207.653744,125.051025 197.623144,125.051025 C187.592545,125.051025 185.772016,127.83384 177.109762,132.008062 C168.447507,136.182284 154.304008,129.68905 144.289136,136.646087 C134.274264,143.603124 121.483382,132.935667 104.182465,136.646087 C86.8815478,140.356507 90.5068763,145.454404 80.4762765,141.755775 C70.4456767,138.057147 74.0945973,136.646087 59.5067787,135.726343 C44.9189601,134.806599 28.9667282,138.045355 27.598383,132.015923 C26.2300377,125.986491 17.1234642,124.595083 11.6500831,122.739873 C6.17670214,120.884663 24.8734885,122.743804 24.8734885,122.743804 Z" id="Path"></path>
                            <path d="M276.760338,72.1162074 L277.537199,71.6127112 L277.766373,71.4632357 C274.262779,70.8609284 271.64022,67.8785485 271.45393,64.2847117 C271.26764,60.690875 273.567445,57.4468265 276.989512,56.476357 L276.950669,59.6468095 L278.671416,56.1970739 L278.671416,56.1970739 C280.684422,56.102014 282.652261,56.8207162 284.141965,58.1950512 C285.63167,59.5693863 286.521192,61.4867575 286.614819,63.5253036 C286.614819,63.6747791 286.614819,63.8163874 286.614819,63.9619292 C287.221469,63.2938537 287.726763,62.5382314 288.114161,61.7197978 C288.84441,60.0716344 288.856063,58.2110587 288.801683,55.9453258 C288.685154,51.4610629 288.494823,46.9413979 288.246227,42.4335336 C284.534791,42.0177054 281.673376,38.9298266 281.49919,35.1525066 C281.487513,34.920577 281.487513,34.6881954 281.49919,34.4562658 C281.49919,34.3972623 281.49919,34.3382589 281.49919,34.283189 C281.49919,34.0589758 281.534149,33.8386963 281.569107,33.6184167 C281.567263,33.5830392 281.567263,33.5475879 281.569107,33.5122104 C281.596297,33.3273329 281.635141,33.146389 281.677868,32.9654451 C281.677868,32.8985745 281.712827,32.8317039 281.728364,32.7648333 C281.782744,32.5681551 281.841009,32.3714769 281.910926,32.1826658 C281.934232,32.1197288 281.957538,32.0607253 281.984728,31.9977883 C282.039108,31.85618 282.097373,31.7185053 282.159522,31.5808305 C282.190596,31.5100264 282.221671,31.4352887 282.256629,31.3644845 L282.283819,31.3094146 L282.283819,31.3094146 C283.942169,27.9963566 287.700133,26.354976 291.217721,27.4073191 L291.167225,31.5336278 L292.86855,28.1271614 C295.108642,29.433873 296.537432,31.8058545 296.659632,34.4208637 C296.691019,35.0875814 296.634853,35.7555679 296.492607,36.4073135 L296.492607,36.4073135 C296.492607,36.4623834 296.461532,36.5135198 296.449879,36.5685897 C296.438227,36.6236596 296.399384,36.773135 296.372193,36.8714741 C296.345003,36.9698132 296.298392,37.1271557 296.255664,37.2648305 C296.212937,37.4025052 296.193515,37.4536416 296.158557,37.5480471 C296.123598,37.6424526 296.045912,37.8155294 295.987647,37.9414035 C295.952688,38.0161412 295.921614,38.0948125 295.886655,38.1734838 C295.789548,38.370162 295.684671,38.5668402 295.572027,38.7556512 C295.533184,38.8225218 295.486572,38.8854588 295.447729,38.9483959 C295.366158,39.0742699 295.284588,39.2040775 295.195249,39.3417523 C295.10591,39.479427 295.082604,39.4912277 295.02434,39.5620318 C294.966075,39.632836 294.857314,39.7744443 294.767975,39.876717 C294.678636,39.9789896 294.639793,40.0183253 294.57376,40.0891294 C294.507727,40.1599336 294.387314,40.2858076 294.286322,40.3802132 L294.088222,40.5690242 L293.742519,40.860108 L293.563841,41.0017163 C293.381279,41.1354574 293.198716,41.2613315 293.004501,41.3950727 L292.89574,41.4580097 C292.735998,41.5569685 292.571346,41.6475596 292.402434,41.7294256 L292.184913,41.8277647 C292.048962,41.8907017 291.909127,41.9536388 291.765408,42.0047751 L291.516812,42.0952471 C291.376977,42.1463834 291.237142,42.1896526 291.093423,42.2289882 L290.837059,42.2958588 C290.681687,42.3351945 290.52243,42.366663 290.363174,42.3941979 L290.332099,42.3941979 C290.435681,44.2980429 290.528904,46.2005767 290.611769,48.1017993 C291.526254,46.1978731 293.175761,44.7602623 295.171103,44.1281591 C297.166444,43.4960559 299.330895,43.7254448 301.153773,44.7622034 L299.813688,48.4912221 L302.575428,45.8045979 C304.05622,47.1753706 304.939165,49.0853256 305.030309,51.1149093 C305.064715,51.8273802 304.999328,52.5411957 304.836094,53.2351002 C304.13237,56.3155947 301.638448,58.6459406 298.549859,59.1090226 C295.461269,59.5721045 292.407554,58.0735331 290.852596,55.3316898 C290.852596,55.5244345 290.852596,55.7250462 290.852596,55.9099238 C290.903092,57.9081743 290.965241,60.3941867 289.982512,62.5969825 C289.279623,64.0281304 288.332875,65.3224493 287.185812,66.4204067 C286.494406,67.1323818 285.779694,67.8207555 285.049445,68.4894614 C284.327011,69.4680095 283.385905,70.2592898 282.303241,70.7984634 C281.099106,71.737274 279.853539,72.6170812 278.56654,73.4378849 L277.894555,73.9335139 C277.172074,74.3898073 276.430172,74.8539679 275.703807,75.3377963 L276.092237,75.3063277 C279.395092,75.1499889 282.418574,77.1747693 283.569524,80.3137547 L278.822904,84.2473187 L284.047294,83.0200467 C284.037603,85.6583145 282.695759,88.1081742 280.490771,89.5133381 C278.285784,90.9185019 275.524191,91.0836226 273.17124,89.9509864 C273.291654,90.0965283 273.408183,90.2460037 273.524712,90.3954792 L274.216118,91.2687304 C277.323562,95.2337629 278.166456,98.99425 276.63604,101.861818 L274.775458,100.843025 C276.263147,98.0501947 274.025787,94.4785186 272.55752,92.5825408 C272.336115,92.2953906 272.106941,92.0082404 271.877767,91.7210902 C269.90454,89.2390114 267.66718,86.4225796 267.72156,82.9689104 C267.760403,77.7608717 272.751735,74.6297547 276.760338,72.1162074 Z" id="Path"></path>
                            <path d="M237.649245,67.5792602 L236.441134,66.8222459 C236.323078,66.7512758 236.208957,66.6763629 236.094835,66.60145 C241.404173,65.6896844 245.375161,61.2150358 245.657986,55.8253575 C245.940811,50.4356792 242.460038,45.5684915 237.275399,44.1039308 L237.334428,48.8628698 L234.725381,43.6859958 L234.693899,43.6859958 C231.640039,43.5436135 228.654817,44.6226243 226.395037,46.6856271 C224.135257,48.7486299 222.786054,51.6266095 222.644276,54.6863601 C222.644276,54.9071559 222.644276,55.124009 222.644276,55.3408621 C221.722605,54.336219 220.954754,53.200165 220.365788,51.9697827 C219.259993,49.5016006 219.240317,46.7061675 219.326891,43.2956603 C219.500041,36.5613871 219.791246,29.7758578 220.169027,23.0139851 C225.796026,22.3865597 230.133567,17.7548498 230.400582,12.0885337 C230.400582,11.7336832 230.400582,11.3867183 230.400582,11.0397534 L230.400582,10.7795297 C230.37697,10.4443932 230.345489,10.1131994 230.294331,9.78594846 C230.294331,9.7307495 230.294331,9.67949332 230.266784,9.62429436 C230.219562,9.34829956 230.160534,9.07624754 230.093635,8.80419552 C230.070024,8.70168316 230.046412,8.60311359 230.018866,8.50060123 C229.936226,8.20489252 229.849652,7.91706937 229.743401,7.62924621 C229.711919,7.53461942 229.672567,7.44393542 229.633215,7.34930863 C229.550576,7.13639835 229.464001,6.93137364 229.369556,6.72634893 C229.318398,6.61595101 229.271175,6.50949587 229.220018,6.40304073 C229.205308,6.37622949 229.192169,6.34858327 229.180666,6.32024229 L229.180666,6.32024229 C227.304615,2.61377253 223.584431,0.204178985 219.441012,0.0117896537 C218.159994,-0.0459348442 216.87825,0.108596575 215.647467,0.46915247 L215.722236,6.6632644 L213.144671,1.53764664 C208.786454,4.0289253 206.553647,9.07199307 207.635372,13.9810695 L207.635372,13.9810695 C207.635372,14.0599251 207.67866,14.1387808 207.698336,14.2215792 C207.733753,14.3753478 207.773105,14.5251735 207.812457,14.6749993 C207.851809,14.824825 207.930513,15.0692775 207.993477,15.2467028 C208.05644,15.424128 208.087922,15.5305831 208.143015,15.6685805 C208.217784,15.8736053 208.308294,16.0628588 208.398804,16.2718263 C208.449962,16.3901098 208.497184,16.5083933 208.552277,16.622734 C208.69788,16.9184427 208.855289,17.2102087 209.028438,17.494089 C209.087466,17.5966014 209.154365,17.6912282 209.217328,17.785855 C209.343255,17.9790513 209.465247,18.1801333 209.61085,18.3536157 C209.693489,18.4679564 209.783999,18.5744115 209.870574,18.6848095 C209.957148,18.7952074 210.126362,19.0041749 210.264095,19.1579434 L210.555301,19.4773088 C210.696968,19.6271346 210.842571,19.7730175 210.992109,19.9149577 L211.295121,20.1948953 C211.464335,20.3447211 211.64142,20.490604 211.822439,20.6286014 C211.912949,20.6995715 211.999524,20.7744844 212.093969,20.8454545 C212.365499,21.0465364 212.644899,21.2397328 212.936105,21.4132152 C212.991198,21.4487003 213.050226,21.4762998 213.105319,21.507842 C213.349302,21.6497822 213.597221,21.7877796 213.849074,21.9021203 L214.183567,22.0519461 C214.392134,22.1465728 214.6007,22.2372569 214.817137,22.3161125 C214.943064,22.3673687 215.06899,22.4107393 215.210658,22.4541099 C215.42316,22.52508 215.639596,22.5921073 215.856033,22.6512491 L216.249554,22.7537614 C216.489602,22.8089604 216.72965,22.8562738 216.969698,22.8996444 L217.016921,22.8996444 C216.854266,25.7542192 216.712598,28.608794 216.591918,31.4633688 C215.202811,28.6063808 212.699309,26.4497619 209.671768,25.5020684 C206.644226,24.5543749 203.360624,24.8994911 200.595276,26.4560346 L202.633716,32.0469007 L198.442714,28.0173766 C196.194425,30.0740839 194.855054,32.9423887 194.720002,35.9896836 C194.666644,37.0587481 194.764686,38.1299961 195.011208,39.1715094 C196.084058,43.7840108 199.860699,47.2715328 204.536388,47.967493 C209.212076,48.6634533 213.83751,46.4265513 216.202332,42.3257357 C216.202332,42.6175017 216.202332,42.9092676 216.174785,43.1970907 C216.100016,46.1975485 216.001636,49.9274211 217.493082,53.2590727 C218.504432,55.5182873 220.13361,57.3477386 221.739177,58.991879 C222.788567,60.064316 223.869439,61.0999536 224.981793,62.098792 C226.074006,63.5695196 227.499764,64.7588103 229.141313,65.5684409 C230.977746,66.9747001 232.869272,68.2889611 234.815891,69.5112238 L236.035807,70.2682381 C237.129797,70.9503396 238.255268,71.6521549 239.357127,72.377627 C239.164302,72.377627 238.963606,72.3381991 238.774716,72.3303136 C233.76336,72.0935021 229.175052,75.132745 227.429496,79.8452578 L234.627001,85.7160615 L226.705416,83.8787247 C226.713024,87.8475437 228.752134,91.5349937 232.106556,93.6459428 C235.460978,95.756892 239.661699,95.9961889 243.233312,94.279786 C243.052293,94.5005818 242.875208,94.7213777 242.698123,94.9461163 C242.343954,95.387708 241.989785,95.8253569 241.647421,96.259063 C236.960582,102.208722 235.658027,107.850845 237.975867,112.156364 L240.801351,110.630507 C238.542538,106.439328 241.938627,101.077144 244.165958,98.2541111 C244.500451,97.8243478 244.84675,97.3945845 245.196984,96.9608783 C248.191681,93.2349485 251.583835,89.0082852 251.493325,83.8274685 C251.3005,76.0562434 243.733085,71.3682746 237.649245,67.5792602 Z" id="Path"></path>
                            <path d="M180.079802,126.67699 C180.079802,126.67699 166.48181,123.019344 163.920154,123.286879 C161.358498,123.554414 167.805856,110.772618 172.100166,112.329913 C176.394475,113.887208 182.126769,117.992077 185.39956,112.198142 C188.67235,106.404207 190.507156,103.285624 194.502867,103.597083 C198.498579,103.908542 204.014783,101.101418 208.002637,103.597083 C211.99049,106.092748 214.787881,109.163413 220.296227,109.031642 C225.804573,108.899871 231.01825,96.4255408 235.312559,101.412877 C239.606869,106.400213 244.741967,110.972271 248.773039,109.311157 C252.804111,107.650042 257.416663,110.145707 261.090204,112.952831 C264.763744,115.759954 271.21503,114.514118 273.662748,112.329913 C276.110465,110.145707 277.960986,108.588412 283.178592,108.899871 C288.396197,109.21133 304.964453,112.952831 311.101426,117.632701 C317.238399,122.312572 303.12179,128.234285 296.371905,128.234285 C289.622021,128.234285 288.392269,130.107031 282.561751,132.914155 C276.731234,135.721279 267.219319,131.352867 260.469434,136.032738 C253.71955,140.712608 245.127002,133.537073 233.465967,136.032738 C221.804932,138.528402 224.260507,141.958444 217.506694,139.462779 C210.752881,136.967115 213.212384,136.032738 203.394013,135.40982 C193.575642,134.786902 182.833975,136.967115 181.910679,132.914155 C180.987383,128.861196 174.838623,127.922826 171.172941,126.67699 C167.507258,125.431154 180.079802,126.67699 180.079802,126.67699 Z" id="Path"></path>
                            <path d="M198.469099,131.009974 C198.469099,131.009974 184.870776,127.352224 182.309057,127.62376 C179.747339,127.895296 186.194854,115.105151 190.489268,116.666483 C194.783683,118.227815 200.516117,122.324815 203.788987,116.530715 C207.061857,110.736615 208.896708,107.621937 212.892517,107.933405 C216.888326,108.244873 222.404664,105.437669 226.392615,107.933405 C230.380566,110.42914 233.178025,113.4959 238.686506,113.364125 C244.194986,113.232351 249.40879,100.757666 253.707133,105.749137 C258.005477,110.740608 263.136771,115.304809 267.167941,113.647641 C271.199112,111.990473 275.811776,114.482215 279.481477,117.289418 C283.151178,120.096622 289.61048,118.846757 292.054328,116.666483 C294.498176,114.486208 296.348742,112.920883 301.566475,113.232351 C306.784208,113.543818 323.352868,117.289418 329.489991,121.965429 C335.627113,126.641439 321.514089,132.571307 314.76011,132.571307 C308.006132,132.571307 306.784208,134.440113 300.953549,137.247317 C295.122889,140.05452 285.606813,135.689978 278.856764,140.365988 C272.106714,145.041998 263.513957,137.874246 251.852638,140.365988 C240.191319,142.85773 242.646954,146.291863 235.896904,143.80012 C229.146855,141.308378 231.598561,140.365988 221.77995,139.743052 C211.96134,139.120117 201.219411,141.304385 200.300021,137.247317 C199.380631,133.190249 193.247437,132.259839 189.562021,131.009974 C185.876604,129.76011 198.469099,131.009974 198.469099,131.009974 Z" id="Path"></path>
                        </g>
                    </g>
                    <g id="noun_Karate_34782" opacity="0.5" transform="translate(268.364332, 108.000000)" fill="url(#linearGradient-1)">
                        <path d="M1.48346317,32.598546 C1.48346317,32.598546 6.70117725,24.5294363 12.8847096,20.9155926 C12.9486602,20.5277495 13.0142506,20.0117209 13.4651844,19.9476281 C13.9161182,19.8835354 15.075428,18.8498348 15.075428,18.8498348 C15.075428,18.8498348 9.27887887,16.3321411 9.8577139,15.3641766 C10.4381887,14.3962121 11.0809743,13.3641549 11.0809743,13.3641549 L13.3356434,13.8801835 C13.3356434,13.8801835 11.4040069,10.5243541 11.4040069,9.29673195 C11.4040069,8.06910975 12.4977264,6.1972735 14.10797,6.1972735 C15.7182136,6.1972735 16.4265896,5.93925919 16.6200812,6.1972735 C16.8135728,6.4552878 18.4238165,4.77737312 18.4238165,4.77737312 C18.4238165,4.77737312 18.0368333,4.85537536e-14 22.8036136,4.85537536e-14 C27.5703938,4.85537536e-14 27.3654239,2.9696296 27.3654239,2.9696296 L26.3996057,3.97046215 L26.1536418,3.09945845 C26.1536418,3.09945845 24.9287416,5.22930901 26.2831828,5.55305944 C27.6359842,5.87516647 27.8934264,4.58509495 31.2418149,5.74698102 C32.3355344,6.1989169 33.4308936,6.71494551 35.9430048,6.13482417 C36.4578892,6.06908805 41.2246695,6.78068163 43.6072398,6.97295981 C45.9914498,7.16688139 47.9870369,5.35913786 49.1463467,8.58678176 C49.4677395,9.49065352 48.0509875,10.6525396 47.4065621,10.6525396 C46.7621367,10.6525396 44.5714182,9.10281037 43.6056,9.10281037 C42.6397818,9.10281037 37.9369521,10.2646964 35.8118241,11.7486895 C35.3608903,11.6205041 30.2415617,11.4578072 29.9513243,11.7486895 C29.6610869,12.0395719 26.4733949,15.6862836 26.6029359,16.6542481 C27.1178203,17.5581199 28.4706217,19.8177993 29.4364399,20.0758136 C30.4022581,20.3338279 35.8774144,21.6896355 38.0681329,24.5294363 C37.8746413,25.433308 37.3597568,29.2410733 38.0681329,32.0167813 C38.2616245,32.4046244 38.6486077,33.2444035 37.6171991,33.7604321 C36.5874302,34.2764607 34.9115962,34.9880543 35.0411372,35.3101613 C35.1706782,35.6322683 37.038364,37.5698407 38.584657,37.5698407 C40.1293103,37.5698407 40.3883923,38.0217766 40.3883923,38.2797909 C40.3883923,38.5378052 40.4539826,39.2477554 38.8420993,39.2477554 C37.2318556,39.2477554 34.913236,38.4737125 34.4623022,38.4737125 C34.0113684,38.4737125 33.6243852,39.2477554 32.8520585,39.2477554 C32.0797319,39.2477554 31.1122739,38.7333702 31.1122739,37.8294984 C31.1122739,36.9256267 31.6927487,36.9256267 31.7566993,36.7317051 C31.8222897,36.5377835 32.0797319,35.6339118 32.0797319,35.4399902 C32.0797319,35.2460686 30.2120461,35.4399902 30.2120461,35.4399902 C30.2120461,35.4399902 31.5648475,27.4990659 31.5648475,27.2410516 C31.5648475,26.9830373 28.2804096,25.2410299 23.0626955,25.2410299 C17.8449814,25.2410299 12.8863493,27.6288947 12.1123829,28.7907808 C11.3400563,29.9526669 7.60304487,36.5377835 7.60304487,36.5377835 L6.05839161,35.6339118 C6.05839161,35.6339118 5.02698301,36.7957978 4.9630324,37.0538121 C4.89908178,37.3118264 5.09257338,37.6996696 5.47791682,38.2156982 C5.86326025,38.7317268 5.99280124,38.9256484 5.79930964,39.2477554 C5.60581804,39.5715058 3.86603343,40.0234417 3.41509962,39.959349 C2.96416581,39.8952563 0.0667111328,39.3134915 0.00112076091,38.2156982 C-0.064469611,37.1195483 2.77067422,35.1819759 2.77067422,35.1819759 L3.41509962,34.407933 L1.48346317,32.598546 Z" id="Path"></path>
                    </g>
                    <g id="noun_Karate_34782-Copy" opacity="0.5" transform="translate(38.364332, 117.500000) scale(-1, 1) translate(-38.364332, -117.500000) translate(13.364332, 97.000000)" fill="url(#linearGradient-1)">
                        <path d="M1.48346317,32.598546 C1.48346317,32.598546 6.70117725,24.5294363 12.8847096,20.9155926 C12.9486602,20.5277495 13.0142506,20.0117209 13.4651844,19.9476281 C13.9161182,19.8835354 15.075428,18.8498348 15.075428,18.8498348 C15.075428,18.8498348 9.27887887,16.3321411 9.8577139,15.3641766 C10.4381887,14.3962121 11.0809743,13.3641549 11.0809743,13.3641549 L13.3356434,13.8801835 C13.3356434,13.8801835 11.4040069,10.5243541 11.4040069,9.29673195 C11.4040069,8.06910975 12.4977264,6.1972735 14.10797,6.1972735 C15.7182136,6.1972735 16.4265896,5.93925919 16.6200812,6.1972735 C16.8135728,6.4552878 18.4238165,4.77737312 18.4238165,4.77737312 C18.4238165,4.77737312 18.0368333,4.85537536e-14 22.8036136,4.85537536e-14 C27.5703938,4.85537536e-14 27.3654239,2.9696296 27.3654239,2.9696296 L26.3996057,3.97046215 L26.1536418,3.09945845 C26.1536418,3.09945845 24.9287416,5.22930901 26.2831828,5.55305944 C27.6359842,5.87516647 27.8934264,4.58509495 31.2418149,5.74698102 C32.3355344,6.1989169 33.4308936,6.71494551 35.9430048,6.13482417 C36.4578892,6.06908805 41.2246695,6.78068163 43.6072398,6.97295981 C45.9914498,7.16688139 47.9870369,5.35913786 49.1463467,8.58678176 C49.4677395,9.49065352 48.0509875,10.6525396 47.4065621,10.6525396 C46.7621367,10.6525396 44.5714182,9.10281037 43.6056,9.10281037 C42.6397818,9.10281037 37.9369521,10.2646964 35.8118241,11.7486895 C35.3608903,11.6205041 30.2415617,11.4578072 29.9513243,11.7486895 C29.6610869,12.0395719 26.4733949,15.6862836 26.6029359,16.6542481 C27.1178203,17.5581199 28.4706217,19.8177993 29.4364399,20.0758136 C30.4022581,20.3338279 35.8774144,21.6896355 38.0681329,24.5294363 C37.8746413,25.433308 37.3597568,29.2410733 38.0681329,32.0167813 C38.2616245,32.4046244 38.6486077,33.2444035 37.6171991,33.7604321 C36.5874302,34.2764607 34.9115962,34.9880543 35.0411372,35.3101613 C35.1706782,35.6322683 37.038364,37.5698407 38.584657,37.5698407 C40.1293103,37.5698407 40.3883923,38.0217766 40.3883923,38.2797909 C40.3883923,38.5378052 40.4539826,39.2477554 38.8420993,39.2477554 C37.2318556,39.2477554 34.913236,38.4737125 34.4623022,38.4737125 C34.0113684,38.4737125 33.6243852,39.2477554 32.8520585,39.2477554 C32.0797319,39.2477554 31.1122739,38.7333702 31.1122739,37.8294984 C31.1122739,36.9256267 31.6927487,36.9256267 31.7566993,36.7317051 C31.8222897,36.5377835 32.0797319,35.6339118 32.0797319,35.4399902 C32.0797319,35.2460686 30.2120461,35.4399902 30.2120461,35.4399902 C30.2120461,35.4399902 31.5648475,27.4990659 31.5648475,27.2410516 C31.5648475,26.9830373 28.2804096,25.2410299 23.0626955,25.2410299 C17.8449814,25.2410299 12.8863493,27.6288947 12.1123829,28.7907808 C11.3400563,29.9526669 7.60304487,36.5377835 7.60304487,36.5377835 L6.05839161,35.6339118 C6.05839161,35.6339118 5.02698301,36.7957978 4.9630324,37.0538121 C4.89908178,37.3118264 5.09257338,37.6996696 5.47791682,38.2156982 C5.86326025,38.7317268 5.99280124,38.9256484 5.79930964,39.2477554 C5.60581804,39.5715058 3.86603343,40.0234417 3.41509962,39.959349 C2.96416581,39.8952563 0.0667111328,39.3134915 0.00112076091,38.2156982 C-0.064469611,37.1195483 2.77067422,35.1819759 2.77067422,35.1819759 L3.41509962,34.407933 L1.48346317,32.598546 Z" id="Path"></path>
                    </g>
                </g>
            </g>
        </g>
    </g>
</svg>