<?xml version="1.0" encoding="UTF-8"?>
<svg width="24px" height="24px" viewBox="0 0 24 24" version="1.1" xmlns="http://www.w3.org/2000/svg" xmlns:xlink="http://www.w3.org/1999/xlink">
    <title>Group 11</title>
    <g id="Page-1" stroke="none" stroke-width="1" fill="none" fill-rule="evenodd">
        <g id="My-Classes" transform="translate(-787.000000, -38.000000)">
            <g id="Header" transform="translate(290.000000, 20.000000)">
                <g id="Group-11" transform="translate(497.000000, 18.000000)">
                    <rect id="Rectangle" x="0" y="0" width="24" height="24"></rect>
                    <g id="calendar-(4)" transform="translate(2.400000, 3.200000)" fill="#454C4E" fill-rule="nonzero">
                        <path d="M17.9144107,1.56184923 L16.6597251,1.56184923 L16.6597251,0.567471887 C16.6597251,0.281132861 16.4254477,0.0468554769 16.1391087,0.0468554769 C15.8527697,0.0468554769 15.6184923,0.281132861 15.6184923,0.567471887 L15.6184923,1.56184923 L10.5164515,1.56184923 L10.5164515,0.567471887 C10.5164515,0.281132861 10.2821741,0.0468554769 9.99583507,0.0468554769 C9.70949604,0.0468554769 9.47521866,0.281132861 9.47521866,0.567471887 L9.47521866,1.56184923 L4.3211162,1.56184923 L4.3211162,0.567471887 C4.3211162,0.281132861 4.08683882,0.0468554769 3.80049979,0.0468554769 C3.51416077,0.0468554769 3.27988338,0.281132861 3.27988338,0.567471887 L3.27988338,1.56184923 L2.07725948,1.56184923 C0.931903374,1.56184923 0,2.52498959 0,3.67034569 L0,15.7746772 C0,16.9252395 0.926697209,17.8571429 2.07725948,17.8571429 L17.9092045,17.8571429 C19.0597668,17.8571429 19.9864857,16.9252395 19.9864857,15.7798834 L19.9864857,3.67034569 C19.9916701,2.52498959 19.0597668,1.56184923 17.9144107,1.56184923 Z M18.9504373,15.7746772 C18.9504373,16.3473553 18.4922949,16.8107039 17.9196168,16.81591 L17.9144107,16.81591 L2.07725948,16.81591 C1.50458142,16.81591 1.04123282,16.3525614 1.04123282,15.7798834 L1.04123282,15.7746772 L1.04123282,3.67034569 C1.04123282,3.09246147 1.50458142,2.60308205 2.07725948,2.60308205 L3.27988338,2.60308205 L3.27988338,3.35797584 C3.27988338,3.64431487 3.51416077,3.87859225 3.80049979,3.87859225 C4.08683882,3.87859225 4.3211162,3.64431487 4.3211162,3.35797584 L4.3211162,2.60308205 L9.47521866,2.60308205 L9.47521866,3.35797584 C9.47521866,3.64431487 9.70949604,3.87859225 9.99583507,3.87859225 C10.2821741,3.87859225 10.5164515,3.64431487 10.5164515,3.35797584 L10.5164515,2.60308205 L15.6184923,2.60308205 L15.6184923,3.35797584 C15.6184923,3.64431487 15.8527697,3.87859225 16.1391087,3.87859225 C16.4254477,3.87859225 16.6597251,3.64431487 16.6597251,3.35797584 L16.6597251,2.60308205 L17.9144107,2.60308205 C18.4922949,2.60308205 18.9504373,3.09766764 18.9504373,3.67034569 L18.9504373,15.7746772 Z" id="Shape"></path>
                        <path d="M8.62661391,5.98708871 L7.71553519,5.98708871 C7.42919617,5.98708871 7.19491878,6.2213661 7.19491878,6.50770512 C7.19491878,6.79404415 7.42919617,7.02832153 7.71553519,7.02832153 L8.62661391,7.02832153 C8.91295294,7.02832153 9.14723032,6.79404415 9.14723032,6.50770512 C9.14723032,6.2213661 8.91295294,5.98708871 8.62661391,5.98708871 Z" id="Path"></path>
                        <path d="M15.9048313,5.98708871 L14.9937526,5.98708871 C14.7074136,5.98708871 14.4731362,6.2213661 14.4731362,6.50770512 C14.4731362,6.79404415 14.7074136,7.02832153 14.9937526,7.02832153 L15.9048313,7.02832153 C16.1911703,7.02832153 16.4254477,6.79404415 16.4254477,6.50770512 C16.4254477,6.2213661 16.1911703,5.98708871 15.9048313,5.98708871 Z" id="Path"></path>
                        <path d="M4.97709288,9.57934194 L4.060808,9.57934194 C3.77446897,9.57934194 3.54019159,9.81361933 3.54019159,10.0999584 C3.54019159,10.3862974 3.77446897,10.6205748 4.060808,10.6205748 L4.97188671,10.6205748 C5.25822574,10.6205748 5.49250312,10.3862974 5.49250312,10.0999584 C5.49250312,9.81361933 5.2634319,9.57934194 4.97709288,9.57934194 Z" id="Path"></path>
                        <path d="M12.2501041,9.57934194 L11.3390254,9.57934194 C11.0526864,9.57934194 10.818409,9.81361933 10.818409,10.0999584 C10.818409,10.3862974 11.0526864,10.6205748 11.3390254,10.6205748 L12.2501041,10.6205748 C12.5364431,10.6205748 12.7707205,10.3862974 12.7707205,10.0999584 C12.7707205,9.81361933 12.5416493,9.57934194 12.2501041,9.57934194 Z" id="Path"></path>
                        <path d="M8.62661391,13.1195335 L7.71553519,13.1195335 C7.42919617,13.1195335 7.19491878,13.3538109 7.19491878,13.6401499 C7.19491878,13.926489 7.42919617,14.1607663 7.71553519,14.1607663 L8.62661391,14.1607663 C8.91295294,14.1607663 9.14723032,13.926489 9.14723032,13.6401499 C9.14723032,13.3538109 8.91295294,13.1195335 8.62661391,13.1195335 Z" id="Path"></path>
                    </g>
                </g>
            </g>
        </g>
    </g>
</svg>