<?xml version="1.0" encoding="UTF-8"?>
<svg width="45px" height="40px" viewBox="0 0 45 40" version="1.1" xmlns="http://www.w3.org/2000/svg" xmlns:xlink="http://www.w3.org/1999/xlink">
    <title>C50E13AC-F491-42E9-B628-2B188EBA2D98@1.5x</title>
    <g id="BrainGym-New-(As-per-Mobile)" stroke="none" stroke-width="1" fill="none" fill-rule="evenodd">
        <g id="Brain-gym-page----Updated-2" transform="translate(-1259.000000, -250.000000)" fill-rule="nonzero">
            <g id="Group-16-Copy-3" transform="translate(1259.000000, 247.000000)">
                <g id="calendar-(1)" transform="translate(0.000000, 3.000000)">
                    <path d="M41.2412289,40 L3.01050545,40 C1.36838454,40 0.0372646184,38.9351041 0.0372646184,37.6214073 L0.0372646184,34.3125471 L44.2144698,27.8903469 L44.2144698,37.6214073 C44.2144698,38.9351041 42.8832507,40 41.2412289,40 Z" id="Path" fill="#FFC975"></path>
                    <path d="M33.1526264,37.6214073 L3.01546085,37.6214073 C1.37066402,37.6214073 0.0372646184,36.5546878 0.0372646184,35.2388503 L0.0372646184,5.69466799 C0.0372646184,4.37883053 1.37066402,3.312111 3.01546085,3.312111 L41.2361744,3.312111 C42.8809713,3.312111 44.2143707,4.37883053 44.2143707,5.69466799 L44.2143707,28.7719326 C44.2143707,29.4038454 42.4139742,30.0098315 41.8554014,30.4566898 L35.2584737,35.7342319 C34.7000991,36.1810902 33.9425173,37.6214073 33.1526264,37.6214073 Z" id="Path" fill="#FFFFFF"></path>
                    <path d="M33.1387512,37.6214073 C33.9286422,37.6214073 34.6861249,37.3703865 35.2446977,36.9235282 L43.3421209,30.4455897 C43.9006938,29.9987314 44.2144698,29.3927453 44.2144698,28.7608325 L44.2144698,27.7955996 C44.2144698,28.8737364 43.122002,29.7477106 41.774331,29.7477106 L36.8125867,29.7477106 C35.4649158,29.7477106 34.372448,30.6216848 34.372448,31.6998216 L34.372448,35.669217 C34.372448,36.7473538 33.2799802,37.6214073 31.9323092,37.6214073 L33.1387512,37.6214073 L33.1387512,37.6214073 Z" id="Path" fill="#EFE2DD"></path>
                    <path d="M44.2140733,5.69038652 L44.2140733,11.8097126 L0.0376610505,11.8097126 L0.0376610505,5.69038652 C0.0376610505,4.37740337 1.36868186,3.31179386 3.01090188,3.31179386 L41.2408325,3.31179386 C42.8830525,3.31179386 44.2140733,4.37740337 44.2140733,5.69038652 Z" id="Path" fill="#FFE266"></path>
                    <g id="Group" transform="translate(4.658077, 3.250743)" fill="#FFCF00">
                        <path d="M3.79583746,4.21272547 C3.22874133,4.21272547 2.74727453,4.21248761 2.33696729,4.21248761 C1.09018831,4.21248761 0.0763131814,3.40138751 0.0763131814,2.40475719 L0.0763131814,0.0610505451 L1.5629336,0.0610505451 L1.5629336,2.40475719 C1.5629336,2.7456888 1.90981169,3.02319128 2.33696729,3.02319128 C2.74727453,3.02319128 4.2061447,4.21272547 3.79583746,4.21272547 Z" id="Path"></path>
                        <path d="M30.7985134,4.21272547 C30.7985134,4.21272547 29.7502478,4.21248761 29.3389495,4.21248761 C28.0931615,4.21248761 27.0792864,3.40138751 27.0792864,2.40475719 L27.0792864,0.0610505451 L28.5659068,0.0610505451 L28.5659068,2.40475719 C28.5659068,2.7456888 28.9127849,3.02319128 29.3389495,3.02319128 C29.7502478,3.02319128 30.7985134,3.88447968 30.7985134,4.21272547 Z" id="Path"></path>
                    </g>
                    <g id="Group" transform="translate(6.144698, 0.000000)" fill="#FDB441">
                        <path d="M3.42418236,3.312111 L3.42418236,1.80828543 C3.42418236,1.46695738 3.07710605,1.18929633 2.65044599,1.18929633 L2.30921705,1.18929633 C1.88255699,1.18929633 1.53548067,1.46695738 1.53548067,1.80828543 L1.53548067,5.65526264 C1.53548067,5.99659068 1.88255699,6.27425173 2.30921705,6.27425173 C2.7197225,6.27425173 3.05252725,6.54049554 3.05252725,6.8688999 C3.05252725,7.19730426 2.7197225,7.46354807 2.30921705,7.46354807 C1.06283449,7.46354807 0.0488602577,6.65236868 0.0488602577,5.65526264 L0.0488602577,1.80828543 C0.0488602577,0.811179386 1.06283449,-2.81681957e-16 2.30921705,-2.81681957e-16 L2.65044599,-2.81681957e-16 C3.89682854,-2.81681957e-16 4.91080278,0.811179386 4.91080278,1.80828543 L4.91080278,3.312111 L3.42418236,3.312111 Z" id="Path"></path>
                        <path d="M30.4268583,3.312111 L30.4268583,1.80828543 C30.4268583,1.46695738 30.079782,1.18929633 29.6531219,1.18929633 L29.311893,1.18929633 C28.8852329,1.18929633 28.5381566,1.46695738 28.5381566,1.80828543 L28.5381566,5.65526264 C28.5381566,5.99659068 28.8852329,6.27425173 29.311893,6.27425173 C29.7223984,6.27425173 30.0552032,6.54049554 30.0552032,6.8688999 C30.0552032,7.19730426 29.7223984,7.46354807 29.311893,7.46354807 C28.0655104,7.46354807 27.0515362,6.65236868 27.0515362,5.65526264 L27.0515362,1.80828543 C27.0515362,0.811179386 28.0655104,-2.81681957e-16 29.311893,-2.81681957e-16 L29.6531219,-2.81681957e-16 C30.8995045,-2.81681957e-16 31.9134787,0.811179386 31.9134787,1.80828543 L31.9134787,3.312111 L30.4268583,3.312111 Z" id="Path"></path>
                    </g>
                    <g id="Group" transform="translate(4.459861, 15.302279)" fill="#FFE266">
                        <g id="Path">
                            <path d="M4.28473736,4.03877106 L0.745193261,4.03877106 C0.354212091,4.03877106 0.0372646184,3.78521308 0.0372646184,3.47242815 L0.0372646184,0.640792864 C0.0372646184,0.328007929 0.354212091,0.0744499504 0.745193261,0.0744499504 L4.28473736,0.0744499504 C4.67571853,0.0744499504 4.99266601,0.328007929 4.99266601,0.640792864 L4.99266601,3.47242815 C4.99266601,3.78521308 4.67571853,4.03877106 4.28473736,4.03877106 Z"></path>
                            <path d="M14.3854311,4.03877106 L10.845887,4.03877106 C10.4549058,4.03877106 10.1379584,3.78521308 10.1379584,3.47242815 L10.1379584,0.640792864 C10.1379584,0.328007929 10.4549058,0.0744499504 10.845887,0.0744499504 L14.3854311,0.0744499504 C14.7764123,0.0744499504 15.0933598,0.328007929 15.0933598,0.640792864 L15.0933598,3.47242815 C15.0933598,3.78521308 14.7764123,4.03877106 14.3854311,4.03877106 Z"></path>
                            <path d="M24.4861249,4.03877106 L20.9465808,4.03877106 C20.5555996,4.03877106 20.2386521,3.78521308 20.2386521,3.47242815 L20.2386521,0.640792864 C20.2386521,0.328007929 20.5555996,0.0744499504 20.9465808,0.0744499504 L24.4861249,0.0744499504 C24.877106,0.0744499504 25.1940535,0.328007929 25.1940535,0.640792864 L25.1940535,3.47242815 C25.1940535,3.78521308 24.877106,4.03877106 24.4861249,4.03877106 Z"></path>
                            <path d="M34.5868186,4.03877106 L31.0472745,4.03877106 C30.6562934,4.03877106 30.3393459,3.78521308 30.3393459,3.47242815 L30.3393459,0.640792864 C30.3393459,0.328007929 30.6562934,0.0744499504 31.0472745,0.0744499504 L34.5868186,0.0744499504 C34.9777998,0.0744499504 35.2947473,0.328007929 35.2947473,0.640792864 L35.2947473,3.47242815 C35.2947473,3.78521308 34.9777998,4.03877106 34.5868186,4.03877106 Z"></path>
                        </g>
                        <g transform="translate(0.000000, 7.373637)" id="Path">
                            <path d="M4.28473736,4.02077304 L0.745193261,4.02077304 C0.354212091,4.02077304 0.0372646184,3.76721506 0.0372646184,3.45443013 L0.0372646184,0.622794846 C0.0372646184,0.310009911 0.354212091,0.0564519326 0.745193261,0.0564519326 L4.28473736,0.0564519326 C4.67571853,0.0564519326 4.99266601,0.310009911 4.99266601,0.622794846 L4.99266601,3.45443013 C4.99266601,3.76721506 4.67571853,4.02077304 4.28473736,4.02077304 Z"></path>
                            <path d="M14.3854311,4.02077304 L10.845887,4.02077304 C10.4549058,4.02077304 10.1379584,3.76721506 10.1379584,3.45443013 L10.1379584,0.622794846 C10.1379584,0.310009911 10.4549058,0.0564519326 10.845887,0.0564519326 L14.3854311,0.0564519326 C14.7764123,0.0564519326 15.0933598,0.310009911 15.0933598,0.622794846 L15.0933598,3.45443013 C15.0933598,3.76721506 14.7764123,4.02077304 14.3854311,4.02077304 Z"></path>
                            <path d="M24.4861249,4.02077304 L20.9465808,4.02077304 C20.5555996,4.02077304 20.2386521,3.76721506 20.2386521,3.45443013 L20.2386521,0.622794846 C20.2386521,0.310009911 20.5555996,0.0564519326 20.9465808,0.0564519326 L24.4861249,0.0564519326 C24.877106,0.0564519326 25.1940535,0.310009911 25.1940535,0.622794846 L25.1940535,3.45443013 C25.1940535,3.76721506 24.877106,4.02077304 24.4861249,4.02077304 Z"></path>
                        </g>
                        <path d="M34.5868186,11.5709812 L31.0472745,11.5709812 C30.6562934,11.5709812 30.3393459,11.3174232 30.3393459,11.0046383 L30.3393459,8.17300297 C30.3393459,7.86021804 30.6562934,7.60666006 31.0472745,7.60666006 L34.5868186,7.60666006 C34.9777998,7.60666006 35.2947473,7.86021804 35.2947473,8.17300297 L35.2947473,11.0046383 C35.2947473,11.3174232 34.9777998,11.5709812 34.5868186,11.5709812 Z" id="Path"></path>
                        <g transform="translate(0.000000, 14.747275)" id="Path">
                            <path d="M4.28473736,4.00277502 L0.745193261,4.00277502 C0.354212091,4.00277502 0.0372646184,3.74921705 0.0372646184,3.43643211 L0.0372646184,0.604796829 C0.0372646184,0.292011893 0.354212091,0.0384539148 0.745193261,0.0384539148 L4.28473736,0.0384539148 C4.67571853,0.0384539148 4.99266601,0.292011893 4.99266601,0.604796829 L4.99266601,3.43643211 C4.99266601,3.74921705 4.67571853,4.00277502 4.28473736,4.00277502 Z"></path>
                            <path d="M14.3854311,4.00277502 L10.845887,4.00277502 C10.4549058,4.00277502 10.1379584,3.74921705 10.1379584,3.43643211 L10.1379584,0.604796829 C10.1379584,0.292011893 10.4549058,0.0384539148 10.845887,0.0384539148 L14.3854311,0.0384539148 C14.7764123,0.0384539148 15.0933598,0.292011893 15.0933598,0.604796829 L15.0933598,3.43643211 C15.0933598,3.74921705 14.7764123,4.00277502 14.3854311,4.00277502 Z"></path>
                            <path d="M24.4861249,4.00277502 L20.9465808,4.00277502 C20.5555996,4.00277502 20.2386521,3.74921705 20.2386521,3.43643211 L20.2386521,0.604796829 C20.2386521,0.292011893 20.5555996,0.0384539148 20.9465808,0.0384539148 L24.4861249,0.0384539148 C24.877106,0.0384539148 25.1940535,0.292011893 25.1940535,0.604796829 L25.1940535,3.43643211 C25.1940535,3.74921705 24.877106,4.00277502 24.4861249,4.00277502 Z"></path>
                        </g>
                    </g>
                </g>
            </g>
        </g>
    </g>
</svg>