<?xml version="1.0" encoding="UTF-8"?>
<svg width="46px" height="42px" viewBox="0 0 46 42" version="1.1" xmlns="http://www.w3.org/2000/svg" xmlns:xlink="http://www.w3.org/1999/xlink">
    <title>calendar</title>
    <g id="Page-1" stroke="none" stroke-width="1" fill="none" fill-rule="evenodd">
        <g id="My-Classes" transform="translate(-319.000000, -1240.000000)" fill="#697B81" fill-rule="nonzero" stroke="#FFFFFF">
            <g id="Group-19" transform="translate(290.000000, 833.000000)">
                <g id="Group-18-Copy" transform="translate(0.000000, 326.000000)">
                    <g id="Group-16-Copy-2" transform="translate(30.000000, 79.000000)">
                        <g id="calendar" transform="translate(0.000000, 3.000000)">
                            <path d="M12.4675325,19.3939394 L9.6969697,19.3939394 C8.97974026,19.3939394 8.3982684,19.9754113 8.3982684,20.6926407 C8.3982684,21.4098701 8.97974026,21.991342 9.6969697,21.991342 L12.4675325,21.991342 C13.1847619,21.991342 13.7662338,21.4098701 13.7662338,20.6926407 C13.7662338,19.9754113 13.1847619,19.3939394 12.4675325,19.3939394 Z" id="Path"></path>
                            <path d="M12.4675325,24.9350649 L9.6969697,24.9350649 C8.97974026,24.9350649 8.3982684,25.5165368 8.3982684,26.2337662 C8.3982684,26.9509957 8.97974026,27.5324675 9.6969697,27.5324675 L12.4675325,27.5324675 C13.1847619,27.5324675 13.7662338,26.9509957 13.7662338,26.2337662 C13.7662338,25.5165368 13.1847619,24.9350649 12.4675325,24.9350649 Z" id="Path"></path>
                            <path d="M12.4675325,30.4761905 L9.6969697,30.4761905 C8.97974026,30.4761905 8.3982684,31.0576623 8.3982684,31.7748918 C8.3982684,32.4921212 8.97974026,33.0735931 9.6969697,33.0735931 L12.4675325,33.0735931 C13.1847619,33.0735931 13.7662338,32.4921212 13.7662338,31.7748918 C13.7662338,31.0576623 13.1847619,30.4761905 12.4675325,30.4761905 Z" id="Path"></path>
                            <path d="M23.5497835,19.3939394 L20.7792208,19.3939394 C20.0619913,19.3939394 19.4805195,19.9754113 19.4805195,20.6926407 C19.4805195,21.4098701 20.0619913,21.991342 20.7792208,21.991342 L23.5497835,21.991342 C24.267013,21.991342 24.8484848,21.4098701 24.8484848,20.6926407 C24.8484848,19.9754113 24.267013,19.3939394 23.5497835,19.3939394 Z" id="Path"></path>
                            <path d="M23.5497835,24.9350649 L20.7792208,24.9350649 C20.0619913,24.9350649 19.4805195,25.5165368 19.4805195,26.2337662 C19.4805195,26.9509957 20.0619913,27.5324675 20.7792208,27.5324675 L23.5497835,27.5324675 C24.267013,27.5324675 24.8484848,26.9509957 24.8484848,26.2337662 C24.8484848,25.5165368 24.267013,24.9350649 23.5497835,24.9350649 Z" id="Path"></path>
                            <path d="M23.5497835,30.4761905 L20.7792208,30.4761905 C20.0619913,30.4761905 19.4805195,31.0576623 19.4805195,31.7748918 C19.4805195,32.4921212 20.0619913,33.0735931 20.7792208,33.0735931 L23.5497835,33.0735931 C24.267013,33.0735931 24.8484848,32.4921212 24.8484848,31.7748918 C24.8484848,31.0576623 24.267013,30.4761905 23.5497835,30.4761905 Z" id="Path"></path>
                            <path d="M34.6320346,19.3939394 L31.8614719,19.3939394 C31.1442424,19.3939394 30.5627706,19.9754113 30.5627706,20.6926407 C30.5627706,21.4098701 31.1442424,21.991342 31.8614719,21.991342 L34.6320346,21.991342 C35.3492641,21.991342 35.9307359,21.4098701 35.9307359,20.6926407 C35.9307359,19.9754113 35.3492641,19.3939394 34.6320346,19.3939394 Z" id="Path"></path>
                            <path d="M34.6320346,24.9350649 L31.8614719,24.9350649 C31.1442424,24.9350649 30.5627706,25.5165368 30.5627706,26.2337662 C30.5627706,26.9509957 31.1442424,27.5324675 31.8614719,27.5324675 L34.6320346,27.5324675 C35.3492641,27.5324675 35.9307359,26.9509957 35.9307359,26.2337662 C35.9307359,25.5165368 35.3492641,24.9350649 34.6320346,24.9350649 Z" id="Path"></path>
                            <path d="M34.6320346,30.4761905 L31.8614719,30.4761905 C31.1442424,30.4761905 30.5627706,31.0576623 30.5627706,31.7748918 C30.5627706,32.4921212 31.1442424,33.0735931 31.8614719,33.0735931 L34.6320346,33.0735931 C35.3492641,33.0735931 35.9307359,32.4921212 35.9307359,31.7748918 C35.9307359,31.0576623 35.3492641,30.4761905 34.6320346,30.4761905 Z" id="Path"></path>
                            <path d="M40.4329004,3.46320346 L37.3160173,3.46320346 L37.3160173,1.2987013 C37.3160173,0.581471861 36.7345455,0 36.017316,0 C35.3000866,0 34.7186147,0.581471861 34.7186147,1.2987013 L34.7186147,3.46320346 L23.4632035,3.46320346 L23.4632035,1.2987013 C23.4632035,0.581471861 22.8817316,0 22.1645022,0 C21.4472727,0 20.8658009,0.581471861 20.8658009,1.2987013 L20.8658009,3.46320346 L9.61038961,3.46320346 L9.61038961,1.2987013 C9.61038961,0.581471861 9.02891775,0 8.31168831,0 C7.59445887,0 7.01298701,0.581471861 7.01298701,1.2987013 L7.01298701,3.46320346 L3.8961039,3.46320346 C1.74779221,3.46320346 0,5.21099567 0,7.35930736 L0,36.1038961 C0,38.2522078 1.74779221,40 3.8961039,40 L40.4329004,40 C42.5812121,40 44.3290043,38.2522078 44.3290043,36.1038961 C44.3290043,35.2656277 44.3290043,8.08874459 44.3290043,7.35930736 C44.3290043,5.21099567 42.5812121,3.46320346 40.4329004,3.46320346 Z M2.5974026,7.35930736 C2.5974026,6.64320346 3.18,6.06060606 3.8961039,6.06060606 L7.01298701,6.06060606 L7.01298701,8.22510823 C7.01298701,8.94233766 7.59445887,9.52380952 8.31168831,9.52380952 C9.02891775,9.52380952 9.61038961,8.94233766 9.61038961,8.22510823 L9.61038961,6.06060606 L20.8658009,6.06060606 L20.8658009,8.22510823 C20.8658009,8.94233766 21.4472727,9.52380952 22.1645022,9.52380952 C22.8817316,9.52380952 23.4632035,8.94233766 23.4632035,8.22510823 L23.4632035,6.06060606 L34.7186147,6.06060606 L34.7186147,8.22510823 C34.7186147,8.94233766 35.3000866,9.52380952 36.017316,9.52380952 C36.7345455,9.52380952 37.3160173,8.94233766 37.3160173,8.22510823 L37.3160173,6.06060606 L40.4329004,6.06060606 C41.1490043,6.06060606 41.7316017,6.64320346 41.7316017,7.35930736 L41.7316017,12.4675325 L2.5974026,12.4675325 L2.5974026,7.35930736 Z M40.4329004,37.4025974 L3.8961039,37.4025974 C3.18,37.4025974 2.5974026,36.82 2.5974026,36.1038961 L2.5974026,15.0649351 L41.7316017,15.0649351 L41.7316017,36.1038961 C41.7316017,36.82 41.1490043,37.4025974 40.4329004,37.4025974 Z" id="Shape"></path>
                        </g>
                    </g>
                </g>
            </g>
        </g>
    </g>
</svg>