<?xml version="1.0" encoding="UTF-8"?>
<svg width="45px" height="40px" viewBox="0 0 45 40" version="1.1" xmlns="http://www.w3.org/2000/svg" xmlns:xlink="http://www.w3.org/1999/xlink">
    <title>D866AFCD-8DD5-4DC6-AE38-459167CB5F7D@1.5x</title>
    <g id="BrainGym-New-(As-per-Mobile)" stroke="none" stroke-width="1" fill="none" fill-rule="evenodd">
        <g id="Brain-gym-page---Updated-9" transform="translate(-80.000000, -262.000000)" fill-rule="nonzero">
            <g id="Group-2" transform="translate(50.000000, 219.000000)">
                <g id="Group-11" transform="translate(30.037265, 40.000000)">
                    <g id="calendar-(1)" transform="translate(0.000000, 3.000000)">
                        <path d="M41.2039643,40 L2.97324083,40 C1.33111992,40 0,38.9351041 0,37.6214073 L0,34.3125471 L44.1772052,27.8903469 L44.1772052,37.6214073 C44.1772052,38.9351041 42.8459861,40 41.2039643,40 Z" id="Path" fill="#FFC975"></path>
                        <path d="M33.1153617,37.6214073 L2.97819623,37.6214073 C1.33339941,37.6214073 0,36.5546878 0,35.2388503 L0,5.69466799 C0,4.37883053 1.33339941,3.312111 2.97819623,3.312111 L41.1989098,3.312111 C42.8437066,3.312111 44.177106,4.37883053 44.177106,5.69466799 L44.177106,28.7719326 C44.177106,29.4038454 42.3767096,30.0098315 41.8181368,30.4566898 L35.2212091,35.7342319 C34.6628345,36.1810902 33.9052527,37.6214073 33.1153617,37.6214073 Z" id="Path" fill="#FFFFFF"></path>
                        <path d="M33.1014866,37.6214073 C33.8913776,37.6214073 34.6488603,37.3703865 35.2074331,36.9235282 L43.3048563,30.4455897 C43.8634291,29.9987314 44.1772052,29.3927453 44.1772052,28.7608325 L44.1772052,27.7955996 C44.1772052,28.8737364 43.0847374,29.7477106 41.7370664,29.7477106 L36.7753221,29.7477106 C35.4276511,29.7477106 34.3351833,30.6216848 34.3351833,31.6998216 L34.3351833,35.669217 C34.3351833,36.7473538 33.2427156,37.6214073 31.8950446,37.6214073 L33.1014866,37.6214073 L33.1014866,37.6214073 Z" id="Path" fill="#EFE2DD"></path>
                        <path d="M44.1768087,5.69038652 L44.1768087,11.8097126 L0.000396432111,11.8097126 L0.000396432111,5.69038652 C0.000396432111,4.37740337 1.33141724,3.31179386 2.97363726,3.31179386 L41.2035679,3.31179386 C42.8457879,3.31179386 44.1768087,4.37740337 44.1768087,5.69038652 Z" id="Path" fill="#FFE266"></path>
                        <g id="Group" transform="translate(4.697126, 3.311794)" fill="#FFCF00">
                            <path d="M3.71952428,4.15167493 C3.15242815,4.15167493 2.67096135,4.15143707 2.26065411,4.15143707 C1.01387512,4.15143707 0,3.34033697 0,2.34370664 L0,0 L1.48662042,0 L1.48662042,2.34370664 C1.48662042,2.68463826 1.83349851,2.96214073 2.26065411,2.96214073 C2.67096135,2.96214073 4.12983152,4.15167493 3.71952428,4.15167493 Z" id="Path"></path>
                            <path d="M30.7222002,4.15167493 C30.7222002,4.15167493 29.6739346,4.15143707 29.2626363,4.15143707 C28.0168484,4.15143707 27.0029732,3.34033697 27.0029732,2.34370664 L27.0029732,0 L28.4895937,0 L28.4895937,2.34370664 C28.4895937,2.68463826 28.8364718,2.96214073 29.2626363,2.96214073 C29.6739346,2.96214073 30.7222002,3.82342914 30.7222002,4.15167493 Z" id="Path"></path>
                        </g>
                        <g id="Group" transform="translate(6.156293, 0.000000)" fill="#FDB441">
                            <path d="M3.3753221,3.312111 L3.3753221,1.80828543 C3.3753221,1.46695738 3.02824579,1.18929633 2.60158573,1.18929633 L2.26035679,1.18929633 C1.83369673,1.18929633 1.48662042,1.46695738 1.48662042,1.80828543 L1.48662042,5.65526264 C1.48662042,5.99659068 1.83369673,6.27425173 2.26035679,6.27425173 C2.67086224,6.27425173 3.003667,6.54049554 3.003667,6.8688999 C3.003667,7.19730426 2.67086224,7.46354807 2.26035679,7.46354807 C1.01397423,7.46354807 0,6.65236868 0,5.65526264 L0,1.80828543 C0,0.811179386 1.01397423,0 2.26035679,0 L2.60158573,0 C3.84796829,0 4.86194252,0.811179386 4.86194252,1.80828543 L4.86194252,3.312111 L3.3753221,3.312111 Z" id="Path"></path>
                            <path d="M30.377998,3.312111 L30.377998,1.80828543 C30.377998,1.46695738 30.0309217,1.18929633 29.6042616,1.18929633 L29.2630327,1.18929633 C28.8363726,1.18929633 28.4892963,1.46695738 28.4892963,1.80828543 L28.4892963,5.65526264 C28.4892963,5.99659068 28.8363726,6.27425173 29.2630327,6.27425173 C29.6735382,6.27425173 30.0063429,6.54049554 30.0063429,6.8688999 C30.0063429,7.19730426 29.6735382,7.46354807 29.2630327,7.46354807 C28.0166501,7.46354807 27.0026759,6.65236868 27.0026759,5.65526264 L27.0026759,1.80828543 C27.0026759,0.811179386 28.0166501,0 29.2630327,0 L29.6042616,0 C30.8506442,0 31.8646184,0.811179386 31.8646184,1.80828543 L31.8646184,3.312111 L30.377998,3.312111 Z" id="Path"></path>
                        </g>
                        <g id="Group" transform="translate(4.459861, 15.376729)" fill="#FFE266">
                            <g id="Path">
                                <path d="M4.24747275,3.96432111 L0.707928642,3.96432111 C0.316947473,3.96432111 0,3.71076313 0,3.3979782 L0,0.566342914 C0,0.253557978 0.316947473,0 0.707928642,0 L4.24747275,0 C4.63845391,0 4.95540139,0.253557978 4.95540139,0.566342914 L4.95540139,3.3979782 C4.95540139,3.71076313 4.63845391,3.96432111 4.24747275,3.96432111 Z"></path>
                                <path d="M14.3481665,3.96432111 L10.8086224,3.96432111 C10.4176412,3.96432111 10.1006938,3.71076313 10.1006938,3.3979782 L10.1006938,0.566342914 C10.1006938,0.253557978 10.4176412,0 10.8086224,0 L14.3481665,0 C14.7391477,0 15.0560951,0.253557978 15.0560951,0.566342914 L15.0560951,3.3979782 C15.0560951,3.71076313 14.7391477,3.96432111 14.3481665,3.96432111 Z"></path>
                                <path d="M24.4488603,3.96432111 L20.9093162,3.96432111 C20.518335,3.96432111 20.2013875,3.71076313 20.2013875,3.3979782 L20.2013875,0.566342914 C20.2013875,0.253557978 20.518335,0 20.9093162,0 L24.4488603,0 C24.8398414,0 25.1567889,0.253557978 25.1567889,0.566342914 L25.1567889,3.3979782 C25.1567889,3.71076313 24.8398414,3.96432111 24.4488603,3.96432111 Z"></path>
                                <path d="M34.549554,3.96432111 L31.0100099,3.96432111 C30.6190287,3.96432111 30.3020813,3.71076313 30.3020813,3.3979782 L30.3020813,0.566342914 C30.3020813,0.253557978 30.6190287,0 31.0100099,0 L34.549554,0 C34.9405352,0 35.2574827,0.253557978 35.2574827,0.566342914 L35.2574827,3.3979782 C35.2574827,3.71076313 34.9405352,3.96432111 34.549554,3.96432111 Z"></path>
                            </g>
                            <g transform="translate(0.000000, 7.355639)" id="Path">
                                <path d="M4.24747275,3.96432111 L0.707928642,3.96432111 C0.316947473,3.96432111 0,3.71076313 0,3.3979782 L0,0.566342914 C0,0.253557978 0.316947473,0 0.707928642,0 L4.24747275,0 C4.63845391,0 4.95540139,0.253557978 4.95540139,0.566342914 L4.95540139,3.3979782 C4.95540139,3.71076313 4.63845391,3.96432111 4.24747275,3.96432111 Z"></path>
                                <path d="M14.3481665,3.96432111 L10.8086224,3.96432111 C10.4176412,3.96432111 10.1006938,3.71076313 10.1006938,3.3979782 L10.1006938,0.566342914 C10.1006938,0.253557978 10.4176412,0 10.8086224,0 L14.3481665,0 C14.7391477,0 15.0560951,0.253557978 15.0560951,0.566342914 L15.0560951,3.3979782 C15.0560951,3.71076313 14.7391477,3.96432111 14.3481665,3.96432111 Z"></path>
                                <path d="M24.4488603,3.96432111 L20.9093162,3.96432111 C20.518335,3.96432111 20.2013875,3.71076313 20.2013875,3.3979782 L20.2013875,0.566342914 C20.2013875,0.253557978 20.518335,0 20.9093162,0 L24.4488603,0 C24.8398414,0 25.1567889,0.253557978 25.1567889,0.566342914 L25.1567889,3.3979782 C25.1567889,3.71076313 24.8398414,3.96432111 24.4488603,3.96432111 Z"></path>
                            </g>
                            <path d="M34.549554,11.4965312 L31.0100099,11.4965312 C30.6190287,11.4965312 30.3020813,11.2429732 30.3020813,10.9301883 L30.3020813,8.09855302 C30.3020813,7.78576809 30.6190287,7.53221011 31.0100099,7.53221011 L34.549554,7.53221011 C34.9405352,7.53221011 35.2574827,7.78576809 35.2574827,8.09855302 L35.2574827,10.9301883 C35.2574827,11.2429732 34.9405352,11.4965312 34.549554,11.4965312 Z" id="Path"></path>
                            <g transform="translate(0.000000, 14.711278)" id="Path">
                                <path d="M4.24747275,3.96432111 L0.707928642,3.96432111 C0.316947473,3.96432111 0,3.71076313 0,3.3979782 L0,0.566342914 C0,0.253557978 0.316947473,0 0.707928642,0 L4.24747275,0 C4.63845391,0 4.95540139,0.253557978 4.95540139,0.566342914 L4.95540139,3.3979782 C4.95540139,3.71076313 4.63845391,3.96432111 4.24747275,3.96432111 Z"></path>
                                <path d="M14.3481665,3.96432111 L10.8086224,3.96432111 C10.4176412,3.96432111 10.1006938,3.71076313 10.1006938,3.3979782 L10.1006938,0.566342914 C10.1006938,0.253557978 10.4176412,0 10.8086224,0 L14.3481665,0 C14.7391477,0 15.0560951,0.253557978 15.0560951,0.566342914 L15.0560951,3.3979782 C15.0560951,3.71076313 14.7391477,3.96432111 14.3481665,3.96432111 Z"></path>
                                <path d="M24.4488603,3.96432111 L20.9093162,3.96432111 C20.518335,3.96432111 20.2013875,3.71076313 20.2013875,3.3979782 L20.2013875,0.566342914 C20.2013875,0.253557978 20.518335,0 20.9093162,0 L24.4488603,0 C24.8398414,0 25.1567889,0.253557978 25.1567889,0.566342914 L25.1567889,3.3979782 C25.1567889,3.71076313 24.8398414,3.96432111 24.4488603,3.96432111 Z"></path>
                            </g>
                        </g>
                    </g>
                </g>
            </g>
        </g>
    </g>
</svg>