<?xml version="1.0" encoding="UTF-8"?>
<svg width="50px" height="50px" viewBox="0 0 50 50" version="1.1" xmlns="http://www.w3.org/2000/svg" xmlns:xlink="http://www.w3.org/1999/xlink">
    <title>F53A4DE9-E204-4F88-AE8F-FB6A6F7A6CD7@1.5x</title>
    <g id="BrainGym-New-(As-per-Mobile)" stroke="none" stroke-width="1" fill="none" fill-rule="evenodd">
        <g id="Brain-gym-page---Updated-4" transform="translate(-489.000000, -580.000000)" fill-rule="nonzero">
            <g id="Group-2" transform="translate(393.000000, 154.000000)">
                <g id="Group-3" transform="translate(56.000000, 406.000000)">
                    <g id="Group" transform="translate(40.000000, 20.000000)">
                        <g id="Path">
                            <path d="M41.4813767,48.1530273 L41.4813767,5.96074219 C41.4813767,4.940625 40.3181227,4.11376953 38.8831499,4.11376953 L2.59808945,4.11376953 C1.16311655,4.11376953 0,4.94072266 0,5.96074219 L0,48.1530273 C0,49.1731445 1.16325392,50 2.59808945,50 L38.8832872,50 C40.3181227,50 41.4813767,49.1730469 41.4813767,48.1530273 L41.4813767,48.1530273 Z" fill="#FFC250"></path>
                            <path d="M47.4017732,4.11367188 L38.7063539,4.11367188 C40.1413268,4.11367188 41.3045808,4.940625 41.3045808,5.96064453 L41.3045808,48.1529297 C41.3045808,49.1730469 40.1413268,49.9999023 38.7063539,49.9999023 L47.4017732,49.9999023 C48.8367461,49.9999023 50,49.1729492 50,48.1529297 L50,5.96074219 C50,4.940625 48.8367461,4.11367188 47.4017732,4.11367188 Z" fill="#FFE266"></path>
                            <path d="M4.2465362,46.3208984 L4.2465362,7.79277344 C4.2465362,7.428125 4.66235689,7.13261719 5.1751612,7.13261719 L44.8247014,7.13261719 C45.3376431,7.13261719 45.7533264,7.42822266 45.7533264,7.79277344 L45.7533264,46.3208984 C45.7533264,46.6855469 45.3375057,46.9810547 44.8247014,46.9810547 L5.1751612,46.9810547 C4.66221952,46.9810547 4.2465362,46.6855469 4.2465362,46.3208984 Z" fill="#FFFFFF"></path>
                            <path d="M44.8247014,7.13261719 L36.1292822,7.13261719 C36.6422239,7.13261719 37.0579072,7.42822266 37.0579072,7.79277344 L37.0579072,46.3208984 C37.0579072,46.6855469 36.6420865,46.9810547 36.1292822,46.9810547 L44.8247014,46.9810547 C45.3376431,46.9810547 45.7533264,46.6854492 45.7533264,46.3208984 L45.7533264,7.79277344 C45.7533264,7.42822266 45.3376431,7.13261719 44.8247014,7.13261719 Z" fill="#FFFAE3"></path>
                            <path d="M30.5193431,2.29863281 L30.5193431,1.32626953 C30.5193431,0.593847656 29.6841301,0 28.6537135,0 L21.3460117,0 C20.3155951,0 19.4803821,0.593847656 19.4803821,1.32626953 L19.4803821,2.29863281 C19.4803821,2.59814453 19.1387415,2.84101562 18.717426,2.84101562 L15.6760417,2.84101562 C14.6643076,2.84101562 13.8440679,3.42412109 13.8440679,4.14335937 L13.8440679,7.13261719 L36.1556573,7.13261719 L36.1556573,4.14335937 C36.1556573,3.42412109 35.3354177,2.84101562 34.3236835,2.84101562 L31.2822993,2.84101562 C30.8609837,2.84101562 30.5193431,2.59814453 30.5193431,2.29863281 L30.5193431,2.29863281 Z" fill="#E2A67D"></path>
                        </g>
                        <g transform="translate(9.648359, 10.870117)" id="Path">
                            <g fill="#FFC250">
                                <path d="M0,6.98066406 L0,1.16640625 C0,0.522265625 0.734657769,0 1.640754,0 L9.81952255,0 C10.7256188,0 11.4602766,0.522265625 11.4602766,1.16640625 L11.4602766,6.98066406 C11.4602766,7.62480469 10.7256188,8.14707031 9.81952255,8.14707031 L1.640754,8.14707031 C0.734520398,8.14707031 0,7.62480469 0,6.98066406 Z"></path>
                                <path d="M0,19.0939453 L0,13.2796875 C0,12.6355469 0.734657769,12.1132813 1.640754,12.1132813 L9.81952255,12.1132813 C10.7256188,12.1132813 11.4602766,12.6355469 11.4602766,13.2796875 L11.4602766,19.0939453 C11.4602766,19.7380859 10.7256188,20.2603516 9.81952255,20.2603516 L1.640754,20.2603516 C0.734520398,20.2603516 0,19.7380859 0,19.0939453 Z"></path>
                                <path d="M0,31.2071289 L0,25.3928711 C0,24.7487305 0.734657769,24.2264648 1.640754,24.2264648 L9.81952255,24.2264648 C10.7256188,24.2264648 11.4602766,24.7487305 11.4602766,25.3928711 L11.4602766,31.2071289 C11.4602766,31.8512695 10.7256188,32.3735352 9.81952255,32.3735352 L1.640754,32.3735352 C0.734520398,32.3735352 0,31.8513672 0,31.2071289 Z"></path>
                            </g>
                            <path d="M5.03779064,6.15566406 C5.03655431,6.15566406 5.03545534,6.15566406 5.03421901,6.15566406 C4.56564802,6.15488281 4.12125425,5.99355469 3.84527679,5.72431641 L2.60591957,4.51435547 C2.26084472,4.17744141 2.36524635,3.70546875 2.83917479,3.46015625 C3.31310323,3.21494141 3.97701516,3.28916016 4.32195264,3.62597656 L5.04053805,4.32763672 L7.14162081,2.29833984 C7.48916833,1.96269531 8.15349237,1.89101563 8.62549762,2.13798828 C9.09764025,2.38496094 9.19860761,2.85732422 8.85106009,3.19296875 L6.2256339,5.72861328 C5.94883221,5.99609375 5.50485055,6.15566406 5.03779064,6.15566406 L5.03779064,6.15566406 Z" fill="#F6F9F9"></path>
                            <path d="M5.03765327,18.5325195 C5.03627957,18.5325195 5.03504323,18.5325195 5.0338069,18.5325195 C4.56523591,18.5316406 4.12084214,18.3704102 3.84500205,18.1009766 L2.60591957,16.8912109 C2.26084472,16.5542969 2.36524635,16.0823242 2.83917479,15.8370117 C3.31310323,15.5917969 3.97701516,15.6660156 4.32195264,16.002832 L5.04053805,16.7044922 L7.14162081,14.6751953 C7.48916833,14.3396484 8.15349237,14.2678711 8.62549762,14.5148438 C9.09764025,14.7618164 9.19860761,15.2341797 8.85106009,15.5698242 L6.2256339,18.1054688 C5.94883221,18.3731445 5.50485055,18.5325195 5.03765327,18.5325195 Z" fill="#F6F9F9"></path>
                            <path d="M5.03765327,30.3823242 C5.03641694,30.3823242 5.0351806,30.3823242 5.03408164,30.3822266 C4.56564802,30.3814453 4.12111688,30.2202148 3.84527679,29.9510742 L2.60591957,28.740918 C2.26084472,28.4040039 2.36538372,27.9321289 2.83931216,27.6868164 C3.31351534,27.4415039 3.97715253,27.515918 4.32209001,27.8527344 L5.04053805,28.5542969 L7.14175818,26.525 C7.4893057,26.1894531 8.15362974,26.1176758 8.625635,26.3646484 C9.09777762,26.6116211 9.19874498,27.0839844 8.85119746,27.4196289 L6.22577127,29.9552734 C5.94869484,30.2227539 5.50485055,30.3823242 5.03765327,30.3823242 L5.03765327,30.3823242 Z" fill="#F6F9F9"></path>
                        </g>
                        <g transform="translate(25.332368, 12.612598)" fill="#FFC975" id="Path">
                            <path d="M14.1822743,1.50898437 L1.06132497,1.50898437 C0.475164776,1.50898437 0,1.17119141 0,0.754492187 C0,0.337792969 0.475164776,0 1.06132497,0 L14.1822743,0 C14.7684344,0 15.2435992,0.337792969 15.2435992,0.754492187 C15.2435992,1.17119141 14.7684344,1.50898437 14.1822743,1.50898437 Z"></path>
                            <path d="M7.62186829,4.66201172 L1.06146234,4.66201172 C0.475302147,4.66201172 0.000137370562,4.32421875 0.000137370562,3.90751953 C0.000137370562,3.49082031 0.475302147,3.15302734 1.06146234,3.15302734 L7.62186829,3.15302734 C8.20802849,3.15302734 8.68319326,3.49082031 8.68319326,3.90751953 C8.68319326,4.32421875 8.20802849,4.66201172 7.62186829,4.66201172 Z"></path>
                        </g>
                        <g transform="translate(25.332505, 24.725879)" fill="#FFC975" id="Path">
                            <path d="M9.86485484,1.50898438 L1.06132497,1.50898438 C0.475164776,1.50898438 0,1.17119141 0,0.754492188 C0,0.337792969 0.475164776,0 1.06132497,0 L9.86485484,0 C10.451015,0 10.9261798,0.337792969 10.9261798,0.754492188 C10.9261798,1.17119141 10.451015,1.50898438 9.86485484,1.50898438 Z"></path>
                            <path d="M7.62173092,4.66201172 L1.06132497,4.66201172 C0.475164776,4.66201172 0,4.32421875 0,3.90751953 C0,3.49082031 0.475164776,3.15302734 1.06132497,3.15302734 L7.62173092,3.15302734 C8.20789111,3.15302734 8.68305589,3.49082031 8.68305589,3.90751953 C8.68305589,4.32421875 8.20789111,4.66201172 7.62173092,4.66201172 Z"></path>
                        </g>
                    </g>
                </g>
            </g>
        </g>
    </g>
</svg>