<?xml version="1.0" encoding="UTF-8"?>
<svg width="50px" height="50px" viewBox="0 0 50 50" version="1.1" xmlns="http://www.w3.org/2000/svg" xmlns:xlink="http://www.w3.org/1999/xlink">
    <title>Chest open</title>
    <g id="Symbols" stroke="none" stroke-width="1" fill="none" fill-rule="evenodd">
        <g id="Practice-test-/-Header" transform="translate(-1041.000000, -92.000000)" fill-rule="nonzero">
            <g id="Group-4" transform="translate(793.000000, 81.000000)">
                <g id="Group-20" transform="translate(33.000000, 11.000000)">
                    <g id="treasure-(1)" transform="translate(215.000000, 0.000000)">
                        <path d="M49.9999983,9.48257441 L49.9999983,10.3446961 L-1.74595448e-06,10.3446961 L-1.74595448e-06,9.48257441 C-0.00152587891,6.96754453 0.997161914,4.55474854 2.77595518,2.77595518 C4.55474854,0.997161914 6.96754453,-0.00152587891 9.48257441,-1.74595448e-06 L40.5174256,-1.74595448e-06 C43.0328369,-0.00152587891 45.4452515,0.997161914 47.2240448,2.77595518 C49.0028381,4.55474854 50.0015259,6.96754453 49.9999983,9.48257441 Z" id="Path" fill="#E57E25"></path>
                        <polygon id="Path" fill="#805333" points="6.03446963 24.1378784 0 10.3446961 24.9706269 9.05189512 50 10.3446961 43.9655304 24.1378784"></polygon>
                        <polygon id="Path" fill="#802F34" points="9.67140195 24.300003 12.4732971 22.0863342 14.169693 23.3448028 14.8708344 25.7808686"></polygon>
                        <path d="M30.172348,24.1378784 L48.1552124,24.1378784 C48.6320496,24.1382599 49.0875244,24.3358612 49.4140625,24.6833801 C49.7406006,25.0312805 49.9088287,25.4981994 49.8794556,25.9742736 L48.3791352,48.387909 C48.3203888,49.2927551 47.5704193,49.9973297 46.6636658,50 L3.33633418,50 C2.42958066,49.9973297 1.67961123,49.2927551 1.62086484,48.387909 L0.120544434,25.9742736 C0.0911712891,25.4981994 0.259780859,25.0312805 0.5859375,24.6833801 C0.912475586,24.3358612 1.36795039,24.1382599 1.8447876,24.1378784 L30.172348,24.1378784 Z" id="Path" fill="#FCA834"></path>
                        <path d="M20.7260132,25.25177 L19.8791504,20.4242706 L18.4482574,16.9914246 C20.3170776,16.5809631 22.2248077,16.3757324 24.1378784,16.3791105 C25.2677918,16.3768769 26.3961792,16.4459229 27.5173187,16.5863037 L29.9308777,25.25177 L20.7260132,25.25177 Z" id="Path" fill="#FFE783"></path>
                        <polygon id="Path" fill="#CC4B4C" points="18.258667 21.3619232 17.741394 24.1378784 13.5688781 24.1378784 12.6464844 23.3535767 12.6464844 23.3448028 13.1896973 20.4223633 15.9999848 19.4309234 18.2498932 21.3619232"></polygon>
                        <polygon id="Path" fill="#804537" points="31.25 17.3080673 31.2606089 17.2636337 31.375 17.3412704"></polygon>
                        <path d="M26.7242432,29.3102265 C26.7242432,30.2623749 25.9521484,31.0344696 25,31.0344696 C24.0478516,31.0344696 23.2757568,30.2623749 23.2757568,29.3102265 C23.2757568,28.358078 24.0478516,27.5863647 25,27.5863647 C25.9521484,27.5863647 26.7242432,28.358078 26.7242432,29.3102265 L26.7242432,29.3102265 Z" id="Path" fill="#2C2F38"></path>
                        <path d="M19.827652,24.1378784 L19.827652,31.0344696 C19.827652,33.8912964 22.1431732,36.2068176 25,36.2068176 C27.8568268,36.2068176 30.172348,33.8912964 30.172348,31.0344696 L30.172348,24.1378784 L19.827652,24.1378784 Z M25,31.0344696 C24.0478516,31.0344696 23.2757568,30.2623749 23.2757568,29.3102265 C23.2757568,28.358078 24.0478516,27.5863647 25,27.5863647 C25.9521484,27.5863647 26.7242432,28.358078 26.7242432,29.3102265 C26.7211914,30.2612305 25.951004,31.0317993 25,31.0344696 Z" id="Shape" fill="#F3D55B"></path>
                        <path d="M21.1551666,34.4825744 L5.87081914,34.4825744 L5.58624268,30.2326202 C5.56945801,29.9938202 5.6529999,29.7588349 5.81626895,29.5837402 C5.97991943,29.4086456 6.20880127,29.3098449 6.44836426,29.3102254 L19.827652,29.3102254 L19.827652,31.0344696 C19.8246002,32.3093414 20.2983856,33.5391998 21.1551666,34.4825744 L21.1551666,34.4825744 Z" id="Path" fill="#AF8066"></path>
                        <path d="M44.1291809,34.4825744 L43.7843322,39.6553039 L6.21566777,39.6553039 L5.87081914,34.4825744 L21.1551666,34.4825744 C22.1321105,35.5796814 23.5309601,36.2068176 25,36.2068176 C26.4690399,36.2068176 27.8678895,35.5796814 28.8448334,34.4825744 L44.1291809,34.4825744 Z" id="Path" fill="#805333"></path>
                        <path d="M43.7843322,39.6553039 L43.4913635,44.0258026 C43.4597016,44.4782257 43.0828095,44.8287964 42.629242,44.8276547 L7.37075801,44.8276547 C6.91719053,44.8287964 6.54029844,44.4782257 6.50863652,44.0258026 L6.21566777,39.6553039 L43.7843322,39.6553039 Z" id="Path" fill="#AF8066"></path>
                        <path d="M44.4137573,30.2326202 L44.1291809,34.4825744 L28.8448334,34.4825744 C29.7016144,33.5391998 30.1753998,32.3093414 30.172348,31.0344696 L30.172348,29.3102254 L43.5516357,29.3102254 C43.7911987,29.3098449 44.0200806,29.4086456 44.1837311,29.5837402 C44.3470001,29.7588349 44.430542,29.9938202 44.4137573,30.2326202 L44.4137573,30.2326202 Z" id="Path" fill="#AF8066"></path>
                        <path d="M14.6553039,-1.74595448e-06 C11.0431671,-1.74595448e-06 7.87086484,1.15509033 6.0256958,3.44810488 C5.21774297,4.44450381 4.68063359,5.63201904 4.46548457,6.89659121 C4.35981748,7.46498105 4.3079376,8.04252627 4.31022646,8.62083438 L4.31022646,10.3446961 L-1.74595448e-06,10.3446961 L-1.74595448e-06,9.48257441 C-0.00152587891,6.96754453 0.997161914,4.55474854 2.77595518,2.77595518 C4.55474854,0.997161914 6.96754453,-0.00152587891 9.48257441,-1.74595448e-06 L14.6553039,-1.74595448e-06 Z" id="Path" fill="#FCA834"></path>
                        <path d="M50.0000017,9.48257441 L50.0000017,10.3446961 L45.6897735,10.3446961 L45.6897735,8.62083438 C45.6920624,8.04252627 45.6401825,7.46498105 45.5345154,6.89659121 C45.3193664,5.63201904 44.782257,4.44450381 43.9743042,3.44810488 C42.1291352,1.15509033 38.9568329,-1.74595448e-06 35.3446961,-1.74595448e-06 L40.5174256,-1.74595448e-06 C43.0328369,-0.00152587891 45.4452515,0.997161914 47.2240448,2.77595518 C49.0028381,4.55474854 50.0015259,6.96754453 50.0000017,9.48257441 L50.0000017,9.48257441 Z" id="Path" fill="#FCA834"></path>
                        <path d="M45.6898461,8.62083437 L45.6898461,10.3446961 L4.31015393,10.3446961 L4.31015393,8.62083437 C4.3079376,8.04252627 4.35981748,7.46498105 4.46548457,6.89659121 L45.5345154,6.89659121 C45.6401825,7.46498105 45.6920624,8.04252627 45.6898461,8.62083437 Z" id="Path" fill="#CB8252"></path>
                        <path d="M45.5345154,6.89659121 L4.46548457,6.89659121 C4.68063359,5.63201904 5.21774297,4.44450381 6.0256958,3.44810488 L43.9743042,3.44810488 C44.782257,4.44450381 45.3193664,5.63201904 45.5345154,6.89659121 Z" id="Path" fill="#805333"></path>
                        <path d="M25,33.6208344 C24.5239258,33.6208344 24.1378784,33.234787 24.1378784,32.7587128 L24.1378784,31.0344696 C24.1378784,30.5583954 24.5239258,30.172348 25,30.172348 C25.4760742,30.172348 25.8621216,30.5583954 25.8621216,31.0344696 L25.8621216,32.7587128 C25.8621216,33.234787 25.4760742,33.6208344 25,33.6208344 Z" id="Path" fill="#2C2F38"></path>
                        <polygon id="Path" fill="#E64C3C" points="41.8190002 23.500061 37.8536225 21.1551666 36.7759705 16.9567108 37.4397277 17.3446655 40.7325744 19.2932129"></polygon>
                        <polygon id="Path" fill="#CC4B4C" points="35.4484559 16.1724091 31.2587738 17.2584533 27.2930146 14.9139404 31.4914703 13.8362885 34.7930908 15.7844543"></polygon>
                        <polygon id="Path" fill="#FB7B76" points="37.8536225 21.1551666 31.3705444 17.3274994 31.3533783 17.319107 31.2587738 17.2584533 35.4484559 16.1724091 35.4568481 16.1724091 36.7759705 16.9567108"></polygon>
                        <polygon id="Path" fill="#FF5364" points="31.2587738 17.2584533 31.25 17.2931671 29.9308777 24.1378784 28.5171509 24.1378784 27.5173188 16.5863037 27.2930146 14.9139404"></polygon>
                        <polygon id="Path" fill="#CC4B4C" points="37.8536225 21.1551666 34.2674256 24.1378784 29.9308777 24.1378784 31.25 17.2931671 31.3533783 17.319107 31.3705444 17.3274994"></polygon>
                        <polygon id="Path" fill="#802F34" points="41.8190002 23.500061 40.1809692 24.1378784 34.2674256 24.1378784 37.8536225 21.1551666"></polygon>
                        <polygon id="Path" fill="#802F34" points="22.0172882 20.0344086 21.2585449 24.1378784 17.741394 24.1378784 18.258667 21.3619232"></polygon>
                        <polygon id="Path" fill="#E64C3C" points="22.0172882 20.0344086 18.258667 21.3619232 18.2498932 21.3619232 15.9999848 19.4309234 16.7240143 15.5174256 18.4482574 16.9914246"></polygon>
                        <polygon id="Path" fill="#FB7B76" points="16.7240143 15.5174256 15.9999848 19.4309234 13.1896973 20.4223633 10.1638794 17.83638"></polygon>
                        <polygon id="Path" fill="#FF5364" points="13.1896973 20.4223633 12.6464844 23.3448028 10.4053497 24.1378784 9.00001523 24.1378784 9.59472656 20.9136963 10.1638794 17.83638"></polygon>
                    </g>
                </g>
            </g>
        </g>
    </g>
</svg>