<?xml version="1.0" encoding="UTF-8"?>
<svg width="417px" height="216px" viewBox="0 0 417 216" version="1.1" xmlns="http://www.w3.org/2000/svg" xmlns:xlink="http://www.w3.org/1999/xlink">
    <title>Group 26</title>
    <g id="Page-1" stroke="none" stroke-width="1" fill="none" fill-rule="evenodd">
        <g id="My-Students-(Details)-Copy" transform="translate(-647.000000, -593.000000)" stroke="#E9E9E9">
            <g id="Group-26" transform="translate(647.000000, 593.000000)">
                <path d="M208,164.5 C221.669048,164.5 234.044048,170.040476 243.001786,178.998214 C251.959524,187.955952 257.5,200.330952 257.5,214 C257.5,214.502103 257.492526,215.002461 257.477682,215.500968 L257.477682,215.500968 L158.522318,215.500968 C158.507474,215.002461 158.5,214.502103 158.5,214 C158.5,200.330952 164.040476,187.955952 172.998214,178.998214 C181.955952,170.040476 194.330952,164.5 208,164.5 Z" id="Combined-Shape"></path>
                <path d="M208.121594,110.5 C236.183622,110.5 261.589021,121.874384 279.978912,140.264276 C298.368804,158.654167 309.743188,184.059566 309.743188,212.121594 C309.743188,213.25225 309.724725,214.378593 309.688083,215.500339 L309.688083,215.500339 L106.555105,215.500339 C106.518463,214.378593 106.5,213.25225 106.5,212.121594 C106.5,184.059566 117.874384,158.654167 136.264276,140.264276 C154.654167,121.874384 180.059566,110.5 208.121594,110.5 Z" id="Combined-Shape-Copy"></path>
                <path d="M208.291581,60.5 C249.655384,60.5 287.103279,77.2659938 314.210224,104.372938 C341.317169,131.479883 358.083162,168.927778 358.083162,210.291581 C358.083162,212.03466 358.053392,213.770784 357.99433,215.499475 L357.99433,215.499475 L58.5888325,215.499475 C58.5297709,213.770784 58.5,212.03466 58.5,210.291581 C58.5,168.927778 75.2659938,131.479883 102.372938,104.372938 C129.479883,77.2659938 166.927778,60.5 208.291581,60.5 Z" id="Combined-Shape-Copy-2"></path>
                <path d="M208.095566,0.5 C265.421498,0.5 317.32039,23.7359252 354.887798,61.3033334 C392.455206,98.8707417 415.691131,150.769633 415.691131,208.095566 C415.691131,210.573759 415.64771,213.041811 415.561585,215.499002 L415.561585,215.499002 L0.629546259,215.499002 C0.543421611,213.041811 0.5,210.573759 0.5,208.095566 C0.5,150.769633 23.7359252,98.8707417 61.3033334,61.3033334 C98.8707417,23.7359252 150.769633,0.5 208.095566,0.5 Z" id="Combined-Shape-Copy-3"></path>
            </g>
        </g>
    </g>
</svg>