<?xml version="1.0" encoding="UTF-8"?>
<svg width="50px" height="50px" viewBox="0 0 50 50" version="1.1" xmlns="http://www.w3.org/2000/svg" xmlns:xlink="http://www.w3.org/1999/xlink">
    <title>clock</title>
    <g id="Symbols" stroke="none" stroke-width="1" fill="none" fill-rule="evenodd">
        <g id="Practice-test-/-Header" transform="translate(-826.000000, -92.000000)" fill="#454C4E" fill-rule="nonzero">
            <g id="Group-4" transform="translate(793.000000, 81.000000)">
                <g id="clock" transform="translate(33.000000, 11.000000)">
                    <path d="M42.6777344,7.32226562 C37.9557617,2.60048828 31.6777344,0 25,0 C18.3222656,0 12.0441406,2.60048828 7.32226562,7.32226562 C2.60048828,12.0441406 -5.55111512e-15,18.3222656 -5.55111512e-15,25 C-5.55111512e-15,31.6777344 2.60048828,37.9558594 7.32226562,42.6777344 C12.0441406,47.3995117 18.3222656,50 25,50 C31.6777344,50 37.9557617,47.3995117 42.6777344,42.6777344 C47.3995117,37.9558594 50,31.6777344 50,25 C50,18.3222656 47.3995117,12.0441406 42.6777344,7.32226562 Z M41.6418945,41.6418945 C37.1966797,46.0871094 31.2865234,48.5351562 25,48.5351562 C18.7134766,48.5351562 12.8033203,46.0871094 8.35810547,41.6418945 C3.91289062,37.1966797 1.46484375,31.2865234 1.46484375,25 C1.46484375,18.7134766 3.91289062,12.8033203 8.35810547,8.35810547 C12.8033203,3.91289062 18.7134766,1.46484375 25,1.46484375 C31.2865234,1.46484375 37.1966797,3.91289062 41.6418945,8.35810547 C46.0871094,12.8033203 48.5351562,18.7134766 48.5351562,25 C48.5351562,31.2865234 46.0871094,37.1966797 41.6418945,41.6418945 Z" id="Shape"></path>
                    <path d="M32.8240234,43.521582 C30.5699219,44.475 28.1875,44.9992187 25.7324219,45.0864258 L25.7324219,42.5191406 C25.7324219,42.1146484 25.4044922,41.7867187 25,41.7867187 C24.5955078,41.7867187 24.2675781,42.1146484 24.2675781,42.5191406 L24.2675781,45.0861328 C19.2770508,44.9064453 14.7450195,42.8991211 11.3213867,39.7143555 L13.1299805,37.9057617 C13.4160156,37.6197266 13.4160156,37.155957 13.1299805,36.8699219 C12.8439453,36.5838867 12.3801758,36.5838867 12.0941406,36.8699219 L10.2855469,38.6785156 C7.10078125,35.2549805 5.09355469,30.7229492 4.91386719,25.7324219 L7.48095703,25.7324219 C7.88544922,25.7324219 8.21337891,25.4044922 8.21337891,25 C8.21337891,24.5955078 7.88544922,24.2675781 7.48095703,24.2675781 L4.91357422,24.2675781 C5.08955078,19.3916016 7.01669922,14.8158203 10.2773438,11.3130859 L12.0942383,13.1299805 C12.237207,13.2730469 12.424707,13.3445312 12.6121094,13.3445312 C12.7995117,13.3445312 12.9870117,13.2730469 13.1299805,13.1300781 C13.4160156,12.844043 13.4160156,12.3802734 13.1299805,12.0942383 L11.3136719,10.2779297 C12.1202148,9.52890625 12.9927734,8.83886719 13.9293945,8.21972656 C14.2667969,7.99667969 14.3594727,7.54228516 14.1364258,7.20478516 C13.9132813,6.86738281 13.4589844,6.77460937 13.121582,6.99775391 C7.05566406,11.0079102 3.43427734,17.737793 3.43427734,25 C3.43427734,30.7604492 5.67753906,36.1760742 9.75078125,40.2493164 C13.8240234,44.3225586 19.2396484,46.5658203 25.0000977,46.5658203 C27.9111328,46.5658203 30.7354492,45.9955078 33.3946289,44.8708008 C33.7671875,44.7131836 33.9415039,44.2834961 33.7838867,43.9109375 C33.6262695,43.5382813 33.1964844,43.3639648 32.8240234,43.521582 L32.8240234,43.521582 Z" id="Path"></path>
                    <path d="M40.2493164,9.75068359 C36.1760742,5.67744141 30.7604492,3.43427734 25,3.43427734 C21.7817383,3.43427734 18.6855469,4.12626953 15.7973633,5.49091797 C15.4316406,5.66376953 15.2751953,6.10029297 15.4480469,6.46601562 C15.6208008,6.83183594 16.0574219,6.98808594 16.4231445,6.81533203 C18.8943359,5.64765625 21.5300781,5.01015625 24.2675781,4.91357422 L24.2675781,7.48085937 C24.2675781,7.88535156 24.5955078,8.21328125 25,8.21328125 C25.4044922,8.21328125 25.7324219,7.88535156 25.7324219,7.48085937 L25.7324219,4.91386719 C30.7229492,5.09355469 35.2549805,7.10087891 38.6786133,10.2856445 L36.8700195,12.0942383 C36.5839844,12.3802734 36.5839844,12.844043 36.8700195,13.1300781 C37.0129883,13.2730469 37.2004883,13.3445312 37.3878906,13.3445312 C37.575293,13.3445312 37.762793,13.2730469 37.9057617,13.1299805 L39.7143555,11.3213867 C42.8992188,14.7450195 44.9064453,19.2770508 45.0861328,24.2675781 L42.519043,24.2675781 C42.1145508,24.2675781 41.7866211,24.5955078 41.7866211,25 C41.7866211,25.4044922 42.1145508,25.7324219 42.519043,25.7324219 L45.0865234,25.7324219 C44.9677734,28.9948242 44.059082,32.1861328 42.4381836,35.0047852 C41.6746094,36.3327148 40.759668,37.5666992 39.7200195,38.6842773 L37.9057617,36.8699219 C37.6197266,36.5838867 37.155957,36.5838867 36.8699219,36.8699219 C36.5838867,37.155957 36.5838867,37.6197266 36.8699219,37.9057617 L38.6837891,39.7196289 C37.6847656,40.6490234 36.5930664,41.4799805 35.4224609,42.1913086 C35.0767578,42.4013672 34.9667969,42.8518555 35.1768555,43.1975586 C35.3147461,43.4244141 35.5560547,43.5497071 35.8035156,43.5497071 C35.9331055,43.5497071 36.0642578,43.515332 36.1831055,43.4431641 C39.2927734,41.5536133 41.8949219,38.8881836 43.7080078,35.7350586 C45.5775391,32.4837891 46.5657227,28.7716797 46.5657227,25 C46.5657227,19.2395508 44.3225586,13.8239258 40.2493164,9.75068359 L40.2493164,9.75068359 Z" id="Path"></path>
                    <path d="M33.3549805,15.3266602 L25.9466797,22.7349609 C25.6598633,22.5974609 25.3387695,22.5202148 25,22.5202148 C24.6612305,22.5202148 24.3401367,22.5973633 24.0532227,22.7349609 L20.0438477,18.7256836 C19.7578125,18.4396484 19.294043,18.4396484 19.0081055,18.7256836 C18.7220703,19.0117188 18.7220703,19.4754883 19.0081055,19.7614258 L23.0174805,23.7707031 C22.8798828,24.0576172 22.8027344,24.3786133 22.8027344,24.7174805 C22.8027344,25.9291016 23.7883789,26.9147461 25,26.9147461 C26.2116211,26.9147461 27.1972656,25.9290039 27.1972656,24.7174805 C27.1972656,24.3787109 27.1201172,24.0576172 26.9825195,23.7707031 L34.3908203,16.3624023 C34.6768555,16.0763672 34.6768555,15.6125977 34.3908203,15.3265625 C34.1047852,15.040625 33.6410156,15.040625 33.3549805,15.3266602 L33.3549805,15.3266602 Z M25,25.4499023 C24.5960937,25.4499023 24.2675781,25.1212891 24.2675781,24.7174805 C24.2675781,24.3136719 24.5960937,23.9850586 25,23.9850586 C25.4039062,23.9850586 25.7324219,24.3136719 25.7324219,24.7174805 C25.7324219,25.1213867 25.4039062,25.4499023 25,25.4499023 Z" id="Shape"></path>
                    <path d="M27.5878906,33.4472656 C27.9923828,33.4472656 28.3203125,33.1193359 28.3203125,32.7148438 C28.3203125,32.3103516 27.9923828,31.9824219 27.5878906,31.9824219 L22.4121094,31.9824219 C22.0076172,31.9824219 21.6796875,32.3103516 21.6796875,32.7148438 C21.6796875,33.1193359 22.0076172,33.4472656 22.4121094,33.4472656 L27.5878906,33.4472656 Z" id="Path"></path>
                </g>
            </g>
        </g>
    </g>
</svg>