<?xml version="1.0" encoding="UTF-8"?>
<svg width="20px" height="20px" viewBox="0 0 20 20" version="1.1" xmlns="http://www.w3.org/2000/svg" xmlns:xlink="http://www.w3.org/1999/xlink">
    <title>5DC0A3C7-647E-4980-A1A2-58CC7C7AA089@1.5x</title>
    <g id="BrainGym-New-(As-per-Mobile)" stroke="none" stroke-width="1" fill="none" fill-rule="evenodd">
        <g id="Brain-gym-page----Updated-2" transform="translate(-1370.000000, -50.000000)" fill="#6F797C" fill-rule="nonzero">
            <g id="close" transform="translate(1370.000000, 50.000000)">
                <path d="M11.8061079,9.98603218 L19.5764678,2.21543564 C20.0821496,1.70999055 20.0821496,0.892755697 19.5764678,0.387310606 C19.0710227,-0.118134485 18.2537879,-0.118134485 17.7483428,0.387310606 L9.97774618,8.15790721 L2.20738636,0.387310606 C1.70170455,-0.118134485 0.884706424,-0.118134485 0.379261333,0.387310606 C-0.126420485,0.892755697 -0.126420485,1.70999055 0.379261333,2.21543564 L8.14962121,9.98603218 L0.379261333,17.7566288 C-0.126420485,18.2620739 -0.126420485,19.0793087 0.379261333,19.5847538 C0.631155273,19.8368845 0.962357939,19.9635417 1.29332388,19.9635417 C1.62428976,19.9635417 1.9552557,19.8368845 2.20738636,19.5847538 L9.97774618,11.8141572 L17.7483428,19.5847538 C18.0004735,19.8368845 18.3314394,19.9635417 18.6624053,19.9635417 C18.9933712,19.9635417 19.3243371,19.8368845 19.5764678,19.5847538 C20.0821496,19.0793087 20.0821496,18.2620739 19.5764678,17.7566288 L11.8061079,9.98603218 Z" id="Path"></path>
            </g>
        </g>
    </g>
</svg>