<?xml version="1.0" encoding="UTF-8"?>
<svg width="53px" height="42px" viewBox="0 0 53 42" version="1.1" xmlns="http://www.w3.org/2000/svg" xmlns:xlink="http://www.w3.org/1999/xlink">
    <title>Shape</title>
    <g id="Page-1" stroke="none" stroke-width="1" fill="none" fill-rule="evenodd">
        <g id="My-Classes" transform="translate(-333.000000, -210.000000)" fill="#FCAA38" fill-rule="nonzero" stroke="#FFDFBE" stroke-width="2">
            <g id="Class-alert" transform="translate(290.000000, 110.000000)">
                <g id="Group-29" transform="translate(0.000000, 51.000000)">
                    <g id="Group-31" transform="translate(30.000000, 30.000000)">
                        <g id="online-class" transform="translate(14.666667, 20.000000)">
                            <path d="M47.5362319,28.4702415 L45.732657,28.4702415 L45.732657,5.79710145 C45.732657,2.60057971 43.1320773,0 39.9355556,0 L9.53304348,0 C6.33652174,0 3.73594203,2.60057971 3.73594203,5.79710145 L3.73594203,28.4702415 L1.93236715,28.4702415 C0.865120773,28.4702415 0,29.3353623 0,30.4026087 C0,35.6591304 4.27652174,39.9356522 9.53304348,39.9356522 L39.9356522,39.9356522 C45.1920773,39.9356522 49.468599,35.6591304 49.468599,30.4026087 C49.468599,29.3353623 48.6034783,28.4702415 47.5362319,28.4702415 Z M7.60067633,5.79710145 C7.60067633,4.7315942 8.46753623,3.8647343 9.53304348,3.8647343 L39.9356522,3.8647343 C41.0011594,3.8647343 41.8680193,4.7315942 41.8680193,5.79710145 L41.8680193,28.4702415 L34.0703382,28.4702415 C33.5510145,25.9574879 32.0394203,23.8037681 29.965314,22.4371014 C34.1554589,17.89343 30.9071498,10.4992271 24.7342995,10.4992271 C18.5548792,10.4992271 15.3161353,17.8966184 19.5033816,22.4371014 C17.4292754,23.8037681 15.9176812,25.9575845 15.3983575,28.4702415 L7.60067633,28.4702415 L7.60067633,5.79710145 Z M21.4814493,17.6168116 C21.4814493,15.8231884 22.9406763,14.3639614 24.7342995,14.3639614 C26.5279227,14.3639614 27.9871498,15.8231884 27.9871498,17.6168116 C27.9871498,19.4104348 26.5279227,20.8695652 24.7342995,20.8695652 C22.9406763,20.8695652 21.4814493,19.4104348 21.4814493,17.6168116 L21.4814493,17.6168116 Z M24.7342995,24.7342995 C27.1814493,24.7342995 29.2711111,26.2933333 30.0629952,28.4702415 L19.4056039,28.4702415 C20.1974879,26.2933333 22.2871498,24.7342995 24.7342995,24.7342995 Z M39.9355556,36.0709179 L9.53304348,36.0709179 C7.08570048,36.0709179 4.99574879,34.5120773 4.20396135,32.3349758 L45.2647343,32.3349758 C44.4728502,34.5120773 42.3828986,36.0709179 39.9355556,36.0709179 L39.9355556,36.0709179 Z" id="Shape"></path>
                        </g>
                    </g>
                </g>
            </g>
        </g>
    </g>
</svg>