<?xml version="1.0" encoding="UTF-8"?>
<svg width="36px" height="36px" viewBox="0 0 36 36" version="1.1" xmlns="http://www.w3.org/2000/svg" xmlns:xlink="http://www.w3.org/1999/xlink">
    <title>design-tool</title>
    <g id="Page-1" stroke="none" stroke-width="1" fill="none" fill-rule="evenodd">
        <g id="My-Classes" transform="translate(-337.000000, -579.000000)" fill="#43AA8B" fill-rule="nonzero">
            <g id="Group-15-Copy-3" transform="translate(290.000000, 531.000000)">
                <g id="Bitmap" transform="translate(30.000000, 30.000000)">
                    <g id="design-tool" transform="translate(17.500000, 18.375000)">
                        <path d="M24.2639803,16.0283413 C24.530755,15.7620995 24.530755,15.3295565 24.2639803,15.0635812 C23.9977385,14.7968065 23.565995,14.7968065 23.2992203,15.0635812 C23.0329785,15.3295565 23.0329785,15.7620995 23.2992203,16.0283413 C23.565995,16.2951161 23.9977385,16.2951161 24.2639803,16.0283413 Z" id="Path"></path>
                        <path d="M0.682261209,34.9656204 L34.2495127,34.9656204 C34.5253488,34.9656204 34.7742675,34.7995858 34.8798047,34.5445374 C34.985342,34.2894889 34.9269768,33.9960633 34.7318926,33.8009792 L1.16464117,0.233994308 C0.969557173,0.0386436842 0.676131501,-0.0194550877 0.42108309,0.086082193 C0.16630117,0.191619474 0,0.440271686 0,0.716374269 L0,34.2833592 C0,34.6602019 0.30541846,34.9656204 0.682261209,34.9656204 L0.682261209,34.9656204 Z M1.36452242,2.36339547 L6.85246101,7.85133406 L5.40478801,9.29820752 C5.13827973,9.56471581 5.13827973,9.99672579 5.40478801,10.2632341 C5.67076331,10.5294758 6.10303972,10.5300088 6.369548,10.2632341 L7.817221,8.81609405 L10.7117675,11.7109071 L9.26436096,13.1577805 C8.99785267,13.4242888 8.99785267,13.8562987 9.26409446,14.122807 C9.53033626,14.3890488 9.96261273,14.3895818 10.229121,14.122807 L11.676794,12.675667 L14.5710739,15.5702135 L13.123934,17.01762 C12.8574257,17.2838618 12.8574257,17.7158717 13.123934,17.98238 C13.3904423,18.2488882 13.8221857,18.2488882 14.088694,17.98238 L15.5361005,16.5349735 L18.4306469,19.4297865 L16.983507,20.877193 C16.7169987,21.1434348 16.7169987,21.5754447 16.983507,21.841953 C17.2500153,22.1084613 17.6817586,22.1084613 17.9482669,21.841953 L19.3956734,20.394813 L22.2902199,23.2890929 L20.8430799,24.7367659 C20.5765716,25.0032742 20.5765716,25.4352842 20.8430799,25.7017925 C21.1095882,25.9680343 21.5415981,25.9680343 21.8081064,25.701526 L23.2549799,24.2541195 L26.1495264,27.1486659 L24.7023864,28.5963389 C24.4361446,28.8628472 24.4361446,29.2948571 24.7026529,29.5610989 C24.9688947,29.8276072 25.4011711,29.8276072 25.6676794,29.5610989 L27.1145529,28.1134259 L32.602225,33.601098 L1.36452242,33.601098 L1.36452242,2.36339547 Z" id="Shape"></path>
                        <path d="M7.03208756,14.2195495 C6.83700357,14.0244655 6.54357789,13.9661001 6.28852948,14.0716374 C6.03374756,14.1771747 5.86744639,14.4260934 5.86744639,14.7019295 L5.86744639,28.4159128 C5.86744639,28.7927555 6.17286485,29.0981741 6.5497076,29.0981741 L20.2636909,29.0981741 C20.5397935,29.0981741 20.7884457,28.9321394 20.8942495,28.677091 C20.9997868,28.422309 20.941155,28.1286169 20.7463374,27.9335328 L7.03208756,14.2195495 Z M7.23196881,27.7339181 L7.23196881,16.3492172 L18.6166697,27.7339181 L7.23196881,27.7339181 Z" id="Shape"></path>
                        <path d="M21.3697003,14.0988213 C21.6362086,14.3653296 22.067952,14.3653296 22.3347268,14.0988213 C22.6009686,13.8325795 22.6009686,13.4005695 22.3347268,13.1340612 L19.4396473,10.2392483 C19.1734055,9.97274001 18.7413956,9.97274001 18.4748873,10.2392483 C18.208379,10.5054901 18.208379,10.9375 18.4748873,11.2040083 L21.3697003,14.0988213 Z" id="Path"></path>
                        <path d="M10.3565119,6.98758073 L29.5077973,26.1385996 C30.3073221,26.9386574 31.6025524,26.9386574 32.4026103,26.1385996 L34.3321303,24.2093461 C35.1297896,23.4116868 35.1297896,22.1129919 34.3321303,21.3142666 L15.1811114,2.16324773 C15.1062226,2.08835892 15.0148103,2.03185916 14.9143366,1.99854564 L9.12524366,0.0690256628 C8.88032253,-0.0125259064 8.60981661,0.0511695906 8.42725845,0.233994308 C8.2444338,0.416552466 8.1807383,0.686791832 8.26228981,0.931979454 L10.1918098,6.72107245 C10.2253899,6.82154605 10.2816231,6.91269185 10.3565119,6.98758073 L10.3565119,6.98758073 Z M33.3668372,22.2790266 C33.633079,22.5452684 33.633079,22.9786108 33.3671037,23.2443195 L31.4378502,25.1738395 C31.1713419,25.4403478 30.739332,25.4406144 30.4725573,25.1738395 L28.9942358,23.6955181 L31.8887823,20.8007051 L33.3668372,22.2790266 Z M30.9240223,19.8359451 L28.0292093,22.7307581 L27.0644493,21.7657316 L29.9592623,18.8714516 L30.9240223,19.8359451 Z M15.1501965,4.06211924 L28.9942358,17.9061586 L26.0996893,20.8009716 L12.2553835,6.95666577 L15.1501965,4.06211924 Z M14.1126797,3.16958301 L11.3628472,5.91914897 L9.98819752,1.79493331 L14.1126797,3.16958301 Z" id="Shape"></path>
                    </g>
                </g>
            </g>
        </g>
    </g>
</svg>