<?xml version="1.0" encoding="UTF-8"?>
<svg width="40px" height="40px" viewBox="0 0 40 40" version="1.1" xmlns="http://www.w3.org/2000/svg" xmlns:xlink="http://www.w3.org/1999/xlink">
    <title>BB6445EB-41BA-4A90-9B74-1EFFCE9A8625@1.5x</title>
    <g id="BrainGym-New-(As-per-Mobile)" stroke="none" stroke-width="1" fill="none" fill-rule="evenodd">
        <g id="Brain-gym-page---Updated-9" transform="translate(-1111.000000, -262.000000)" fill-rule="nonzero">
            <g id="Group-2" transform="translate(50.000000, 219.000000)">
                <g id="Group-11" transform="translate(30.037265, 40.000000)">
                    <g id="Group-35" transform="translate(1030.962735, 0.000000)">
                        <g id="flash-(2)" transform="translate(0.000000, 3.000000)">
                            <path d="M20,0 C31.0454688,0 40,8.95453125 40,20 C40,31.0454688 31.0454688,40 20,40 C8.95453125,40 0,31.0454688 0,20 C0,8.95453125 8.95453125,0 20,0 Z" id="Shape" fill="#FFE266"></path>
                            <path d="M20,0 C8.95453125,0 0,8.95453125 0,20 C0,31.0454688 8.95453125,40 20,40 C20,34.0551672 20,12.0926562 20,0 Z" id="Shape-Copy" fill="#FFF16B"></path>
                            <path d="M18.2611719,2.22078125 L31.7111719,2.22078125 C32.4996094,2.22078125 32.9966406,3.06929687 32.6110938,3.75695312 L24.6196875,18.0121875 C24.2341406,18.6999219 24.73125,19.5483594 25.5196094,19.5483594 L28.9217188,19.5483594 C29.7928125,19.5483594 30.271875,20.56125 29.7192188,21.2346094 L19.0021875,34.29125 C18.3104688,35.1339844 16.9545313,34.4674219 17.199375,33.405 L19.5446875,23.2280469 C19.6936719,22.5816406 19.2026563,21.9646875 18.539375,21.9646875 L14.0939844,21.9646875 C13.4285156,21.9646875 12.9371094,21.3439844 13.0897656,20.6963281 L17.256875,3.01578125 C17.3667969,2.54992187 17.7825781,2.22078125 18.2611719,2.22078125 Z" id="Path" fill="#FA6F2C"></path>
                            <g id="Group" transform="translate(13.061750, 2.220625)" fill="#FEAF45">
                                <path d="M2.4739534,19.7440625 L1.03168778,19.7440625 C0.366140903,19.7440625 -0.124874722,19.1235156 0.0280940281,18.475625 L4.19473465,0.79515625 C4.30496903,0.329140625 4.72028153,0 5.19918778,0 L6.64137528,0 C6.16246903,0 5.74723465,0.32921875 5.63692215,0.79515625 L1.46950028,18.475625 C1.31746903,19.1235937 1.80840653,19.7440625 2.4739534,19.7440625 Z" id="Path"></path>
                                <path d="M5.57981278,31.1847656 C5.48723465,31.5847656 5.62168778,31.9284375 5.86231278,32.1561719 C5.15246903,32.8652344 3.90098465,32.2085156 4.13754715,31.1847656 L6.48285965,21.0076562 C6.6317659,20.3614062 6.1408284,19.7440625 5.47762528,19.7440625 L6.9198909,19.7440625 C7.58309403,19.7440625 8.07403153,20.3614062 7.92512528,21.0076562 L5.57981278,31.1847656 Z" id="Path"></path>
                            </g>
                        </g>
                    </g>
                </g>
            </g>
        </g>
    </g>
</svg>