<?xml version="1.0" encoding="UTF-8"?>
<svg width="50px" height="50px" viewBox="0 0 50 50" version="1.1" xmlns="http://www.w3.org/2000/svg" xmlns:xlink="http://www.w3.org/1999/xlink">
    <title>E993A13F-7C4A-46D2-AA78-AA333350DB1B@1.5x</title>
    <g id="BrainGym-New-(As-per-Mobile)" stroke="none" stroke-width="1" fill="none" fill-rule="evenodd">
        <g id="Brain-gym-page---Updated-4" transform="translate(-752.000000, -580.000000)" fill-rule="nonzero">
            <g id="Group-2" transform="translate(393.000000, 154.000000)">
                <g id="Group-3" transform="translate(56.000000, 406.000000)">
                    <g id="flash-(2)-copy-3" transform="translate(303.000000, 20.000000)">
                        <path d="M25,0 C38.8068359,0 50,11.1931641 50,25 C50,38.8068359 38.8068359,50 25,50 C11.1931641,50 0,38.8068359 0,25 C0,11.1931641 11.1931641,0 25,0 Z" id="Shape" fill="#FFE266"></path>
                        <path d="M25,0 C11.1931641,0 0,11.1931641 0,25 C0,38.8068359 11.1931641,50 25,50 C25,42.568959 25,15.1158203 25,0 Z" id="Shape-Copy" fill="#FFF16B"></path>
                        <path d="M22.8264648,2.77597656 L39.6389648,2.77597656 C40.6245117,2.77597656 41.2458008,3.83662109 40.7638672,4.69619141 L30.7746094,22.5152344 C30.2926758,23.3749023 30.9140625,24.4354492 31.8995117,24.4354492 L36.1521484,24.4354492 C37.2410156,24.4354492 37.8398438,25.7015625 37.1490234,26.5432617 L23.7527344,42.8640625 C22.8880859,43.9174805 21.1931641,43.0842773 21.4992188,41.75625 L24.4308594,29.0350586 C24.6170898,28.2270508 24.0033203,27.4558594 23.1742188,27.4558594 L17.6174805,27.4558594 C16.7856445,27.4558594 16.1713867,26.6799805 16.362207,25.8704102 L21.5710938,3.76972656 C21.7084961,3.18740234 22.2282227,2.77597656 22.8264648,2.77597656 Z" id="Path" fill="#FA6F2C"></path>
                        <g id="Group" transform="translate(16.308594, 2.734375)" fill="#FEAF45">
                            <path d="M3.11103516,24.7214844 L1.30820313,24.7214844 C0.476269531,24.7214844 -0.1375,23.9458008 0.0537109375,23.1359375 L5.26201172,1.03535156 C5.39980469,0.452832031 5.91894531,0.04140625 6.51757812,0.04140625 L8.3203125,0.04140625 C7.72167969,0.04140625 7.20263672,0.452929688 7.06474609,1.03535156 L1.85546875,23.1359375 C1.66542969,23.9458984 2.27910156,24.7214844 3.11103516,24.7214844 Z" id="Path"></path>
                            <path d="M6.99335937,39.0223633 C6.87763672,39.5223633 7.04570313,39.9519531 7.34648438,40.2366211 C6.45917969,41.1229492 4.89482422,40.3020508 5.19052734,39.0223633 L8.12216797,26.3009766 C8.30830078,25.4931641 7.69462891,24.7214844 6.865625,24.7214844 L8.66845703,24.7214844 C9.49746094,24.7214844 10.1111328,25.4931641 9.925,26.3009766 L6.99335937,39.0223633 Z" id="Path"></path>
                        </g>
                    </g>
                </g>
            </g>
        </g>
    </g>
</svg>