<?xml version="1.0" encoding="UTF-8"?>
<svg width="22px" height="20px" viewBox="0 0 22 20" version="1.1" xmlns="http://www.w3.org/2000/svg" xmlns:xlink="http://www.w3.org/1999/xlink">
    <title>Shape 2</title>
    <g id="Page-1" stroke="none" stroke-width="1" fill="none" fill-rule="evenodd">
        <g id="My-Classes" transform="translate(-665.000000, -221.000000)" fill="#454C4E" fill-rule="nonzero">
            <g id="Class-alert" transform="translate(290.000000, 110.000000)">
                <g id="Group-29" transform="translate(0.000000, 51.000000)">
                    <g id="Group-31" transform="translate(30.000000, 30.000000)">
                        <g id="bar-chart" transform="translate(344.999989, 30.041121)">
                            <path d="M21.292617,18.662941 L20.6138144,18.662941 L20.6138568,3.91694915 C20.6138568,3.8527679 20.5992644,3.78939263 20.5712673,3.7316592 L18.8744729,0.237068694 C18.7249853,-0.0790865245 18.2606575,-0.0789592649 18.1112548,0.237068694 L16.4144604,3.7316592 C16.3864633,3.78939263 16.3718708,3.85272548 16.3718708,3.91694915 L16.3718284,18.662941 L15.5234736,18.662941 L15.5234736,6.02428296 C15.5234736,5.78999807 15.3335175,5.60008436 15.099275,5.60008436 L11.7056862,5.60008436 C11.4714437,5.60008436 11.2814876,5.78999807 11.2814876,6.02428296 L11.2814876,18.662941 L10.4330904,18.662941 L10.4330904,9.12093276 C10.4330904,8.88664787 10.2431343,8.69673416 10.0088918,8.69673416 L6.61530298,8.69673416 C6.38106051,8.69673416 6.19110438,8.88664787 6.19110438,9.12093276 L6.19110438,18.6628985 L5.34270717,18.6628985 L5.34270717,12.090323 C5.34270717,11.8560381 5.15275104,11.6661244 4.91850857,11.6661244 L1.52491975,11.6661244 C1.29067729,11.6661244 1.10072115,11.8560381 1.10072115,12.090323 L1.10072115,18.662941 L0.421960969,18.662941 C-0.140865736,18.6853811 -0.140441537,19.4891101 0.421960969,19.5113382 L21.292617,19.5113382 C21.8554437,19.4888981 21.8550195,18.6851265 21.292617,18.662941 Z M17.740887,2.94226802 C18.2293092,3.08870138 18.756376,3.08870138 19.2448407,2.94226802 L19.642442,3.76118342 L19.5634563,3.71261268 C19.4271613,3.62879104 19.2553184,3.62879104 19.1190234,3.71261268 L18.4928214,4.09770017 L17.8666194,3.71261268 C17.7303244,3.62879104 17.5584816,3.62874862 17.4221866,3.71261268 L17.3432008,3.76118342 L17.740887,2.94226802 Z M17.220268,4.83275151 L17.6444666,4.57191179 L18.0686652,4.83279393 L18.0686652,15.1104049 L17.2202256,15.1104049 L17.220268,4.83275151 Z M18.9170624,4.83279393 L19.341261,4.57191179 L19.7654596,4.83275151 L19.7654172,15.1103625 L18.9170624,15.1103625 L18.9170624,4.83279393 Z M17.2202256,15.9587597 L19.7654172,15.9587597 L19.7654172,16.7352552 L17.2202256,16.7352552 L17.2202256,15.9587597 Z M18.4928638,1.39356134 L18.8669222,2.16394842 C18.62059,2.21722777 18.3651376,2.21722777 18.1188055,2.16394842 L18.4928638,1.39356134 Z M17.2202256,17.5836524 L19.7654172,17.5836524 L19.7654172,18.6628985 L17.2202256,18.6628985 L17.2202256,17.5836524 Z M12.1298848,6.44848156 L14.6750764,6.44848156 L14.6750764,18.662941 L12.1298848,18.662941 L12.1298848,6.44848156 Z M7.03950158,9.54513136 L9.58469319,9.54513136 L9.58469319,18.6628985 L7.03950158,18.6628985 L7.03950158,9.54513136 Z M1.94911836,12.5145216 L4.49430997,12.5145216 L4.49430997,18.662941 L1.94911836,18.662941 L1.94911836,12.5145216 Z" id="Shape"></path>
                        </g>
                    </g>
                </g>
            </g>
        </g>
    </g>
</svg>