<?xml version="1.0" encoding="UTF-8"?>
<svg width="40px" height="40px" viewBox="0 0 40 40" version="1.1" xmlns="http://www.w3.org/2000/svg" xmlns:xlink="http://www.w3.org/1999/xlink">
    <title>76C1C954-0CDC-41BE-B914-BA49F7710426@1.5x</title>
    <g id="BrainGym-New-(As-per-Mobile)" stroke="none" stroke-width="1" fill="none" fill-rule="evenodd">
        <g id="Brain-gym-page---Updated-9" transform="translate(-328.000000, -263.000000)" fill-rule="nonzero">
            <g id="Group-2" transform="translate(50.000000, 219.000000)">
                <g id="Group-11" transform="translate(30.037265, 40.000000)">
                    <g id="Group-15" transform="translate(247.962735, 0.000000)">
                        <g id="hand-gesture-copy" transform="translate(0.000000, 4.001712)">
                            <path d="M26.8717241,13.9817364 L28.9068966,18.2679433 C29.1180739,18.7289101 29.5455577,19.0539219 30.0462069,19.1341502 L34.5606897,19.8162192 C35.1466796,19.9325523 35.6212192,20.3617072 35.7956772,20.9330932 C35.9701352,21.5044792 35.8162426,22.1255097 35.3951724,22.5493226 L32.1537931,25.8313916 C31.7875691,26.2089137 31.6231327,26.7383375 31.7110345,27.2569088 L32.4827586,31.9141502 C32.6070954,32.4914628 32.3887875,33.0888666 31.9215199,33.4499906 C31.4542524,33.8111145 30.821107,33.8717494 30.2937931,33.6058744 L26.2144828,31.3775985 C25.7802512,31.1390874 25.2542315,31.1390874 24.82,31.3775985 L20.7413793,33.606564 C20.2138864,33.8729843 19.5802294,33.8125059 19.1126572,33.451113 C18.645085,33.0897202 18.4268531,32.4917623 18.5517241,31.9141502 L19.32,27.2569088 C19.4079018,26.7383375 19.2434654,26.2089137 18.8772414,25.8313916 L15.6358621,22.5493226 C15.2147919,22.1255097 15.0608993,21.5044792 15.2353573,20.9330932 C15.4098153,20.3617072 15.8843549,19.9325523 16.4703448,19.8162192 L20.9848276,19.1341502 C21.4854768,19.0539219 21.9129606,18.7289101 22.1241379,18.2679433 L24.1593103,13.9817364 C24.3952858,13.4431983 24.9275481,13.0953066 25.5155172,13.0953066 C26.1034864,13.0953066 26.6357487,13.4431983 26.8717241,13.9817364 L26.8717241,13.9817364 Z" id="Shape" fill="#F3D55B"></path>
                            <path d="M32.1586207,25.8300123 C31.7919121,26.208248 31.6256818,26.7376277 31.7103448,27.2575985 L32.4827586,31.9127709 C32.6070501,32.4911928 32.3883687,33.0896144 31.9204188,33.4516134 C31.452469,33.8136124 30.8183012,33.8749419 30.2896552,33.6093226 L26.2137931,31.3775985 C25.7790162,31.1431538 25.2554666,31.1431538 24.8206897,31.3775985 L20.7448276,33.6120813 C20.2161815,33.8777006 19.5820138,33.816371 19.1140639,33.454372 C18.6461141,33.092373 18.4274326,32.4939515 18.5517241,31.9155295 L18.7241379,30.8879433 C28.9655172,24.6948399 27.3724138,16.3017364 26.4413793,13.4258744 C26.6234186,13.5782139 26.7694463,13.768992 26.8689655,13.984495 L28.9034483,18.2741502 C29.1204343,18.7319913 29.5483045,19.0541827 30.0482759,19.1362192 L34.5586207,19.8189778 C35.1443394,19.9349484 35.6187826,20.3637064 35.7932631,20.9347336 C35.9677437,21.5057608 35.813972,22.1264733 35.3931034,22.5500123 L32.1586207,25.8300123 Z" id="Shape" fill="#F0C419"></path>
                            <path d="M14.8751724,0.703805393 L16.5034483,4.13621919 C16.6736584,4.5032094 17.015071,4.76165949 17.4144828,4.82587436 L21.0255172,5.3713916 C21.4942523,5.46441036 21.8738894,5.80760165 22.0135848,6.26460301 C22.1532801,6.72160438 22.0304092,7.21840139 21.6937931,7.5575985 L19.1034483,10.1824261 C18.8105133,10.4845715 18.6791111,10.9082346 18.7496552,11.3231157 L19.3641379,15.0472537 C19.4630762,15.5089425 19.2882904,15.986441 18.9146719,16.275153 C18.5410534,16.5638649 18.0349068,16.6125536 17.6131034,16.4003571 L14.3496552,14.6189778 C14.002646,14.4272786 13.5814919,14.4272786 13.2344828,14.6189778 L9.97172414,16.4017364 C9.54992083,16.6139329 9.04377421,16.5652442 8.67015572,16.2765323 C8.29653717,15.9878204 8.12175138,15.5103218 8.22068966,15.048633 L8.83517241,11.324495 C8.90571648,10.9096139 8.77431428,10.4859508 8.48137931,10.1838054 L5.89034483,7.5575985 C5.55372874,7.21840139 5.43085783,6.72160438 5.5705532,6.26460301 C5.71024857,5.80760165 6.08988563,5.46441036 6.55862069,5.3713916 L10.1696552,4.82587436 C10.569067,4.76165949 10.9104795,4.5032094 11.0806897,4.13621919 L12.7089655,0.707253669 C12.8977946,0.278081765 13.3220702,0.00074788947 13.7909459,0 C14.2598215,-0.000744876047 14.6849779,0.275236841 14.8751724,0.703805393 L14.8751724,0.703805393 Z" id="Shape" fill="#F3D55B"></path>
                            <path d="M19.1034483,10.1817364 C18.8101008,10.4843365 18.6771197,10.9078304 18.7448276,11.3238054 L19.3655172,15.0479433 C19.4648721,15.5105166 19.2900228,15.9890672 18.9158579,16.2786293 C18.5416932,16.5681913 18.0345825,16.6174022 17.6117241,16.4051847 L14.3489655,14.6189778 C14.0014019,14.4313694 13.5827361,14.4313694 13.2351724,14.6189778 L9.97448276,16.406564 C9.55162441,16.6187815 9.04451372,16.5695706 8.67034897,16.2800086 C8.29618414,15.9904465 8.12133476,15.5118959 8.22068966,15.0493226 L8.35862069,14.2272537 C16.5517241,9.2713916 15.2758621,2.55828815 14.5310345,0.257598496 C14.6776666,0.3791772 14.7954481,0.531822124 14.8758621,0.704495048 L16.5006897,4.13621919 C16.6743352,4.50244572 17.0166034,4.76017779 17.4165517,4.82587436 L21.0241379,5.37208125 C21.4927721,5.46477274 21.8724027,5.80777936 22.0119992,6.26464087 C22.1515958,6.72150238 22.0285155,7.21811512 21.6917241,7.55690884 L19.1034483,10.1817364 Z" id="Shape" fill="#F0C419"></path>
                            <path d="M31.4068966,30.3155295 L36.5655172,25.9982882 C37.416695,25.2834582 38.6793401,25.3635748 39.4333413,26.1802558 C40.1873426,26.9969368 40.1665902,28.2619509 39.3862069,29.0534606 L30.7793103,37.8189778 C30.2934858,38.3116882 29.6364617,38.5982099 28.9448276,38.6189778 L16.4896552,38.6189778 C15.6084949,38.6202956 14.7355862,38.7887928 13.9172414,39.1155295 L11.7241379,39.9982882 L0,39.9982882 L0,38.6189778 C0,38.6189778 3.44827586,35.8603571 4.82758621,34.4810468 C10.3448276,28.9638054 14.462069,28.2741502 17.2206897,28.2741502 C18.3382386,28.2701459 19.4218038,28.6581793 20.2827586,29.3707019 C20.5195532,29.5591666 20.8146557,29.6591601 21.1172414,29.6534606 L28.2206897,29.6534606 C28.6355254,29.7123086 29.0369325,29.8429993 29.4068966,30.0396675 C29.5139334,30.1149571 29.6153506,30.1979348 29.7103448,30.2879433 C29.9771315,30.5597439 30.1715582,30.894063 30.2758621,31.2603571 L31.4068966,30.3155295 Z" id="Shape" fill="#F9C795"></path>
                            <path d="M31.7172414,31.5707019 C31.7712131,32.3277817 31.5061564,33.072941 30.9862069,33.6258744 C30.4574532,34.1745744 29.7275187,34.4834886 28.9655172,34.4810611 L21.3793103,34.4810611 C20.9984243,34.4810611 20.6896552,34.1722776 20.6896552,33.7913916 C20.6896552,33.4105056 20.9984243,33.1017364 21.3793103,33.1017364 L28.9655172,33.1017364 C29.3501431,33.1060039 29.7194667,32.9512873 29.9862069,32.6741502 C30.2427704,32.3987672 30.3727585,32.0288011 30.3448276,31.6534606 C30.3324999,31.5207777 30.3094359,31.3893126 30.2758621,31.2603571 C30.2689655,31.2603571 31.4068966,30.3155295 31.4068966,30.3155295 C31.5889568,30.7104712 31.6942748,31.1364239 31.7172414,31.5707019 L31.7172414,31.5707019 Z" id="Shape" fill="#E8AE74"></path>
                            <path d="M31.6655172,1.7913916 L32.6151724,3.7913916 C32.7141819,4.00614335 32.9134785,4.15761915 33.1468966,4.19552953 L35.2537931,4.51415022 C35.5262214,4.56983725 35.7463529,4.77010437 35.8274797,5.03606797 C35.9086066,5.30203157 35.8377265,5.5910659 35.6427586,5.78932263 L34.1317241,7.32035712 C33.9605161,7.49647408 33.8836488,7.74373036 33.9248276,7.98587436 L34.2827586,10.1589778 C34.3404747,10.4283015 34.2385509,10.7068522 34.0206426,10.8753228 C33.8027342,11.0437935 33.5074948,11.0723002 33.2613793,10.948633 L31.3586207,9.90794332 C31.1560543,9.79691884 30.9108422,9.79691884 30.7082759,9.90794332 L28.8048276,10.948633 C28.5587121,11.0723002 28.2634727,11.0437935 28.0455643,10.8753228 C27.827656,10.7068522 27.7257322,10.4283015 27.7834483,10.1589778 L28.142069,7.98587436 C28.1829049,7.74375332 28.1060851,7.4966496 27.9351724,7.32035712 L26.4241379,5.78932263 C26.22916,5.59096972 26.1583612,5.30182197 26.2396417,5.03582621 C26.3209221,4.76983045 26.5412478,4.56964179 26.8137931,4.51415022 L28.92,4.19552953 C29.1535174,4.15785085 29.3529114,4.00630113 29.4517241,3.7913916 L30.4013793,1.7913916 C30.5110739,1.54007565 30.7592356,1.37762242 31.0334483,1.37762242 C31.307661,1.37762242 31.5558226,1.54007565 31.6655172,1.7913916 L31.6655172,1.7913916 Z" id="Shape" fill="#F3D55B"></path>
                            <path d="M34.1331034,7.31828815 C33.9626792,7.49487015 33.8859374,7.74172277 33.9262069,7.98380539 L34.2868966,10.1562192 C34.3450183,10.4261759 34.2429992,10.7055252 34.0245823,10.8744892 C33.8061654,11.0434532 33.5101455,11.072021 33.2634483,10.9479433 L31.3586207,9.9051847 C31.1559433,9.79555774 30.9116429,9.79555774 30.7089655,9.9051847 L28.8068966,10.9479433 C28.5601993,11.072021 28.2641794,11.0434532 28.0457625,10.8744892 C27.8273456,10.7055252 27.7253265,10.4261759 27.7834483,10.1562192 L27.8641379,9.67690884 C32.6427586,6.78725367 31.8993103,2.87070194 31.4648276,1.52863298 C31.5497379,1.59987553 31.6180056,1.68885892 31.6648276,1.78932263 L32.6137931,3.7913916 C32.715213,4.00497565 32.914947,4.15522717 33.1482759,4.19346057 L35.2524138,4.51208125 C35.5246743,4.5677301 35.7447192,4.76778572 35.8259675,5.03353244 C35.9072159,5.29927916 35.8366629,5.58818099 35.642069,5.78656401 L34.1331034,7.31828815 Z" id="Shape" fill="#F0C419"></path>
                        </g>
                    </g>
                </g>
            </g>
        </g>
    </g>
</svg>