<?xml version="1.0" encoding="UTF-8"?>
<svg width="52px" height="52px" viewBox="0 0 52 52" version="1.1" xmlns="http://www.w3.org/2000/svg" xmlns:xlink="http://www.w3.org/1999/xlink">
    <title>D6AEA37E-8571-4C23-A292-07CF4A8A4986@1.5x</title>
    <g id="Page-1" stroke="none" stroke-width="1" fill="none" fill-rule="evenodd">
        <g id="My-Students-(Details)-Copy-3" transform="translate(-46.000000, -42.000000)" fill="#20282A" fill-rule="nonzero" stroke="#FFFFFF" stroke-width="0.6">
            <g id="My-assignments" transform="translate(47.000000, 40.000000)">
                <g id="homework-(1)" transform="translate(0.000000, 3.000000)">
                    <path d="M35.7300954,0 L1.49981669,0 C0.692088082,0 0.0372467804,0.654841301 0.0372467804,1.46256991 L0.0372467804,48.4598164 C0.0372467804,49.267545 0.692088082,49.9223863 1.49981669,49.9223863 L35.7300954,49.9223863 C36.537824,49.9223863 37.1926653,49.267545 37.1926653,48.4598164 L37.1926653,1.46256991 C37.1926653,0.654841301 36.537824,0 35.7300954,0 Z M34.2675255,46.9972465 L2.9623866,46.9972465 L2.9623866,2.92513982 L34.2675255,2.92513982 L34.2675255,46.9972465 Z" id="Shape"></path>
                    <path d="M49.9627178,18.756094 C49.959048,18.6553717 49.9585605,18.5683001 49.8755841,18.2627205 L46.486127,8.807596 C46.2776621,8.2259807 45.7264682,7.83859468 45.1094587,7.83859468 L45.0994158,7.83859468 C44.4783111,7.84288489 43.9275072,8.23885132 43.7259651,8.8264144 L40.480815,18.2815389 C40.2618195,22.4377725 40.4723321,43.7604818 40.4012512,47.4539583 C40.4012512,48.1341508 40.6660738,48.7734889 41.1469668,49.2543819 C41.6278598,49.7351773 42.2670029,49.9999025 42.9470004,49.9999025 L42.9473904,49.9999025 L47.2490035,49.9999025 C48.745115,49.9999025 49.9621682,48.7825568 49.9621682,47.2864453 C49.9625582,43.9815248 49.9628507,22.4371875 49.9627178,18.756094 L49.9627178,18.756094 Z M43.3268785,20.218859 L47.0376134,20.218859 L47.0376134,40.8173036 L43.326976,40.8173036 L43.3268785,20.218859 Z M45.1394902,13.7191008 L46.4208964,17.2935241 L43.9126865,17.2935241 L45.1394902,13.7191008 Z M47.0371259,47.0745677 L43.326391,47.0748602 L43.326391,43.7424434 L47.0371259,43.7424434 L47.0371259,47.0745677 Z" id="Shape"></path>
                    <path d="M8.2196429,23.2405284 L29.0103667,23.2405284 C29.8180953,23.2405284 30.4729366,22.5856871 30.4729366,21.7779585 C30.4729366,20.9702299 29.8180953,20.3153886 29.0103667,20.3153886 L8.2196429,20.3153886 C7.41191429,20.3153886 6.75707299,20.9702299 6.75707299,21.7779585 C6.75707299,22.5856871 7.41191429,23.2405284 8.2196429,23.2405284 Z" id="Path"></path>
                    <path d="M8.2196429,17.0548327 L29.1242521,17.0548327 C29.9319807,17.0548327 30.5868221,16.3999914 30.5868221,15.5922628 C30.5868221,14.7845342 29.9319807,14.1296929 29.1242521,14.1296929 L8.2196429,14.1296929 C7.41191429,14.1296929 6.75707299,14.7845342 6.75707299,15.5922628 C6.75707299,16.3999914 7.41191429,17.0548327 8.2196429,17.0548327 Z" id="Path"></path>
                    <path d="M8.2196429,10.8693321 L29.1242521,10.8693321 C29.9319807,10.8693321 30.5868221,10.2144908 30.5868221,9.40676214 C30.5868221,8.59903353 29.9319807,7.94419223 29.1242521,7.94419223 L8.2196429,7.94419223 C7.41191429,7.94419223 6.75707299,8.59903353 6.75707299,9.40676214 C6.75707299,10.2144908 7.41191429,10.8693321 8.2196429,10.8693321 Z" id="Path"></path>
                </g>
            </g>
        </g>
    </g>
</svg>