<?xml version="1.0" encoding="UTF-8"?>
<svg width="77px" height="79px" viewBox="0 0 77 79" version="1.1" xmlns="http://www.w3.org/2000/svg" xmlns:xlink="http://www.w3.org/1999/xlink">
    <title>BB2DDA27-020B-48F7-841D-045BA672C795</title>
    <g id="BrainGym-New-(As-per-Mobile)" stroke="none" stroke-width="1" fill="none" fill-rule="evenodd">
        <g id="Brain-gym-page----Updated-2" transform="translate(-403.000000, -406.000000)" fill-rule="nonzero">
            <g id="Shells" transform="translate(116.000000, 401.000000)">
                <g id="clam" transform="translate(287.000672, 5.658274)">
                    <path d="M77,26.6854594 C77,41.8830107 51.4970442,67.6344172 42.004811,76.0538842 C40.0021483,77.8287031 36.9978606,77.8287031 34.9951979,76.0538842 C27.5344131,69.4358053 10.208943,52.1434244 3.12002249,37.6532028 C1.69248641,34.9207137 0.69849837,31.9809855 0.172718759,28.9402943 C0.0569883606,28.1945869 0,27.4406136 0,26.6854594 C0,13.4493016 8.62925399,15.4106949 11.3110244,18.8534658 C11.5888946,19.2006359 11.8044937,19.5932688 11.9484222,20.0142421 C11.9484222,19.5737848 11.9349105,19.1333275 11.9219863,18.6798807 C11.8156554,15.6775672 11.5236861,12.4089718 13.1562469,9.9002541 C15.0514036,7.41928639 18.3740965,6.53660029 21.2415054,7.7522862 C22.9410369,8.52042984 24.3938338,9.74910518 25.4365813,11.3013337 C25.8765914,11.9419453 26.2502181,12.625658 26.5515867,13.343025 C26.4899031,12.4532538 26.507527,11.5605305 26.605046,10.6743019 C26.9898345,6.77808427 29.0342071,0 38.5,0 C47.9658018,0 50.0101744,6.77808427 50.3949629,10.6743019 C50.4924819,11.5605305 50.5101058,12.4532538 50.4484222,13.343025 C50.7492034,12.6232963 51.1275298,11.9384028 51.5769393,11.3013337 C52.6114622,9.74733386 54.0607344,8.51688721 55.7585035,7.7522862 C58.6259124,6.53660029 61.9486053,7.41928639 63.843762,9.9002541 C65.4763228,12.4089718 65.1843535,15.6775672 65.0780226,18.6798807 C65.0650984,19.1333275 65.0515867,19.5737848 65.0515867,20.0142421 C65.1955152,19.5932688 65.4111143,19.2006359 65.6889845,18.8534658 C68.3707549,15.4106949 77,13.4493016 77,26.6854594 Z" id="Path" fill="#FFBF67"></path>
                    <path d="M50.4484222,68.0483054 L54.6570098,72.9848528 C55.3302428,73.7766133 55.4841582,74.8889748 55.0511978,75.8348363 C54.6182371,76.780698 53.6777083,77.387065 52.6414229,77.3882458 L24.3638731,77.3882458 C23.3281753,77.387065 22.3870589,76.780698 21.9540984,75.8348363 C21.5211378,74.8889748 21.6750533,73.7766133 22.3488738,72.9848528 L26.5515867,68.0483054 L50.4484222,68.0483054 Z" id="Path" fill="#FFBF67"></path>
                    <g id="Group" fill="#E69855">
                        <path d="M25.7285506,53.2646424 C25.5711104,53.339036 25.3983961,53.3756423 25.2239195,53.3709189 C24.6875655,53.3713244 24.2040831,53.0444136 24.0025831,52.5437328 L10.7270857,20.5214176 C10.4597899,19.897338 10.7141616,19.1717051 11.3110244,18.8534658 C11.5888946,19.2006359 11.8044937,19.5932688 11.9484222,20.0142421 C11.9484222,19.5737848 11.9349105,19.1333275 11.9219863,18.6796306 C12.4677398,18.669253 12.9641463,18.99812 13.1697584,19.5070668 L26.4452559,51.5299724 C26.5821348,51.8552968 26.5833098,52.221951 26.4481932,52.5478658 C26.3136641,52.8737807 26.0545928,53.1323871 25.7285506,53.2646424 Z" id="Path"></path>
                        <path d="M34.5040786,50.476063 C34.617459,51.2028766 34.1351515,51.888951 33.4155089,52.023568 C33.340901,52.0347862 33.2651182,52.038919 33.1899229,52.0375425 C32.5425384,52.0365575 31.9885604,51.5701213 31.87518,50.9295097 L25.2374312,12.2353868 C25.1869093,11.9100624 25.2579925,11.5770624 25.4365813,11.3013337 C25.8765914,11.9419453 26.2502181,12.625658 26.5515867,13.343025 C26.4899031,12.4532538 26.507527,11.5605305 26.605046,10.6743019 C27.2312818,10.7014614 27.7547117,11.1614029 27.8663299,11.7819401 L34.5040786,50.476063 Z" id="Path"></path>
                        <path d="M66.2729232,20.5214176 L52.9974258,52.5437328 C52.7959258,53.0444136 52.3124434,53.3713244 51.7760894,53.3709189 C51.6016128,53.3756423 51.4288985,53.339036 51.2714583,53.2646424 C50.9454161,53.1323871 50.6863448,52.8737807 50.5518157,52.5478658 C50.4166991,52.221951 50.4178741,51.8552968 50.554753,51.5299724 L63.8302505,19.5070668 C64.0358626,18.99812 64.5322691,18.669253 65.0780226,18.6796306 C65.0650984,19.1333275 65.0515867,19.5737848 65.0515867,20.0142421 C65.1955152,19.5932688 65.4111143,19.2006359 65.6889845,18.8534658 C66.2858473,19.1717051 66.540219,19.897338 66.2729232,20.5214176 L66.2729232,20.5214176 Z" id="Path"></path>
                        <path d="M51.7625777,12.2353868 L51.3777891,14.4370833 L51.3777891,14.5038014 L45.1248289,50.9295097 C45.0114485,51.5701213 44.4574705,52.0365575 43.810086,52.0375425 C43.7348907,52.038919 43.6591079,52.0347862 43.5845,52.023568 C42.8648574,51.888951 42.3825499,51.2028766 42.4959303,50.476063 L48.7488906,14.103493 L48.7488906,14.0367749 L49.133679,11.7819401 C49.2452972,11.1614029 49.7687271,10.7014614 50.3949629,10.6743019 C50.4924819,11.5605305 50.5101058,12.4532538 50.4484222,13.343025 C50.7492034,12.6232963 51.1275298,11.9384028 51.5769393,11.3013337 C51.7455413,11.5811954 51.8113372,11.9118337 51.7625777,12.2353868 L51.7625777,12.2353868 Z" id="Path"></path>
                        <path d="M77,26.6854594 C76.9988296,27.2747041 76.9588819,27.8633583 76.8807493,28.4466986 C76.2633253,25.9114118 74.6154906,23.7528163 72.3390699,22.4969813 C70.062062,21.2411463 67.3650176,21.0037954 64.9058958,21.8421994 C63.989453,17.3720883 60.3653914,12.0086634 55.9312178,12.0086634 C53.8880201,11.999807 51.9006316,12.6811581 50.2892195,13.9434876 C50.2757078,13.9434876 50.1564527,14.0102057 50.0101744,14.0899132 C48.5573775,8.92191915 43.8705947,5.34866427 38.5264403,5.33626537 C33.1828734,5.32386633 28.4796416,8.8752755 27.0033462,14.0367749 C26.973973,13.9936738 26.932263,13.9612005 26.8835035,13.9434876 C25.2720916,12.6811581 23.2847029,11.999807 21.2415054,12.0086634 C17.1791961,12.0086634 13.8999754,17.5191042 12.7179991,22.0022047 C10.1431471,20.9789974 7.24754012,21.1632102 4.82131644,22.5052472 C2.39509261,23.8466938 0.690861384,26.2066243 0.172718759,28.9402943 C0.0569883606,28.1945869 0,27.4406136 0,26.6854594 C0,12.0086634 10.6207549,16.0111577 11.9484222,20.0142421 C11.9484222,16.6919182 11.2710768,12.7821207 13.1562469,9.9002541 C15.0514036,7.41928639 18.3740965,6.53660029 21.2415054,7.7522862 C23.6483428,8.8776372 25.5446746,10.8738656 26.5515867,13.343025 C26.5515867,13.343025 25.2239195,0 38.5,0 C51.7760894,0 50.4484222,13.343025 50.4484222,13.343025 C51.4553343,10.8738656 53.3516661,8.8776372 55.7585035,7.7522862 C58.6259124,6.53660029 61.9486053,7.41928639 63.843762,9.9002541 C65.7289321,12.7821207 65.0515867,16.6919182 65.0515867,20.0142421 C66.379254,16.0111577 77,12.0086634 77,26.6854594 L77,26.6854594 Z" id="Path"></path>
                        <path d="M54.1124312,64.1520879 C49.3727767,69.2226616 44.9386031,73.4518792 42.004811,76.0538842 C40.0021483,77.8287031 36.9978606,77.8287031 34.9951979,76.0538842 C32.0743301,73.4518792 27.6272322,69.2226616 22.8875777,64.1520879 C32.0431944,56.8933972 44.9568145,56.8933972 54.1124312,64.1520879 Z" id="Path"></path>
                    </g>
                </g>
            </g>
        </g>
    </g>
</svg>