<?xml version="1.0" encoding="UTF-8"?>
<svg width="87px" height="76px" viewBox="0 0 87 76" version="1.1" xmlns="http://www.w3.org/2000/svg" xmlns:xlink="http://www.w3.org/1999/xlink">
    <title>0C6A248A-3FC4-465D-92AF-752C55637371</title>
    <g id="BrainGym-New-(As-per-Mobile)" stroke="none" stroke-width="1" fill="none" fill-rule="evenodd">
        <g id="Brain-gym-page----Updated-2" transform="translate(-116.000000, -407.000000)" fill-rule="nonzero">
            <g id="Shells" transform="translate(116.000000, 401.000000)">
                <g id="oyster" transform="translate(0.000000, 6.373782)">
                    <path d="M18.0001158,48.0786973 C14.085275,44.6403568 11.6579145,41.2592553 8.11942418,37.4189097 C6.28745397,35.4368388 4.5776151,33.3442831 2.99986398,31.1532229 C1.60331857,29.205096 0,27.0785961 0,24.5560815 C-0.0262057029,21.876492 1.48317854,19.4198688 3.88199742,18.2384801 C6.28015276,17.0570913 9.14227434,17.3612572 11.2410749,19.019195 C11.2576688,19.037831 11.2921842,19.0538047 11.3101057,19.0724407 L11.2755903,19.1070504 C11.2576688,19.0904112 11.2576688,19.0538047 11.2410749,19.019195 C10.707414,18.0195071 10.4326186,16.9013475 10.4399198,15.76788 C10.4326186,13.9096053 11.161424,12.1245434 12.4670347,10.8060469 C13.7726454,9.48688499 15.5468687,8.74211082 17.4000792,8.73612072 C19.5778669,8.73612072 21.6282132,9.76575918 22.9338239,11.5142147 C23.0015273,11.4642968 23.078523,11.428356 23.1601651,11.4090545 C22.8010725,10.563779 22.6172117,9.65460875 22.6198668,8.73612072 C22.5893338,5.10875783 25.3372892,2.06443544 28.9395002,1.73431214 C32.5417113,1.40418885 35.7947859,3.89874938 36.4200453,7.47086982 C36.472482,7.47086982 36.5235913,7.45289953 36.5594343,7.45289953 C36.5448315,7.29582457 36.5381941,7.13741872 36.5415128,6.97901287 C36.5415128,4.48578322 37.8683637,2.18157596 40.0215925,0.934961052 C42.1748213,-0.311653684 44.8278592,-0.311653684 46.9817519,0.934961052 C49.1349805,2.18157596 50.4618314,4.48578322 50.4618314,6.97901287 C50.4644864,7.13741872 50.4585127,7.29582457 50.4432462,7.45289953 C50.4797529,7.45289953 50.5301985,7.47086982 50.583299,7.47086982 C51.2085585,3.89874938 54.4616331,1.40418885 58.0638442,1.73431214 C61.666055,2.06443544 64.4140104,5.10875783 64.3828139,8.73612072 C64.3854688,9.65460875 64.2022719,10.563779 63.8431791,11.4090545 C63.9248213,11.428356 64.0018171,11.4642968 64.0695204,11.5142147 C65.3738035,9.76642471 67.4228223,8.73745178 69.5999463,8.73612072 C71.4531567,8.74211082 73.2273802,9.48688499 74.5329907,10.8060469 C75.8386014,12.1245434 76.5674071,13.9096053 76.5601057,15.76788 C76.5674071,16.9013475 76.2926114,18.0195071 75.7589505,19.019195 C75.7423567,19.0538047 75.7423567,19.0904112 75.7244352,19.1070504 L75.6899198,19.0724407 C75.7078413,19.0538047 75.7423567,19.037831 75.7589505,19.019195 C77.8577513,17.3612572 80.7198729,17.0570913 83.118028,18.2384801 C85.5168471,19.4198688 87.0262312,21.876492 87.0006723,24.5560815 C87.0006723,27.0785961 85.3933882,29.205096 84.0001615,31.1532229 C82.4230741,33.3442831 80.7145628,35.4368388 78.8832563,37.4189097 C75.3421109,41.2592553 72.9147505,44.6403568 68.9999097,48.0786973 L18.0001158,48.0786973 Z" id="Path" fill="#FCA834"></path>
                    <g id="Group" transform="translate(6.270196, 13.451006)" fill="#E57E25">
                        <path d="M49.2295532,31.6193101 C48.6481018,31.6193101 48.1184234,31.2818655 47.8721694,30.7534021 C47.6252518,30.2249387 47.7055664,29.6012984 48.0779342,29.1527035 L63.0775223,11.1037448 C63.6138382,10.488757 64.5411072,10.4155443 65.1670302,10.9386831 C65.7929534,11.4611566 65.8878707,12.3889627 65.3820877,13.0285765 L50.3818359,31.0782008 C50.0970839,31.42097 49.6749344,31.6193101 49.2295532,31.6193101 L49.2295532,31.6193101 Z" id="Path"></path>
                        <path d="M44.7299423,27.1074032 C44.2181853,27.1074032 43.7422714,26.8458338 43.4661483,26.4138781 C43.190689,25.9819225 43.1535186,25.4388164 43.3679123,24.9729166 L52.3677979,5.41976706 C52.7149428,4.66500946 53.6063689,4.33621722 54.3584061,4.68431098 C55.1104431,5.03240474 55.4390029,5.92560114 55.0918579,6.67969339 L46.0919723,26.2335083 C45.8463822,26.7659652 45.3147124,27.1074032 44.7299423,27.1074032 L44.7299423,27.1074032 Z" id="Path"></path>
                        <path d="M40.2296676,25.6032126 C39.7975616,25.6032126 39.3853683,25.4161869 39.1006165,25.0900572 C38.8152007,24.7639272 38.6844406,24.3306405 38.7415238,23.9006815 L41.7417069,1.33915042 C41.801445,0.796709885 42.1492538,0.330144376 42.6503906,0.117827304 C43.1515273,-0.0938244095 43.7276688,-0.0166181552 44.156456,0.319495237 C44.5852431,0.654943101 44.7983093,1.19738364 44.7146758,1.73583066 L41.7144927,24.2973619 C41.6155929,25.0441328 40.9810409,25.6018813 40.2296676,25.6032126 Z" id="Path"></path>
                        <path d="M25.2300795,31.6193101 C24.7846985,31.6193101 24.3625488,31.42097 24.0777968,31.0782008 L9.07754517,13.0285765 C8.71911621,12.6179192 8.61092372,12.0441968 8.79478446,11.530376 C8.97864537,11.0165549 9.42601772,10.6431695 9.96299735,10.5546486 C10.5006409,10.4654621 11.0435943,10.6757825 11.3821106,11.1037448 L26.3816985,29.1527035 C26.7540663,29.6012984 26.8343811,30.2249387 26.5874634,30.7534021 C26.3412094,31.2818655 25.8115311,31.6193101 25.2300795,31.6193101 Z" id="Path"></path>
                        <path d="M29.7296905,27.1074032 C29.1449203,27.1074032 28.6132507,26.7659652 28.3676604,26.2335083 L19.3677748,6.67969339 C19.0206299,5.92560114 19.3491898,5.03240474 20.1012268,4.68431098 C20.8532638,4.33621722 21.7446899,4.66500946 22.0918349,5.41976706 L31.0917205,24.9729166 C31.3061142,25.4388164 31.2689437,25.9819225 30.9934844,26.4138781 C30.7173614,26.8458338 30.2414474,27.1074032 29.7296905,27.1074032 Z" id="Path"></path>
                        <path d="M34.2299651,25.6032126 C33.4785918,25.6018813 32.8440398,25.0441328 32.74514,24.2973619 L29.7449569,1.73583066 C29.6553496,0.92316832 30.2294999,0.187712233 31.0379562,0.0798896202 C31.8457488,-0.0279328223 32.5924759,0.531146951 32.717926,1.33915042 L35.7181091,23.9006815 C35.7751922,24.3306405 35.644432,24.7639272 35.3590165,25.0900572 C35.0742644,25.4161869 34.6620712,25.6032126 34.2299651,25.6032126 Z" id="Path"></path>
                        <path d="M74.4596327,42.1479803 C73.8728714,42.2684487 73.4102325,42.721037 73.274826,43.3060741 C72.9900741,44.464168 71.7149963,45.156362 69.8398818,45.156362 C67.51474,45.156362 65.8945082,43.9683175 65.8945082,42.9000756 C65.8945082,39.952261 62.8498535,37.6360734 58.9496155,37.6360734 C55.0500412,37.6360734 52.0047226,39.952261 52.0047226,42.9000756 C52.0047226,43.9683175 50.384491,45.156362 48.0600127,45.156362 C45.734871,45.156362 44.1146392,43.9683175 44.1146392,42.9000756 C44.1146392,39.952261 41.0699843,37.6360734 37.1697464,37.6360734 C33.2695082,37.6360734 30.2248535,39.952261 30.2248535,42.9000756 C30.2248535,43.9683175 28.6046219,45.156362 26.2801437,45.156362 C24.4050293,45.156362 23.1299515,44.464168 22.8445358,43.3060741 C22.8232956,43.2015795 22.7881165,43.1004127 22.739662,43.005236 C22.7522735,42.9719575 22.7569198,42.9360166 22.7549285,42.9000756 C22.7549285,39.952261 19.6346054,37.6360734 15.6600265,37.6360734 C11.6847839,37.6360734 8.56512451,39.952261 8.56512451,42.9000756 C8.56512451,43.9683175 6.94489293,45.156362 4.61975098,45.156362 C2.74463658,45.156362 1.46955863,44.464168 1.18480678,43.3060741 C1.04940029,42.721037 0.586761475,42.2684487 0,42.1479803 C1.09453579,39.0950054 5.87956229,36.3874619 12.9001235,34.4772728 C16.8129729,33.4423096 20.7994995,32.7135091 24.8245239,32.2961961 L49.6351088,32.2961961 C53.6601332,32.7135091 57.6466598,33.4423096 61.5595093,34.4772728 C68.5800705,36.3874619 73.365097,39.0950054 74.4596327,42.1479803 L74.4596327,42.1479803 Z" id="Path"></path>
                    </g>
                    <path d="M53.5801634,60.0816077 C58.403024,54.6518781 58.0870755,46.3721729 52.8646329,41.3278092 C47.6421903,36.2834453 39.3784117,36.2774551 34.1486677,41.3138321 C28.91826,46.3502091 28.5903638,54.6299143 33.4052595,60.0662995 L53.5801634,60.0816077 Z" id="Path" fill="#FF5364"></path>
                    <path d="M36.3417219,50.3456328 C36.1890576,50.3456328 36.0377211,50.3216722 35.8916943,50.2744166 C35.1024869,50.0254929 34.6630797,49.1822144 34.9113248,48.3901846 C35.0022597,48.0993301 35.1084609,47.8138001 35.2292646,47.5342602 C37.0346845,43.3058865 41.7228026,41.1161575 46.1128934,42.4506276 C46.9060835,42.6915645 47.353456,43.5315152 47.112512,44.3268727 C46.8722318,45.1215646 46.0345701,45.5708252 45.2413801,45.3292228 C42.090524,44.3847775 38.7664274,46.148541 37.7727827,49.2926991 C37.5763105,49.9190015 36.9968504,50.3456328 36.3417219,50.3456328 Z" id="Path" fill="#FFD1D5"></path>
                    <path d="M81.0006452,56.9980165 C81.0006452,57.4965293 80.9090437,57.9917142 80.7298291,58.4569485 C80.7318204,58.4735878 80.7265104,58.490227 80.7152265,58.5022072 C80.5326932,59.2782632 80.2605528,60.0303586 79.9047789,60.7431853 C75.8850645,69.060828 61.1098265,75.2127023 43.5003446,75.2127023 C25.8901991,75.2127023 11.1149609,69.060828 7.09524659,60.7431853 C6.73947266,60.0303586 6.46733224,59.2782632 6.28479894,58.5022072 C6.28679025,58.4855679 6.28148019,58.4689287 6.27019636,58.4569485 C6.0909818,57.9917142 5.99938022,57.4965293 5.99938022,56.9980165 C5.99739206,56.9128234 6.00270212,56.8269646 6.01531355,56.7424372 C6.01332223,56.7257978 6.01863229,56.7091586 6.02991612,56.6971782 L6.02991612,56.6519195 C6.02593366,56.647926 6.02394235,56.6426015 6.02394235,56.6372769 C6.02394235,56.6312868 6.02593366,56.6259622 6.02991612,56.6219687 C6.01730469,56.5574083 6.01265852,56.4921825 6.01531355,56.4262909 C5.98478063,56.4116482 6.01531355,56.3963402 6.01531355,56.3663894 L6.04518258,56.531451 C6.05513899,56.3743762 6.08036168,56.217967 6.12018712,56.0655512 C6.16532262,55.9151322 6.2097944,55.7494049 6.27019636,55.5989859 C6.85695783,55.7194542 7.31959665,56.1720426 7.45500314,56.7570797 C7.73975499,57.9151735 9.01483294,58.6073675 10.8899473,58.6073675 C13.2150893,58.6073675 14.8353209,57.419323 14.8353209,56.3510812 C14.8353209,53.4032666 17.9549803,51.087079 21.9302229,51.087079 C25.9048017,51.087079 29.0251249,53.4032666 29.0251249,56.3510812 C29.0271162,56.3870221 29.0224698,56.4229631 29.0098584,56.4562415 C29.0583128,56.5514182 29.0934919,56.6525851 29.1147321,56.7570797 C29.4001479,57.9151735 30.6752257,58.6073675 32.5503401,58.6073675 C34.8748183,58.6073675 36.4950499,57.419323 36.4950499,56.3510812 C36.4950499,53.4032666 39.5397046,51.087079 43.4399428,51.087079 C47.3401807,51.087079 50.3848356,53.4032666 50.3848356,56.3510812 C50.3848356,57.419323 52.0050673,58.6073675 54.3302091,58.6073675 C56.6546873,58.6073675 58.2749189,57.419323 58.2749189,56.3510812 C58.2749189,53.4032666 61.3202375,51.087079 65.2198118,51.087079 C69.1200499,51.087079 72.1647046,53.4032666 72.1647046,56.3510812 C72.1647046,57.419323 73.7849363,58.6073675 76.1100781,58.6073675 C77.9851927,58.6073675 79.2602705,57.9151735 79.5450223,56.7570797 C79.6804288,56.1720426 80.1430678,55.7194542 80.7298291,55.5989859 C80.7902311,55.7494049 80.8347028,55.9151322 80.8798383,56.0655512 C80.9196638,56.217967 80.9448866,56.3743762 80.9548429,56.531451 L80.9847119,56.3663894 C80.9847119,56.3963402 81.0152448,56.4116482 80.9847119,56.4262909 C80.9873671,56.4921825 80.9827208,56.5574083 80.9701093,56.6219687 C80.9853758,56.6445982 80.9853758,56.6745489 80.9701093,56.6971782 C80.9813932,56.7091586 80.9867032,56.7257978 80.9847119,56.7424372 C80.9973233,56.8269646 81.0026334,56.9128234 81.0006452,56.9980165 L81.0006452,56.9980165 Z" id="Path" fill="#FCA834"></path>
                </g>
            </g>
        </g>
    </g>
</svg>