<?xml version="1.0" encoding="UTF-8"?>
<svg width="29px" height="29px" viewBox="0 0 29 29" version="1.1" xmlns="http://www.w3.org/2000/svg" xmlns:xlink="http://www.w3.org/1999/xlink">
    <title>pencil (2)</title>
    <g id="Page-1" stroke="none" stroke-width="1" fill="none" fill-rule="evenodd">
        <g id="My-profile" transform="translate(-782.000000, -201.000000)" fill="#43AA8B" fill-rule="nonzero">
            <g id="Group-12" transform="translate(705.000000, 130.000000)">
                <g id="pencil-(2)" transform="translate(77.000000, 71.000000)">
                    <path d="M14.4996133,0 C6.49184333,0 9.66666666e-05,6.49223 9.66666666e-05,14.49971 C9.66666666e-05,22.50719 6.49184333,29 14.4996133,29 C22.5073833,29 28.9999033,22.5075767 28.9999033,14.49971 C28.9999033,6.49184333 22.5073833,0 14.4996133,0 Z M21.3925267,10.4346833 L20.0153167,11.8118933 L17.2118867,9.00865667 L16.14836,10.0721833 L18.95179,12.8756133 L12.0756967,19.7511267 L9.27246,16.94818 L8.20893333,18.0117067 L11.01217,20.8149433 L10.3269967,21.5001167 L10.3139467,21.4870667 C10.2379667,21.6121533 10.1144267,21.7034067 9.96768667,21.7359833 L7.35353,22.3188833 C7.31438,22.32768 7.27455333,22.3319333 7.23521,22.3319333 C7.09253,22.3319333 6.95391,22.27577 6.85115333,22.1727233 C6.7193,22.0413533 6.66439333,21.8515967 6.70499333,21.6697667 L7.28760333,19.0563833 C7.32047,18.90974 7.41191667,18.78591 7.53681,18.7101233 L7.52356667,18.69688 L18.589,7.63096333 C18.7512067,7.46904667 19.01472,7.46904667 19.1769267,7.63144667 L21.39272,9.84675667 C21.5549267,10.0089633 21.5549267,10.2724767 21.3925267,10.4346833 Z" id="Shape"></path>
                </g>
            </g>
        </g>
    </g>
</svg>