<?xml version="1.0" encoding="UTF-8"?>
<svg width="20px" height="20px" viewBox="0 0 20 20" version="1.1" xmlns="http://www.w3.org/2000/svg" xmlns:xlink="http://www.w3.org/1999/xlink">
    <title>3A4CDDAA-21A5-4D9E-9DF4-A214BF6F7C8E@1.5x</title>
    <defs>
        <circle id="path-1" cx="8.75" cy="8.75" r="8.75"></circle>
        <filter x="-14.3%" y="-14.3%" width="128.6%" height="128.6%" filterUnits="objectBoundingBox" id="filter-2">
            <feGaussianBlur stdDeviation="1.5" in="SourceAlpha" result="shadowBlurInner1"></feGaussianBlur>
            <feOffset dx="-2" dy="-1" in="shadowBlurInner1" result="shadowOffsetInner1"></feOffset>
            <feComposite in="shadowOffsetInner1" in2="SourceAlpha" operator="arithmetic" k2="-1" k3="1" result="shadowInnerInner1"></feComposite>
            <feColorMatrix values="0 0 0 0 0.995414402   0 0 0 0 0.580965043   0 0 0 0 0.00863021252  0 0 0 1 0" type="matrix" in="shadowInnerInner1"></feColorMatrix>
        </filter>
    </defs>
    <g id="BrainGym-New-(As-per-Mobile)" stroke="none" stroke-width="1" fill="none" fill-rule="evenodd">
        <g id="Brain-gym-page---Updated-9" transform="translate(-130.000000, -573.000000)">
            <g id="Group-10" transform="translate(50.000000, 446.000000)">
                <g id="Group-11" transform="translate(80.000000, 126.000000)">
                    <g id="Group-34" transform="translate(0.000000, 1.000000)">
                        <g id="Group-15" transform="translate(1.250000, 1.250000)">
                            <g id="Oval-Copy-18">
                                <use fill="#FFE7C6" fill-rule="evenodd" xlink:href="#path-1"></use>
                                <use fill="black" fill-opacity="1" filter="url(#filter-2)" xlink:href="#path-1"></use>
                            </g>
                            <g id="Group-6" transform="translate(4.900000, 4.200000)">
                                <g id="Group-3">
                                    <polygon id="Fill-97" fill="#4B4B4B" points="7.90218656 0.0900514042 7.90519157 1.71594623 0.00300501453 1.73636154 0 0.11046671"></polygon>
                                    <g id="Group" transform="translate(0.372267, 0.110220)" fill="#DBC3A1">
                                        <polygon id="Fill-98" points="7.13771086 0.000640988372 7.41225991 -2.60256932e-15 7.41480962 1.41026599 7.14035163 1.41081541"></polygon>
                                        <polygon id="Fill-100" points="6.58858543 0.00202369186 6.86322555 0.00138270349 6.86568419 1.41155712 6.59113514 1.41228968"></polygon>
                                        <polygon id="Fill-102" points="6.03964212 0.00327819767 6.31419118 0.0026372093 6.31674089 1.4129032 6.04219183 1.41354419"></polygon>
                                        <polygon id="Fill-104" points="5.49056222 0.00462427326 5.76502022 0.00398328488 5.76766099 1.41424927 5.49311193 1.41489026"></polygon>
                                        <polygon id="Fill-106" points="4.94148233 0.00600697674 5.21603138 0.00536598837 5.21858109 1.41554041 4.9441231 1.4161814"></polygon>
                                        <polygon id="Fill-108" points="4.39244796 0.00735305233 4.66699701 0.00671206395 4.66954672 1.41688648 4.39508873 1.41752747"></polygon>
                                        <polygon id="Fill-110" points="3.84341359 0.00859840116 4.11787158 0.00804898256 4.12042129 1.4182234 3.84605436 1.41886439"></polygon>
                                        <polygon id="Fill-112" points="3.29429727 0.00999026163 3.56884632 0.00934927326 3.57139603 1.41961526 3.29693804 1.42016468"></polygon>
                                        <polygon id="Fill-114" points="2.7452629 0.0113729651 3.01981195 0.010640407 3.02236166 1.4209064 2.74781261 1.42154738"></polygon>
                                        <polygon id="Fill-116" points="2.196183 0.0126732558 2.47073206 0.0120322674 2.47337283 1.42220669 2.19882377 1.42284767"></polygon>
                                        <polygon id="Fill-118" points="1.64719416 0.0140101744 1.92174322 0.0132776163 1.92429293 1.4235436 1.64974387 1.42427616"></polygon>
                                        <polygon id="Fill-120" points="1.09811427 0.0153104651 1.37266332 0.0146694767 1.37521303 1.4248439 1.10066398 1.42548488"></polygon>
                                        <polygon id="Fill-122" points="0.549034368 0.0166931686 0.823583423 0.0159606105 0.826224193 1.4262266 0.551675138 1.42686759"></polygon>
                                        <polygon id="Fill-124" points="-1.55286636e-14 0.0180392442 0.274549055 0.017306686 0.277098765 1.42757267 0.00264077035 1.42821366"></polygon>
                                    </g>
                                    <g id="Group-2" transform="translate(0.097754, 0.110841)" fill="#FCEAD4">
                                        <polygon id="Fill-99" points="7.13771086 0.00073255814 7.41225991 -2.60256932e-15 7.41480962 1.41026599 7.14026057 1.41090698"></polygon>
                                        <polygon id="Fill-101" points="6.58867649 0.00203284884 6.86313448 0.00139186047 6.86568419 1.41165785 6.5912262 1.41229884"></polygon>
                                        <polygon id="Fill-103" points="6.03955106 0.00336976744 6.31419118 0.0026372093 6.31674089 1.41299477 6.04219183 1.41363576"></polygon>
                                        <polygon id="Fill-105" points="5.49051669 0.00476162791 5.76506575 0.00402906977 5.76761546 1.41429506 5.4930664 1.41493605"></polygon>
                                        <polygon id="Fill-107" points="4.94148233 0.00605276163 5.21603138 0.00541177326 5.21858109 1.41558619 4.94403203 1.41622718"></polygon>
                                        <polygon id="Fill-109" points="4.39240243 0.00744462209 4.66695148 0.00671206395 4.66959225 1.41697805 4.39495214 1.41761904"></polygon>
                                        <polygon id="Fill-111" points="3.84332253 0.00868997093 4.11796265 0.00795741279 4.12051235 1.41831497 3.8459633 1.41895596"></polygon>
                                        <polygon id="Fill-113" points="3.29428816 0.0100360465 3.56883722 0.00939505814 3.57138693 1.41956948 3.29683787 1.42021047"></polygon>
                                        <polygon id="Fill-115" points="2.74525379 0.01141875 3.01980285 0.0107777616 3.02235256 1.42095218 2.74789456 1.42159317"></polygon>
                                        <polygon id="Fill-117" points="2.19621943 0.0126732558 2.47067742 0.0120322674 2.47331819 1.42229826 2.19876914 1.42293924"></polygon>
                                        <polygon id="Fill-119" points="1.64713953 0.0140559593 1.92168858 0.0134149709 1.92423829 1.42368096 1.64968924 1.42423038"></polygon>
                                        <polygon id="Fill-121" points="1.09810516 0.0153104651 1.37265422 0.0146694767 1.37520392 1.42493547 1.10074593 1.42557645"></polygon>
                                        <polygon id="Fill-123" points="0.549070792 0.0166931686 0.823528786 0.0160521802 0.826169557 1.4262266 0.551620501 1.42686759"></polygon>
                                        <polygon id="Fill-125" points="6.72908757e-14 0.0180392442 0.274549055 0.0173982558 0.277098765 1.42757267 0.0025497093 1.42821366"></polygon>
                                    </g>
                                    <polygon id="Fill-126" fill="#4B4B4B" points="7.58729746 0.651899539 7.43458808 0.652173197 7.43622718 1.53864346 7.58902762 1.53827858"></polygon>
                                    <polygon id="Fill-127" fill="#4B4B4B" points="7.1600026 0.652784367 7.16173276 1.53934585 7.31444214 1.53898097 7.31280304 0.652601928"></polygon>
                                    <polygon id="Fill-128" fill="#4B4B4B" points="6.61101376 0.654170902 6.61274392 1.54064116 6.76536224 1.5403675 6.7638142 0.653988463"></polygon>
                                    <polygon id="Fill-129" fill="#4B4B4B" points="6.33650113 0.654836804 6.33814023 1.54130706 6.49084961 1.54094219 6.48930157 0.654471926"></polygon>
                                    <polygon id="Fill-130" fill="#4B4B4B" points="6.06193387 0.655502706 6.06366403 1.54197297 6.2163734 1.54160809 6.2147343 0.655229048"></polygon>
                                    <polygon id="Fill-131" fill="#4B4B4B" points="5.5128995 0.656843631 5.5145386 1.54331389 5.66733903 1.54304023 5.66569993 0.656478753"></polygon>
                                    <polygon id="Fill-132" fill="#4B4B4B" points="5.23838687 0.657509533 5.24002597 1.54397979 5.39273534 1.54361492 5.39109624 0.657144655"></polygon>
                                    <polygon id="Fill-133" fill="#4B4B4B" points="4.6893525 0.658841336 4.6909916 1.5453116 4.84379203 1.54494672 4.84206187 0.658567678"></polygon>
                                    <polygon id="Fill-134" fill="#4B4B4B" points="4.41479434 0.659552848 4.4165245 1.54602311 4.56923387 1.54565823 4.56759477 0.65918797"></polygon>
                                    <polygon id="Fill-135" fill="#4B4B4B" points="4.14783067 0.660182262 4.14946977 1.54665252 4.30208808 1.54637886 4.30044898 0.659817384"></polygon>
                                    <polygon id="Fill-136" fill="#4B4B4B" points="3.5911927 0.661650894 3.59292286 1.54793872 3.74563224 1.54766506 3.74390208 0.661103578"></polygon>
                                    <polygon id="Fill-137" fill="#4B4B4B" points="3.31668007 0.662189089 3.31831917 1.54865935 3.47111961 1.54829447 3.46938945 0.661824211"></polygon>
                                    <polygon id="Fill-138" fill="#4B4B4B" points="2.7676457 0.663475283 2.7692848 1.54994554 2.92199418 1.54967189 2.92035508 0.663201624"></polygon>
                                    <polygon id="Fill-139" fill="#4B4B4B" points="2.49312397 0.664232404 2.49485413 1.55061145 2.64747244 1.55024657 2.6459244 0.663867526"></polygon>
                                    <polygon id="Fill-140" fill="#4B4B4B" points="2.21856581 0.664861818 2.22029597 1.55133208 2.37300534 1.5509672 2.37136624 0.664588159"></polygon>
                                    <polygon id="Fill-141" fill="#4B4B4B" points="1.66953144 0.666193621 1.67117054 1.55266388 1.82387991 1.55220778 1.82233188 0.665828743"></polygon>
                                    <polygon id="Fill-142" fill="#4B4B4B" points="1.39501881 0.666859523 1.39665791 1.55323856 1.54936728 1.55287369 1.54772818 0.666494645"></polygon>
                                    <polygon id="Fill-143" fill="#4B4B4B" points="0.84598444 0.668154838 0.8477146 1.5546251 1.00042398 1.55426022 0.998693815 0.667789961"></polygon>
                                    <polygon id="Fill-144" fill="#4B4B4B" points="0.571417173 0.66877513 0.573056272 1.55533661 0.725765647 1.55488051 0.724126548 0.668592692"></polygon>
                                    <polygon id="Fill-145" fill="#4B4B4B" points="0.304371548 0.669486642 0.306010647 1.55586568 0.458720022 1.55559203 0.457080923 0.669121764"></polygon>
                                </g>
                                <g id="Group-5" transform="translate(0.158046, 4.382428)">
                                    <path d="M0.834756613,2.48864741 C0.550646148,2.18370091 0.275914971,1.8890622 -5.17622121e-15,1.59305521 C1.89916919,-0.457374772 5.50518663,-0.604602906 7.60678452,1.59652154 C7.32886621,1.88878854 7.0514032,2.18059945 6.76100952,2.48609326 C5.93053278,1.68153804 4.94798408,1.24596534 3.7919641,1.24742485 C2.64250051,1.24888436 1.66650821,1.68436584 0.834756613,2.48864741" id="Fill-184" fill="#E5B26E"></path>
                                    <path d="M6.38391662,2.91231597 C6.09425143,3.21607662 5.81560463,3.50816118 5.52539307,3.81246915 C5.03612207,3.35108135 4.47764467,3.0759636 3.80279126,3.07578116 C3.13349257,3.07559872 2.57847549,3.34369258 2.10923791,3.78793112 C1.81292527,3.48727194 1.52307796,3.19318055 1.23323065,2.89899794 C2.67454489,1.4647551 4.90572265,1.46484632 6.38391662,2.91231597" id="Fill-185" fill="#DBC3A1"></path>
                                    <path d="M5.01138078,4.25415355 C4.61007475,4.67002285 4.20958827,5.08479753 3.79799234,5.5113395 C3.39286174,5.08780777 2.99419648,4.67075261 2.59443849,4.25287648 C3.19744474,3.59044109 4.40719074,3.58934646 5.01138078,4.25415355" id="Fill-186" fill="#4B4B4B"></path>
                                </g>
                                <g id="Group-4" transform="translate(0.001621, 1.655714)">
                                    <path d="M7.90357068,2.59261167e-15 L5.37762831,2.59261167e-15 L5.37762831,2.2676234 C6.18816269,2.46556953 7.0385818,2.86465446 7.90357068,3.56129712 L7.90357068,2.59261167e-15 Z" id="Fill-187" fill="#FCA834"></path>
                                    <path d="M2.32929954e-14,2.59261167e-15 L2.32929954e-14,3.56129712 C2.32929954e-14,3.56129712 1.05202827,2.66762053 2.63612624,2.28185363 L2.63612624,2.59261167e-15 L2.32929954e-14,2.59261167e-15 Z" id="Fill-188" fill="#E67300"></path>
                                    <path d="M2.63609892,0 L2.63609892,2.28185363 C3.43643445,2.08691774 4.37245095,2.02215196 5.37767384,2.2676234 L5.37767384,0 L2.63609892,0 Z" id="Fill-189" fill="#F8931F"></path>
                                </g>
                            </g>
                        </g>
                        <circle id="Oval-Copy-20" stroke="#FC9D16" stroke-width="0.5" cx="10" cy="10" r="9.75"></circle>
                    </g>
                </g>
            </g>
        </g>
    </g>
</svg>