<?xml version="1.0" encoding="UTF-8"?>
<svg width="29px" height="29px" viewBox="0 0 29 29" version="1.1" xmlns="http://www.w3.org/2000/svg" xmlns:xlink="http://www.w3.org/1999/xlink">
    <title>4D7985D3-98C2-4973-8DFC-F9EF90AB1E66@1.5x</title>
    <defs>
        <circle id="path-1" cx="14.5" cy="14.5" r="12.5"></circle>
        <filter x="-10.0%" y="-10.0%" width="120.0%" height="120.0%" filterUnits="objectBoundingBox" id="filter-2">
            <feGaussianBlur stdDeviation="1.5" in="SourceAlpha" result="shadowBlurInner1"></feGaussianBlur>
            <feOffset dx="-2" dy="-1" in="shadowBlurInner1" result="shadowOffsetInner1"></feOffset>
            <feComposite in="shadowOffsetInner1" in2="SourceAlpha" operator="arithmetic" k2="-1" k3="1" result="shadowInnerInner1"></feComposite>
            <feColorMatrix values="0 0 0 0 0.995414402   0 0 0 0 0.580965043   0 0 0 0 0.00863021252  0 0 0 1 0" type="matrix" in="shadowInnerInner1"></feColorMatrix>
        </filter>
    </defs>
    <g id="BrainGym-New-(As-per-Mobile)" stroke="none" stroke-width="1" fill="none" fill-rule="evenodd">
        <g id="Brain-gym-page---Updated-4" transform="translate(-643.000000, -506.000000)">
            <g id="Group-2" transform="translate(393.000000, 154.000000)">
                <g id="Group-5" transform="translate(238.000000, 346.000000)">
                    <g id="Group-15" transform="translate(12.000000, 6.000000)">
                        <g id="Oval-Copy-17">
                            <use fill="#FFE7C6" fill-rule="evenodd" xlink:href="#path-1"></use>
                            <use fill="black" fill-opacity="1" filter="url(#filter-2)" xlink:href="#path-1"></use>
                        </g>
                        <circle id="Oval-Copy-20" stroke="#FC9D16" stroke-width="0.5" cx="14.5" cy="14.5" r="14.25"></circle>
                        <g id="Group-6" transform="translate(9.000000, 8.134754)">
                            <g id="Group-3">
                                <polygon id="Fill-97" fill="#4B4B4B" points="11.6762442 -8.75229728e-15 11.6806844 2.43300303 0.00444019934 2.46355267 0 0.0305496393"></polygon>
                                <g id="Group" transform="translate(0.550060, 0.030181)" fill="#DBC3A1">
                                    <polygon id="Fill-98" points="10.5466575 0.000959180525 10.9523302 0 10.9560977 2.11033418 10.5505595 2.11115634"></polygon>
                                    <polygon id="Fill-100" points="9.73527159 0.00302826994 10.1410789 0.00206908942 10.1447118 2.11226624 9.73903904 2.11336245"></polygon>
                                    <polygon id="Fill-102" points="8.92415482 0.00490552326 9.32982757 0.00394634273 9.33359502 2.11428052 8.92792226 2.1152397"></polygon>
                                    <polygon id="Fill-104" points="8.11283621 0.00691980236 8.51837442 0.00596062183 8.52227641 2.1162948 8.11660365 2.11725398"></polygon>
                                    <polygon id="Fill-106" points="7.30151761 0.00898889178 7.70719037 0.00802971125 7.71095781 2.11822687 7.3054196 2.11918605"></polygon>
                                    <polygon id="Fill-108" points="6.49026628 0.0110031709 6.89593904 0.0100439904 6.89970648 2.12024115 6.49416827 2.12120033"></polygon>
                                    <polygon id="Fill-110" points="5.67901495 0.0128667216 6.08455316 0.0120445669 6.0883206 2.12224172 5.68291694 2.1232009"></polygon>
                                    <polygon id="Fill-112" points="4.86764252 0.0149495136 5.27331528 0.0139903331 5.27708272 2.12432451 4.87154452 2.12514667"></polygon>
                                    <polygon id="Fill-114" points="4.0563912 0.017018603 4.46206395 0.0159223967 4.4658314 2.12625658 4.06015864 2.12721576"></polygon>
                                    <polygon id="Fill-116" points="3.24507259 0.0189643692 3.65074535 0.0180051887 3.65464734 2.12820234 3.24897458 2.12916152"></polygon>
                                    <polygon id="Fill-118" points="2.43388854 0.0209649458 2.8395613 0.0198687394 2.84332874 2.13020292 2.43765598 2.13129913"></polygon>
                                    <polygon id="Fill-120" points="1.62256993 0.022910712 2.02824269 0.0219515314 2.03201013 2.13214869 1.62633738 2.13310787"></polygon>
                                    <polygon id="Fill-122" points="0.811251329 0.0249798014 1.21692409 0.0238835951 1.22082608 2.13421778 0.815153322 2.13517696"></polygon>
                                    <polygon id="Fill-124" points="0 0.0269940805 0.405672757 0.0258978742 0.409440199 2.13623205 0.00390199336 2.13719124"></polygon>
                                </g>
                                <g id="Group-2" transform="translate(0.144441, 0.031109)" fill="#FCEAD4">
                                    <polygon id="Fill-99" points="10.5466575 0.00109620631 10.9523302 0 10.9560977 2.11033418 10.5504249 2.11129336"></polygon>
                                    <polygon id="Fill-101" points="9.73540615 0.00304197252 10.1409444 0.002082792 10.1447118 2.11241697 9.73917359 2.11337615"></polygon>
                                    <polygon id="Fill-103" points="8.92402027 0.00504254905 9.32982757 0.00394634273 9.33359502 2.11441755 8.92792226 2.11537673"></polygon>
                                    <polygon id="Fill-105" points="8.11276894 0.00712534104 8.51844169 0.00602913473 8.52220914 2.11636332 8.11653638 2.1173225"></polygon>
                                    <polygon id="Fill-107" points="7.30151761 0.00905740467 7.70719037 0.00809822415 7.71095781 2.11829538 7.30528505 2.11925456"></polygon>
                                    <polygon id="Fill-109" points="6.490199 0.0111401967 6.89587176 0.0100439904 6.89977375 2.12037817 6.49396645 2.12133735"></polygon>
                                    <polygon id="Fill-111" points="5.6788804 0.0130037474 6.08468771 0.0119075411 6.08845515 2.12237875 5.68278239 2.12333793"></polygon>
                                    <polygon id="Fill-113" points="4.86762907 0.0150180265 5.27330183 0.014058846 5.27706927 2.124256 4.87139651 2.12521518"></polygon>
                                    <polygon id="Fill-115" points="4.05637774 0.0170871159 4.4620505 0.0161279354 4.46581794 2.12632509 4.06027973 2.12728427"></polygon>
                                    <polygon id="Fill-117" points="3.24512641 0.0189643692 3.65066462 0.0180051887 3.65456661 2.12833937 3.24889385 2.12929855"></polygon>
                                    <polygon id="Fill-119" points="2.43380781 0.0210334587 2.83948056 0.0200742781 2.84324801 2.13040846 2.43757525 2.13123061"></polygon>
                                    <polygon id="Fill-121" points="1.62255648 0.022910712 2.02822924 0.0219515314 2.03199668 2.13228571 1.62645847 2.13324489"></polygon>
                                    <polygon id="Fill-123" points="0.81130515 0.0249798014 1.21684336 0.0240206209 1.22074535 2.13421778 0.815072591 2.13517696"></polygon>
                                    <polygon id="Fill-125" points="0 0.0269940805 0.405672757 0.0260349 0.409440199 2.13623205 0.00376744186 2.13719124"></polygon>
                                </g>
                                <polygon id="Fill-126" fill="#4B4B4B" points="11.2109651 0.840754392 10.9853223 0.841163896 10.9877442 2.16768564 11.2135216 2.16713963"></polygon>
                                <polygon id="Fill-127" fill="#4B4B4B" points="10.5795957 0.842078456 10.5821522 2.1687367 10.807795 2.16819069 10.8053731 0.841805453"></polygon>
                                <polygon id="Fill-128" fill="#4B4B4B" points="9.76841163 0.844153279 9.77096811 2.17067502 9.99647641 2.17026551 9.99418904 0.843880276"></polygon>
                                <polygon id="Fill-129" fill="#4B4B4B" points="9.36279269 0.84514974 9.36521462 2.17167148 9.59085748 2.17112547 9.5885701 0.844603734"></polygon>
                                <polygon id="Fill-130" fill="#4B4B4B" points="8.95709302 0.846146201 8.9596495 2.17266794 9.18529236 2.17212193 9.18287043 0.845736697"></polygon>
                                <polygon id="Fill-131" fill="#4B4B4B" points="8.14584169 0.848152774 8.14826362 2.17467451 8.37404103 2.17426501 8.3716191 0.847606768"></polygon>
                                <polygon id="Fill-132" fill="#4B4B4B" points="7.74022276 0.849149235 7.74264468 2.17567097 7.96828754 2.17512497 7.96586561 0.848603229"></polygon>
                                <polygon id="Fill-133" fill="#4B4B4B" points="6.92897143 0.851142157 6.93139336 2.1776639 7.15717076 2.17711789 7.15461429 0.850732652"></polygon>
                                <polygon id="Fill-134" fill="#4B4B4B" points="6.52328522 0.852206869 6.52584169 2.17872861 6.75148455 2.1781826 6.74906262 0.851660863"></polygon>
                                <polygon id="Fill-135" fill="#4B4B4B" points="6.1288206 0.853148729 6.13124252 2.17967047 6.35675083 2.17926096 6.3543289 0.852602723"></polygon>
                                <polygon id="Fill-136" fill="#4B4B4B" points="5.30633422 0.855346404 5.3088907 2.18159514 5.53453355 2.18118564 5.53197708 0.854527395"></polygon>
                                <polygon id="Fill-137" fill="#4B4B4B" points="4.90071528 0.856151763 4.90313721 2.1826735 5.12891462 2.1821275 5.12635814 0.855605757"></polygon>
                                <polygon id="Fill-138" fill="#4B4B4B" points="4.08946395 0.858076434 4.09188588 2.18459817 4.31752874 2.18418867 4.31510681 0.857666929"></polygon>
                                <polygon id="Fill-139" fill="#4B4B4B" points="3.68383156 0.859209397 3.68638804 2.18559463 3.91189635 2.18504863 3.90960897 0.858663391"></polygon>
                                <polygon id="Fill-140" fill="#4B4B4B" points="3.27814535 0.860151257 3.28070183 2.186673 3.50634468 2.18612699 3.50392276 0.859741753"></polygon>
                                <polygon id="Fill-141" fill="#4B4B4B" points="2.46689402 0.862144179 2.46931595 2.18866592 2.6949588 2.18798341 2.69267143 0.861598173"></polygon>
                                <polygon id="Fill-142" fill="#4B4B4B" points="2.06127508 0.86314064 2.06369701 2.18952588 2.28933987 2.18897987 2.28691794 0.862594634"></polygon>
                                <polygon id="Fill-143" fill="#4B4B4B" points="1.25002375 0.865078962 1.25258023 2.1916007 1.47822309 2.19105469 1.47566661 0.864532956"></polygon>
                                <polygon id="Fill-144" fill="#4B4B4B" points="0.844324086 0.866007172 0.846746013 2.19266541 1.07238887 2.19198291 1.06996694 0.865734169"></polygon>
                                <polygon id="Fill-145" fill="#4B4B4B" points="0.449738372 0.867071884 0.452160299 2.19345712 0.677803156 2.19304762 0.675381229 0.866525878"></polygon>
                            </g>
                            <g id="Group-5" transform="translate(0.233528, 6.423149)">
                                <path d="M1.23343355,3.72403343 C0.81363289,3.26770886 0.40769103,2.82680896 0,2.38386154 C2.80620598,-0.684419551 8.13444518,-0.904732999 11.2397591,2.3890486 C10.829108,2.82639946 10.4191296,3.26306781 9.99004485,3.72021139 C8.76293522,2.51626801 7.31112458,1.86447327 5.60299336,1.86665729 C3.90454983,1.86884132 2.46242691,2.52049956 1.23343355,3.72403343" id="Fill-184" fill="#E5B26E"></path>
                                <path d="M9.43285365,4.35801473 C9.00484535,4.81256478 8.59311777,5.24964263 8.16430216,5.70501169 C7.44135698,5.01458702 6.61615266,4.60289845 5.61899153,4.60262544 C4.63003804,4.60235244 3.80994668,5.0035304 3.11660282,5.66829278 C2.67877226,5.21838379 2.25049485,4.7783029 1.82221744,4.3380855 C3.9518985,2.19187216 7.24867924,2.19200866 9.43285365,4.35801473" id="Fill-185" fill="#DBC3A1"></path>
                                <path d="M7.40479934,6.36595204 C6.8118309,6.98826245 6.22007342,7.60893485 5.61190066,8.24721594 C5.01328106,7.6134394 4.42421462,6.98935446 3.83353355,6.36404101 C4.72453355,5.372767 6.51205017,5.37112898 7.40479934,6.36595204" id="Fill-186" fill="#4B4B4B"></path>
                            </g>
                            <g id="Group-4" transform="translate(0.002395, 2.342872)">
                                <path d="M11.6782894,0 L7.94596545,0 L7.94596545,3.3932912 C9.14360831,3.68949949 10.4001847,4.28669363 11.6782894,5.32915571 L11.6782894,0 Z" id="Fill-187" fill="#FCA834"></path>
                                <path d="M0,0 L0,5.32915571 C0,5.32915571 1.55447342,3.99185035 3.89513123,3.41458544 L3.89513123,0 L0,0 Z" id="Fill-188" fill="#E67300"></path>
                                <path d="M3.89509086,0 L3.89509086,3.41458544 C5.07766395,3.1228817 6.46071877,3.02596562 7.94603272,3.3932912 L7.94603272,0 L3.89509086,0 Z" id="Fill-189" fill="#F8931F"></path>
                            </g>
                        </g>
                    </g>
                </g>
            </g>
        </g>
    </g>
</svg>