<?xml version="1.0" encoding="UTF-8"?>
<svg width="89px" height="68px" viewBox="0 0 89 68" version="1.1" xmlns="http://www.w3.org/2000/svg" xmlns:xlink="http://www.w3.org/1999/xlink">
    <title>Group 27</title>
    <defs>
        <linearGradient x1="115.67687%" y1="110.529518%" x2="17.6476147%" y2="9.8908785%" id="linearGradient-1">
            <stop stop-color="#96FFDF" offset="0%"></stop>
            <stop stop-color="#43AA8B" offset="100%"></stop>
        </linearGradient>
        <linearGradient x1="50%" y1="0%" x2="50%" y2="100%" id="linearGradient-2">
            <stop stop-color="#A6FFE4" offset="0%"></stop>
            <stop stop-color="#49AD8F" offset="100%"></stop>
        </linearGradient>
    </defs>
    <g id="Page-1" stroke="none" stroke-width="1" fill="none" fill-rule="evenodd">
        <g id="My-Students-(Details)-Copy" transform="translate(-768.000000, -740.000000)">
            <g id="Group-32-Copy" transform="translate(605.500000, 731.000000) scale(-1, 1) translate(-605.500000, -731.000000) translate(354.000000, 654.000000)">
                <g id="Group-27" transform="translate(0.000000, 86.000000)">
                    <g id="Group-25" transform="translate(73.000000, 16.000000) scale(-1, 1) translate(-73.000000, -16.000000) translate(57.000000, 0.000000)" fill-rule="nonzero">
                        <g id="tick" transform="translate(0.000000, 0.000000)">
                            <circle id="Oval" fill="url(#linearGradient-1)" cx="15.8146718" cy="15.8474749" r="15.8146718"></circle>
                            <path d="M30.8528185,10.9519073 C30.4049421,9.57510425 29.774888,8.28145174 28.9889112,7.09942857 L15.1456988,21.5179614 L15.1735598,23.1225328 L15.827027,23.1183938 L30.8528185,10.9519073 L30.8528185,10.9519073 Z" id="Path" fill="#43AA8B"></path>
                            <path d="M31.6533745,6.25810039 L28.8332973,3.47187645 C28.4483707,3.09139768 27.824,3.09139768 27.4390734,3.47187645 L15.3842162,15.8889266 L10.1856371,10.7523089 C9.80009266,10.3718301 9.17633977,10.3718301 8.79110425,10.7523089 L6.29145946,13.2222394 C5.90653282,13.6024093 5.90653282,14.2191815 6.29145946,14.5993514 L14.6349344,22.8422548 C14.8572664,23.0620541 15.1587336,23.1506409 15.4484633,23.1164788 C15.7381931,23.150332 16.0395985,23.0620541 16.2619923,22.8422548 L31.6534363,7.63552124 C32.0383012,7.25504247 32.0383012,6.63857915 31.6533745,6.25810039 L31.6533745,6.25810039 Z" id="Path" fill="#F8F8F8"></path>
                            <path d="M16.2619305,22.8423166 L31.6533745,7.63558301 C32.0383012,7.25510425 32.0383012,6.63864093 31.6533745,6.25810039 L31.1931429,5.80324324 L15.3604942,21.376 L6.64092664,12.8765405 L6.29176834,13.2219305 C5.9068417,13.6021004 5.9068417,14.2188726 6.29176834,14.5990425 L14.6348726,22.8423166 C14.8572046,23.0621158 15.1586718,23.1507027 15.4484015,23.1165405 C15.7381313,23.1507027 16.0395367,23.0624865 16.2619305,22.8423166 L16.2619305,22.8423166 Z" id="Path" fill="#EBEBEB"></path>
                        </g>
                    </g>
                    <path d="M0,68 L53.3939325,14 C54.3155977,20.1826075 55.4496754,24.6722928 56.7961658,27.469056 C58.1426562,30.2658192 62.8772676,33.2791303 71,36.5089891 L0,68 Z" id="Path-2" fill="url(#linearGradient-2)"></path>
                </g>
            </g>
        </g>
    </g>
</svg>