<?xml version="1.0" encoding="UTF-8"?>
<svg width="132px" height="135px" viewBox="0 0 132 135" version="1.1" xmlns="http://www.w3.org/2000/svg" xmlns:xlink="http://www.w3.org/1999/xlink">
    <title>Group 27 Copy 4</title>
    <defs>
        <linearGradient x1="115.67687%" y1="110.529518%" x2="17.6476147%" y2="9.8908785%" id="linearGradient-1">
            <stop stop-color="#FFED90" offset="0%"></stop>
            <stop stop-color="#FFBC33" offset="100%"></stop>
        </linearGradient>
        <linearGradient x1="27.2658935%" y1="15.2582197%" x2="89.9711879%" y2="68.3391003%" id="linearGradient-2">
            <stop stop-color="#FFED90" offset="0%"></stop>
            <stop stop-color="#FFBC33" offset="100%"></stop>
        </linearGradient>
    </defs>
    <g id="Page-1" stroke="none" stroke-width="1" fill="none" fill-rule="evenodd">
        <g id="My-Students-(Details)-Copy" transform="translate(-829.000000, -675.000000)" fill-rule="nonzero">
            <g id="Group-33" transform="translate(829.961512, 487.000000)">
                <g id="Group-27-Copy-4" transform="translate(0.000000, 188.047154)">
                    <g id="tick" transform="translate(108.304897, 22.733591) scale(-1, 1) translate(-108.304897, -22.733591) translate(85.571306, 0.000000)">
                        <circle id="Oval" fill="url(#linearGradient-1)" cx="22.7335907" cy="22.7335907" r="22.7335907"></circle>
                        <g id="warning" opacity="0.889999986" transform="translate(11.500004, 11.487938)">
                            <path d="M21.9966956,16.1862244 L14.0588443,1.60551113 C13.4534603,0.605340114 12.4006949,0 11.2294934,0 C10.0582919,0 9.00552646,0.605340114 8.40014248,1.60551113 L0.462291242,16.1862244 C-0.142961142,17.225918 -0.156164575,18.4629174 0.436059837,19.5024793 C1.02819652,20.5420413 2.09407764,21.1605849 3.29164216,21.1605849 L19.1673446,21.1605849 C20.3649092,21.1605849 21.4308342,20.5420413 22.022927,19.5024793 C22.6151514,18.4629174 22.6019479,17.225918 21.9966956,16.1862244 Z" id="Path" fill="#454C4E"></path>
                            <path d="M22.022927,19.5024793 C21.4307903,20.5420413 20.3649092,21.1605849 19.1673446,21.1605849 L11.2294934,21.1605849 L11.2294934,0 C12.4006949,0 13.4534603,0.60538398 14.0588443,1.60551113 L21.9966956,16.1862683 C22.6019479,17.225918 22.6151514,18.4629174 22.022927,19.5024793 Z" id="Path" fill="#454C4E"></path>
                            <path d="M20.8649727,16.8574062 L12.9270338,2.27656135 C12.5718132,1.6712651 11.9269944,1.31595677 11.2294934,1.31595677 C10.5319925,1.31595677 9.88717363,1.67130896 9.53195303,2.27656135 L1.59401406,16.8574062 C1.22559003,17.4759498 1.22559003,18.2259574 1.58094223,18.844501 C1.93620669,19.4761163 2.58098164,19.8446281 3.29168603,19.8446281 L19.1673885,19.8446281 C19.878049,19.8446281 20.5228678,19.4761163 20.8781323,18.844501 C21.2333968,18.2259574 21.2333968,17.4759498 20.8649727,16.8574062 Z" id="Path" fill="#FFDE33"></path>
                            <path d="M20.8780884,18.844501 C20.522824,19.4761163 19.878049,19.8446281 19.1673446,19.8446281 L11.2294934,19.8446281 L11.2294934,1.31595677 C11.9269944,1.31595677 12.5718132,1.67130896 12.9270338,2.27656135 L20.8649727,16.8574062 C21.2333968,17.4759498 21.2333968,18.2259574 20.8780884,18.844501 Z" id="Path" fill="#FFBC33"></path>
                            <g id="Group" transform="translate(9.913537, 5.360331)" fill="#454C4E">
                                <path d="M1.31595677,13.1683408 C0.590513668,13.1683408 0,12.5778271 0,11.852384 C0,11.1269409 0.590513668,10.5364272 1.31595677,10.5364272 C2.04139987,10.5364272 2.63191354,11.1269409 2.63191354,11.852384 C2.63191354,12.5778271 2.04139987,13.1683408 1.31595677,13.1683408 Z" id="Path"></path>
                                <path d="M2.63191354,7.90451367 C2.63191354,8.62995677 2.04139987,9.22047044 1.31595677,9.22047044 C0.590513668,9.22047044 0,8.62995677 0,7.90451367 L0,1.32472982 C0,0.599286713 0.590513668,0.00877304514 1.31595677,0.00877304514 C2.04139987,0.00877304514 2.63191354,0.599286713 2.63191354,1.32472982 L2.63191354,7.90451367 Z" id="Path"></path>
                            </g>
                            <g id="Group" transform="translate(11.229493, 5.360331)" fill="#454C4E">
                                <path d="M1.7107438,11.852384 C1.7107438,11.1269409 0.943076033,10.5364272 0,10.5364272 L0,13.1683408 C0.943076033,13.1683408 1.7107438,12.5778271 1.7107438,11.852384 Z" id="Path"></path>
                                <path d="M1.7107438,7.90451367 L1.7107438,1.32472982 C1.7107438,0.599286713 0.943076033,0.00877304514 0,0.00877304514 L0,9.22047044 C0.943076033,9.22047044 1.7107438,8.62995677 1.7107438,7.90451367 Z" id="Path"></path>
                            </g>
                        </g>
                    </g>
                    <path d="M10.4829642,119.976646 L92.453931,31.9766456 C93.8688817,42.052006 95.6099307,49.3685302 97.6770779,53.9262184 C99.7442252,58.4839066 107.012854,63.3944875 119.482964,68.6579612 L10.4829642,119.976646 Z" id="Path-2" fill="url(#linearGradient-2)" transform="translate(64.982964, 75.976646) rotate(-17.000000) translate(-64.982964, -75.976646) "></path>
                </g>
            </g>
        </g>
    </g>
</svg>