<?xml version="1.0" encoding="UTF-8"?>
<svg width="113px" height="120px" viewBox="0 0 113 120" version="1.1" xmlns="http://www.w3.org/2000/svg" xmlns:xlink="http://www.w3.org/1999/xlink">
    <title>Group 27 Copy 2</title>
    <defs>
        <linearGradient x1="115.67687%" y1="110.529518%" x2="17.6476147%" y2="9.8908785%" id="linearGradient-1">
            <stop stop-color="#FFED90" offset="0%"></stop>
            <stop stop-color="#FFBC33" offset="100%"></stop>
        </linearGradient>
        <linearGradient x1="27.2658935%" y1="15.3030681%" x2="89.9711879%" y2="68.3154263%" id="linearGradient-2">
            <stop stop-color="#FFED90" offset="0%"></stop>
            <stop stop-color="#FFBC33" offset="100%"></stop>
        </linearGradient>
    </defs>
    <g id="Page-1" stroke="none" stroke-width="1" fill="none" fill-rule="evenodd">
        <g id="My-Students-(Details)-Copy" transform="translate(-780.000000, -689.000000)" fill-rule="nonzero">
            <g id="Group-35" transform="translate(409.000000, 500.000000)">
                <g id="Group-27-Copy-2" transform="translate(427.500000, 249.000000) scale(-1, 1) translate(-427.500000, -249.000000) translate(371.000000, 189.000000)">
                    <g id="tick" transform="translate(80.000000, 18.000000) scale(-1, 1) translate(-80.000000, -18.000000) translate(62.000000, 0.000000)">
                        <circle id="Oval" fill="url(#linearGradient-1)" cx="17.7915058" cy="17.8284093" r="17.7915058"></circle>
                        <g id="warning" opacity="0.889999986" transform="translate(9.000000, 9.000000)">
                            <path d="M17.2148086,12.6949434 L11.0025772,1.28395041 C10.5287985,0.501207883 9.7048951,0.0274634456 8.78830261,0.0274634456 C7.87171011,0.0274634456 7.04780674,0.501207883 6.57402797,1.28395041 L0.361796567,12.6949434 C-0.111879212,13.5086167 -0.122212333,14.4767031 0.341267641,15.2902734 C0.804678957,16.1038436 1.63884679,16.5879212 2.5760712,16.5879212 L15.000534,16.5879212 C15.9377584,16.5879212 16.7719606,16.1038436 17.2353376,15.2902734 C17.6988175,14.4767031 17.6884844,13.5086167 17.2148086,12.6949434 Z" id="Path" fill="#454C4E"></path>
                            <path d="M17.2353376,15.2902734 C16.7719263,16.1038436 15.9377584,16.5879212 15.000534,16.5879212 L8.78830261,16.5879212 L8.78830261,0.0274634456 C9.7048951,0.0274634456 10.5287985,0.501242212 11.0025772,1.28395041 L17.2148086,12.6949777 C17.6884844,13.5086167 17.6988175,14.4767031 17.2353376,15.2902734 Z" id="Path" fill="#454C4E"></path>
                            <path d="M16.3291125,13.2202161 L10.1168125,1.80912015 C9.83881373,1.33541004 9.33417292,1.05734266 8.78830261,1.05734266 C8.24243229,1.05734266 7.73779148,1.33544437 7.45979275,1.80912015 L1.24749269,13.2202161 C0.959160839,13.7042937 0.959160839,14.2912562 1.23726256,14.7753338 C1.51529561,15.2696414 2.0199021,15.558042 2.57610553,15.558042 L15.0005683,15.558042 C15.5567374,15.558042 16.0613783,15.2696414 16.3394113,14.7753338 C16.6174444,14.2912562 16.6174444,13.7042937 16.3291125,13.2202161 Z" id="Path" fill="#FFDE33"></path>
                            <path d="M16.339377,14.7753338 C16.0613439,15.2696414 15.5567374,15.558042 15.000534,15.558042 L8.78830261,15.558042 L8.78830261,1.05734266 C9.33417292,1.05734266 9.83881373,1.33544437 10.1168125,1.80912015 L16.3291125,13.2202161 C16.6174444,13.7042937 16.6174444,14.2912562 16.339377,14.7753338 Z" id="Path" fill="#FFBC33"></path>
                            <g id="Group" transform="translate(7.758423, 4.222505)" fill="#454C4E">
                                <path d="M1.02987921,10.305658 C0.462141132,10.305658 0,9.84351685 0,9.27577877 C0,8.70804069 0.462141132,8.24589955 1.02987921,8.24589955 C1.59761729,8.24589955 2.05975842,8.70804069 2.05975842,9.27577877 C2.05975842,9.84351685 1.59761729,10.305658 1.02987921,10.305658 Z" id="Path"></path>
                                <path d="M2.05975842,6.18614113 C2.05975842,6.75387921 1.59761729,7.21602034 1.02987921,7.21602034 C0.462141132,7.21602034 0,6.75387921 0,6.18614113 L0,1.03674507 C0,0.469006993 0.462141132,0.00686586141 1.02987921,0.00686586141 C1.59761729,0.00686586141 2.05975842,0.469006993 2.05975842,1.03674507 L2.05975842,6.18614113 Z" id="Path"></path>
                            </g>
                            <g id="Group" transform="translate(8.788303, 4.222505)" fill="#454C4E">
                                <path d="M1.33884298,9.27577877 C1.33884298,8.70804069 0.738059504,8.24589955 0,8.24589955 L0,10.305658 C0.738059504,10.305658 1.33884298,9.84351685 1.33884298,9.27577877 Z" id="Path"></path>
                                <path d="M1.33884298,6.18614113 L1.33884298,1.03674507 C1.33884298,0.469006993 0.738059504,0.00686586141 0,0.00686586141 L0,7.21602034 C0.738059504,7.21602034 1.33884298,6.75387921 1.33884298,6.18614113 Z" id="Path"></path>
                            </g>
                        </g>
                    </g>
                    <path d="M12.2141016,102.602886 L78.3924968,31.6028857 C79.5348424,39.7318696 80.9404599,45.6349744 82.6093494,49.3122001 C84.2782389,52.9894258 90.1464896,56.9513718 100.214102,61.198038 L12.2141016,102.602886 Z" id="Path-2" fill="url(#linearGradient-2)" transform="translate(56.214102, 67.102886) rotate(-30.000000) translate(-56.214102, -67.102886) "></path>
                </g>
            </g>
        </g>
    </g>
</svg>