<?xml version="1.0" encoding="UTF-8"?>
<svg width="34px" height="34px" viewBox="0 0 34 34" version="1.1" xmlns="http://www.w3.org/2000/svg" xmlns:xlink="http://www.w3.org/1999/xlink">
    <title>0663676E-6946-4CEE-B16A-4D6C6B09FB3F@1.5x</title>
    <g id="Dashboard-&amp;-others" stroke="none" stroke-width="1" fill="none" fill-rule="evenodd">
        <g id="Register-(Parent)-My-details" transform="translate(-1055.000000, -986.000000)" fill="#FD2A5B" fill-rule="nonzero">
            <g id="Course-details" transform="translate(115.000000, 206.000000)">
                <g id="Group-18" transform="translate(50.000000, 511.000000)">
                    <g id="Add-student-Copy-2" transform="translate(890.000000, 269.000000)">
                        <g id="add" transform="translate(17.000000, 17.000000) rotate(45.000000) translate(-17.000000, -17.000000) translate(5.000000, 5.000000)">
                            <path d="M12,0 C5.383125,0 0,5.383125 0,12 C0,18.616875 5.383125,24 12,24 C18.616875,24 24,18.616875 24,12 C24,5.383125 18.616875,0 12,0 Z M12,22.2857344 C6.32826562,22.2857344 1.71426562,17.6717344 1.71426562,12 C1.71426562,6.32826562 6.32826562,1.71426562 12,1.71426562 C17.6717344,1.71426562 22.2857344,6.32826562 22.2857344,12 C22.2857344,17.6717344 17.6717344,22.2857344 12,22.2857344 Z" id="Shape"></path>
                            <path d="M12,6.28570312 C11.5265625,6.28570312 11.1428438,6.66942187 11.1428438,7.14285937 L11.1428438,16.8571406 C11.1428438,17.3305781 11.5265625,17.7142969 12,17.7142969 C12.4734375,17.7142969 12.8571562,17.3305781 12.8571562,16.8571406 L12.8571562,7.14285937 C12.8571562,6.66942187 12.4734375,6.28570312 12,6.28570312 Z" id="Path"></path>
                            <path d="M16.8571406,11.1428438 L7.14285937,11.1428438 C6.66942187,11.1428438 6.28570312,11.5265625 6.28570312,12 C6.28570312,12.4734375 6.66942187,12.8571562 7.14285937,12.8571562 L16.8571406,12.8571562 C17.3305781,12.8571562 17.7142969,12.4734375 17.7142969,12 C17.7142969,11.5265625 17.3305781,11.1428438 16.8571406,11.1428438 Z" id="Path"></path>
                        </g>
                    </g>
                </g>
            </g>
        </g>
    </g>
</svg>