<?xml version="1.0" encoding="UTF-8"?>
<svg width="15px" height="17px" viewBox="0 0 15 17" version="1.1" xmlns="http://www.w3.org/2000/svg" xmlns:xlink="http://www.w3.org/1999/xlink">
    <title>Shape</title>
    <g id="Page-1" stroke="none" stroke-width="1" fill="none" fill-rule="evenodd">
        <g id="My-Classes" transform="translate(-979.000000, -223.000000)" fill="#454C4E" fill-rule="nonzero">
            <g id="Class-alert" transform="translate(290.000000, 110.000000)">
                <g id="Group-29" transform="translate(0.000000, 51.000000)">
                    <g id="Group-31" transform="translate(30.000000, 30.000000)">
                        <g id="Group-30" transform="translate(657.000000, 30.000000)">
                            <g id="stopwatch" transform="translate(2.666667, 2.000000)">
                                <path d="M12.4631246,5.12301126 L13.1165822,4.46955365 C13.3705139,4.21562194 13.3705139,3.80388896 13.1165822,3.55008444 C12.8626506,3.29615273 12.4510447,3.29615273 12.197113,3.55008444 L11.5436554,4.20354206 C10.4473114,3.29004922 9.11509196,2.73818971 7.69399007,2.60899863 L7.69399007,1.30043031 L8.32252503,1.30043031 C8.6816152,1.30043031 8.9726766,1.00924173 8.9726766,0.650151562 C8.9726766,0.291061393 8.6816152,0 8.32252503,0 L5.7650248,0 C5.40593464,0 5.11487324,0.291061393 5.11487324,0.650151562 C5.11487324,1.00924173 5.40593464,1.30043031 5.7650248,1.30043031 L6.39355977,1.30043031 L6.39355977,2.60899863 C2.83622741,2.93248496 0,5.92091878 0,9.62282816 C0,13.5158539 3.15030417,16.6666667 7.04383851,16.6666667 C10.936737,16.6666667 14.0875498,13.5163625 14.0875498,9.62282816 C14.0875498,7.95987448 13.5148366,6.3850403 12.4631246,5.12301126 Z M7.04371133,15.3662364 C3.87687682,15.3662364 1.30030313,12.7897898 1.30030313,9.62282816 C1.30030313,6.45599365 3.87687682,3.87954714 7.04371133,3.87954714 C10.210673,3.87954714 12.7871195,6.45599365 12.7871195,9.62282816 C12.7871195,12.7897898 10.210673,15.3662364 7.04371133,15.3662364 Z M10.0569407,6.60972594 C10.3108724,6.86365762 10.3108724,7.27539062 10.0569407,7.52919515 L7.50350951,10.0826263 C7.24957783,10.336558 6.83784486,10.336558 6.58404033,10.0826263 C6.33010866,9.82869466 6.33010866,9.41696165 6.58404033,9.16315716 L9.13734437,6.60972594 C9.39127604,6.35579427 9.80300905,6.35579427 10.0569407,6.60972594 L10.0569407,6.60972594 Z" id="Shape"></path>
                            </g>
                        </g>
                    </g>
                </g>
            </g>
        </g>
    </g>
</svg>