<?xml version="1.0" encoding="UTF-8"?>
<svg width="48px" height="48px" viewBox="0 0 48 48" version="1.1" xmlns="http://www.w3.org/2000/svg" xmlns:xlink="http://www.w3.org/1999/xlink">
    <title>355C75DD-1F06-489E-9D5A-39E2C73E3887@1.5x</title>
    <g id="BrainGym-New-(As-per-Mobile)" stroke="none" stroke-width="1" fill="none" fill-rule="evenodd">
        <g id="Brain-gym-page---Updated-3" transform="translate(-892.000000, -293.000000)" fill-rule="nonzero">
            <g id="Group-32" transform="translate(460.000000, 213.000000)">
                <g id="clam" transform="translate(432.000000, 80.000000)">
                    <path d="M48,16.5523303 C48,25.9789954 32.1020517,41.9519557 26.1848158,47.1743428 C24.9364027,48.2752191 23.0636001,48.2752191 21.815187,47.1743428 C17.1643085,43.0693122 6.36401603,32.3432762 1.94494897,23.3553501 C1.0550564,21.6604548 0.43542753,19.8370141 0.107668831,17.9509486 C0.0355252098,17.4884047 0,17.0207338 0,16.5523303 C0,8.34226903 5.3792749,9.55887277 7.0510278,11.6943384 C7.22424554,11.9096794 7.35864497,12.1532199 7.44836663,12.4143392 C7.44836663,12.1411345 7.43994375,11.8679297 7.43188716,11.5866679 C7.36560291,9.72440706 7.18359611,7.69697823 8.20129627,6.14088269 C9.38269264,4.6019998 11.4539816,4.05449145 13.2414571,4.80855134 C14.3009053,5.28501183 15.2065449,6.04712875 15.8565693,7.00993769 C16.1308612,7.4072932 16.3637714,7.83138331 16.5516375,8.2763483 C16.5131854,7.72444523 16.5241717,7.17071106 16.5849628,6.6210054 C16.8248309,4.20427798 18.0992449,0 24,0 C29.9007579,0 31.1751718,4.20427798 31.41504,6.6210054 C31.4758311,7.17071106 31.4868174,7.72444523 31.4483652,8.2763483 C31.6358652,7.82991841 31.8717051,7.40509589 32.1518564,7.00993769 C32.7967538,6.04603005 33.7001961,5.28281443 34.7585456,4.80855134 C36.5460212,4.05449145 38.6173101,4.6019998 39.7987065,6.14088269 C40.8164067,7.69697823 40.6343999,9.72440706 40.5681156,11.5866679 C40.560059,11.8679297 40.5516361,12.1411345 40.5516361,12.4143392 C40.6413578,12.1532199 40.7757572,11.9096794 40.948975,11.6943384 C42.6207279,9.55887277 48,8.34226903 48,16.5523303 Z" id="Path" fill="#FFBF67"></path>
                    <path d="M30.9698357,42 L33.6015194,45.1712498 C34.0225006,45.6798787 34.118746,46.3944624 33.8480102,47.0020861 C33.5772744,47.6097099 32.9891497,47.9992415 32.3411472,48 L14.6588331,48 C14.011198,47.9992415 13.4227059,47.6097099 13.1519702,47.0020861 C12.8812343,46.3944624 12.9774797,45.6798787 13.3988283,45.1712498 L16.0268385,42 L30.9698357,42 Z" id="Path" fill="#FFBF67"></path>
                    <g id="Group" fill="#E69855">
                        <path d="M16.0385761,33.0387399 C15.9404315,33.0848844 15.8327655,33.1075904 15.7240009,33.1046606 C15.3896503,33.1049121 15.0882587,32.9021375 14.9626483,32.5915776 L6.68701411,12.7289277 C6.52038812,12.3418265 6.67895751,11.8917344 7.0510278,11.6943384 C7.22424554,11.9096794 7.35864497,12.1532199 7.44836663,12.4143392 C7.44836663,12.1411345 7.43994375,11.8679297 7.43188716,11.5865127 C7.77209708,11.5800758 8.08154528,11.7840638 8.20971905,12.0997509 L16.4853534,31.962767 C16.5706805,32.1645577 16.571413,32.3919842 16.4871844,32.5941412 C16.4033221,32.7962981 16.2418231,32.9567053 16.0385761,33.0387399 Z" id="Path"></path>
                        <path d="M21.5090348,31.3090531 C21.5797135,31.7598776 21.2790542,32.1854326 20.8304459,32.2689322 C20.7839371,32.2758905 20.7366959,32.278454 20.6898209,32.2776002 C20.2862565,32.2769892 19.9409196,31.9876704 19.8702409,31.5903149 L15.7324237,7.58930775 C15.7009296,7.38751703 15.7452411,7.18096539 15.8565693,7.00993769 C16.1308612,7.4072932 16.3637714,7.83138331 16.5516375,8.2763483 C16.5131854,7.72444523 16.5241717,7.17071106 16.5849628,6.6210054 C16.9753435,6.63785176 17.3016375,6.92314207 17.3712176,7.30804594 L21.5090348,31.3090531 Z" id="Path"></path>
                        <path d="M41.3129887,12.7289277 L33.0373544,32.5915776 C32.9117441,32.9021375 32.6103525,33.1049121 32.2760019,33.1046606 C32.1672373,33.1075904 32.0595712,33.0848844 31.9614267,33.0387399 C31.7581796,32.9567053 31.5966806,32.7962981 31.5128184,32.5941412 C31.4285898,32.3919842 31.4293223,32.1645577 31.5146494,31.962767 L39.7902837,12.0997509 C39.9184575,11.7840638 40.2279057,11.5800758 40.5681156,11.5865127 C40.560059,11.8679297 40.5516361,12.1411345 40.5516361,12.4143392 C40.6413578,12.1532199 40.7757572,11.9096794 40.948975,11.6943384 C41.3210453,11.8917344 41.4796147,12.3418265 41.3129887,12.7289277 L41.3129887,12.7289277 Z" id="Path"></path>
                        <path d="M32.267579,7.58930775 L32.0277109,8.95496562 L32.0277109,8.99634916 L28.1297619,31.5903149 C28.0590832,31.9876704 27.7137463,32.2769892 27.3101819,32.2776002 C27.2633069,32.278454 27.2160657,32.2758905 27.1695569,32.2689322 C26.7209485,32.1854326 26.4202893,31.7598776 26.490968,31.3090531 L30.3889171,8.74804778 L30.3889171,8.70666423 L30.6287852,7.30804594 C30.6983653,6.92314207 31.0246592,6.63785176 31.41504,6.6210054 C31.4758311,7.17071106 31.4868174,7.72444523 31.4483652,8.2763483 C31.6358652,7.82991841 31.8717051,7.40509589 32.1518564,7.00993769 C32.2569589,7.183529 32.2979746,7.38861573 32.267579,7.58930775 L32.267579,7.58930775 Z" id="Path"></path>
                        <path d="M48,16.5523303 C47.9992676,16.9178242 47.9743652,17.2829518 47.9256592,17.6447834 C47.5407715,16.0722077 46.5135499,14.7332843 45.0944825,13.9543209 C43.6750491,13.1753576 41.9937748,13.0281346 40.4608158,13.5481759 C39.8895268,10.7754766 37.6303717,7.44867685 34.8662117,7.44867685 C33.5925301,7.44318343 32.3536386,7.86580863 31.3491221,8.64880042 C31.3406992,8.64880042 31.2663583,8.69018397 31.1751718,8.73962455 C30.2695323,5.53404572 27.3479016,3.31764412 24.0164809,3.30995339 C20.6854264,3.30226257 17.7535418,5.50511382 16.8332538,8.70666423 C16.8149432,8.67992964 16.7889422,8.65978726 16.7585467,8.64880042 C15.7540302,7.86580863 14.5151387,7.44318343 13.2414571,7.44867685 C10.7091086,7.44867685 8.66491924,10.8666669 7.92810288,13.6474232 C6.32300041,13.0127531 4.51794683,13.1270157 3.00549579,13.9594481 C1.49304466,14.7915142 0.430666812,16.2553207 0.107668831,17.9509486 C0.0355252098,17.4884047 0,17.0207338 0,16.5523303 C0,7.44867685 6.62072995,9.93132499 7.44836663,12.4143392 C7.44836663,10.3535839 7.02612537,7.92843326 8.20129627,6.14088269 C9.38269264,4.6019998 11.4539816,4.05449145 13.2414571,4.80855134 C14.7418232,5.50657873 15.9239521,6.74478984 16.5516375,8.2763483 C16.5516375,8.2763483 15.7240009,0 24,0 C32.2760019,0 31.4483652,8.2763483 31.4483652,8.2763483 C32.0760507,6.74478984 33.2581795,5.50657873 34.7585456,4.80855134 C36.5460212,4.05449145 38.6173101,4.6019998 39.7987065,6.14088269 C40.9738774,7.92843326 40.5516361,10.3535839 40.5516361,12.4143392 C41.3792728,9.93132499 48,7.44867685 48,16.5523303 L48,16.5523303 Z" id="Path"></path>
                        <path d="M33.7324227,39.791953 C30.777833,42.9371044 28.013673,45.5603835 26.1848158,47.1743428 C24.9364027,48.2752191 23.0636001,48.2752191 21.815187,47.1743428 C19.9943864,45.5603835 17.2221697,42.9371044 14.2675801,39.791953 C19.9749772,35.2895668 28.0250256,35.2895668 33.7324227,39.791953 Z" id="Path"></path>
                    </g>
                </g>
            </g>
        </g>
    </g>
</svg>