<?xml version="1.0" encoding="UTF-8"?>
<svg width="618px" height="609px" viewBox="0 0 618 609" version="1.1" xmlns="http://www.w3.org/2000/svg" xmlns:xlink="http://www.w3.org/1999/xlink">
    <title>CF4D9948-0DD8-4185-9840-1EBD9252624D@1.5x</title>
    <defs>
        <path d="M500,17 C505.522847,17 510,21.4771525 510,27 L510,508 C510,513.522847 505.522847,518 500,518 L10,518 C4.4771525,518 6.76353751e-16,513.522847 0,508 L0,27 C-6.76353751e-16,21.4771525 4.4771525,17 10,17 L500,17 Z M22.8358209,30.0039988 C18.6318624,30.0039988 15.2238806,33.1229749 15.2238806,36.9704268 C15.2238806,40.8178787 18.6318624,43.9368547 22.8358209,43.9368547 C27.0397794,43.9368547 30.4477612,40.8178787 30.4477612,36.9704268 C30.4477612,33.1229749 27.0397794,30.0039988 22.8358209,30.0039988 Z M53.2835821,30.0039988 C49.0796235,30.0039988 45.6716418,33.1229749 45.6716418,36.9704268 C45.6716418,40.8178787 49.0796235,43.9368547 53.2835821,43.9368547 C57.4875406,43.9368547 60.8955224,40.8178787 60.8955224,36.9704268 C60.8955224,33.1229749 57.4875406,30.0039988 53.2835821,30.0039988 Z M85.2537313,30.0039988 C81.0497728,30.0039988 77.641791,33.1229749 77.641791,36.9704268 C77.641791,40.8178787 81.0497728,43.9368547 85.2537313,43.9368547 C89.4576899,43.9368547 92.8656716,40.8178787 92.8656716,36.9704268 C92.8656716,33.1229749 89.4576899,30.0039988 85.2537313,30.0039988 Z M115.701493,30.0039988 C111.497534,30.0039988 108.089552,33.1229749 108.089552,36.9704268 C108.089552,40.8178787 111.497534,43.9368547 115.701493,43.9368547 C119.905451,43.9368547 123.313433,40.8178787 123.313433,36.9704268 C123.313433,33.1229749 119.905451,30.0039988 115.701493,30.0039988 Z M146.149254,30.0039988 C141.945295,30.0039988 138.537313,33.1229749 138.537313,36.9704268 C138.537313,40.8178787 141.945295,43.9368547 146.149254,43.9368547 C150.353212,43.9368547 153.761194,40.8178787 153.761194,36.9704268 C153.761194,33.1229749 150.353212,30.0039988 146.149254,30.0039988 Z M176.597015,30.0039988 C172.393056,30.0039988 168.985075,33.1229749 168.985075,36.9704268 C168.985075,40.8178787 172.393056,43.9368547 176.597015,43.9368547 C180.800973,43.9368547 184.208955,40.8178787 184.208955,36.9704268 C184.208955,33.1229749 180.800973,30.0039988 176.597015,30.0039988 Z M208.567164,30.0039988 C204.363206,30.0039988 200.955224,33.1229749 200.955224,36.9704268 C200.955224,40.8178787 204.363206,43.9368547 208.567164,43.9368547 C212.771123,43.9368547 216.179104,40.8178787 216.179104,36.9704268 C216.179104,33.1229749 212.771123,30.0039988 208.567164,30.0039988 Z M239.014925,30.0039988 C234.810967,30.0039988 231.402985,33.1229749 231.402985,36.9704268 C231.402985,40.8178787 234.810967,43.9368547 239.014925,43.9368547 C243.218884,43.9368547 246.626866,40.8178787 246.626866,36.9704268 C246.626866,33.1229749 243.218884,30.0039988 239.014925,30.0039988 Z M269.462687,30.0039988 C265.258728,30.0039988 261.850746,33.1229749 261.850746,36.9704268 C261.850746,40.8178787 265.258728,43.9368547 269.462687,43.9368547 C273.666645,43.9368547 277.074627,40.8178787 277.074627,36.9704268 C277.074627,33.1229749 273.666645,30.0039988 269.462687,30.0039988 Z M301.432836,30.0039988 C297.228877,30.0039988 293.820896,33.1229749 293.820896,36.9704268 C293.820896,40.8178787 297.228877,43.9368547 301.432836,43.9368547 C305.636794,43.9368547 309.044776,40.8178787 309.044776,36.9704268 C309.044776,33.1229749 305.636794,30.0039988 301.432836,30.0039988 Z M331.880597,30.0039988 C327.676638,30.0039988 324.268657,33.1229749 324.268657,36.9704268 C324.268657,40.8178787 327.676638,43.9368547 331.880597,43.9368547 C336.084556,43.9368547 339.492537,40.8178787 339.492537,36.9704268 C339.492537,33.1229749 336.084556,30.0039988 331.880597,30.0039988 Z M362.328358,30.0039988 C358.1244,30.0039988 354.716418,33.1229749 354.716418,36.9704268 C354.716418,40.8178787 358.1244,43.9368547 362.328358,43.9368547 C366.532317,43.9368547 369.940299,40.8178787 369.940299,36.9704268 C369.940299,33.1229749 366.532317,30.0039988 362.328358,30.0039988 Z M394.298507,30.0039988 C390.094549,30.0039988 386.686567,33.1229749 386.686567,36.9704268 C386.686567,40.8178787 390.094549,43.9368547 394.298507,43.9368547 C398.502466,43.9368547 401.910448,40.8178787 401.910448,36.9704268 C401.910448,33.1229749 398.502466,30.0039988 394.298507,30.0039988 Z M424.746269,30.0039988 C420.54231,30.0039988 417.134328,33.1229749 417.134328,36.9704268 C417.134328,40.8178787 420.54231,43.9368547 424.746269,43.9368547 C428.950227,43.9368547 432.358209,40.8178787 432.358209,36.9704268 C432.358209,33.1229749 428.950227,30.0039988 424.746269,30.0039988 Z M455.19403,30.0039988 C450.990071,30.0039988 447.58209,33.1229749 447.58209,36.9704268 C447.58209,40.8178787 450.990071,43.9368547 455.19403,43.9368547 C459.397988,43.9368547 462.80597,40.8178787 462.80597,36.9704268 C462.80597,33.1229749 459.397988,30.0039988 455.19403,30.0039988 Z M485.641791,30.0039988 C481.437833,30.0039988 478.029851,33.1229749 478.029851,36.9704268 C478.029851,40.8178787 481.437833,43.9368547 485.641791,43.9368547 C489.84575,43.9368547 493.253731,40.8178787 493.253731,36.9704268 C493.253731,33.1229749 489.84575,30.0039988 485.641791,30.0039988 Z" id="path-1"></path>
        <filter x="-17.1%" y="-15.0%" width="134.1%" height="134.7%" filterUnits="objectBoundingBox" id="filter-2">
            <feOffset dx="0" dy="12" in="SourceAlpha" result="shadowOffsetOuter1"></feOffset>
            <feGaussianBlur stdDeviation="27" in="shadowOffsetOuter1" result="shadowBlurOuter1"></feGaussianBlur>
            <feColorMatrix values="0 0 0 0 0   0 0 0 0 0   0 0 0 0 0  0 0 0 0.114291958 0" type="matrix" in="shadowBlurOuter1"></feColorMatrix>
        </filter>
    </defs>
    <g id="BrainGym-New-(As-per-Mobile)" stroke="none" stroke-width="1" fill="none" fill-rule="evenodd">
        <g id="Brain-gym-page---Updated-3" transform="translate(-406.000000, -188.000000)">
            <g id="Background" transform="translate(460.000000, 213.000000)">
                <g id="Combined-Shape">
                    <use fill="black" fill-opacity="1" filter="url(#filter-2)" xlink:href="#path-1"></use>
                    <use fill="#FFFFFF" fill-rule="evenodd" xlink:href="#path-1"></use>
                </g>
                <g id="Spirals" transform="translate(9.000000, 0.000000)" stroke="#696A6A">
                    <path d="M12.2457866,39.7674621 L1.58938029,24.3046351 C0.554276943,22.8026631 1.99974527e-15,21.021616 0,19.1975111 L0,10.7380614 C1.47886941e-15,8.30889219 0.884215945,5.96277669 2.48751488,4.13786692 L3.67674203,2.78426267 C5.23160417,1.01448473 7.47329164,4.32750188e-16 9.82907394,0 L10.3941397,0 C12.4305715,1.40227037e-15 14.4095241,0.675260928 16.0211995,1.92007308 L17.0890311,2.74483577 C18.0269707,3.46927367 18.8286676,4.35467124 19.4567097,5.35971063 L20.4038526,6.87539871 C20.8732568,7.62657395 21.240776,8.43678656 21.4967631,9.28476952 L22.095629,11.2685722 C22.2443884,11.7613528 22.3199777,12.2733075 22.3199777,12.7880522 L22.3199777,13.5643545 L22.3199777,14.6976567 C22.3199777,15.4456478 22.1705097,16.1860981 21.8803526,16.8755179" id="Path-2"></path>
                    <path d="M44.199275,39.7674621 L33.5428687,24.3046351 C32.5077653,22.8026631 31.9534884,21.021616 31.9534884,19.1975111 L31.9534884,10.7380614 C31.9534884,8.30889219 32.8377043,5.96277669 34.4410033,4.13786692 L35.6302304,2.78426267 C37.1850925,1.01448473 39.42678,4.32750188e-16 41.7825623,0 L42.347628,0 C44.3840599,1.40227037e-15 46.3630125,0.675260928 47.9746879,1.92007308 L49.0425194,2.74483577 C49.9804591,3.46927367 50.7821559,4.35467124 51.4101981,5.35971063 L52.357341,6.87539871 C52.8267452,7.62657395 53.1942643,8.43678656 53.4502515,9.28476952 L54.0491173,11.2685722 C54.1978768,11.7613528 54.2734661,12.2733075 54.2734661,12.7880522 L54.2734661,13.5643545 L54.2734661,14.6976567 C54.2734661,15.4456478 54.1239981,16.1860981 53.833841,16.8755179" id="Path-2-Copy"></path>
                    <path d="M74.6311687,39.7674621 L63.9747624,24.3046351 C62.939659,22.8026631 62.3853821,21.021616 62.3853821,19.1975111 L62.3853821,10.7380614 C62.3853821,8.30889219 63.269598,5.96277669 64.8728969,4.13786692 L66.0621241,2.78426267 C67.6169862,1.01448473 69.8586737,4.32750188e-16 72.214456,0 L72.7795217,0 C74.8159536,1.40227037e-15 76.7949062,0.675260928 78.4065816,1.92007308 L79.4744131,2.74483577 C80.4123528,3.46927367 81.2140496,4.35467124 81.8420918,5.35971063 L82.7892347,6.87539871 C83.2586389,7.62657395 83.626158,8.43678656 83.8821452,9.28476952 L84.481011,11.2685722 C84.6297705,11.7613528 84.7053598,12.2733075 84.7053598,12.7880522 L84.7053598,13.5643545 L84.7053598,14.6976567 C84.7053598,15.4456478 84.5558918,16.1860981 84.2657347,16.8755179" id="Path-2-Copy-2"></path>
                    <path d="M105.063062,39.7674621 L94.406656,24.3046351 C93.3715527,22.8026631 92.8172757,21.021616 92.8172757,19.1975111 L92.8172757,10.7380614 C92.8172757,8.30889219 93.7014917,5.96277669 95.3047906,4.13786692 L96.4940178,2.78426267 C98.0488799,1.01448473 100.290567,4.32750188e-16 102.64635,0 L103.211415,0 C105.247847,1.40227037e-15 107.2268,0.675260928 108.838475,1.92007308 L109.906307,2.74483577 C110.844246,3.46927367 111.645943,4.35467124 112.273985,5.35971063 L113.221128,6.87539871 C113.690533,7.62657395 114.058052,8.43678656 114.314039,9.28476952 L114.912905,11.2685722 C115.061664,11.7613528 115.137253,12.2733075 115.137253,12.7880522 L115.137253,13.5643545 L115.137253,14.6976567 C115.137253,15.4456478 114.987785,16.1860981 114.697628,16.8755179" id="Path-2-Copy-3"></path>
                    <path d="M135.494956,39.7674621 L124.83855,24.3046351 C123.803446,22.8026631 123.249169,21.021616 123.249169,19.1975111 L123.249169,10.7380614 C123.249169,8.30889219 124.133385,5.96277669 125.736684,4.13786692 L126.925911,2.78426267 C128.480774,1.01448473 130.722461,4.32750188e-16 133.078243,0 L133.643309,0 C135.679741,-2.1504433e-15 137.658694,0.675260928 139.270369,1.92007308 L140.3382,2.74483577 C141.27614,3.46927367 142.077837,4.35467124 142.705879,5.35971063 L143.653022,6.87539871 C144.122426,7.62657395 144.489945,8.43678656 144.745933,9.28476952 L145.344798,11.2685722 C145.493558,11.7613528 145.569147,12.2733075 145.569147,12.7880522 L145.569147,13.5643545 L145.569147,14.6976567 C145.569147,15.4456478 145.419679,16.1860981 145.129522,16.8755179" id="Path-2-Copy-4"></path>
                    <path d="M165.92685,39.7674621 L155.270443,24.3046351 C154.23534,22.8026631 153.681063,21.021616 153.681063,19.1975111 L153.681063,10.7380614 C153.681063,8.30889219 154.565279,5.96277669 156.168578,4.13786692 L157.357805,2.78426267 C158.912667,1.01448473 161.154355,4.32750188e-16 163.510137,0 L164.075203,0 C166.111635,-2.1504433e-15 168.090587,0.675260928 169.702263,1.92007308 L170.770094,2.74483577 C171.708034,3.46927367 172.509731,4.35467124 173.137773,5.35971063 L174.084916,6.87539871 C174.55432,7.62657395 174.921839,8.43678656 175.177826,9.28476952 L175.776692,11.2685722 C175.925452,11.7613528 176.001041,12.2733075 176.001041,12.7880522 L176.001041,13.5643545 L176.001041,14.6976567 C176.001041,15.4456478 175.851573,16.1860981 175.561416,16.8755179" id="Path-2-Copy-5"></path>
                    <path d="M197.880338,39.7674621 L187.223932,24.3046351 C186.188828,22.8026631 185.634551,21.021616 185.634551,19.1975111 L185.634551,10.7380614 C185.634551,8.30889219 186.518767,5.96277669 188.122066,4.13786692 L189.311294,2.78426267 C190.866156,1.01448473 193.107843,4.32750188e-16 195.463625,0 L196.028691,0 C198.065123,-2.1504433e-15 200.044076,0.675260928 201.655751,1.92007308 L202.723583,2.74483577 C203.661522,3.46927367 204.463219,4.35467124 205.091261,5.35971063 L206.038404,6.87539871 C206.507808,7.62657395 206.875327,8.43678656 207.131315,9.28476952 L207.73018,11.2685722 C207.87894,11.7613528 207.954529,12.2733075 207.954529,12.7880522 L207.954529,13.5643545 L207.954529,14.6976567 C207.954529,15.4456478 207.805061,16.1860981 207.514904,16.8755179" id="Path-2-Copy-6"></path>
                    <path d="M228.312232,39.7674621 L217.655825,24.3046351 C216.620722,22.8026631 216.066445,21.021616 216.066445,19.1975111 L216.066445,10.7380614 C216.066445,8.30889219 216.950661,5.96277669 218.55396,4.13786692 L219.743187,2.78426267 C221.298049,1.01448473 223.539737,4.32750188e-16 225.895519,0 L226.460585,0 C228.497017,-2.1504433e-15 230.475969,0.675260928 232.087645,1.92007308 L233.155476,2.74483577 C234.093416,3.46927367 234.895113,4.35467124 235.523155,5.35971063 L236.470298,6.87539871 C236.939702,7.62657395 237.307221,8.43678656 237.563208,9.28476952 L238.162074,11.2685722 C238.310834,11.7613528 238.386423,12.2733075 238.386423,12.7880522 L238.386423,13.5643545 L238.386423,14.6976567 C238.386423,15.4456478 238.236955,16.1860981 237.946798,16.8755179" id="Path-2-Copy-7"></path>
                    <path d="M260.26572,39.7674621 L249.609314,24.3046351 C248.57421,22.8026631 248.019934,21.021616 248.019934,19.1975111 L248.019934,10.7380614 C248.019934,8.30889219 248.904149,5.96277669 250.507448,4.13786692 L251.696676,2.78426267 C253.251538,1.01448473 255.493225,4.32750188e-16 257.849007,0 L258.414073,0 C260.450505,3.17862721e-15 262.429458,0.675260928 264.041133,1.92007308 L265.108965,2.74483577 C266.046904,3.46927367 266.848601,4.35467124 267.476643,5.35971063 L268.423786,6.87539871 C268.89319,7.62657395 269.26071,8.43678656 269.516697,9.28476952 L270.115563,11.2685722 C270.264322,11.7613528 270.339911,12.2733075 270.339911,12.7880522 L270.339911,13.5643545 L270.339911,14.6976567 C270.339911,15.4456478 270.190443,16.1860981 269.900286,16.8755179" id="Path-2-Copy-8"></path>
                    <path d="M290.697614,39.7674621 L280.041208,24.3046351 C279.006104,22.8026631 278.451827,21.021616 278.451827,19.1975111 L278.451827,10.7380614 C278.451827,8.30889219 279.336043,5.96277669 280.939342,4.13786692 L282.128569,2.78426267 C283.683431,1.01448473 285.925119,4.32750188e-16 288.280901,0 L288.845967,0 C290.882399,-2.1504433e-15 292.861351,0.675260928 294.473027,1.92007308 L295.540858,2.74483577 C296.478798,3.46927367 297.280495,4.35467124 297.908537,5.35971063 L298.85568,6.87539871 C299.325084,7.62657395 299.692603,8.43678656 299.94859,9.28476952 L300.547456,11.2685722 C300.696216,11.7613528 300.771805,12.2733075 300.771805,12.7880522 L300.771805,13.5643545 L300.771805,14.6976567 C300.771805,15.4456478 300.622337,16.1860981 300.33218,16.8755179" id="Path-2-Copy-9"></path>
                    <path d="M321.129508,39.7674621 L310.473101,24.3046351 C309.437998,22.8026631 308.883721,21.021616 308.883721,19.1975111 L308.883721,10.7380614 C308.883721,8.30889219 309.767937,5.96277669 311.371236,4.13786692 L312.560463,2.78426267 C314.115325,1.01448473 316.357013,4.32750188e-16 318.712795,0 L319.277861,0 C321.314292,-2.1504433e-15 323.293245,0.675260928 324.90492,1.92007308 L325.972752,2.74483577 C326.910692,3.46927367 327.712389,4.35467124 328.340431,5.35971063 L329.287574,6.87539871 C329.756978,7.62657395 330.124497,8.43678656 330.380484,9.28476952 L330.97935,11.2685722 C331.128109,11.7613528 331.203699,12.2733075 331.203699,12.7880522 L331.203699,13.5643545 L331.203699,14.6976567 C331.203699,15.4456478 331.054231,16.1860981 330.764074,16.8755179" id="Path-2-Copy-10"></path>
                    <path d="M353.082996,39.7674621 L342.42659,24.3046351 C341.391486,22.8026631 340.837209,21.021616 340.837209,19.1975111 L340.837209,10.7380614 C340.837209,8.30889219 341.721425,5.96277669 343.324724,4.13786692 L344.513951,2.78426267 C346.068813,1.01448473 348.310501,4.32750188e-16 350.666283,0 L351.231349,0 C353.267781,-2.1504433e-15 355.246733,0.675260928 356.858409,1.92007308 L357.92624,2.74483577 C358.86418,3.46927367 359.665877,4.35467124 360.293919,5.35971063 L361.241062,6.87539871 C361.710466,7.62657395 362.077985,8.43678656 362.333972,9.28476952 L362.932838,11.2685722 C363.081598,11.7613528 363.157187,12.2733075 363.157187,12.7880522 L363.157187,13.5643545 L363.157187,14.6976567 C363.157187,15.4456478 363.007719,16.1860981 362.717562,16.8755179" id="Path-2-Copy-11"></path>
                    <path d="M383.51489,39.7674621 L372.858483,24.3046351 C371.82338,22.8026631 371.269103,21.021616 371.269103,19.1975111 L371.269103,10.7380614 C371.269103,8.30889219 372.153319,5.96277669 373.756618,4.13786692 L374.945845,2.78426267 C376.500707,1.01448473 378.742395,4.32750188e-16 381.098177,0 L381.663243,0 C383.699675,-3.74086465e-16 385.678627,0.675260928 387.290302,1.92007308 L388.358134,2.74483577 C389.296074,3.46927367 390.097771,4.35467124 390.725813,5.35971063 L391.672956,6.87539871 C392.14236,7.62657395 392.509879,8.43678656 392.765866,9.28476952 L393.364732,11.2685722 C393.513491,11.7613528 393.589081,12.2733075 393.589081,12.7880522 L393.589081,13.5643545 L393.589081,14.6976567 C393.589081,15.4456478 393.439613,16.1860981 393.149456,16.8755179" id="Path-2-Copy-12"></path>
                    <path d="M415.468378,39.7674621 L404.811972,24.3046351 C403.776868,22.8026631 403.222591,21.021616 403.222591,19.1975111 L403.222591,10.7380614 C403.222591,8.30889219 404.106807,5.96277669 405.710106,4.13786692 L406.899333,2.78426267 C408.454196,1.01448473 410.695883,4.32750188e-16 413.051665,0 L413.616731,0 C415.653163,-3.74086465e-16 417.632115,0.675260928 419.243791,1.92007308 L420.311622,2.74483577 C421.249562,3.46927367 422.051259,4.35467124 422.679301,5.35971063 L423.626444,6.87539871 C424.095848,7.62657395 424.463367,8.43678656 424.719354,9.28476952 L425.31822,11.2685722 C425.46698,11.7613528 425.542569,12.2733075 425.542569,12.7880522 L425.542569,13.5643545 L425.542569,14.6976567 C425.542569,15.4456478 425.393101,16.1860981 425.102944,16.8755179" id="Path-2-Copy-13"></path>
                    <path d="M447.421866,39.7674621 L436.76546,24.3046351 C435.730357,22.8026631 435.17608,21.021616 435.17608,19.1975111 L435.17608,10.7380614 C435.17608,8.30889219 436.060296,5.96277669 437.663595,4.13786692 L438.852822,2.78426267 C440.407684,1.01448473 442.649371,4.32750188e-16 445.005154,0 L445.570219,0 C447.606651,-2.1504433e-15 449.585604,0.675260928 451.197279,1.92007308 L452.265111,2.74483577 C453.20305,3.46927367 454.004747,4.35467124 454.632789,5.35971063 L455.579932,6.87539871 C456.049337,7.62657395 456.416856,8.43678656 456.672843,9.28476952 L457.271709,11.2685722 C457.420468,11.7613528 457.496057,12.2733075 457.496057,12.7880522 L457.496057,13.5643545 L457.496057,14.6976567 C457.496057,15.4456478 457.346589,16.1860981 457.056432,16.8755179" id="Path-2-Copy-14"></path>
                </g>
            </g>
        </g>
    </g>
</svg>