<?xml version="1.0" encoding="UTF-8"?>
<svg width="80px" height="80px" viewBox="0 0 80 80" version="1.1" xmlns="http://www.w3.org/2000/svg" xmlns:xlink="http://www.w3.org/1999/xlink">
    <title>34949413-BCA2-47EF-BB12-B1423CE75E5B</title>
    <defs>
        <linearGradient x1="26.6125256%" y1="28.1964529%" x2="86.4209676%" y2="81.9140397%" id="linearGradient-1">
            <stop stop-color="#ECAEF0" offset="0%"></stop>
            <stop stop-color="#E06DE8" offset="100%"></stop>
        </linearGradient>
    </defs>
    <g id="BrainGym-New-(As-per-Mobile)" stroke="none" stroke-width="1" fill="none" fill-rule="evenodd">
        <g id="Brain-gym-page---Updated-3" transform="translate(-676.000000, -471.000000)" fill-rule="nonzero">
            <g id="Group-32" transform="translate(460.000000, 213.000000)">
                <g id="Group-11" transform="translate(30.000000, 258.000000)">
                    <g id="Group-9" transform="translate(186.000000, 0.000000)">
                        <circle id="Oval" fill="url(#linearGradient-1)" cx="40" cy="40" r="40"></circle>
                        <g id="noun_belt_4018687" transform="translate(18.000000, 24.000000)" fill="#8E0196">
                            <path d="M10.3633188,9.02382206 C12.3990633,7.43751573 15.8591882,5.63134168 20.7821384,6.03427996 C22.6342632,6.18595391 24.2794267,6.07620312 25.8705844,5.97020527 C30.4768225,5.66337902 34.1414373,5.41989519 38.1971822,12.0414655 C39.7523666,10.0470034 40.4357689,7.84072862 40.2353067,5.44753885 C37.3173452,2.3000984 31.9767195,0.526693975 24.3274827,0.171720177 C19.093038,-0.168424907 14.6826853,0.183070551 11.2099285,1.21741916 C8.36885665,2.06320511 6.14573941,3.36849813 4.58881591,5.09851484 C4.37041275,7.73802604 5.31011389,10.0963409 7.38851385,12.1411474 C8.21813747,10.9587056 9.22096606,9.90783235 10.3633188,9.02382206 L10.3633188,9.02382206 Z M13.3789484,2.22211035 C16.490507,1.6228289 20.1914613,1.45687544 24.3783763,1.72919289 C24.6306132,1.74559752 24.821793,1.96337447 24.8053884,2.21561134 C24.7889837,2.46784821 24.5712068,2.65902802 24.3189699,2.6426234 C20.2095853,2.37552347 16.5872598,2.53635095 13.5519501,3.12089521 C13.523261,3.12641038 13.4941145,3.12919937 13.4649,3.12922493 C13.2290461,3.1289707 13.032006,2.94952392 13.0097578,2.71472155 C12.9875096,2.47991918 13.1473396,2.26665796 13.3789484,2.22211035 L13.3789484,2.22211035 Z M10.3804359,2.98890135 C10.6926627,2.88656491 11.0170637,2.78843909 11.3444854,2.6973615 C11.5026686,2.65143291 11.6733305,2.69404748 11.791355,2.80894562 C11.9093796,2.92384377 11.9565593,3.09330043 11.9148929,3.25265939 C11.8732265,3.41201836 11.7491417,3.53669571 11.589983,3.5791208 C11.2756509,3.66662853 10.9647055,3.76063525 10.6654767,3.85876107 C10.4275872,3.93035128 10.1760242,3.79909362 10.0986655,3.56301689 C10.0213069,3.32694015 10.1464033,3.07225716 10.3805274,2.98917595 L10.3804359,2.98890135 Z" id="Shape"></path>
                            <path d="M35.5868708,15.7314355 C33.7570669,17.0254692 31.7575244,18.06094 29.6447669,18.8085769 C29.6375356,18.8304538 29.6305789,18.8524223 29.6227984,18.8741161 C30.1079353,19.4541752 31.7037613,21.1808051 34.1587374,22.0351038 C34.4486296,22.1357926 34.7248831,22.2305316 34.9922576,22.3216092 C35.8695317,22.0629305 40.9397622,20.4394609 41.9570852,17.2271219 C43.3054914,12.969084 43.0415952,9.40625644 41.1756486,6.6330122 C41.0365149,10.068148 39.1268145,13.1902332 35.5868708,15.7314355 Z" id="Path"></path>
                            <path d="M28.7349977,17.3697339 C27.5559319,14.6621204 20.3132032,16.5103092 17.0367896,17.5070368 L26.0896283,23.2297307 C26.1685935,23.2796606 26.2650787,23.2936183 26.3549565,23.2681136 C26.4448343,23.242609 26.5196072,23.1800532 26.5605773,23.0960892 L28.6841957,18.7469736 C28.9021878,18.3175337 28.9207591,17.814067 28.7349977,17.3697339 L28.7349977,17.3697339 Z" id="Path"></path>
                            <path d="M8.97912233,22.4103069 C12.531881,20.4880661 14.9850264,18.5617062 15.911821,17.789057 C14.9017293,17.5026431 12.2883971,16.6688483 9.71204528,15.0790636 C5.90509318,12.7299023 3.83593827,9.71894094 3.65570532,6.30522438 C2.74730924,7.68594247 2.18894406,9.27948008 1.99553003,11.0574613 C1.78499889,12.9959038 2.00523277,15.1072565 2.65128874,17.3329367 C3.41890356,19.9761093 8.00061024,22.0041649 8.97912233,22.4103069 Z" id="Path"></path>
                            <path d="M42.7267138,27.0451955 C39.4884704,24.8131994 37.8590509,24.2606009 35.1595841,23.3451566 C34.7508791,23.2065722 34.3200226,23.0603904 33.857861,22.8996545 C31.5295697,22.0893842 29.9380459,20.5976338 29.197617,19.7824207 L27.5267321,23.2041923 C27.5474638,23.8773951 27.4952901,24.5508649 27.3711221,25.2128424 C27.9983219,25.6988032 29.8736966,27.1222682 32.0799713,28.5183643 C35.6032556,30.7477059 38.3586505,31.8978466 40.0387804,31.843017 C40.2590183,31.8346477 40.4614673,31.7198207 40.5816762,31.5350923 L42.9146357,27.9823337 C43.1194768,27.6712554 43.0356545,27.2532465 42.7267138,27.0451955 L42.7267138,27.0451955 Z" id="Path"></path>
                            <path d="M25.6006468,24.0032037 L21.647696,21.5042907 C21.1310709,22.1695691 19.8444511,23.7060802 17.6964843,25.5334905 C17.4449453,25.7474389 17.1764419,25.9688628 16.8909739,26.197762 C17.7707055,26.6378296 18.6807821,27.0144204 19.6142398,27.3246527 C21.2512567,27.8592187 23.5112627,28.3109453 24.9823261,27.4258908 C25.9338353,26.8534291 26.471605,25.7532667 26.5896855,24.1521316 C26.2538357,24.2431861 25.8951892,24.1891235 25.6011045,24.0031122 L25.6006468,24.0032037 Z" id="Path"></path>
                            <path d="M3.53634332,31.7718941 C3.7052953,31.9659815 3.97408969,32.0399513 4.21855573,31.9596329 C14.3008002,28.6583217 19.6191827,22.5874276 20.8688223,21.012014 L16.6649733,18.3545619 C14.0142032,20.6452322 7.90587123,24.7854642 0.47595292,26.8710954 C0.261710373,26.9285041 0.0930844879,27.0937624 0.0313660877,27.3068034 C-0.0328400612,27.5153575 0.0166663029,27.7423021 0.16189539,27.9051695 L3.53634332,31.7718941 Z" id="Path"></path>
                        </g>
                    </g>
                </g>
            </g>
        </g>
    </g>
</svg>