<?xml version="1.0" encoding="UTF-8"?>
<svg width="257px" height="152px" viewBox="0 0 257 152" version="1.1" xmlns="http://www.w3.org/2000/svg" xmlns:xlink="http://www.w3.org/1999/xlink">
    <title>6763AAC2-7BBA-4350-9975-6DDB46EF4A0A@1.5x</title>
    <defs>
        <rect id="path-1" x="96" y="56" width="62" height="62"></rect>
        <filter x="-82.3%" y="-82.3%" width="264.5%" height="264.5%" filterUnits="objectBoundingBox" id="filter-2">
            <feMorphology radius="5" operator="dilate" in="SourceAlpha" result="shadowSpreadOuter1"></feMorphology>
            <feOffset dx="0" dy="0" in="shadowSpreadOuter1" result="shadowOffsetOuter1"></feOffset>
            <feGaussianBlur stdDeviation="12" in="shadowOffsetOuter1" result="shadowBlurOuter1"></feGaussianBlur>
            <feColorMatrix values="0 0 0 0 1   0 0 0 0 0.778203506   0 0 0 0 0.47191311  0 0 0 0.4 0" type="matrix" in="shadowBlurOuter1"></feColorMatrix>
        </filter>
    </defs>
    <g id="BrainGym-New-(As-per-Mobile)" stroke="none" stroke-width="1" fill="none" fill-rule="evenodd">
        <g id="Brain-gym-page---Updated-4" transform="translate(-580.000000, -194.000000)">
            <g id="Group-2" transform="translate(393.000000, 154.000000)">
                <g id="Group-17" transform="translate(187.000000, 40.000000)">
                    <g id="undraw_treasure_of9i" transform="translate(128.500000, 86.500000) scale(-1, 1) translate(-128.500000, -86.500000) translate(0.000000, 29.000000)" fill="#FFE9E3" fill-rule="nonzero" opacity="0.70719401">
                        <g id="Group-11">
                            <ellipse id="Oval" cx="86.5065359" cy="98.6909091" rx="84.4068627" ry="16.3090909"></ellipse>
                            <path d="M19.3126482,94.7351507 C19.3126482,94.7351507 3.63262901,90.5457074 0.674307634,90.8551377 C-2.28401374,91.164568 5.15605767,76.4878652 10.111017,78.277707 C15.0659763,80.0675488 21.6725888,84.7757428 25.4491043,78.1260255 C29.2256198,71.4763081 31.3443763,67.8966245 35.9451919,68.2545929 C40.5460075,68.6125612 46.9175418,65.3938796 51.5153045,68.2545929 C56.1130671,71.1153061 59.3431022,74.643418 65.6932657,74.4917365 C72.0434293,74.340055 78.0638728,60.0243542 83.0096732,65.751848 C87.9554737,71.4793418 93.8873812,76.7184211 98.5370443,74.8133013 C103.186707,72.9081816 108.492757,75.7719285 112.739429,78.9936437 C116.986101,82.2153589 124.420067,80.7834855 127.250164,78.277707 C130.08026,75.7719285 132.208176,73.9820867 138.222513,74.3339878 C144.236851,74.6858889 163.351454,78.9875764 170.431276,84.3449673 C177.511097,89.7023582 161.229644,96.5158916 153.441535,96.5158916 C145.653426,96.5158916 144.239904,98.6637017 137.514226,101.885417 C130.788548,105.107132 119.807039,100.095575 112.031142,105.465101 C104.255244,110.834626 94.323955,102.601354 80.8909167,105.465101 C67.4578785,108.328847 70.2727106,112.263466 62.4846014,109.40882 C54.6964921,106.554174 57.529642,105.465101 46.2031484,104.755231 C34.8766548,104.045362 22.4907829,106.545073 21.4283517,101.891484 C20.3659205,97.2378956 13.2952577,96.1639905 9.04553284,94.732117 C4.79580801,93.3002436 19.3126482,94.7351507 19.3126482,94.7351507 Z" id="Path"></path>
                            <path d="M214.886425,55.66016 L215.489608,55.2715556 L215.667546,55.1561887 C212.947234,54.6913205 210.910987,52.3894837 210.766344,49.6157171 C210.621702,46.8419505 212.407352,44.3381547 215.064364,43.5891346 L215.034205,46.0361282 L216.370253,43.3735805 L216.370253,43.3735805 C217.933222,43.3002121 219.461121,43.8549152 220.61778,44.9156436 C221.774439,45.976372 222.465095,47.4562222 222.53779,49.0295968 C222.53779,49.1449637 222.53779,49.2542587 222.53779,49.3665897 C223.008814,48.8509609 223.401142,48.2677625 223.701932,47.6360855 C224.268923,46.3640132 224.277971,44.9279983 224.235748,43.1792783 C224.145271,39.71827 223.997491,36.229938 223.804473,32.7507138 C220.922783,32.4297727 218.701081,30.0465105 218.565836,27.1311293 C218.55677,26.9521232 218.55677,26.7727683 218.565836,26.5937622 C218.565836,26.5482226 218.565836,26.502683 218.565836,26.4601794 C218.565836,26.287129 218.592979,26.1171146 218.620123,25.9471001 C218.61869,25.9197954 218.61869,25.8924336 218.620123,25.8651289 C218.641234,25.7224382 218.671393,25.5827835 218.704568,25.4431287 C218.704568,25.3915172 218.731711,25.3399057 218.743775,25.2882942 C218.785998,25.1364955 218.831236,24.9846969 218.885523,24.8389703 C218.903618,24.7903947 218.921714,24.7448551 218.942825,24.6962796 C218.985048,24.5869846 219.030286,24.4807255 219.078541,24.3744665 C219.102668,24.319819 219.126796,24.2621355 219.153939,24.207488 L219.17505,24.1649844 L219.17505,24.1649844 C220.462651,21.6079262 223.380466,20.3410888 226.111644,21.1533 L226.072437,24.3380349 L227.393406,21.7088829 C229.132692,22.7174187 230.242054,24.5481427 230.336935,26.5664384 C230.361304,27.0810192 230.317695,27.5965793 230.207251,28.0996044 L230.207251,28.0996044 C230.207251,28.142108 230.183123,28.1815757 230.174076,28.2240793 C230.165028,28.2665829 230.134869,28.3819498 230.113757,28.4578491 C230.092646,28.5337484 230.056455,28.6551873 230.02328,28.7614463 C229.990105,28.8677054 229.975026,28.907173 229.947882,28.9800363 C229.920739,29.0528997 229.860421,29.1864825 229.815182,29.2836336 C229.788039,29.341317 229.763912,29.4020365 229.736769,29.4627559 C229.661371,29.6145545 229.579941,29.7663531 229.49248,29.9120798 C229.462321,29.9636913 229.42613,30.0122669 229.395971,30.0608424 C229.332637,30.1579936 229.269302,30.2581806 229.199937,30.3644397 C229.130571,30.4706987 229.112475,30.4798066 229.067236,30.5344541 C229.021998,30.5891016 228.937552,30.6983966 228.868186,30.7773319 C228.79882,30.8562672 228.768661,30.8866269 228.717391,30.9412744 C228.66612,30.9959219 228.572627,31.093073 228.494213,31.1659363 L228.340402,31.311663 L228.071986,31.5363249 L227.933254,31.6456199 C227.791506,31.748843 227.649759,31.8459941 227.498963,31.9492172 L227.414518,31.9977927 C227.290488,32.0741703 227.162646,32.1440896 227.031497,32.2072748 L226.862606,32.2831741 C226.757049,32.3317497 226.648476,32.3803252 226.536888,32.4197928 L226.343869,32.4896202 C226.235297,32.5290878 226.126724,32.5624835 226.015135,32.5928433 L225.816085,32.6444548 C225.695449,32.6748145 225.571796,32.6991023 225.448144,32.7203541 L225.424017,32.7203541 C225.504441,34.1897646 225.576823,35.6581632 225.641162,37.1255498 C226.3512,35.6560765 227.631935,34.5465111 229.181188,34.0586463 C230.730441,33.5707814 232.410997,33.7478265 233.826343,34.5480094 L232.785854,37.426111 L234.930166,35.352542 C236.079905,36.4105209 236.765454,37.8846473 236.836222,39.4511045 C236.862936,40.0009982 236.812167,40.5519296 236.685426,41.0874935 C236.139031,43.4650563 234.202662,45.2636455 231.804573,45.6210577 C229.406484,45.9784699 227.035473,44.8218544 225.828149,42.7056667 C225.828149,42.8544293 225.828149,43.0092639 225.828149,43.1519546 C225.867355,44.6942285 225.91561,46.6129629 225.152585,48.3131073 C224.606838,49.4176846 223.871749,50.4166555 222.981129,51.2640723 C222.444297,51.8135833 221.88937,52.3448784 221.322378,52.8609937 C220.761456,53.616249 220.030748,54.2269686 219.19013,54.6431094 C218.255197,55.3676947 217.288096,56.0467405 216.288824,56.6802467 L215.767071,57.0627792 C215.206112,57.414952 214.630073,57.7731967 214.066098,58.1466213 L214.367689,58.1223335 C216.932141,58.0016693 219.279678,59.5644193 220.173317,61.9871261 L216.487874,65.0230983 L220.544273,64.075875 C220.536749,66.1121219 219.494895,68.0029533 217.782865,69.0874757 C216.070835,70.1719981 213.926638,70.2994403 212.099724,69.425258 C212.193217,69.537589 212.283695,69.6529559 212.374172,69.7683229 L212.911004,70.4423087 C215.323732,73.5025687 215.978185,76.4049581 214.789916,78.6181818 L213.345295,77.831865 C214.500389,75.6763248 212.763225,72.919662 211.62321,71.4563234 C211.451303,71.2346974 211.273365,71.0130715 211.095426,70.7914455 C209.563344,68.875747 207.826179,66.7019909 207.868402,64.0364073 C207.898561,60.0167801 211.774006,57.6001463 214.886425,55.66016 Z" id="Path"></path>
                            <path d="M184.519202,52.1584894 L183.581183,51.5742166 C183.48952,51.519441 183.400912,51.4616224 183.312304,51.4038037 C187.43466,50.700092 190.517874,47.2465042 190.73747,43.0866853 C190.957065,38.9268665 188.254471,35.1703122 184.228935,34.0399466 L184.274767,37.7129532 L182.249012,33.7173793 L182.224568,33.7173793 C179.853444,33.6074869 177.535614,34.4402805 175.781041,36.032531 C174.026468,37.6247815 172.9789,39.8460409 172.868819,42.2075934 C172.868819,42.3780063 172.868819,42.5453761 172.868819,42.7127459 C172.153201,41.9373503 171.557014,41.06053 171.09972,40.1109061 C170.241142,38.2059333 170.225865,36.0483843 170.293085,33.4161137 C170.427524,28.2185203 170.653626,22.9813667 170.946948,17.7624717 C175.315948,17.2782172 178.683767,13.7034076 178.891086,9.33007632 C178.891086,9.05619845 178.891086,8.78840675 178.891086,8.52061506 L178.891086,8.31977128 C178.872753,8.06110885 178.84831,7.8054895 178.808589,7.55291324 C178.808589,7.51031002 178.808589,7.47074988 178.787201,7.42814665 C178.750536,7.21513053 178.704704,7.0051575 178.652762,6.79518446 C178.634429,6.71606419 178.616097,6.639987 178.594709,6.56086672 C178.530544,6.33263516 178.463325,6.11048978 178.380828,5.88834439 C178.356385,5.81531029 178.32583,5.74531928 178.295276,5.67228518 C178.231112,5.50795846 178.163892,5.34971791 178.090561,5.19147736 C178.050841,5.10627091 178.014175,5.02410755 177.974455,4.94194419 C177.963034,4.92125095 177.952832,4.89991326 177.9439,4.87803935 L177.9439,4.87803935 C176.487269,2.01734121 173.598788,0.157587807 170.381692,0.00909939712 C169.387065,-0.0354530677 168.391874,0.0838161488 167.436251,0.362097544 L167.494304,5.14278796 L165.492992,1.18677425 C162.10912,3.10957322 160.37549,7.00187384 161.21538,10.7907583 L161.21538,10.7907583 C161.21538,10.8516201 161.24899,10.9124818 161.264267,10.9763866 C161.291766,11.0950671 161.32232,11.2107044 161.352874,11.3263417 C161.383429,11.441979 161.444538,11.6306505 161.493425,11.7675894 C161.542312,11.9045283 161.566755,11.9866917 161.609531,12.0931997 C161.667585,12.2514403 161.73786,12.3975085 161.808135,12.5587921 C161.847855,12.6500848 161.884521,12.7413774 161.927297,12.8296269 C162.040348,13.0578585 162.162565,13.283047 162.297005,13.5021492 C162.342836,13.5812695 162.394779,13.6543036 162.443666,13.7273377 C162.54144,13.876449 162.636158,14.0316465 162.749209,14.1655423 C162.813374,14.2537919 162.883649,14.3359552 162.950868,14.4211617 C163.018088,14.5063681 163.149472,14.6676517 163.256412,14.7863322 L163.482514,15.0328222 C163.59251,15.1484596 163.705561,15.2610538 163.821668,15.370605 L164.056937,15.5866642 C164.188321,15.7023015 164.325815,15.8148957 164.466365,15.9214038 C164.53664,15.9761794 164.60386,16.033998 164.677191,16.0887736 C164.888016,16.2439711 165.104952,16.3930823 165.331054,16.5269782 C165.37383,16.554366 165.419662,16.5756676 165.462438,16.6000123 C165.651875,16.7095634 165.844368,16.8160715 166.039916,16.904321 L166.299628,17.0199584 C166.461566,17.0929925 166.623504,17.1629835 166.791553,17.2238452 C166.889327,17.2634054 166.987101,17.2968793 167.097097,17.3303533 C167.262091,17.3851289 167.43014,17.4368613 167.598189,17.4825077 L167.903733,17.5616279 C168.090114,17.6042312 168.276496,17.6407482 168.462878,17.6742222 L168.499543,17.6742222 C168.373252,19.8774175 168.263256,22.0806128 168.169556,24.2838082 C167.091005,22.0787503 165.147198,20.4142457 162.796508,19.6828045 C160.445819,18.9513632 157.896316,19.2177281 155.749202,20.4190871 L157.331919,24.7341851 L154.077878,21.6241497 C152.332227,23.2115413 151.292293,25.4253336 151.187434,27.7772726 C151.146005,28.6023895 151.222128,29.4291916 151.413536,30.2330442 C152.246534,33.7930284 155.178851,36.4847401 158.809219,37.0218906 C162.439588,37.5590411 166.030936,35.8325732 167.867067,32.6675141 C167.867067,32.8927026 167.867067,33.1178911 167.845679,33.3400365 C167.787626,35.655826 167.71124,38.5345868 168.869251,41.1059957 C169.654498,42.8496848 170.919449,44.2616774 172.166068,45.5306449 C172.980851,46.3583647 173.820078,47.1576823 174.683749,47.9285978 C175.531781,49.0637232 176.638789,49.9816321 177.913346,50.6065148 C179.339217,51.6918827 180.807864,52.7062452 182.319287,53.6496023 L183.266473,54.2338751 C184.115884,54.7603292 184.989739,55.3019988 185.845262,55.8619269 C185.695546,55.8619269 185.539718,55.831496 185.393057,55.8254098 C181.502065,55.6426359 177.939542,57.9883602 176.584231,61.6255345 L182.172626,66.1566918 L176.02203,64.738613 C176.027937,67.8017955 177.611174,70.6478139 180.215665,72.27707 C182.820155,73.906326 186.081742,74.0910182 188.854868,72.7662778 C188.714318,72.9366907 188.576823,73.1071036 188.439328,73.2805595 C188.164339,73.6213853 187.88935,73.9591681 187.623527,74.2939077 C183.9845,78.8859267 182.973151,83.2405848 184.772803,86.5636364 L186.966608,85.3859615 C185.212786,82.1511595 187.849629,78.0125606 189.579007,75.8337099 C189.838719,75.5020134 190.107597,75.1703169 190.379531,74.8355772 C192.704719,71.9598596 195.338506,68.6976698 195.268231,64.6990529 C195.118515,58.7011275 189.242909,55.0828965 184.519202,52.1584894 Z" id="Path"></path>
                            <path d="M139.820261,97.7708311 C139.820261,97.7708311 129.262312,94.9478156 127.273352,95.1543026 C125.284393,95.3607895 130.290347,85.4956447 133.6246,86.6975837 C136.958852,87.8995226 141.409607,91.0677103 143.950716,86.5958811 C146.491825,82.124052 147.916432,79.7170923 151.018843,79.9574801 C154.121253,80.1978678 158.404227,78.0312959 161.500537,79.9574801 C164.596846,81.8836642 166.768838,84.2536412 171.045711,84.1519387 C175.322584,84.0502362 179.370665,74.4223973 182.704918,78.2716837 C186.03917,82.1209701 190.026241,85.6497395 193.156106,84.3676713 C196.285972,83.0856031 199.867319,85.0117873 202.719584,87.1783592 C205.571849,89.3449312 210.580854,88.38338 212.481348,86.6975837 C214.381841,85.0117873 215.818651,83.8098484 219.869783,84.0502362 C223.920915,84.2906239 236.785089,87.1783592 241.55005,90.7903398 C246.315011,94.4023203 235.35438,98.9727701 230.113534,98.9727701 C224.872687,98.9727701 223.917864,100.418179 219.390846,102.584751 C214.863828,104.751323 207.478444,101.37973 202.237597,104.99171 C196.99675,108.603691 190.325195,103.065526 181.271159,104.99171 C172.217123,106.917894 174.123717,109.565242 168.87982,107.639058 C163.635922,105.712874 165.545567,104.99171 157.92224,104.510935 C150.298913,104.030159 141.958706,105.712874 141.241826,102.584751 C140.524947,99.4566275 135.750834,98.7323823 132.90467,97.7708311 C130.058506,96.80928 139.820261,97.7708311 139.820261,97.7708311 Z" id="Path"></path>
                            <path d="M154.098364,101.115081 C154.098364,101.115081 143.540149,98.2919852 141.551141,98.50156 C139.562133,98.7111348 144.56821,88.8395458 147.902544,90.0446008 C151.236877,91.2496559 155.68774,94.4117696 158.228911,89.9398134 C160.770082,85.4678572 162.194725,83.0639111 165.297211,83.3043057 C168.399697,83.5447003 172.682775,81.3780668 175.77916,83.3043057 C178.875545,85.2305446 181.047591,87.5975069 185.324568,87.4958015 C189.601545,87.3940961 193.649725,77.7659837 196.987109,81.6184615 C200.324494,85.4709392 204.308611,88.9936449 207.438553,87.7146223 C210.568495,86.4355996 214.149929,88.3587565 216.999213,90.52539 C219.848498,92.6920235 224.863726,91.7273631 226.761215,90.0446008 C228.658704,88.3618385 230.095549,87.1537015 234.14678,87.3940961 C238.198011,87.6344907 251.062499,90.52539 255.827576,94.1343912 C260.592653,97.7433924 249.634806,102.320136 244.390781,102.320136 C239.146755,102.320136 238.198011,103.762504 233.670882,105.929137 C229.143754,108.095771 221.755139,104.727164 216.514164,108.336165 C211.273189,111.945166 204.601471,106.413008 195.547214,108.336165 C186.492957,110.259322 188.399598,112.909827 183.158624,110.98667 C177.917649,109.063513 179.821239,108.336165 172.197726,107.855376 C164.574213,107.374587 156.233802,109.060431 155.519956,105.929137 C154.806109,102.797843 150.044083,102.079741 147.182596,101.115081 C144.321109,100.15042 154.098364,101.115081 154.098364,101.115081 Z" id="Path"></path>
                        </g>
                    </g>
                    <g id="Group" transform="translate(61.000000, 0.000000)" fill-rule="nonzero">
                        <g id="Group-2" transform="translate(0.931912, 0.000000)">
                            <g id="Group" fill="#FCEA42">
                                <path d="M128.827506,4.75249587 L126.441811,4.75249587 L126.441811,2.37624793 C126.441811,1.06388244 125.373699,0 124.056116,0 C122.738534,0 121.670422,1.06388244 121.670422,2.37624793 L121.670422,4.75249587 L119.284727,4.75249587 C117.967145,4.75249587 116.899033,5.81637831 116.899033,7.1287438 C116.899033,8.4411093 117.967145,9.50499174 119.284727,9.50499174 L121.670422,9.50499174 L121.670422,11.8812397 C121.670422,13.1936052 122.738534,14.2574876 124.056116,14.2574876 C125.373699,14.2574876 126.441811,13.1936052 126.441811,11.8812397 L126.441811,9.50499174 L128.827506,9.50499174 C130.145088,9.50499174 131.2132,8.4411093 131.2132,7.1287438 C131.2132,5.81637831 130.145088,4.75249587 128.827506,4.75249587 Z" id="Path"></path>
                                <path d="M85.8850037,9.50499174 L83.4993092,9.50499174 L83.4993092,7.1287438 C83.4993092,5.81637831 82.4311973,4.75249587 81.1136146,4.75249587 C79.7960319,4.75249587 78.7279201,5.81637831 78.7279201,7.1287438 L78.7279201,9.50499174 L76.3422255,9.50499174 C75.0246428,9.50499174 73.956531,10.5688742 73.956531,11.8812397 C73.956531,13.1936052 75.0246428,14.2574876 76.3422255,14.2574876 L78.7279201,14.2574876 L78.7279201,16.6337355 C78.7279201,17.946101 79.7960319,19.0099835 81.1136146,19.0099835 C82.4311973,19.0099835 83.4993092,17.946101 83.4993092,16.6337355 L83.4993092,14.2574876 L85.8850037,14.2574876 C87.2025864,14.2574876 88.2706983,13.1936052 88.2706983,11.8812397 C88.2706983,10.5688742 87.2025864,9.50499174 85.8850037,9.50499174 Z" id="Path"></path>
                                <path d="M11.9284727,30.8912231 L9.54277819,30.8912231 L9.54277819,28.5149752 C9.54277819,27.2026097 8.47466636,26.1387273 7.15708364,26.1387273 C5.83950093,26.1387273 4.77138909,27.2026097 4.77138909,28.5149752 L4.77138909,30.8912231 L2.38569455,30.8912231 C1.06811183,30.8912231 0,31.9551056 0,33.2674711 C0,34.5798366 1.06811183,35.643719 2.38569455,35.643719 L4.77138909,35.643719 L4.77138909,38.0199669 C4.77138909,39.3323324 5.83950093,40.3962149 7.15708364,40.3962149 C8.47466636,40.3962149 9.54277819,39.3323324 9.54277819,38.0199669 L9.54277819,35.643719 L11.9284727,35.643719 C13.2460555,35.643719 14.3141673,34.5798366 14.3141673,33.2674711 C14.3141673,31.9551056 13.2460555,30.8912231 11.9284727,30.8912231 Z" id="Path"></path>
                                <ellipse id="Oval" cx="102.584866" cy="11.8812397" rx="2.38569455" ry="2.37624793"></ellipse>
                                <ellipse id="Oval" cx="93.0420873" cy="33.2674711" rx="2.38569455" ry="2.37624793"></ellipse>
                                <ellipse id="Oval-Copy" cx="139.637681" cy="47.1907978" rx="2.38569455" ry="2.37624793"></ellipse>
                                <ellipse id="Oval" cx="40.5568073" cy="30.8912231" rx="2.38569455" ry="2.37624793"></ellipse>
                                <ellipse id="Oval" cx="4.77138909" cy="9.50499174" rx="2.38569455" ry="2.37624793"></ellipse>
                            </g>
                            <g id="Group-4" transform="translate(114.513338, 19.009983)">
                                <path d="M9.54277819,19.0099835 C9.54277819,13.7605215 5.27033087,9.50499174 0,9.50499174 C5.27033087,9.50499174 9.54277819,5.24946198 9.54277819,0 C9.54277819,5.24946198 13.8152255,9.50499174 19.0855564,9.50499174 C13.8152255,9.50499174 9.54277819,13.7605215 9.54277819,19.0099835 Z" id="Path" fill="#FCEA42"></path>
                                <path d="M15.5308715,10.2178661 C14.3327527,10.6785035 13.2440419,11.3825541 12.3340408,12.2852018 C10.5504022,14.0729271 9.54729713,16.4896335 9.54277819,19.0099835 C9.54277819,13.7605215 5.27033087,9.50499174 0,9.50499174 C2.53036941,9.50049069 4.95668329,8.50135765 6.75151557,6.72478165 C7.65775167,5.81838388 8.36460122,4.73398404 8.82706983,3.54060942 L8.56464343,4.89507074 C8.25586073,6.45032808 8.7460166,8.05653749 9.87150364,9.17756794 C10.9969907,10.2985984 12.6095855,10.7868134 14.1710256,10.4792534 L15.5308715,10.2178661 Z" id="Path" fill="#FDC741"></path>
                            </g>
                            <g id="Group-3" transform="translate(51.609283, 16.578042)">
                                <path d="M9.54277819,19.0099835 C9.54277819,13.7605215 5.27033087,9.50499174 0,9.50499174 C5.27033087,9.50499174 9.54277819,5.24946198 9.54277819,0 C9.54277819,5.24946198 13.8152255,9.50499174 19.0855564,9.50499174 C13.8152255,9.50499174 9.54277819,13.7605215 9.54277819,19.0099835 Z" id="Path" fill="#FCEA42"></path>
                                <path d="M15.5308715,10.2178661 C14.3327527,10.6785035 13.2440419,11.3825541 12.3340408,12.2852018 C10.5504022,14.0729271 9.54729713,16.4896335 9.54277819,19.0099835 C9.54277819,13.7605215 5.27033087,9.50499174 0,9.50499174 C2.53036941,9.50049069 4.95668329,8.50135765 6.75151557,6.72478165 C7.65775167,5.81838388 8.36460122,4.73398404 8.82706983,3.54060942 L8.56464343,4.89507074 C8.25586073,6.45032808 8.7460166,8.05653749 9.87150364,9.17756794 C10.9969907,10.2985984 12.6095855,10.7868134 14.1710256,10.4792534 L15.5308715,10.2178661 Z" id="Path" fill="#FDC741"></path>
                            </g>
                            <g id="Group-3-Copy" transform="translate(116.843114, 53.706913)">
                                <path d="M7.21527131,14.3734021 C7.21527131,10.4042967 3.98488431,7.18670107 0,7.18670107 C3.98488431,7.18670107 7.21527131,3.9691054 7.21527131,0 C7.21527131,3.9691054 10.4456583,7.18670107 14.4305426,7.18670107 C10.4456583,7.18670107 7.21527131,10.4042967 7.21527131,14.3734021 Z" id="Path" fill="#FCEA42"></path>
                                <path d="M11.7428541,7.72570365 C10.8369594,8.07399044 10.0137878,8.60632141 9.32573817,9.28881113 C7.97713334,10.6405059 7.21868807,12.4677717 7.21527131,14.3734021 C7.21527131,10.4042967 3.98488431,7.18670107 0,7.18670107 C1.91320614,7.18329784 3.74773614,6.42785578 5.10480445,5.08459101 C5.79000736,4.39926586 6.32445458,3.57935379 6.67412597,2.67704615 L6.475706,3.70115105 C6.24223616,4.87707733 6.61284182,6.09152834 7.46381982,6.93913673 C8.31479782,7.78674513 9.5340768,8.1558833 10.7146779,7.92333793 L11.7428541,7.72570365 Z" id="Path" fill="#FDC741"></path>
                            </g>
                            <g id="Group-5-Copy" transform="translate(19.085556, 4.641109)">
                                <path d="M9.54277819,19.0099835 C9.54277819,13.7605215 5.27033087,9.50499174 0,9.50499174 C5.27033087,9.50499174 9.54277819,5.24946198 9.54277819,0 C9.54277819,5.24946198 13.8152255,9.50499174 19.0855564,9.50499174 C13.8152255,9.50499174 9.54277819,13.7605215 9.54277819,19.0099835 Z" id="Path" fill="#FCEA42"></path>
                                <path d="M15.5308715,10.2178661 C14.3327527,10.6785035 13.2440419,11.3825541 12.3340408,12.2852018 C10.5504022,14.0729271 9.54729713,16.4896335 9.54277819,19.0099835 C9.54277819,13.7605215 5.27033087,9.50499174 0,9.50499174 C2.53036941,9.50049069 4.95668329,8.50135765 6.75151557,6.72478165 C7.65775167,5.81838388 8.36460122,4.73398404 8.82706983,3.54060942 L8.56464343,4.89507074 C8.25586073,6.45032808 8.7460166,8.05653749 9.87150364,9.17756794 C10.9969907,10.2985984 12.6095855,10.7868134 14.1710256,10.4792534 L15.5308715,10.2178661 Z" id="Path" fill="#FDC741"></path>
                            </g>
                        </g>
                    </g>
                    <g id="Rectangle" fill="black" fill-opacity="1">
                        <use filter="url(#filter-2)" xlink:href="#path-1"></use>
                    </g>
                    <g id="oyster" transform="translate(82.000341, 45.000177)" fill-rule="nonzero">
                        <path d="M19.2415031,51.2273035 C15.0566733,47.5637909 12.4619086,43.9612658 8.67938447,39.8694213 C6.72107148,37.7575475 4.89331269,35.5279532 3.20675115,33.1934035 C1.71389227,31.1176966 0,28.8519352 0,26.1642247 C-0.0280129927,23.3091526 1.58546671,20.6916486 4.14972138,19.4328925 C6.71326675,18.1741361 9.77277602,18.4982215 12.0163215,20.2647353 C12.0340598,20.2845917 12.0709555,20.3016116 12.090113,20.321468 L12.0532172,20.3583442 C12.0340598,20.3406153 12.0340598,20.3016116 12.0163215,20.2647353 C11.4458564,19.1995792 11.1521095,18.008193 11.1599143,16.8004962 C11.1521095,14.8205257 11.9311774,12.9185626 13.3268302,11.5137197 C14.7224831,10.1081677 16.6190666,9.31461934 18.6000846,9.30823696 C20.9280646,9.30823696 23.1198142,10.405305 24.515467,12.2682643 C24.5878395,12.2150774 24.6701452,12.1767829 24.7574179,12.1562174 C24.3735602,11.255586 24.1770194,10.2868755 24.1798576,9.30823696 C24.1472189,5.44332318 27.0846884,2.1996324 30.9353278,1.8478898 C34.7859672,1.4961472 38.2633918,4.15407298 38.9317726,7.96012656 C38.9878256,7.96012656 39.0424597,7.94097942 39.0807746,7.94097942 C39.0651648,7.77361784 39.0580695,7.60483821 39.0616171,7.43605858 C39.0616171,4.77955085 40.479975,2.32444429 42.7817023,0.996190334 C45.0834296,-0.332063445 47.9194357,-0.332063445 50.2218727,0.996190334 C52.5235998,2.32444429 53.9419577,4.77955085 53.9419577,7.43605858 C53.9447958,7.60483821 53.9384101,7.77361784 53.9220908,7.94097942 C53.9611152,7.94097942 54.0150397,7.96012656 54.0718024,7.96012656 C54.7401832,4.15407298 58.2176078,1.4961472 62.0682472,1.8478898 C65.9188864,2.1996324 68.8563559,5.44332318 68.823008,9.30823696 C68.8258459,10.2868755 68.6300148,11.255586 68.2461569,12.1562174 C68.3334296,12.1767829 68.4157355,12.2150774 68.4881081,12.2682643 C69.8823417,10.4060141 72.0726721,9.30965519 74.3999426,9.30823696 C76.3809607,9.31461934 78.2775443,10.1081677 79.673197,11.5137197 C81.0688498,12.9185626 81.8479179,14.8205257 81.840113,16.8004962 C81.8479179,18.008193 81.5541708,19.1995792 80.9837058,20.2647353 C80.9659675,20.3016116 80.9659675,20.3406153 80.94681,20.3583442 L80.9099143,20.321468 C80.9290717,20.3016116 80.9659675,20.2845917 80.9837058,20.2647353 C83.2272514,18.4982215 86.2867607,18.1741361 88.8503058,19.4328925 C91.4145607,20.6916486 93.0280402,23.3091526 93.0007187,26.1642247 C93.0007187,28.8519352 91.2825873,31.1176966 89.7932761,33.1934035 C88.107424,35.5279532 86.2810844,37.7575475 84.3234809,39.8694213 C80.5381186,43.9612658 77.9433539,47.5637909 73.7585241,51.2273035 L19.2415031,51.2273035 Z" id="Path" fill="#FCA834"></path>
                        <g id="Group" transform="translate(6.702624, 14.331893)" fill="#E57E25">
                            <path d="M52.6246948,33.6900142 C52.0031433,33.6900142 51.4369353,33.3304708 51.1736983,32.7673991 C50.9097519,32.2043273 50.9956055,31.5398457 51.3936538,31.061873 L67.4276963,11.8309134 C68.0009995,11.1756509 68.992218,11.0976436 69.6613082,11.655042 C70.3303985,12.2117316 70.4318618,13.2002984 69.8911973,13.8817997 L53.8564453,33.1134684 C53.5520552,33.4786851 53.100792,33.6900142 52.6246948,33.6900142 L52.6246948,33.6900142 Z" id="Path"></path>
                            <path d="M47.8147659,28.8826288 C47.2677154,28.8826288 46.7589798,28.6039296 46.4638137,28.1436858 C46.1693572,27.683442 46.1296233,27.1047687 46.3588027,26.6083577 L55.9793701,5.77469997 C56.3504561,4.97051435 57.3033599,4.62018997 58.1072617,4.9910799 C58.9111633,5.36196983 59.2623824,6.31366041 58.8912964,7.1171371 L49.270729,27.9515038 C49.0082016,28.5188306 48.439865,28.8826288 47.8147659,28.8826288 L47.8147659,28.8826288 Z" id="Path"></path>
                            <path d="M43.0041275,27.2799309 C42.542221,27.2799309 42.1016006,27.0806572 41.7972107,26.7331696 C41.4921111,26.3856819 41.352333,25.9240199 41.413353,25.4659034 L44.6204453,1.4268495 C44.6843032,0.848885293 45.0560989,0.351765066 45.5917969,0.125543648 C46.1274947,-0.0999688379 46.7433701,-0.0177064547 47.2017288,0.34041853 C47.6600874,0.697834401 47.8878479,1.2757986 47.7984466,1.84950777 L44.5913543,25.8885619 C44.4856338,26.6842378 43.8073196,27.2785125 43.0041275,27.2799309 Z" id="Path"></path>
                            <path d="M26.970085,33.6900142 C26.493988,33.6900142 26.0427246,33.4786851 25.7383345,33.1134684 L9.70358276,13.8817997 C9.32043457,13.4442489 9.20478053,12.8329542 9.40132132,12.2854841 C9.59786229,11.7380135 10.0760879,11.3401757 10.6501006,11.2458577 C11.224823,11.1508305 11.8052215,11.3749244 12.1670837,11.8309134 L28.201126,31.061873 C28.5991744,31.5398457 28.6850281,32.2043273 28.4210815,32.7673991 C28.1578445,33.3304708 27.5916367,33.6900142 26.970085,33.6900142 Z" id="Path"></path>
                            <path d="M31.7800139,28.8826288 C31.1549148,28.8826288 30.5865784,28.5188306 30.3240508,27.9515038 L20.7034834,7.1171371 C20.3323975,6.31366041 20.6836167,5.36196983 21.4875183,4.9910799 C22.2914199,4.62018997 23.2443237,4.97051435 23.6154097,5.77469997 L33.2359771,26.6083577 C33.4651565,27.1047687 33.4254226,27.683442 33.1309661,28.1436858 C32.8358001,28.6039296 32.3270645,28.8826288 31.7800139,28.8826288 Z" id="Path"></path>
                            <path d="M36.5906524,27.2799309 C35.7874602,27.2785125 35.109146,26.6842378 35.0034256,25.8885619 L31.7963333,1.84950777 C31.7005462,0.983625312 32.314293,0.200005243 33.1785049,0.0851214788 C34.0420074,-0.0297621034 34.8402329,0.565931016 34.9743347,1.4268495 L38.181427,25.4659034 C38.2424468,25.9240199 38.1026687,26.3856819 37.7975693,26.7331696 C37.4931792,27.0806572 37.0525589,27.2799309 36.5906524,27.2799309 Z" id="Path"></path>
                            <path d="M79.5947798,44.9081922 C78.9675522,45.0365498 78.4730071,45.5187776 78.3282622,46.1421279 C78.0238723,47.3760637 76.6608582,48.1135885 74.6564253,48.1135885 C72.170929,48.1135885 70.4389571,46.8477406 70.4389571,45.7095411 C70.4389571,42.5686783 67.1843262,40.1008068 63.0151062,40.1008068 C58.8465957,40.1008068 55.5912551,42.5686783 55.5912551,45.7095411 C55.5912551,46.8477406 53.8592834,48.1135885 51.3744964,48.1135885 C48.889,48.1135885 47.1570281,46.8477406 47.1570281,45.7095411 C47.1570281,42.5686783 43.902397,40.1008068 39.7331772,40.1008068 C35.5639571,40.1008068 32.3093262,42.5686783 32.3093262,45.7095411 C32.3093262,46.8477406 30.5773545,48.1135885 28.0925674,48.1135885 C26.0881348,48.1135885 24.7251206,47.3760637 24.420021,46.1421279 C24.3973159,46.0307901 24.3597107,45.922998 24.3079146,45.8215883 C24.3213958,45.7861304 24.3263626,45.7478358 24.3242339,45.7095411 C24.3242339,42.5686783 20.9887161,40.1008068 16.7400283,40.1008068 C12.4906311,40.1008068 9.15582275,42.5686783 9.15582275,45.7095411 C9.15582275,46.8477406 7.42385106,48.1135885 4.93835449,48.1135885 C2.93392186,48.1135885 1.5709075,47.3760637 1.26651759,46.1421279 C1.12177272,45.5187776 0.627227783,45.0365498 0,44.9081922 C1.17002101,41.6552822 6.28504935,38.7704255 13.7897872,36.7351408 C17.9724883,35.6323993 22.2339478,34.8558707 26.5365601,34.4112285 L53.0582198,34.4112285 C57.3608321,34.8558707 61.6222915,35.6323993 65.8049927,36.7351408 C73.3097305,38.7704255 78.4247588,41.6552822 79.5947798,44.9081922 L79.5947798,44.9081922 Z" id="Path"></path>
                        </g>
                        <path d="M57.2753471,64.0162675 C62.4308188,58.2309526 62.0930808,49.4090211 56.5104697,44.0343092 C50.9278586,38.659597 42.0941642,38.6532145 36.5037482,44.0194167 C30.9126227,49.3856189 30.562113,58.2075504 35.7090705,63.9999568 L57.2753471,64.0162675 Z" id="Path" fill="#FF5364"></path>
                        <path d="M38.8480475,53.6426973 C38.6848547,53.6426973 38.5230812,53.6171676 38.3669836,53.5668173 C37.5233481,53.301592 37.0536369,52.4030883 37.3190024,51.5591896 C37.4162086,51.2492874 37.529734,50.9450585 37.6588691,50.6472119 C39.5888007,46.141928 44.6002372,43.8087967 49.293093,45.2306594 C50.1409858,45.4873748 50.6192116,46.3823328 50.3616508,47.2297772 C50.1047995,48.0765123 49.2093681,48.5551943 48.3614753,48.2977697 C44.9933188,47.291474 41.4399741,49.1707439 40.3778022,52.5208085 C40.1677802,53.1881266 39.5483573,53.6426973 38.8480475,53.6426973 Z" id="Path" fill="#FFD1D5"></path>
                        <path d="M86.5868966,60.7307363 C86.5868966,61.261896 86.4889777,61.7895099 86.2974035,62.2852117 C86.2995322,62.3029406 86.2938559,62.3206695 86.2817939,62.3334343 C86.0866721,63.1603132 85.7957633,63.9616622 85.4154533,64.7211709 C81.1185172,73.5835243 65.3242973,80.1382762 46.5003684,80.1382762 C27.6757301,80.1382762 11.88151,73.5835243 7.58457394,64.7211709 C7.20426388,63.9616622 6.91335516,63.1603132 6.71823335,62.3334343 C6.72036199,62.3157054 6.71468572,62.2979765 6.70262369,62.2852117 C6.51104951,61.7895099 6.41313058,61.261896 6.41313058,60.7307363 C6.4110053,60.639964 6.41668157,60.5484825 6.43016276,60.4584195 C6.42803411,60.4406904 6.43371038,60.4229614 6.44577241,60.4101965 L6.44577241,60.3619739 C6.4415153,60.3577189 6.43938665,60.3520456 6.43938665,60.3463723 C6.43938665,60.33999 6.4415153,60.3343167 6.44577241,60.3300616 C6.43229122,60.2612733 6.42732462,60.1917759 6.43016276,60.1215691 C6.39752412,60.1059676 6.43016276,60.0896571 6.43016276,60.0577448 L6.46209173,60.2336161 C6.47273478,60.0662547 6.49969697,59.8996024 6.54226899,59.7372052 C6.59051728,59.5769354 6.63805608,59.4003548 6.70262369,59.2400851 C7.32985148,59.3684428 7.82439642,59.8506705 7.96914129,60.4740209 C8.2735312,61.7079566 9.63654555,62.4454814 11.6409782,62.4454814 C14.1264748,62.4454814 15.8584464,61.1796336 15.8584464,60.0414341 C15.8584464,56.9005713 19.1932548,54.4326998 23.442652,54.4326998 C27.6913398,54.4326998 31.0268576,56.9005713 31.0268576,60.0414341 C31.0289863,60.0797287 31.0240195,60.1180234 31.0105383,60.1534812 C31.0623344,60.2548909 31.0999396,60.362683 31.1226447,60.4740209 C31.4277443,61.7079566 32.7907585,62.4454814 34.7951911,62.4454814 C37.2799782,62.4454814 39.0119499,61.1796336 39.0119499,60.0414341 C39.0119499,56.9005713 42.2665808,54.4326998 46.4358009,54.4326998 C50.6050207,54.4326998 53.8596518,56.9005713 53.8596518,60.0414341 C53.8596518,61.1796336 55.5916237,62.4454814 58.0771201,62.4454814 C60.5619071,62.4454814 62.2938788,61.1796336 62.2938788,60.0414341 C62.2938788,56.9005713 65.5492194,54.4326998 69.7177299,54.4326998 C73.8869499,54.4326998 77.1415808,56.9005713 77.1415808,60.0414341 C77.1415808,61.1796336 78.8735526,62.4454814 81.359049,62.4454814 C83.3634818,62.4454814 84.726496,61.7079566 85.0308859,60.4740209 C85.1756308,59.8506705 85.6701759,59.3684428 86.2974035,59.2400851 C86.3619711,59.4003548 86.4095099,59.5769354 86.4577582,59.7372052 C86.5003303,59.8996024 86.5272926,60.0662547 86.5379355,60.2336161 L86.5698645,60.0577448 C86.5698645,60.0896571 86.6025031,60.1059676 86.5698645,60.1215691 C86.5727028,60.1917759 86.567736,60.2612733 86.5542548,60.3300616 C86.5705741,60.3541731 86.5705741,60.3860852 86.5542548,60.4101965 C86.5663168,60.4229614 86.5719931,60.4406904 86.5698645,60.4584195 C86.5833456,60.5484825 86.5890219,60.639964 86.5868966,60.7307363 L86.5868966,60.7307363 Z" id="Path" fill="#FCA834"></path>
                    </g>
                </g>
            </g>
        </g>
    </g>
</svg>