<?xml version="1.0" encoding="UTF-8"?>
<svg width="27px" height="18px" viewBox="0 0 27 18" version="1.1" xmlns="http://www.w3.org/2000/svg" xmlns:xlink="http://www.w3.org/1999/xlink">
    <title>students</title>
    <g id="Page-1" stroke="none" stroke-width="1" fill="none" fill-rule="evenodd">
        <g id="My-Classes" transform="translate(-807.000000, -222.000000)" fill="#454C4E" fill-rule="nonzero">
            <g id="Class-alert" transform="translate(290.000000, 110.000000)">
                <g id="Group-29" transform="translate(0.000000, 51.000000)">
                    <g id="Group-31" transform="translate(30.000000, 30.000000)">
                        <g id="Group-26" transform="translate(487.000000, 31.000000)">
                            <g id="students" transform="translate(0.000000, 0.048660)">
                                <path d="M3.43736786,0 C2.22657582,0 1.24151934,0.985056482 1.24151934,2.19584852 C1.24151934,3.40664056 2.22657582,4.39169704 3.43736786,4.39169704 C4.6481599,4.39169704 5.63321638,3.40664056 5.63321638,2.19584852 C5.63321638,0.985056482 4.6481599,0 3.43736786,0 Z M3.43736786,3.60521444 C2.66027124,3.60521444 2.02805438,2.97299757 2.02805438,2.19590095 C2.02805438,1.41880434 2.66021881,0.786587474 3.43736786,0.786587474 C4.21446448,0.786587474 4.84668134,1.41880434 4.84668134,2.19590095 C4.84668134,2.97299757 4.21446448,3.60521444 3.43736786,3.60521444 Z" id="Shape"></path>
                                <path d="M12.533331,0 C11.3225389,0 10.3374824,0.985056482 10.3374824,2.19584852 C10.3374824,3.40664056 11.3225389,4.39169704 12.533331,4.39169704 C13.744123,4.39169704 14.7291795,3.40664056 14.7291795,2.19584852 C14.7291795,0.985056482 13.7441754,0 12.533331,0 Z M12.533331,3.60521444 C11.7562343,3.60521444 11.1240175,2.97299757 11.1240175,2.19590095 C11.1240175,1.41880434 11.7561819,0.786587474 12.533331,0.786587474 C13.3104276,0.786587474 13.9426444,1.41880434 13.9426444,2.19590095 C13.9426444,2.97299757 13.31048,3.60521444 12.533331,3.60521444 Z" id="Shape"></path>
                                <path d="M21.6292941,0 C20.418502,0 19.4334455,0.985056482 19.4334455,2.19584852 C19.4334455,3.40664056 20.418502,4.39169704 21.6292941,4.39169704 C22.8401385,4.39169704 23.825195,3.40664056 23.825195,2.19584852 C23.825195,0.985056482 22.8401385,0 21.6292941,0 Z M21.6292941,3.60521444 C20.8521974,3.60521444 20.2199806,2.97299757 20.2199806,2.19590095 C20.2199806,1.41880434 20.8521974,0.786587474 21.6292941,0.786587474 C22.4063907,0.786587474 23.03866,1.41880434 23.03866,2.19590095 C23.03866,2.97299757 22.4063907,3.60521444 21.6292941,3.60521444 Z" id="Shape"></path>
                                <path d="M26.8456993,10.4556724 C26.8456993,10.1149455 26.6068024,9.82948568 26.2878887,9.7566001 L26.2878887,9.04405179 C26.2878887,8.82681081 26.1118621,8.65078427 25.8946211,8.65078427 C25.6773802,8.65078427 25.5013536,8.82681081 25.5013536,9.04405179 L25.5013536,9.73798543 L20.9886351,9.73798543 L20.9886351,6.51476485 C21.472826,6.51476485 25.0033196,6.51476485 25.5013536,6.51476485 L25.5013536,7.20869849 C25.5013536,7.42593947 25.6773802,7.60196601 25.8946211,7.60196601 C26.1118621,7.60196601 26.2878887,7.42593947 26.2878887,7.20869849 L26.2878887,6.44586438 C26.2878887,6.05013238 25.9659336,5.72817737 25.5702541,5.72817737 L24.8972947,5.72817737 C24.5873475,5.03309014 23.8926273,4.56919178 23.1147441,4.56919178 L20.1440013,4.56919178 C19.0677067,4.56919178 18.1919786,5.44491989 18.1919786,6.52126687 L18.1919786,10.782871 L17.7496838,10.782871 L17.7496838,10.4555676 C17.7496838,10.1148406 17.5107869,9.82943324 17.1918731,9.75649523 L17.1918731,6.44586438 C17.1918731,6.05013238 16.8699181,5.72817737 16.4741861,5.72817737 L15.8012792,5.72817737 C15.4912795,5.03309014 14.7966117,4.56919178 14.0187286,4.56919178 L11.0479858,4.56919178 C9.97169121,4.56919178 9.0959631,5.44491989 9.0959631,6.52126687 L9.0959631,10.782871 L8.65366823,10.782871 L8.65366823,10.4555676 C8.65366823,10.1148406 8.41477132,9.82938081 8.09580515,9.75644279 L8.09580515,6.44581194 C8.09580515,6.05007995 7.77385014,5.72812494 7.37817058,5.72812494 L6.70526363,5.72812494 C6.39526396,5.03303771 5.70059621,4.56919178 4.92271306,4.56919178 L1.95197022,4.56919178 C0.87562324,4.56934909 0,5.44502476 0,6.52131931 C0,6.82801554 0,15.9825493 0,16.513775 C0,17.0113371 0.404803366,17.4161405 0.902365431,17.4161405 L12.505173,17.4161405 C12.722414,17.4161405 12.8984405,17.2401139 12.8984405,17.022873 C12.8984405,16.805632 12.722414,16.6296054 12.505173,16.6296054 L0.902365431,16.6296054 C0.838498786,16.6296054 0.786535038,16.5776417 0.786535038,16.513775 L0.786535038,11.5694585 C1.10240751,11.5694585 25.5015634,11.5694585 26.0591643,11.5694585 L26.0591643,16.4559909 C26.0591643,16.551686 25.9812973,16.6296054 25.8854973,16.6296054 L14.3404739,16.6296054 C14.1232329,16.6296054 13.9472063,16.805632 13.9472063,17.022873 C13.9472063,17.2401139 14.1232329,17.4161405 14.3404739,17.4161405 L25.8854973,17.4161405 C26.4149403,17.4161405 26.8456993,16.9854339 26.8456993,16.4559909 C26.8456993,12.5293458 26.8487406,13.8921489 26.8456993,10.4556724 Z M7.30932254,6.51476485 L7.30932254,9.73798543 L2.79670885,9.73798543 L2.79670885,6.51476485 C3.28095226,6.51476485 6.81128856,6.51476485 7.30932254,6.51476485 Z M2.01012138,6.44591682 L2.01012138,9.75591843 C1.8527095,9.79183687 1.71144781,9.88344198 1.61428451,10.0022612 C1.42016766,10.2397424 1.45231073,10.463328 1.45231073,10.7829759 L0.786535038,10.7829759 L0.786535038,6.52137174 C0.786535038,5.87872018 1.3093711,5.35588412 1.95197022,5.35588412 L4.9227655,5.35588412 C5.25384431,5.35588412 5.55980644,5.4968312 5.77531704,5.72828225 L2.72775595,5.72828225 C2.33207639,5.72822981 2.01012138,6.05018482 2.01012138,6.44591682 Z M7.86713319,10.7829759 L2.23884577,10.7829759 L2.23884577,10.5245205 C2.80420715,10.5245205 7.27807089,10.5245205 7.86713319,10.5245205 L7.86713319,10.7829759 Z M16.4053381,6.51476485 L16.4053381,9.73798543 L11.8926195,9.73798543 L11.8926195,6.51476485 C12.3768629,6.51476485 15.9073041,6.51476485 16.4053381,6.51476485 Z M11.1061369,6.44591682 L11.1061369,9.75591843 C10.9369794,9.79451109 10.7758971,9.90016896 10.671655,10.0539103 C10.6698721,10.0565846 10.6683515,10.0594161 10.6665687,10.0620903 C10.5230523,10.2800129 10.5483263,10.4580845 10.5483263,10.7829759 L9.88255057,10.7829759 L9.88255057,6.52137174 C9.88255057,5.87872018 10.4053866,5.35588412 11.0480382,5.35588412 L14.018781,5.35588412 C14.3498598,5.35588412 14.655822,5.4968312 14.8713326,5.72828225 L11.8238239,5.72828225 C11.4280395,5.72822981 11.1061369,6.05018482 11.1061369,6.44591682 Z M16.9631487,10.7829759 L11.3348613,10.7829759 L11.3348613,10.5245205 C11.8915184,10.5245205 15.9132818,10.5245205 16.4742385,10.5245205 L16.9631487,10.5245205 L16.9631487,10.7829759 Z M20.2021525,6.44591682 L20.2021525,9.75591843 C20.0311597,9.79493057 19.8709163,9.90163716 19.7676705,10.0539103 C19.6179142,10.2745072 19.6443942,10.4636427 19.6443942,10.7829759 L18.9785661,10.7829759 L18.9785661,6.52137174 C18.9785661,5.87872018 19.5014022,5.35588412 20.1440537,5.35588412 L23.1147966,5.35588412 C23.4458754,5.35588412 23.7518375,5.4968312 23.9673481,5.72828225 L20.9198395,5.72828225 C20.524055,5.72822981 20.2021525,6.05018482 20.2021525,6.44591682 Z M26.0591643,10.7829759 L20.4308768,10.7829759 L20.4308768,10.5245205 L20.919787,10.5245205 C21.4806389,10.5245205 25.5026121,10.5245205 26.0591643,10.5245205 L26.0591643,10.7829759 L26.0591643,10.7829759 Z" id="Shape"></path>
                            </g>
                        </g>
                    </g>
                </g>
            </g>
        </g>
    </g>
</svg>