<?xml version="1.0" encoding="UTF-8"?>
<svg width="39px" height="39px" viewBox="0 0 39 39" version="1.1" xmlns="http://www.w3.org/2000/svg" xmlns:xlink="http://www.w3.org/1999/xlink">
    <title>015D0642-DC94-45FA-8CFA-968251F97D18@1.5x</title>
    <g id="BrainGym-New-(As-per-Mobile)" stroke="none" stroke-width="1" fill="none" fill-rule="evenodd">
        <g id="Brain-gym-page---Updated-9" transform="translate(-588.000000, -264.000000)" fill-rule="nonzero">
            <g id="Group-2" transform="translate(50.000000, 219.000000)">
                <g id="Group-11" transform="translate(30.037265, 40.000000)">
                    <g id="Group-16" transform="translate(507.962823, 0.000000)">
                        <g id="target" transform="translate(0.000000, 5.044706)">
                            <path d="M31.0469309,7.81006683 C27.5016599,4.26514445 22.8448513,2.49163701 18.187694,2.49058938 C13.5280952,2.48884683 8.8674501,4.26235427 5.31973763,7.81006683 C-1.77324588,14.9033991 -1.77324588,26.4442765 5.31973763,33.5372601 C8.8674501,37.0853213 13.5280952,38.8588288 18.187694,38.8570862 C22.8448513,38.8560386 27.5016599,37.0825312 31.0469309,33.5372601 C38.1399145,26.4442765 38.1399145,14.9033991 31.0469309,7.81006683 Z" id="Path" fill="#FFF16B"></path>
                            <path d="M31.0469309,33.5372601 C27.5016599,37.0825312 22.8448513,38.8560386 18.187694,38.8570849 L18.187694,2.49059067 C22.8448513,2.49163701 27.5016599,4.26514445 31.0469309,7.81006683 C38.1399145,14.9033991 38.1399145,26.4442765 31.0469309,33.5372601 Z" id="Path" fill="#FFD321"></path>
                            <path d="M26.7148294,29.2055074 C24.363755,31.5565818 21.2757244,32.7319447 18.187694,32.732645 C15.0961757,32.7347349 12.0046575,31.5583257 9.65149037,29.2055074 C4.94724875,24.5012657 4.94724875,16.8464099 9.65149037,12.1421683 C12.0046575,9.78900117 15.0961757,8.61294076 18.187694,8.6139864 C21.2757244,8.6146846 24.363755,9.79074501 26.7148294,12.1421683 C31.4194199,16.8464099 31.4194199,24.5012657 26.7148294,29.2055074 L26.7148294,29.2055074 Z" id="Path" fill="#FEAF45"></path>
                            <path d="M26.7148294,29.2055074 C24.363755,31.5565818 21.2757244,32.7319447 18.187694,32.7326422 L18.187694,8.6139871 C21.2757244,8.6146846 24.363755,9.79074501 26.7148294,12.1421683 C31.4194199,16.8464099 31.4194199,24.5012657 26.7148294,29.2055074 Z" id="Path" fill="#FA6F2C"></path>
                            <path d="M22.3098345,24.7914444 C21.1731854,25.9280934 19.6807884,26.4962437 18.187694,26.4962437 C16.6945995,26.4962437 15.2025513,25.9280934 14.0655534,24.7914444 C11.7922552,22.5188436 11.7922552,18.8197639 14.0655534,16.5471632 C15.2025513,15.4105141 16.6945995,14.8423639 18.187694,14.8423639 C19.6807884,14.8423639 21.1731854,15.4105141 22.3098345,16.5471632 C24.5834816,18.8197639 24.5834816,22.5188436 22.3098345,24.7914444 Z" id="Path" fill="#FF6464"></path>
                            <path d="M22.3098345,24.7914444 C21.1731854,25.9280934 19.6807884,26.4962437 18.187694,26.4962437 L18.187694,14.8423639 C19.6807884,14.8423639 21.1731854,15.4105141 22.3098345,16.5471632 C24.5834816,18.8197639 24.5834816,22.5188436 22.3098345,24.7914444 Z" id="Path" fill="#F72828"></path>
                            <path d="M38.7677753,6.10345306 C38.5672312,5.52762986 38.0660453,5.12619285 37.4602277,5.05643838 L34.1793261,4.67767164 L33.8009081,1.39711884 C33.7308049,0.790952433 33.3297166,0.290115321 32.7538934,0.0892224402 C32.1777215,-0.11132169 31.5520239,0.0316750227 31.1205924,0.463106413 L24.6351704,6.94852851 C24.2930247,7.29067418 24.128753,7.76256316 24.1842077,8.24352027 L24.6533066,12.3095085 L17.4761983,19.4866167 C16.9530398,20.0097752 16.9530398,20.8579896 17.4761983,21.3811481 C17.9990081,21.9043067 18.8472225,21.9043067 19.3703811,21.3811481 L26.5474892,14.2036911 L30.6134775,14.6731388 C31.0940858,14.7285936 31.5663236,14.5639731 31.9084692,14.2218273 L38.3938913,7.7364053 C38.8253227,7.30497382 38.9683194,6.67927625 38.7677753,6.10345306 Z" id="Path" fill="#B2E3FC"></path>
                        </g>
                    </g>
                </g>
            </g>
        </g>
    </g>
</svg>