<?xml version="1.0" encoding="UTF-8"?>
<svg width="20px" height="20px" viewBox="0 0 20 20" version="1.1" xmlns="http://www.w3.org/2000/svg" xmlns:xlink="http://www.w3.org/1999/xlink">
    <title>info</title>
    <g id="Page-1" stroke="none" stroke-width="1" fill="none" fill-rule="evenodd">
        <g id="My-Classes" transform="translate(-1212.000000, -271.000000)" fill="#F3722C" fill-rule="nonzero">
            <g id="Class-alert" transform="translate(290.000000, 110.000000)">
                <g id="Group-29" transform="translate(0.000000, 51.000000)">
                    <g id="Group-31" transform="translate(30.000000, 30.000000)">
                        <g id="Group-34" transform="translate(870.000000, 15.000000)">
                            <g id="info" transform="translate(22.000000, 65.000000)">
                                <path d="M10,0 C4.47300781,0 0,4.4725 0,10 C0,15.5269141 4.4725,20 10,20 C15.5269922,20 20,15.5275 20,10 C20,4.47308594 15.5275,0 10,0 Z M10,18.6046484 C5.25539062,18.6046484 1.39535156,14.7446484 1.39535156,10 C1.39535156,5.25535156 5.25539062,1.39535156 10,1.39535156 C14.7446094,1.39535156 18.6046484,5.25535156 18.6046484,10 C18.6046484,14.7446484 14.7446094,18.6046484 10,18.6046484 Z" id="Shape"></path>
                                <path d="M10.0002344,8.33582031 C9.40789062,8.33582031 8.98667969,8.58597656 8.98667969,8.95453125 L8.98667969,13.9696094 C8.98667969,14.2855469 9.40789062,14.6014062 10.0002344,14.6014062 C10.56625,14.6014062 11.0269141,14.2855469 11.0269141,13.9696094 L11.0269141,8.95445313 C11.0269141,8.5859375 10.56625,8.33582031 10.0002344,8.33582031 Z" id="Path"></path>
                                <path d="M10.0002344,5.2425 C9.39472656,5.2425 8.92089844,5.676875 8.92089844,6.17707031 C8.92089844,6.67730469 9.39476562,7.12484375 10.0002344,7.12484375 C10.5925781,7.12484375 11.0664844,6.67730469 11.0664844,6.17707031 C11.0664844,5.676875 10.5925391,5.2425 10.0002344,5.2425 Z" id="Path"></path>
                            </g>
                        </g>
                    </g>
                </g>
            </g>
        </g>
    </g>
</svg>