<?xml version="1.0" encoding="UTF-8"?>
<svg width="15px" height="15px" viewBox="0 0 15 15" version="1.1" xmlns="http://www.w3.org/2000/svg" xmlns:xlink="http://www.w3.org/1999/xlink">
    <title>Tick green</title>
    <g id="Symbols" stroke="none" stroke-width="1" fill="none" fill-rule="evenodd">
        <g id="Level-/-completed" transform="translate(-23.000000, 0.000000)" fill="#43AA8B" fill-rule="nonzero">
            <path d="M30.5,0 C26.3646617,0 23,3.36466165 23,7.5 C23,11.6353383 26.3646617,15 30.5,15 C34.6353383,15 38,11.6353383 38,7.5 C38,3.36466165 34.6353383,0 30.5,0 Z M34.6917293,5.52631579 L29.8984962,10.2819549 C29.6165414,10.5639098 29.1654135,10.5827068 28.8646617,10.3007519 L26.3270677,7.9887218 C26.0263158,7.70676692 26.0075188,7.23684211 26.2706767,6.93609023 C26.5526316,6.63533835 27.0225564,6.61654135 27.3233083,6.89849624 L29.3345865,8.7406015 L33.6203008,4.45488722 C33.9210526,4.15413534 34.3909774,4.15413534 34.6917293,4.45488722 C34.9924812,4.7556391 34.9924812,5.22556391 34.6917293,5.52631579 Z" id="Tick-green"></path>
        </g>
    </g>
</svg>