<?xml version="1.0" encoding="UTF-8"?>
<svg width="14px" height="14px" viewBox="0 0 14 14" version="1.1" xmlns="http://www.w3.org/2000/svg" xmlns:xlink="http://www.w3.org/1999/xlink">
    <title>FF5E74F5-AE6F-49A1-B8A2-82573B20A233</title>
    <g id="Dashboard-&amp;-others" stroke="none" stroke-width="1" fill="none" fill-rule="evenodd">
        <g id="My-Assignments" transform="translate(-743.000000, -654.000000)" fill="#FFFFFF" fill-rule="nonzero" stroke="#FFFFFF" stroke-width="0.5">
            <g id="Group-20" transform="translate(290.000000, 465.000000)">
                <g id="Group-19" transform="translate(0.000000, 160.000000)">
                    <g id="Group-10" transform="translate(267.000000, 25.000000)">
                        <g id="Group-3" transform="translate(187.000000, 0.000000)">
                            <g id="Group" transform="translate(0.000000, 5.000000)">
                                <path d="M6,0 C2.68,0 0,2.68 0,6 C0,9.32 2.68,12 6,12 C9.32,12 12,9.32 12,6 C12,2.68 9.32,0 6,0 Z M6,11.3333333 C3.05333333,11.3333333 0.666666667,8.94666667 0.666666667,6 C0.666666667,3.05333333 3.05333333,0.666666667 6,0.666666667 C8.94666667,0.666666667 11.3333333,3.05333333 11.3333333,6 C11.3333333,8.94666667 8.94666667,11.3333333 6,11.3333333 Z" id="Shape"></path>
                                <polygon id="Path" points="6.29333333 2.64 5.62666667 2.64 5.62666667 6.13333333 7.76 8.28 8.24 7.81333333 6.29333333 5.86666667"></polygon>
                            </g>
                        </g>
                    </g>
                </g>
            </g>
        </g>
    </g>
</svg>