<?xml version="1.0" encoding="UTF-8"?>
<svg width="12px" height="12px" viewBox="0 0 12 12" version="1.1" xmlns="http://www.w3.org/2000/svg" xmlns:xlink="http://www.w3.org/1999/xlink">
    <title>395DBFE6-33F2-42BE-A251-DA6650F9775C</title>
    <g id="Dashboard-&amp;-others" stroke="none" stroke-width="1" fill="none" fill-rule="evenodd">
        <g id="My-Exams" transform="translate(-733.000000, -222.000000)" fill="#4F5557" fill-rule="nonzero">
            <g id="Next-class" transform="translate(290.000000, 180.000000)">
                <g id="Group" transform="translate(250.000000, 32.000000)">
                    <g id="Group-10" transform="translate(10.000000, 4.000000)">
                        <g id="Group-9" transform="translate(85.000000, 4.000000)">
                            <g id="Group-3" transform="translate(98.000000, 0.000000)">
                                <g id="Group" transform="translate(0.000000, 2.000000)">
                                    <path d="M6,0 C2.68,0 0,2.68 0,6 C0,9.32 2.68,12 6,12 C9.32,12 12,9.32 12,6 C12,2.68 9.32,0 6,0 Z M6,11.3333333 C3.05333333,11.3333333 0.666666667,8.94666667 0.666666667,6 C0.666666667,3.05333333 3.05333333,0.666666667 6,0.666666667 C8.94666667,0.666666667 11.3333333,3.05333333 11.3333333,6 C11.3333333,8.94666667 8.94666667,11.3333333 6,11.3333333 Z" id="Shape"></path>
                                    <polygon id="Path" points="6.29333333 2.64 5.62666667 2.64 5.62666667 6.13333333 7.76 8.28 8.24 7.81333333 6.29333333 5.86666667"></polygon>
                                </g>
                            </g>
                        </g>
                    </g>
                </g>
            </g>
        </g>
    </g>
</svg>