<?xml version="1.0" encoding="UTF-8"?>
<svg width="247px" height="150px" viewBox="0 0 247 150" version="1.1" xmlns="http://www.w3.org/2000/svg" xmlns:xlink="http://www.w3.org/1999/xlink">
    <title>B07C43A3-0BDD-4148-9680-8EAA3D87E64A@1.5x</title>
    <g id="BrainGym-New-(As-per-Mobile)" stroke="none" stroke-width="1" fill="none" fill-rule="evenodd">
        <g id="Brain-gym-page----Updated-8" transform="translate(-598.000000, -103.000000)" fill-rule="nonzero">
            <g id="Group-2" transform="translate(403.000000, 63.000000)">
                <g id="Group-17" transform="translate(195.000000, 40.000000)">
                    <g id="undraw_treasure_of9i" transform="translate(123.500000, 94.500000) scale(-1, 1) translate(-123.500000, -94.500000) translate(0.000000, 39.000000)" fill="#FFE9E3" opacity="0.70719401">
                        <g id="Group-11">
                            <ellipse id="Oval" cx="83.1405229" cy="95.2581818" rx="81.122549" ry="15.7418182"></ellipse>
                            <path d="M18.5611833,91.440015 C18.5611833,91.440015 3.49128158,87.3962915 0.648069983,87.694959 C-2.19514161,87.9936265 4.95543286,73.8274177 9.71759222,75.5550041 C14.4797516,77.2825906 20.8292974,81.8270213 24.4588668,75.4085985 C28.0884362,68.9901757 30.1247508,65.5350028 34.5465463,65.8805201 C38.9683419,66.2260374 45.0919565,63.1193099 49.5108179,65.8805201 C53.9296793,68.6417303 57.0340321,72.0471252 63.1371075,71.9007196 C69.240183,71.754314 75.026368,57.9365506 79.7797249,63.4648272 C84.5330817,68.9931038 90.2341758,74.0499543 94.702918,72.2110995 C99.1716603,70.3722448 104.271249,73.1363831 108.352681,76.2460387 C112.434113,79.3556943 119.578819,77.9736251 122.298795,75.5550041 C125.018772,73.1363831 127.063889,71.4087967 132.844205,71.7484577 C138.624522,72.0881188 156.995366,76.2401825 163.799708,81.4112293 C170.604051,86.5822762 154.956117,93.1588171 147.471047,93.1588171 C139.985977,93.1588171 138.627456,95.2319208 132.163478,98.3415764 C125.699499,101.451232 115.145287,96.61399 107.671953,101.796749 C100.19862,106.979509 90.6537622,99.032611 77.7434103,101.796749 C64.8330583,104.560888 67.5383639,108.35865 60.0532939,105.603296 C52.568224,102.847942 55.2911346,101.796749 44.4053605,101.111571 C33.5195865,100.426393 21.6156552,102.839157 20.5945637,98.3474326 C19.5734723,93.8557079 12.7779325,92.819156 8.69356658,91.4370869 C4.60920069,90.0550177 18.5611833,91.440015 18.5611833,91.440015 Z" id="Path"></path>
                            <path d="M206.525086,53.7241545 L207.104798,53.3490667 L207.275813,53.2377125 C204.661349,52.7890137 202.704334,50.5672408 202.565319,47.889953 C202.426305,45.2126653 204.142474,42.795958 206.696101,42.0729908 L206.667115,44.4348715 L207.951177,41.8649343 L207.951177,41.8649343 C209.45333,41.7941178 210.921778,42.3295268 212.03343,43.3533603 C213.145083,44.3771938 213.808866,45.805571 213.878732,47.3242195 C213.878732,47.4355737 213.878732,47.5410671 213.878732,47.6494909 C214.331428,47.1517971 214.708491,46.5888838 214.997576,45.9791782 C215.542506,44.7513518 215.551201,43.3652853 215.510622,41.6773904 C215.423665,38.336765 215.281635,34.9697662 215.096127,31.6115586 C212.326566,31.3017806 210.191311,29.0014144 210.061329,26.1874378 C210.052615,26.014658 210.052615,25.8415416 210.061329,25.6687618 C210.061329,25.6248062 210.061329,25.5808506 210.061329,25.5398254 C210.061329,25.3727941 210.087416,25.2086932 210.113503,25.0445923 C210.112126,25.0182373 210.112126,24.9918272 210.113503,24.9654722 C210.133793,24.8277447 210.162779,24.6929475 210.194663,24.5581503 C210.194663,24.508334 210.22075,24.4585177 210.232344,24.4087013 C210.272924,24.2621827 210.316402,24.115664 210.368576,23.9750061 C210.385968,23.9281201 210.403359,23.8841645 210.423649,23.8372785 C210.464229,23.7317851 210.507707,23.629222 210.554084,23.526659 C210.577273,23.4739123 210.600461,23.4182352 210.626548,23.3654885 L210.646838,23.3244632 L210.646838,23.3244632 C211.884338,20.8563462 214.688619,19.6335727 217.313526,20.4175331 L217.275844,23.4914945 L218.545414,20.9537913 C220.217023,21.9272477 221.28322,23.6942943 221.374408,25.6423884 C221.39783,26.1390707 221.355917,26.6366983 221.24977,27.1222269 L221.24977,27.1222269 C221.24977,27.1632521 221.226582,27.2013469 221.217886,27.2423722 C221.20919,27.2833974 221.180205,27.3947516 221.159915,27.4680109 C221.139625,27.5412702 221.104842,27.6584852 221.072958,27.7610482 C221.041074,27.8636113 221.026581,27.9017061 221.000494,27.9720351 C220.974407,28.042364 220.916436,28.1713005 220.872957,28.2650724 C220.84687,28.3207495 220.823682,28.379357 220.797595,28.4379644 C220.725131,28.5844831 220.64687,28.7310017 220.562811,28.8716596 C220.533826,28.921476 220.499043,28.968362 220.470057,29.0152479 C220.409188,29.1090199 220.348318,29.2057222 220.281651,29.3082852 C220.214984,29.4108483 220.197593,29.4196394 220.154114,29.4723861 C220.110636,29.5251329 220.029476,29.6306263 219.962809,29.706816 C219.896143,29.7830057 219.867157,29.8123094 219.817881,29.8650561 C219.768606,29.9178029 219.678751,30.0115748 219.603388,30.0819038 L219.455561,30.2225617 L219.19759,30.4394093 L219.064256,30.5449027 C218.928024,30.6445354 218.791791,30.7383074 218.646863,30.83794 L218.565704,30.884826 C218.4465,30.958547 218.323633,31.0260343 218.197587,31.0870218 L218.035267,31.1602811 C217.933818,31.2071671 217.829469,31.254053 217.722223,31.2921479 L217.536715,31.3595465 C217.432367,31.3976413 217.328019,31.4298754 217.220772,31.4591792 L217.029467,31.5089955 C216.913524,31.5382992 216.794684,31.5617422 216.675843,31.5822548 L216.652654,31.5822548 C216.729949,33.0005554 216.799514,34.4178793 216.86135,35.8342263 C217.543761,34.4158652 218.774662,33.3448934 220.263632,32.8739977 C221.752603,32.403102 223.367768,32.5739891 224.728042,33.3463395 L223.728039,36.1243332 L225.788915,34.1228884 C226.893916,35.144068 227.552791,36.5669204 227.620805,38.0788921 C227.646479,38.6096591 227.597686,39.1414277 227.475877,39.6583633 C226.950741,41.9532283 225.089718,43.6892578 222.78494,44.0342383 C220.480162,44.3792188 218.201408,43.2628334 217.041061,41.2202522 C217.041061,41.3638405 217.041061,41.5132895 217.041061,41.651017 C217.078742,43.1396466 217.125119,44.9916424 216.391784,46.6326514 C215.867272,47.6988086 215.160786,48.6630327 214.304821,49.4809741 C213.788877,50.0113717 213.255542,50.524187 212.710613,51.0223504 C212.171516,51.7513359 211.46924,52.3408132 210.661331,52.7424795 C209.762777,53.4418619 208.833306,54.0972887 207.872916,54.7087599 L207.371465,55.0779869 C206.832333,55.4179102 206.278708,55.7636942 205.736678,56.1241301 L206.026534,56.1006871 C208.491202,55.9842199 210.747395,57.4926134 211.606261,59.8310522 L208.064221,62.7614253 L211.962784,61.8471489 C211.955552,63.8125698 210.954237,65.6376332 209.308823,66.6844331 C207.66341,67.7312329 205.602644,67.8542424 203.846817,67.0104664 C203.936672,67.1188902 204.023629,67.2302444 204.110586,67.3415986 L204.626529,67.9921414 C206.945377,70.9459576 207.574365,73.7473943 206.432332,75.8836364 L205.043922,75.1246697 C206.15407,73.0441048 204.4845,70.3833259 203.388844,68.9708861 C203.223626,68.7569688 203.052611,68.5430516 202.881596,68.3291343 C201.409128,66.4800689 199.739557,64.3819217 199.780137,61.809054 C199.809123,57.92924 203.533772,55.5966629 206.525086,53.7241545 Z" id="Path"></path>
                            <path d="M177.339467,50.3442811 L176.437946,49.7803308 C176.34985,49.7274605 176.26469,49.6716529 176.17953,49.6158453 C180.141482,48.9366105 183.104728,45.6031475 183.315778,41.588018 C183.526829,37.5728886 180.929394,33.946997 177.060494,32.8559485 L177.104543,36.4011983 L175.157611,32.5446009 L175.134118,32.5446009 C172.855255,32.4385308 170.627613,33.2423577 168.941312,34.7792256 C167.25501,36.3160934 166.248203,38.4600917 166.142405,40.7395032 C166.142405,40.9039887 166.142405,41.0655369 166.142405,41.2270852 C165.454632,40.4786598 164.881644,39.6323377 164.442144,38.7157442 C163.616973,36.8770313 163.602291,34.7945275 163.666895,32.2538141 C163.796103,27.2370065 164.013407,22.1820148 164.295316,17.1446466 C168.494316,16.6772357 171.731091,13.2267673 171.930343,9.00555193 C171.930343,8.74120024 171.930343,8.48272304 171.930343,8.22424584 L171.930343,8.03038793 C171.912724,7.78072245 171.889232,7.53399421 171.851057,7.29020321 C171.851057,7.24908184 171.851057,7.21089771 171.830501,7.16977634 C171.795262,6.96416947 171.751214,6.76149984 171.701293,6.55883022 C171.683673,6.48246195 171.666054,6.40903093 171.645498,6.33266266 C171.583831,6.11236959 171.519227,5.897951 171.43994,5.68353241 C171.416447,5.61303863 171.387082,5.54548209 171.357716,5.47498831 C171.296049,5.3163773 171.231445,5.16364077 171.160968,5.01090424 C171.122792,4.92866149 171.087554,4.84935598 171.049379,4.77005048 C171.038402,4.750077 171.028597,4.7294815 171.020013,4.70836842 L171.020013,4.70836842 C169.62006,1.94717282 166.843971,0.152106492 163.752055,0.00878289635 C162.796128,-0.0342199175 161.839661,0.0809008045 160.921221,0.349502847 L160.977016,4.96390838 L159.053576,1.14549514 C155.801372,3.00141415 154.135199,6.75833041 154.942408,10.4154276 L154.942408,10.4154276 C154.942408,10.4741724 154.97471,10.5329172 154.989393,10.5945993 C155.015822,10.7091517 155.045187,10.8207668 155.074553,10.932382 C155.103918,11.0439972 155.162649,11.2261061 155.209634,11.3582819 C155.256619,11.4904578 155.280111,11.5697633 155.321223,11.6725667 C155.377017,11.8253032 155.444558,11.9662908 155.512098,12.1219646 C155.550273,12.2100818 155.585512,12.298199 155.626624,12.383379 C155.735276,12.6036721 155.852738,12.8210279 155.981946,13.0325093 C156.025994,13.1088775 156.075916,13.1793713 156.1229,13.2498651 C156.21687,13.3937899 156.307903,13.5435892 156.416555,13.6728278 C156.478223,13.7580078 156.545764,13.8373133 156.610368,13.919556 C156.674972,14.0017988 156.801243,14.1574726 156.904023,14.272025 L157.121327,14.5099415 C157.227043,14.6215566 157.335695,14.7302345 157.447284,14.8359752 L157.673398,15.0445193 C157.79967,15.1561345 157.931815,15.2648124 158.066896,15.3676158 C158.134437,15.4204862 158.199041,15.4762937 158.269518,15.5291641 C158.47214,15.6789634 158.680635,15.8228882 158.897939,15.9521268 C158.939051,15.9785619 158.983099,15.9991226 159.024211,16.0226206 C159.206277,16.1283612 159.391279,16.2311647 159.579219,16.3163447 L159.828825,16.4279598 C159.984462,16.4984536 160.140099,16.5660101 160.30161,16.624755 C160.395579,16.6629391 160.489549,16.6952487 160.595265,16.7275584 C160.753838,16.7804287 160.915348,16.8303618 161.076859,16.8744204 L161.370513,16.9507887 C161.549643,16.9919101 161.728772,17.027157 161.907902,17.0594666 L161.94314,17.0594666 C161.821763,19.1860291 161.716047,21.3125915 161.625993,23.439154 C160.589409,21.3107938 158.721237,19.704185 156.462014,18.9981852 C154.202791,18.2921853 151.75249,18.5492853 149.688922,19.708858 L151.210054,23.8738656 L148.082629,20.8720054 C146.404903,22.4041833 145.405433,24.5409741 145.304654,26.8111066 C145.264837,27.6075237 145.337999,28.4055676 145.521959,29.18146 C146.322545,32.6176188 149.140763,35.2157057 152.629872,35.7341727 C156.118981,36.2526397 159.570589,34.5862228 161.335275,31.5312528 C161.335275,31.7486086 161.335275,31.9659644 161.314719,32.180383 C161.258925,34.4156234 161.185511,37.1942533 162.298463,39.6762219 C163.053156,41.359261 164.268887,42.7221408 165.466999,43.9469703 C166.250079,44.7458998 167.056651,45.5174151 167.886716,46.2615162 C168.701751,47.3571589 169.765685,48.2431405 170.990648,48.8462882 C172.361037,49.8939041 173.772538,50.8729844 175.225151,51.7835291 L176.135482,52.3474794 C176.951842,52.8556221 177.791695,53.378451 178.613929,53.9189033 C178.470038,53.9189033 178.320274,53.8895309 178.17932,53.8836564 C174.439728,53.7072398 171.015824,55.9713738 169.713249,59.4820377 L175.084197,63.8555895 L169.172924,62.4868352 C169.178601,65.4434722 170.700233,68.1904986 173.203382,69.7630849 C175.706531,71.3356712 178.841208,71.5139394 181.50643,70.2352768 C181.371348,70.3997623 181.239204,70.5642478 181.107059,70.7316705 C180.842769,71.0606415 180.57848,71.3866753 180.323,71.7097718 C176.825571,76.1420684 175.853573,80.3452602 177.5832,83.5527273 L179.691642,82.416015 C178.006063,79.2937279 180.540305,75.2990802 182.202392,73.1960157 C182.451998,72.8758564 182.710415,72.5556972 182.971767,72.2326006 C185.206481,69.4569079 187.737786,66.3081856 187.670246,62.448651 C187.526355,56.6593491 181.879371,53.1669696 177.339467,50.3442811 Z" id="Path"></path>
                            <path d="M134.379792,94.3701066 C134.379792,94.3701066 124.23265,91.6452829 122.321082,91.8445877 C120.409514,92.0438925 125.220684,82.5218832 128.425199,83.6820155 C131.629714,84.8421479 135.907287,87.9001377 138.34952,83.5838505 C140.791754,79.2675632 142.160929,76.9443239 145.142623,77.1763503 C148.124317,77.4083768 152.240638,75.3171639 155.216469,77.1763503 C158.192299,79.0355368 160.279779,81.3230798 164.390236,81.2249147 C168.500693,81.1267497 172.391262,71.8337922 175.595777,75.5491903 C178.800292,79.2645885 182.632223,82.6706181 185.640304,81.4331436 C188.648385,80.1956691 192.09038,82.0548556 194.831662,84.1460685 C197.572945,86.2372814 202.387047,85.3091755 204.213591,83.6820155 C206.040135,82.0548556 207.421038,80.8947232 211.314538,81.1267497 C215.208039,81.3587762 227.571661,84.1460685 232.151215,87.6324149 C236.730769,91.1187613 226.196622,95.5302389 221.1597,95.5302389 C216.122777,95.5302389 215.205107,96.9253724 210.854237,99.0165853 C206.503368,101.107798 199.405353,97.8534783 194.36843,101.339825 C189.331507,104.826171 182.919545,99.4806383 174.217806,101.339825 C165.516067,103.199011 167.348475,105.754277 162.308621,103.895091 C157.268766,102.035904 159.104106,101.339825 151.777406,100.875772 C144.450706,100.411719 136.435021,102.035904 135.746035,99.0165853 C135.05705,95.9972666 130.4687,95.2982125 127.733282,94.3701066 C124.997863,93.4420007 134.379792,94.3701066 134.379792,94.3701066 Z" id="Path"></path>
                            <path d="M148.102319,97.5980346 C148.102319,97.5980346 137.954929,94.8731335 136.043315,95.0754188 C134.1317,95.277704 138.942988,85.7494746 142.147581,86.9126147 C145.352174,88.0757548 149.629851,91.127882 152.072144,86.8114721 C154.514437,82.4950622 155.883646,80.1747316 158.865413,80.4067647 C161.84718,80.6387977 165.963601,78.5475254 168.939504,80.4067647 C171.915407,82.2660039 174.002937,84.5506371 178.113495,84.4524693 C182.224053,84.3543015 186.114716,75.0610799 189.322241,78.7795584 C192.529766,82.498037 196.358859,85.8982138 199.367014,84.6636789 C202.375168,83.429144 205.817247,85.2854085 208.555664,87.3766808 C211.294081,89.4679531 216.114165,88.5368461 217.937822,86.9126147 C219.761478,85.2883833 221.142415,84.1222684 225.03601,84.3543015 C228.929605,84.5863345 241.29353,87.3766808 245.873195,90.8601515 C250.452861,94.3436222 239.921389,98.7611747 234.881412,98.7611747 C229.841434,98.7611747 228.929605,100.153373 224.57863,102.244645 C220.227654,104.335918 213.126534,101.08448 208.089488,104.567951 C203.052442,108.051421 196.640324,102.711686 187.938373,104.567951 C179.236422,106.424215 181.068875,108.982528 176.031829,107.126264 C170.994783,105.27 172.824304,104.567951 165.497425,104.103885 C158.170547,103.639819 150.154666,105.267025 149.468596,102.244645 C148.782525,99.222266 144.205792,98.5291416 141.455647,97.5980346 C138.705502,96.6669276 148.102319,97.5980346 148.102319,97.5980346 Z" id="Path"></path>
                        </g>
                    </g>
                    <g id="Group" transform="translate(58.000000, 0.000000)">
                        <g id="Group-2" transform="translate(0.899328, 0.000000)">
                            <g id="Group" fill="#FCEA42">
                                <path d="M124.323047,4.6222905 L122.020769,4.6222905 L122.020769,2.31114525 C122.020769,1.03473497 120.990003,0 119.71849,0 C118.446977,0 117.416211,1.03473497 117.416211,2.31114525 L117.416211,4.6222905 L115.113933,4.6222905 C113.842419,4.6222905 112.811654,5.65702548 112.811654,6.93343575 C112.811654,8.20984603 113.842419,9.244581 115.113933,9.244581 L117.416211,9.244581 L117.416211,11.5557263 C117.416211,12.8321365 118.446977,13.8668715 119.71849,13.8668715 C120.990003,13.8668715 122.020769,12.8321365 122.020769,11.5557263 L122.020769,9.244581 L124.323047,9.244581 C125.594561,9.244581 126.625326,8.20984603 126.625326,6.93343575 C126.625326,5.65702548 125.594561,4.6222905 124.323047,4.6222905 Z" id="Path"></path>
                                <path d="M82.8820315,9.244581 L80.5797529,9.244581 L80.5797529,6.93343575 C80.5797529,5.65702548 79.5489876,4.6222905 78.2774742,4.6222905 C77.0059609,4.6222905 75.9751956,5.65702548 75.9751956,6.93343575 L75.9751956,9.244581 L73.6729169,9.244581 C72.4014035,9.244581 71.3706383,10.279316 71.3706383,11.5557263 C71.3706383,12.8321365 72.4014035,13.8668715 73.6729169,13.8668715 L75.9751956,13.8668715 L75.9751956,16.1780168 C75.9751956,17.454427 77.0059609,18.489162 78.2774742,18.489162 C79.5489876,18.489162 80.5797529,17.454427 80.5797529,16.1780168 L80.5797529,13.8668715 L82.8820315,13.8668715 C84.1535449,13.8668715 85.1843102,12.8321365 85.1843102,11.5557263 C85.1843102,10.279316 84.1535449,9.244581 82.8820315,9.244581 Z" id="Path"></path>
                                <path d="M11.5113933,30.0448883 L9.20911462,30.0448883 L9.20911462,27.733743 C9.20911462,26.4573327 8.17834935,25.4225978 6.90683596,25.4225978 C5.63532257,25.4225978 4.60455731,26.4573327 4.60455731,27.733743 L4.60455731,30.0448883 L2.30227865,30.0448883 C1.03076526,30.0448883 0,31.0796232 0,32.3560335 C0,33.6324438 1.03076526,34.6671788 2.30227865,34.6671788 L4.60455731,34.6671788 L4.60455731,36.978324 C4.60455731,38.2547343 5.63532257,39.2894693 6.90683596,39.2894693 C8.17834935,39.2894693 9.20911462,38.2547343 9.20911462,36.978324 L9.20911462,34.6671788 L11.5113933,34.6671788 C12.7829067,34.6671788 13.8136719,33.6324438 13.8136719,32.3560335 C13.8136719,31.0796232 12.7829067,30.0448883 11.5113933,30.0448883 Z" id="Path"></path>
                                <ellipse id="Oval" cx="98.9979821" cy="11.5557263" rx="2.30227865" ry="2.31114525"></ellipse>
                                <ellipse id="Oval" cx="89.7888675" cy="32.3560335" rx="2.30227865" ry="2.31114525"></ellipse>
                                <ellipse id="Oval-Copy" cx="134.755244" cy="45.8978993" rx="2.30227865" ry="2.31114525"></ellipse>
                                <ellipse id="Oval" cx="39.1387371" cy="30.0448883" rx="2.30227865" ry="2.31114525"></ellipse>
                                <ellipse id="Oval" cx="4.60455731" cy="9.244581" rx="2.30227865" ry="2.31114525"></ellipse>
                            </g>
                            <g id="Group-4" transform="translate(110.509375, 18.489162)">
                                <path d="M9.20911462,18.489162 C9.20911462,13.3835209 5.08605356,9.244581 0,9.244581 C5.08605356,9.244581 9.20911462,5.10564111 9.20911462,0 C9.20911462,5.10564111 13.3321757,9.244581 18.4182292,9.244581 C13.3321757,9.244581 9.20911462,13.3835209 9.20911462,18.489162 Z" id="Path" fill="#FCEA42"></path>
                                <path d="M14.987834,9.93792458 C13.8316075,10.3859417 12.7809635,11.0707033 11.9027806,11.9486209 C10.181507,13.6873675 9.21347555,16.0378628 9.20911462,18.489162 C9.20911462,13.3835209 5.08605356,9.244581 0,9.244581 C2.44189495,9.24020327 4.78337268,8.26844374 6.51544859,6.54054106 C7.38999812,5.6589761 8.07213265,4.60428585 8.51843102,3.44360642 L8.26518037,4.76095922 C7.96719427,6.27360677 8.44021183,7.83581043 9.52634617,8.92612772 C10.6124805,10.016445 12.1686909,10.4912843 13.6755352,10.1921506 L14.987834,9.93792458 Z" id="Path" fill="#FDC741"></path>
                            </g>
                            <g id="Group-3" transform="translate(49.804763, 16.123849)">
                                <path d="M9.20911462,18.489162 C9.20911462,13.3835209 5.08605356,9.244581 0,9.244581 C5.08605356,9.244581 9.20911462,5.10564111 9.20911462,0 C9.20911462,5.10564111 13.3321757,9.244581 18.4182292,9.244581 C13.3321757,9.244581 9.20911462,13.3835209 9.20911462,18.489162 Z" id="Path" fill="#FCEA42"></path>
                                <path d="M14.987834,9.93792458 C13.8316075,10.3859417 12.7809635,11.0707033 11.9027806,11.9486209 C10.181507,13.6873675 9.21347555,16.0378628 9.20911462,18.489162 C9.20911462,13.3835209 5.08605356,9.244581 0,9.244581 C2.44189495,9.24020327 4.78337268,8.26844374 6.51544859,6.54054106 C7.38999812,5.6589761 8.07213265,4.60428585 8.51843102,3.44360642 L8.26518037,4.76095922 C7.96719427,6.27360677 8.44021183,7.83581043 9.52634617,8.92612772 C10.6124805,10.016445 12.1686909,10.4912843 13.6755352,10.1921506 L14.987834,9.93792458 Z" id="Path" fill="#FDC741"></path>
                            </g>
                            <g id="Group-3-Copy" transform="translate(112.757690, 52.235491)">
                                <path d="M6.9629891,13.9796103 C6.9629891,10.1192475 3.84555269,6.98980515 0,6.98980515 C3.84555269,6.98980515 6.9629891,3.86036279 6.9629891,0 C6.9629891,3.86036279 10.0804255,6.98980515 13.9259782,6.98980515 C10.0804255,6.98980515 6.9629891,10.1192475 6.9629891,13.9796103 Z" id="Path" fill="#FCEA42"></path>
                                <path d="M11.3322648,7.51404053 C10.4580447,7.85278522 9.66365534,8.37053179 8.99966341,9.03432315 C7.69821259,10.3489852 6.96628639,12.1261889 6.9629891,13.9796103 C6.9629891,10.1192475 3.84555269,6.98980515 0,6.98980515 C1.84631082,6.98649516 3.61669642,6.25175014 4.92631479,4.94528714 C5.58755955,4.27873803 6.10331981,3.4812893 6.44076492,2.60370242 L6.24928272,3.59974965 C6.02397615,4.74345877 6.38162358,5.92463716 7.2028471,6.7490234 C8.02407063,7.57340964 9.20071748,7.93243445 10.3400388,7.70626018 L11.3322648,7.51404053 Z" id="Path" fill="#FDC741"></path>
                            </g>
                            <g id="Group-5-Copy" transform="translate(18.418229, 4.513955)">
                                <path d="M9.20911462,18.489162 C9.20911462,13.3835209 5.08605356,9.244581 0,9.244581 C5.08605356,9.244581 9.20911462,5.10564111 9.20911462,0 C9.20911462,5.10564111 13.3321757,9.244581 18.4182292,9.244581 C13.3321757,9.244581 9.20911462,13.3835209 9.20911462,18.489162 Z" id="Path" fill="#FCEA42"></path>
                                <path d="M14.987834,9.93792458 C13.8316075,10.3859417 12.7809635,11.0707033 11.9027806,11.9486209 C10.181507,13.6873675 9.21347555,16.0378628 9.20911462,18.489162 C9.20911462,13.3835209 5.08605356,9.244581 0,9.244581 C2.44189495,9.24020327 4.78337268,8.26844374 6.51544859,6.54054106 C7.38999812,5.6589761 8.07213265,4.60428585 8.51843102,3.44360642 L8.26518037,4.76095922 C7.96719427,6.27360677 8.44021183,7.83581043 9.52634617,8.92612772 C10.6124805,10.016445 12.1686909,10.4912843 13.6755352,10.1921506 L14.987834,9.93792458 Z" id="Path" fill="#FDC741"></path>
                            </g>
                        </g>
                    </g>
                    <g id="oyster" transform="translate(71.000385, 44.000201)">
                        <path d="M21.7242777,58.1840978 C16.9994698,54.0230711 14.0698968,49.9313143 9.79930504,45.2837872 C7.58830651,42.8851156 5.52470788,40.352737 3.62052549,37.7011497 C1.93503965,35.3435567 0,32.7700993 0,29.717391 C-0.0316275724,26.4745931 1.79004306,23.5016256 4.6851693,22.0719272 C7.57949471,20.6422287 11.0337794,21.0103257 13.5668146,23.0167364 C13.5868417,23.0392894 13.6284982,23.0586205 13.6501275,23.0811735 L13.6084711,23.1230576 C13.5868417,23.1029211 13.5868417,23.0586205 13.5668146,23.0167364 C12.9227411,21.8069295 12.5910914,20.45375 12.5999032,19.0820451 C12.5910914,16.8331897 13.4706842,14.6729353 15.0464212,13.0773113 C16.6221583,11.4808819 18.7634623,10.5795676 21.0000956,10.5723185 C23.6284601,10.5723185 26.103016,11.8183711 27.678753,13.9343249 C27.760464,13.8739151 27.8533898,13.8304201 27.9519235,13.8070617 C27.5185357,12.7841224 27.2966349,11.6838586 27.2998392,10.5723185 C27.2629891,6.18253991 30.5794869,2.49834791 34.926983,2.0988378 C39.2744791,1.69932768 43.2006036,4.71820635 43.9552271,9.0411314 C44.0185128,9.0411314 44.0801964,9.01938403 44.1234552,9.01938403 C44.1058312,8.82929433 44.0978204,8.63759402 44.1018258,8.4458937 C44.1018258,5.42862565 45.7031976,2.64010957 48.301922,1.13147544 C50.9006463,-0.37715848 54.1025887,-0.37715848 56.7021143,1.13147544 C59.3008385,2.64010957 60.9022103,5.42862565 60.9022103,8.4458937 C60.9054147,8.63759402 60.8982049,8.82929433 60.8797799,9.01938403 C60.9238397,9.01938403 60.9847223,9.0411314 61.0488092,9.0411314 C61.8034327,4.71820635 65.7295572,1.69932768 70.0770533,2.0988378 C74.4245492,2.49834791 77.741047,6.18253991 77.7033961,10.5723185 C77.7066002,11.6838586 77.4855006,12.7841224 77.0521127,13.8070617 C77.1506463,13.8304201 77.2435724,13.8739151 77.3252833,13.9343249 C78.8994181,11.8191765 81.3723717,10.5739293 83.9999352,10.5723185 C86.2365685,10.5795676 88.3778727,11.4808819 89.9536095,13.0773113 C91.5293465,14.6729353 92.4089395,16.8331897 92.4001275,19.0820451 C92.4089395,20.45375 92.0772897,21.8069295 91.4332162,23.0167364 C91.4131891,23.0586205 91.4131891,23.1029211 91.3915597,23.1230576 L91.3499032,23.0811735 C91.3715326,23.0586205 91.4131891,23.0392894 91.4332162,23.0167364 C93.9662516,21.0103257 97.4205362,20.6422287 100.314861,22.0719272 C103.209988,23.5016256 105.031658,26.4745931 105.000811,29.717391 C105.000811,32.7700993 103.060986,35.3435567 101.379505,37.7011497 C99.4761239,40.352737 97.4141275,42.8851156 95.20393,45.2837872 C90.9301339,49.9313143 88.0005609,54.0230711 83.2757531,58.1840978 L21.7242777,58.1840978 Z" id="Path" fill="#FCA834"></path>
                        <g id="Group" transform="translate(7.567478, 16.278199)" fill="#E57E25">
                            <path d="M59.414978,38.2652013 C58.7132263,38.2652013 58.0739592,37.856831 57.7767561,37.2172928 C57.4787522,36.5777545 57.5756836,35.8230346 58.025093,35.280152 L76.1280442,13.4375806 C76.775322,12.6933319 77.8944397,12.604731 78.649864,13.2378255 C79.4052886,13.8701149 79.519844,14.9929315 78.9094163,15.7669823 L60.8056641,37.6103592 C60.4619978,38.0251732 59.9525071,38.2652013 59.414978,38.2652013 L59.414978,38.2652013 Z" id="Path"></path>
                            <path d="M53.9844131,32.8049612 C53.3667754,32.8049612 52.7923965,32.4884139 52.4591445,31.9656678 C52.1266936,31.4429218 52.0818328,30.7856632 52.3405838,30.2218384 L63.2025146,6.55891849 C63.6214827,5.64552247 64.6973418,5.24762318 65.6049729,5.66888088 C66.5126038,6.09013857 66.9091414,7.17107109 66.4901733,8.08366189 L55.6282424,31.747387 C55.3318406,32.3917582 54.6901702,32.8049612 53.9844131,32.8049612 L53.9844131,32.8049612 Z" id="Path"></path>
                            <path d="M48.5530471,30.9846128 C48.0315398,30.9846128 47.5340652,30.7582773 47.1903992,30.3636001 C46.8459319,29.9689226 46.6881179,29.4445658 46.7570115,28.924236 L50.3779221,1.62061918 C50.4500198,0.964166012 50.8697891,0.39953563 51.4746094,0.142592785 C52.0794295,-0.113544853 52.7747727,-0.020111035 53.2922744,0.386648207 C53.8097762,0.792602036 54.066925,1.4490552 53.9659881,2.10067549 L50.3450774,29.4042925 C50.2257156,30.3080231 49.459877,30.9830018 48.5530471,30.9846128 Z" id="Path"></path>
                            <path d="M30.450096,38.2652013 C29.9125671,38.2652013 29.4030762,38.0251732 29.0594099,37.6103592 L10.955658,15.7669823 C10.5230713,15.2700111 10.3924942,14.5757011 10.614395,13.9538831 C10.8362961,13.3320648 11.3762283,12.8801995 12.0243071,12.7730729 C12.6731873,12.6651408 13.3284758,12.9196672 13.73703,13.4375806 L31.839981,35.280152 C32.2893904,35.8230346 32.386322,36.5777545 32.0883179,37.2172928 C31.7911148,37.856831 31.1518479,38.2652013 30.450096,38.2652013 Z" id="Path"></path>
                            <path d="M35.8806609,32.8049612 C35.1749038,32.8049612 34.5332336,32.3917582 34.2368316,31.747387 L23.3749007,8.08366189 C22.9559326,7.17107109 23.3524704,6.09013857 24.2601013,5.66888088 C25.1677322,5.24762318 26.2435913,5.64552247 26.6625594,6.55891849 L37.5244903,30.2218384 C37.7832412,30.7856632 37.7383804,31.4429218 37.4059295,31.9656678 C37.0726775,32.4884139 36.4982986,32.8049612 35.8806609,32.8049612 Z" id="Path"></path>
                            <path d="M41.3120269,30.9846128 C40.405197,30.9830018 39.6393584,30.3080231 39.5199966,29.4042925 L35.8990859,2.10067549 C35.7909392,1.11720406 36.4838791,0.227166448 37.4596023,0.0966811858 C38.4345244,-0.0338038706 39.3357468,0.642785845 39.4871521,1.62061918 L43.1080627,28.924236 C43.1769561,29.4445658 43.0191421,29.9689226 42.674675,30.3636001 C42.3310088,30.7582773 41.8335342,30.9846128 41.3120269,30.9846128 Z" id="Path"></path>
                            <path d="M89.865074,51.0068355 C89.1569138,51.1526245 88.5985564,51.7003399 88.4351348,52.4083428 C88.0914688,53.8098501 86.5525818,54.6475326 84.2895125,54.6475326 C81.4833069,54.6475326 79.5278548,53.2097795 79.5278548,51.9170097 C79.5278548,48.3496099 75.8532715,45.5465954 71.1460876,45.5465954 C66.4397048,45.5465954 62.7643203,48.3496099 62.7643203,51.9170097 C62.7643203,53.2097795 60.8088684,54.6475326 58.0034636,54.6475326 C55.197258,54.6475326 53.2418059,53.2097795 53.2418059,51.9170097 C53.2418059,48.3496099 49.5672224,45.5465954 44.8600388,45.5465954 C40.1528548,45.5465954 36.4782715,48.3496099 36.4782715,51.9170097 C36.4782715,53.2097795 34.5228196,54.6475326 31.7174148,54.6475326 C29.4543457,54.6475326 27.9154587,53.8098501 27.5709915,52.4083428 C27.5453567,52.281885 27.5028992,52.1594545 27.4444197,52.0442731 C27.4596404,52.004 27.4652481,51.9605049 27.4628447,51.9170097 C27.4628447,48.3496099 23.6969375,45.5465954 18.900032,45.5465954 C14.1023254,45.5465954 10.3372192,48.3496099 10.3372192,51.9170097 C10.3372192,53.2097795 8.38176732,54.6475326 5.57556152,54.6475326 C3.31249242,54.6475326 1.77360524,53.8098501 1.42993922,52.4083428 C1.26651759,51.7003399 0.7081604,51.1526245 0,51.0068355 C1.32099146,47.3121724 7.09602346,44.035545 15.5691145,41.7238636 C20.2915191,40.4713671 25.1028442,39.589384 29.9606323,39.0843583 L59.9044417,39.0843583 C64.7622298,39.589384 69.5735549,40.4713671 74.2959595,41.7238636 C82.7690505,44.035545 88.5440825,47.3121724 89.865074,51.0068355 L89.865074,51.0068355 Z" id="Path"></path>
                        </g>
                        <g id="Group-7-Copy-2" transform="translate(49.706013, 28.840817)">
                            <path d="M28.459701,27.2788534 C34.2803949,20.7078784 33.8990778,10.6879069 27.5961298,4.58329583 C21.2931818,-1.52131548 11.3196559,-1.52856481 5.00789587,4.56638093 C-1.30466516,10.6613267 -1.70040196,20.6812982 4.11067907,27.2603277 L28.459701,27.2788534 Z" id="Path-Copy-4" fill="#FF5364"></path>
                            <path d="M7.65468542,15.4965268 C7.47043544,15.4965268 7.28778794,15.4675301 7.11154872,15.4103421 C6.15905701,15.1090985 5.6287379,14.0885758 5.92834412,13.1300736 C6.03809312,12.7780859 6.16626695,12.4325419 6.31206457,12.0942471 C8.49101965,6.97713447 14.1490931,4.32715819 19.4474786,5.94211335 C20.404777,6.23369141 20.9447093,7.2501868 20.6539149,8.21271627 C20.3639215,9.17444012 19.3529505,9.71812834 18.3956522,9.42574487 C14.5928949,8.28279169 10.5810541,10.417271 9.38182776,14.2222827 C9.14470617,14.9802243 8.44535778,15.4965268 7.65468542,15.4965268 Z" id="Path-Copy-5" fill="#FFD1D5"></path>
                        </g>
                        <g id="Group-7-Copy-3" transform="translate(19.706013, 28.840817)">
                            <path d="M28.459701,27.2788534 C34.2803949,20.7078784 33.8990778,10.6879069 27.5961298,4.58329583 C21.2931818,-1.52131548 11.3196559,-1.52856481 5.00789587,4.56638093 C-1.30466516,10.6613267 -1.70040196,20.6812982 4.11067907,27.2603277 L28.459701,27.2788534 Z" id="Path-Copy-4" fill="#FF5364"></path>
                            <path d="M7.65468542,15.4965268 C7.47043544,15.4965268 7.28778794,15.4675301 7.11154872,15.4103421 C6.15905701,15.1090985 5.6287379,14.0885758 5.92834412,13.1300736 C6.03809312,12.7780859 6.16626695,12.4325419 6.31206457,12.0942471 C8.49101965,6.97713447 14.1490931,4.32715819 19.4474786,5.94211335 C20.404777,6.23369141 20.9447093,7.2501868 20.6539149,8.21271627 C20.3639215,9.17444012 19.3529505,9.71812834 18.3956522,9.42574487 C14.5928949,8.28279169 10.5810541,10.417271 9.38182776,14.2222827 C9.14470617,14.9802243 8.44535778,15.4965268 7.65468542,15.4965268 Z" id="Path-Copy-5" fill="#FFD1D5"></path>
                        </g>
                        <g id="Group-8" transform="translate(6.206013, 45.430981)">
                            <path d="M28.459701,27.2788534 C34.2803949,20.7078784 33.8990778,10.6879069 27.5961298,4.58329583 C21.2931818,-1.52131548 11.3196559,-1.52856481 5.00789587,4.56638093 C-1.30466516,10.6613267 -1.70040196,20.6812982 4.11067907,27.2603277 L28.459701,27.2788534 Z" id="Path" fill="#FF5364"></path>
                            <path d="M7.65468542,15.4965268 C7.47043544,15.4965268 7.28778794,15.4675301 7.11154872,15.4103421 C6.15905701,15.1090985 5.6287379,14.0885758 5.92834412,13.1300736 C6.03809312,12.7780859 6.16626695,12.4325419 6.31206457,12.0942471 C8.49101965,6.97713447 14.1490931,4.32715819 19.4474786,5.94211335 C20.404777,6.23369141 20.9447093,7.2501868 20.6539149,8.21271627 C20.3639215,9.17444012 19.3529505,9.71812834 18.3956522,9.42574487 C14.5928949,8.28279169 10.5810541,10.417271 9.38182776,14.2222827 C9.14470617,14.9802243 8.44535778,15.4965268 7.65468542,15.4965268 Z" id="Path" fill="#FFD1D5"></path>
                        </g>
                        <g id="Group-7" transform="translate(36.206013, 45.430981)">
                            <path d="M28.459701,27.2788534 C34.2803949,20.7078784 33.8990778,10.6879069 27.5961298,4.58329583 C21.2931818,-1.52131548 11.3196559,-1.52856481 5.00789587,4.56638093 C-1.30466516,10.6613267 -1.70040196,20.6812982 4.11067907,27.2603277 L28.459701,27.2788534 Z" id="Path-Copy-4" fill="#FF5364"></path>
                            <path d="M7.65468542,15.4965268 C7.47043544,15.4965268 7.28778794,15.4675301 7.11154872,15.4103421 C6.15905701,15.1090985 5.6287379,14.0885758 5.92834412,13.1300736 C6.03809312,12.7780859 6.16626695,12.4325419 6.31206457,12.0942471 C8.49101965,6.97713447 14.1490931,4.32715819 19.4474786,5.94211335 C20.404777,6.23369141 20.9447093,7.2501868 20.6539149,8.21271627 C20.3639215,9.17444012 19.3529505,9.71812834 18.3956522,9.42574487 C14.5928949,8.28279169 10.5810541,10.417271 9.38182776,14.2222827 C9.14470617,14.9802243 8.44535778,15.4965268 7.65468542,15.4965268 Z" id="Path-Copy-5" fill="#FFD1D5"></path>
                        </g>
                        <g id="Group-7-Copy" transform="translate(66.206013, 45.430981)">
                            <path d="M28.459701,27.2788534 C34.2803949,20.7078784 33.8990778,10.6879069 27.5961298,4.58329583 C21.2931818,-1.52131548 11.3196559,-1.52856481 5.00789587,4.56638093 C-1.30466516,10.6613267 -1.70040196,20.6812982 4.11067907,27.2603277 L28.459701,27.2788534 Z" id="Path-Copy-4" fill="#FF5364"></path>
                            <path d="M7.65468542,15.4965268 C7.47043544,15.4965268 7.28778794,15.4675301 7.11154872,15.4103421 C6.15905701,15.1090985 5.6287379,14.0885758 5.92834412,13.1300736 C6.03809312,12.7780859 6.16626695,12.4325419 6.31206457,12.0942471 C8.49101965,6.97713447 14.1490931,4.32715819 19.4474786,5.94211335 C20.404777,6.23369141 20.9447093,7.2501868 20.6539149,8.21271627 C20.3639215,9.17444012 19.3529505,9.71812834 18.3956522,9.42574487 C14.5928949,8.28279169 10.5810541,10.417271 9.38182776,14.2222827 C9.14470617,14.9802243 8.44535778,15.4965268 7.65468542,15.4965268 Z" id="Path-Copy-5" fill="#FFD1D5"></path>
                        </g>
                        <path d="M97.7593994,68.9781203 C97.7593994,69.5814127 97.6488458,70.1806779 97.4325524,70.7436972 C97.4349557,70.7638338 97.428547,70.7839703 97.4149286,70.7984686 C97.1946298,71.7376396 96.8661844,72.6478138 96.4368021,73.5104657 C91.5854227,83.5763486 73.7532389,91.021252 52.5004159,91.021252 C31.2467921,91.021252 13.414608,83.5763486 8.56322864,73.5104657 C8.13384631,72.6478138 7.80540098,71.7376396 7.58510216,70.7984686 C7.58750547,70.778332 7.58109678,70.7581955 7.56747837,70.7436972 C7.35118493,70.1806779 7.2406313,69.5814127 7.2406313,68.9781203 C7.23823179,68.8750209 7.24464048,68.7711159 7.25986118,68.6688221 C7.25745787,68.6486854 7.26386656,68.6285488 7.27748498,68.6140504 L7.27748498,68.559279 C7.27267856,68.5544461 7.27027525,68.5480024 7.27027525,68.5415587 C7.27027525,68.5343096 7.27267856,68.5278659 7.27748498,68.523033 C7.26226428,68.444903 7.25665683,68.3659677 7.25986118,68.2862267 C7.2230111,68.2685064 7.25986118,68.2499809 7.25986118,68.2137348 L7.29591002,68.4134899 C7.30792636,68.2234004 7.33836754,68.0341163 7.38643273,67.8496651 C7.44090661,67.6676304 7.49457945,67.4670697 7.56747837,67.2850349 C8.27563877,67.4308239 8.83399595,67.9785394 8.99741758,68.6865422 C9.34108361,70.0880495 10.8799708,70.925732 13.1430399,70.925732 C15.9492457,70.925732 17.9046976,69.4879789 17.9046976,68.1952091 C17.9046976,64.6278093 21.6698038,61.8247948 26.4675104,61.8247948 C31.2644159,61.8247948 35.0303231,64.6278093 35.0303231,68.1952091 C35.0327264,68.2387043 35.0271188,68.2821994 35.0118981,68.3224725 C35.0703775,68.4376539 35.1128351,68.5600844 35.1384698,68.6865422 C35.4829371,70.0880495 37.0218241,70.925732 39.2848932,70.925732 C42.0902979,70.925732 44.0457498,69.4879789 44.0457498,68.1952091 C44.0457498,64.6278093 47.7203331,61.8247948 52.4275172,61.8247948 C57.1347008,61.8247948 60.8092843,64.6278093 60.8092843,68.1952091 C60.8092843,69.4879789 62.7647364,70.925732 65.570942,70.925732 C68.3763468,70.925732 70.3317987,69.4879789 70.3317987,68.1952091 C70.3317987,64.6278093 74.0071832,61.8247948 78.713566,61.8247948 C83.4207498,61.8247948 87.0953331,64.6278093 87.0953331,68.1952091 C87.0953331,69.4879789 89.0507852,70.925732 91.8569908,70.925732 C94.1200602,70.925732 95.6589471,70.0880495 96.0026132,68.6865422 C96.1660348,67.9785394 96.7243922,67.4308239 97.4325524,67.2850349 C97.5054513,67.4670697 97.5591241,67.6676304 97.613598,67.8496651 C97.6616632,68.0341163 97.6921046,68.2234004 97.7041207,68.4134899 L97.7401696,68.2137348 C97.7401696,68.2499809 97.7770196,68.2685064 97.7401696,68.2862267 C97.7433741,68.3659677 97.7377665,68.444903 97.7225458,68.523033 C97.7409708,68.5504189 97.7409708,68.5866647 97.7225458,68.6140504 C97.7361642,68.6285488 97.7425729,68.6486854 97.7401696,68.6688221 C97.7553902,68.7711159 97.7617989,68.8750209 97.7593994,68.9781203 L97.7593994,68.9781203 Z" id="Path" fill="#FCA834"></path>
                    </g>
                </g>
            </g>
        </g>
    </g>
</svg>