<?xml version="1.0" encoding="UTF-8"?>
<svg width="22px" height="24px" viewBox="0 0 22 24" version="1.1" xmlns="http://www.w3.org/2000/svg" xmlns:xlink="http://www.w3.org/1999/xlink">
    <title>copy</title>
    <g id="Page-1" stroke="none" stroke-width="1" fill="none" fill-rule="evenodd">
        <g id="Register-(Personal-details---Education)" transform="translate(-195.000000, -687.000000)" fill="#7E8283" fill-rule="nonzero">
            <g id="Course-details" transform="translate(115.000000, 206.000000)">
                <g transform="translate(50.000000, 50.000000)" id="Country">
                    <g transform="translate(0.000000, 410.000000)">
                        <g id="copy" transform="translate(30.000000, 21.000000)">
                            <path d="M19.5,24 L7.5,24 C6.122,24 5,22.879 5,21.5 L5,6.5 C5,5.121 6.122,4 7.5,4 L19.5,4 C20.878,4 22,5.121 22,6.5 L22,21.5 C22,22.879 20.878,24 19.5,24 Z M7.5,5 C6.673,5 6,5.673 6,6.5 L6,21.5 C6,22.327 6.673,23 7.5,23 L19.5,23 C20.327,23 21,22.327 21,21.5 L21,6.5 C21,5.673 20.327,5 19.5,5 L7.5,5 Z" id="Shape"></path>
                            <path d="M3.5,21 L2.5,21 C1.122,21 0,19.879 0,18.5 L0,2.5 C0,1.121 1.122,0 2.5,0 L14.5,0 C15.878,0 17,1.121 17,2.5 C17,2.776 16.776,3 16.5,3 C16.224,3 16,2.776 16,2.5 C16,1.673 15.327,1 14.5,1 L2.5,1 C1.673,1 1,1.673 1,2.5 L1,18.5 C1,19.327 1.673,20 2.5,20 L3.5,20 C3.776,20 4,20.224 4,20.5 C4,20.776 3.776,21 3.5,21 Z" id="Path"></path>
                            <path d="M17.5,17 L9.5,17 C9.224,17 9,16.776 9,16.5 C9,16.224 9.224,16 9.5,16 L17.5,16 C17.776,16 18,16.224 18,16.5 C18,16.776 17.776,17 17.5,17 Z" id="Path"></path>
                            <path d="M17.5,21 L9.5,21 C9.224,21 9,20.776 9,20.5 C9,20.224 9.224,20 9.5,20 L17.5,20 C17.776,20 18,20.224 18,20.5 C18,20.776 17.776,21 17.5,21 Z" id="Path"></path>
                            <path d="M17.5,13 L9.5,13 C9.224,13 9,12.776 9,12.5 C9,12.224 9.224,12 9.5,12 L17.5,12 C17.776,12 18,12.224 18,12.5 C18,12.776 17.776,13 17.5,13 Z" id="Path"></path>
                            <path d="M17.5,9 L9.5,9 C9.224,9 9,8.776 9,8.5 C9,8.224 9.224,8 9.5,8 L17.5,8 C17.776,8 18,8.224 18,8.5 C18,8.776 17.776,9 17.5,9 Z" id="Path"></path>
                        </g>
                    </g>
                </g>
            </g>
        </g>
    </g>
</svg>