<?xml version="1.0" encoding="UTF-8"?>
<svg width="24px" height="23px" viewBox="0 0 24 23" version="1.1" xmlns="http://www.w3.org/2000/svg" xmlns:xlink="http://www.w3.org/1999/xlink">
    <title>warning</title>
    <g id="Page-1" stroke="none" stroke-width="1" fill="none" fill-rule="evenodd">
        <g id="My-Classes" transform="translate(-320.000000, -124.000000)" fill-rule="nonzero">
            <g id="Class-alert" transform="translate(290.000000, 110.000000)">
                <g id="Group-14" transform="translate(30.000000, 14.000000)">
                    <g id="warning" transform="translate(0.000000, 0.000000)">
                        <path d="M22.9530782,16.9265912 L14.670103,1.71193388 C14.038398,0.668277177 12.9398601,0.0366179275 11.7177368,0.0366179275 C10.4956135,0.0366179275 9.39707565,0.668277177 8.76537063,1.71193388 L0.482395423,16.9265912 C-0.149172282,18.0114889 -0.162949777,19.3022708 0.455023522,20.3870312 C1.07290528,21.4717915 2.18512905,22.1172282 3.4347616,22.1172282 L20.000712,22.1172282 C21.2503446,22.1172282 22.3626141,21.4717915 22.9804501,20.3870312 C23.5984234,19.3022708 23.5846459,18.0114889 22.9530782,16.9265912 Z" id="Path" fill="#454C4E"></path>
                        <path d="M22.9804501,20.3870312 C22.3625683,21.4717915 21.2503446,22.1172282 20.000712,22.1172282 L11.7177368,22.1172282 L11.7177368,0.0366179275 C12.9398601,0.0366179275 14.038398,0.66832295 14.670103,1.71193388 L22.9530782,16.926637 C23.5846459,18.0114889 23.5984234,19.3022708 22.9804501,20.3870312 Z" id="Path" fill="#454C4E"></path>
                        <path d="M21.77215,17.6269549 L13.4890833,2.4121602 C13.1184183,1.78054673 12.4455639,1.40979021 11.7177368,1.40979021 C10.9899097,1.40979021 10.3170553,1.7805925 9.94639034,2.4121602 L1.66332359,17.6269549 C1.27888112,18.2723916 1.27888112,19.0550083 1.64968341,19.700445 C2.02039415,20.3595219 2.6932028,20.7440559 3.43480737,20.7440559 L20.0007578,20.7440559 C20.7423166,20.7440559 21.415171,20.3595219 21.7858818,19.700445 C22.1565925,19.0550083 22.1565925,18.2723916 21.77215,17.6269549 Z" id="Path" fill="#FFDE33"></path>
                        <path d="M21.785836,19.700445 C21.4151252,20.3595219 20.7423166,20.7440559 20.000712,20.7440559 L11.7177368,20.7440559 L11.7177368,1.40979021 C12.4455639,1.40979021 13.1184183,1.7805925 13.4890833,2.4121602 L21.77215,17.6269549 C22.1565925,18.2723916 22.1565925,19.0550083 21.785836,19.700445 Z" id="Path" fill="#FFBC33"></path>
                        <g id="Group" transform="translate(10.344565, 5.630006)" fill="#454C4E">
                            <path d="M1.37317228,13.7408773 C0.616188175,13.7408773 0,13.1246891 0,12.367705 C0,11.6107209 0.616188175,10.9945327 1.37317228,10.9945327 C2.13015639,10.9945327 2.74634456,11.6107209 2.74634456,12.367705 C2.74634456,13.1246891 2.13015639,13.7408773 1.37317228,13.7408773 Z" id="Path"></path>
                            <path d="M2.74634456,8.24818818 C2.74634456,9.00517228 2.13015639,9.62136046 1.37317228,9.62136046 C0.616188175,9.62136046 0,9.00517228 0,8.24818818 L0,1.38232676 C0,0.625342657 0.616188175,0.00915448188 1.37317228,0.00915448188 C2.13015639,0.00915448188 2.74634456,0.625342657 2.74634456,1.38232676 L2.74634456,8.24818818 Z" id="Path"></path>
                        </g>
                        <g id="Group" transform="translate(11.717737, 5.630006)" fill="#454C4E">
                            <path d="M1.37317228,12.367705 C1.37317228,11.6107209 0.756984107,10.9945327 0,10.9945327 L0,13.7408773 C0.756984107,13.7408773 1.37317228,13.1246891 1.37317228,12.367705 Z" id="Path"></path>
                            <path d="M1.37317228,8.24818818 L1.37317228,1.38232676 C1.37317228,0.625342657 0.756984107,0.00915448188 0,0.00915448188 L0,9.62136046 C0.756984107,9.62136046 1.37317228,9.00517228 1.37317228,8.24818818 Z" id="Path"></path>
                        </g>
                    </g>
                </g>
            </g>
        </g>
    </g>
</svg>