<?xml version="1.0" encoding="UTF-8"?>
<svg width="38px" height="39px" viewBox="0 0 38 39" version="1.1" xmlns="http://www.w3.org/2000/svg" xmlns:xlink="http://www.w3.org/1999/xlink">
    <title>2D5157D4-89E0-4B9C-83AC-BEE4429CBD19@1.5x</title>
    <g id="BrainGym-New-(As-per-Mobile)" stroke="none" stroke-width="1" fill="none" fill-rule="evenodd">
        <g id="Brain-gym-page----Updated-2" transform="translate(-224.000000, -126.000000)" fill-rule="nonzero">
            <g id="Messaging" transform="translate(50.000000, 108.000000)">
                <g id="waving-hand" transform="translate(174.000000, 18.000000)">
                    <path d="M38,27.7065609 L38,13.778678 C38,11.9537511 36.4873499,10.474264 34.6216313,10.474264 C32.7559127,10.474264 31.2434963,11.953675 31.2434963,13.778678 L31.2434963,17.1976545 L22.0904252,8.24433105 C20.9468073,7.12567025 19.0926915,7.12567025 17.9491514,8.24433105 C16.8055334,9.36299184 16.8055334,11.1765691 17.9491514,12.2952298 L15.8586183,10.2503185 C14.7150004,9.13165773 12.8608846,9.13165773 11.7173445,10.2503185 C10.5737265,11.3689793 10.5737265,13.1826327 11.7173445,14.3012173 L12.9276982,15.4851575 C11.7840802,14.3665728 9.92996443,14.3665728 8.78642432,15.4851575 C7.64280634,16.6038182 7.64280634,18.4174716 8.78642432,19.5360563 L11.7732561,22.4577064 C10.6296381,21.3390456 8.77552234,21.3390456 7.63198223,22.4577064 C6.48836425,23.5763672 6.48836425,25.3900205 7.63198223,26.5086052 L16.8521783,35.5275888 C21.585352,40.1574704 29.2593354,40.1574704 33.992509,35.5275888 L35.1803579,34.3656624 C37.0601712,32.5269484 38,30.1169451 38,27.7069418 C38,27.7069418 38,27.7067133 38,27.7065609 Z" id="Path" fill="#43AA8B"></path>
                    <g id="Group" transform="translate(6.773957, 11.723960)" fill="#328C71">
                        <path d="M5.42914842,11.1545205 L4.99906521,10.733823 L3.93433086,10.0691469 C2.89747444,9.69895135 1.6896905,9.92007843 0.857713485,10.733823 C-0.285904495,11.8524838 -0.285904495,13.6661372 0.857713485,14.7847218 C0.857713485,14.7847218 4.52420599,18.3712004 6.55142967,20.354184 C4.69871559,17.2161295 4.32586778,13.3229827 5.42914842,11.1545205 L5.42914842,11.1545205 Z" id="Path"></path>
                        <path d="M2.01223345,7.81217292 L3.61583722,9.38078124 C3.32841424,8.51013621 2.62609294,5.01255023 3.86370159,2.93107638 C3.18894673,2.98035961 2.52828658,3.25655899 2.01231132,3.76127412 C0.868693339,4.87985875 0.868693339,6.69351213 2.01223345,7.81217292 L2.01223345,7.81217292 Z" id="Path"></path>
                        <path d="M16.8503769,6.69396916 C16.7009419,6.69396916 16.551429,6.63813514 16.4373475,6.52661945 L10.762009,0.97521003 C10.5339239,0.752102481 10.5339239,0.39036204 10.762009,0.167330662 C10.9901719,-0.0557768874 11.3599049,-0.0557768874 11.5879899,0.167330662 L17.2633285,5.71874009 C17.4914135,5.94184764 17.4914135,6.30358808 17.2633285,6.52669563 C17.1493249,6.63821132 16.999812,6.69396916 16.8503769,6.69396916 L16.8503769,6.69396916 Z" id="Path"></path>
                        <path d="M12.775683,10.8101473 C12.626248,10.8101473 12.4767351,10.7543133 12.3626536,10.6427976 L5.7404779,4.16513764 C5.51239285,3.94203009 5.51239285,3.58028964 5.7404779,3.35725827 C5.96864082,3.13407455 6.33837378,3.13422689 6.56645883,3.35725827 L13.1886346,9.83484205 C13.4167196,10.0579496 13.4167196,10.41969 13.1886346,10.6427976 C13.074631,10.7543133 12.925196,10.8101473 12.775683,10.8101473 L12.775683,10.8101473 Z" id="Path"></path>
                        <path d="M9.3676454,15.5782809 C9.21821036,15.5782809 9.06869746,15.522523 8.954616,15.4109312 L4.58603581,11.1377627 C4.35795076,10.9146552 4.35795076,10.5529147 4.58603581,10.3298833 C4.81419873,10.1067758 5.18393169,10.1067758 5.41201674,10.3298833 L9.78059693,14.6030518 C10.008682,14.8261594 10.008682,15.1878998 9.78059693,15.4110073 C9.66659334,15.5224469 9.51708043,15.5782809 9.3676454,15.5782809 L9.3676454,15.5782809 Z" id="Path"></path>
                    </g>
                    <g id="Group" transform="translate(23.344493, 0.000000)" fill="#328C71">
                        <path d="M3.87305649,8.42181162 C3.47357669,6.80079702 2.13660426,5.5373334 0.467043492,5.2031672 C0.151041738,5.13986833 -0.0526695947,4.83807519 0.0119635882,4.52896955 C0.076596771,4.21978773 0.385356494,4.02059816 0.701280377,4.08382085 C2.81268293,4.50649883 4.5034247,6.10412865 5.00865372,8.15414349 C5.08426676,8.46081164 4.89130167,8.76946025 4.57779179,8.84334701 C4.26552786,8.91700526 3.94898101,8.72985085 3.87305649,8.42181162 Z" id="Path"></path>
                        <path d="M8.10224704,8.03577233 C7.24527333,4.55829573 4.37719531,1.8480227 0.795582527,1.1310926 C0.479580773,1.06786991 0.27586944,0.766000598 0.340502622,0.456894952 C0.405135805,0.147789307 0.713350429,-0.0516287761 1.02981941,0.0117462601 C5.05327398,0.817111955 8.27512134,3.86162737 9.2377664,7.76802804 C9.31337944,8.07477236 9.12041435,8.3833448 8.80690448,8.45730773 C8.49409545,8.53111832 8.17801582,8.34327837 8.10224704,8.03577233 L8.10224704,8.03577233 Z" id="Path"></path>
                    </g>
                    <g id="Group" transform="translate(0.000000, 28.368610)" fill="#328C71">
                        <path d="M8.33593883,4.89933931 C6.24026628,4.40521207 4.60691566,2.75136738 4.17488566,0.685965804 C4.11025248,0.376860158 4.31396381,0.0749908452 4.63004344,0.0117681528 C4.94565584,-0.0516830554 5.2545713,0.147811199 5.31928236,0.456916845 C5.66090377,2.09004278 6.95247723,3.39776228 8.60973433,3.78860039 C8.92324421,3.86256332 9.1162093,4.17113577 9.04059626,4.47780391 C8.9650611,4.78439588 8.64968231,4.97337841 8.33593883,4.89933931 L8.33593883,4.89933931 Z" id="Path"></path>
                        <path d="M7.94136493,9.03616003 C3.94781294,8.09452277 0.835296892,4.94298582 0.0119635882,1.00725896 C-0.0526695947,0.698153311 0.151041738,0.39636017 0.467043492,0.333061305 C0.783356732,0.269533925 1.09164923,0.469104352 1.15636028,0.778209997 C1.889285,4.28166122 4.66002389,7.08714915 8.21516043,7.92542112 C8.5286703,7.99938405 8.7216354,8.30795649 8.64602236,8.61462463 C8.5704872,8.92121661 8.25510841,9.11019914 7.94136493,9.03616003 Z" id="Path"></path>
                    </g>
                    <path d="M28.3154573,29.3031243 C28.0896305,29.3031243 27.8747836,29.1743938 27.7792355,28.9588273 C26.545209,26.1739058 26.7732161,22.9681344 28.3891236,20.3834688 C28.5574035,20.1142773 28.9168574,20.0294218 29.1921325,20.1941055 C29.4672518,20.358713 29.5540004,20.7103225 29.3856427,20.9795141 C27.9679177,23.2473045 27.7680221,26.0604096 28.8510562,28.5044618 C28.9792323,28.7939151 28.8433469,29.1303664 28.5474359,29.2558216 C28.471745,29.28789 28.3929393,29.3031243 28.3154573,29.3031243 L28.3154573,29.3031243 Z" id="Path" fill="#328C71"></path>
                </g>
            </g>
        </g>
    </g>
</svg>