<?xml version="1.0" encoding="UTF-8"?>
<svg width="27px" height="25px" viewBox="0 0 27 25" version="1.1" xmlns="http://www.w3.org/2000/svg" xmlns:xlink="http://www.w3.org/1999/xlink">
    <title>93DB8E3D-FE29-4AA9-88DC-BF6559ABC9FB@1.5x</title>
    <g id="Dashboard-&amp;-others" stroke="none" stroke-width="1" fill="none" fill-rule="evenodd">
        <g id="Exam-details" transform="translate(-487.000000, -507.000000)" fill="#FD2A5B" fill-rule="nonzero">
            <g id="Group-13" transform="translate(50.000000, 40.000000)">
                <g id="Group-11" transform="translate(417.000000, 30.000000)">
                    <g id="Group-10-Copy-2" transform="translate(0.000000, 402.000000)">
                        <path d="M46.8486726,39.1365619 C47.0700371,38.7050576 47.0327745,38.2158764 46.838918,37.8097968 C46.8935438,37.347731 46.7725867,36.8785774 46.3351903,36.5187304 C45.9279681,36.1837879 45.520811,35.8486503 45.1138489,35.5136428 C44.3981862,34.9248436 43.2775773,34.7390029 42.5814888,35.5136428 C39.4197617,39.031677 36.1134714,42.396903 32.6859639,45.6396224 C30.1377364,43.2593913 27.5585542,40.9114776 24.9978407,38.5605076 C24.0991166,37.7351484 22.7982427,37.994142 22.2328008,38.9773813 C21.4091872,39.3861269 20.7415821,39.9190048 20.1895366,40.828506 C19.9266825,41.2618309 19.9471672,41.8088192 20.1895366,42.2437047 C21.8426817,45.2074029 25.0380297,47.8131398 27.6652695,50.2111227 C27.3137136,50.5257774 26.964759,50.8434234 26.6061147,51.1514456 C23.0664943,54.1908326 20.6789576,56.1192717 25.108523,59.235648 C25.1682862,59.2777191 25.2292199,59.2684205 25.2898936,59.2929999 C25.3747586,59.3321448 25.456177,59.3597153 25.5502764,59.3751912 C25.5795402,59.3762966 25.6068531,59.3812385 25.6356617,59.3789626 C25.7268348,59.3863754 25.8160569,59.4095892 25.9084655,59.3914473 C28.2899544,58.9245696 30.5046395,57.0584893 32.5140228,55.003577 C34.4714465,56.9327964 36.5557452,58.775858 38.8476868,59.8694443 C39.3933593,60.1298684 40.0439263,59.9781007 40.4640246,59.613832 C41.168437,59.6670222 41.8106801,59.2293406 42.1330372,58.6003562 C42.1807697,58.570835 42.2115292,58.5539935 42.2632286,58.5216762 C43.2873319,57.8819627 43.3809111,56.6079327 42.6231085,55.7297735 C40.9119559,53.7470387 39.0929825,51.8622312 37.2386975,50.0108464 C40.5774381,46.7488147 44.7463605,43.2307154 46.8486726,39.1365619 Z" id="Path"></path>
                    </g>
                </g>
            </g>
        </g>
    </g>
</svg>