<?xml version="1.0" encoding="UTF-8"?>
<svg width="34px" height="34px" viewBox="0 0 34 34" version="1.1" xmlns="http://www.w3.org/2000/svg" xmlns:xlink="http://www.w3.org/1999/xlink">
    <title>72B8D1B9-3CFC-4DA6-B0FD-86461159B55E@1.5x</title>
    <g id="BrainGym-New-(As-per-Mobile)" stroke="none" stroke-width="1" fill="none" fill-rule="evenodd">
        <g id="Brain-gym-page---Updated-7" transform="translate(-559.000000, -431.000000)" fill-rule="nonzero">
            <g id="Group-2" transform="translate(489.000000, 106.000000)">
                <g id="belt" transform="translate(71.000000, 326.000000)">
                    <circle id="Oval" stroke="#FFFFFF" fill="#FFE9AC" cx="16" cy="16" r="16"></circle>
                    <path d="M31.4181815,15.9180756 C31.4181815,15.8430287 31.4176306,15.7681042 31.41659,15.6933022 L27.7454141,12.0221875 L3.75,15.7089115 L8.0436488,20.0025603 L6.92829053,23.5007489 L14.9984625,31.5709208 C15.2467416,31.5826124 15.496551,31.5885501 15.747707,31.5885501 C24.4022775,31.5885501 31.4181815,24.572646 31.4181815,15.9180756 Z" id="Path" fill="#FFDA77"></path>
                    <polygon id="Path" fill="#FFC21C" points="3.75 12.0221875 28.25 12.0221875 28.25 15.7865 3.75 15.7865"></polygon>
                    <polygon id="Path" fill="#FFC21C" points="16.0075 12.0221875 28.25 12.0221875 28.25 15.7865 16.0075 15.7865"></polygon>
                    <polygon id="Path" fill="#FFC72E" points="16.4781875 14.259 6.9950625 23.742125 4.3333125 21.080375 13.213125 12.2005625"></polygon>
                    <polygon id="Path" fill="#FDB900" points="15.5218125 14.259 25.0049375 23.742125 27.6666875 21.080375 18.786875 12.2005625"></polygon>
                    <polygon id="Path" fill="#FFC934" points="18.2904375 17.027625 13.7095625 17.027625 12.914875 12.0221875 19.085125 12.0221875"></polygon>
                    <polygon id="Path" fill="#FDB900" points="19.085125 12.0221875 16.0075 12.0221875 16.0075 17.027625 18.2904375 17.027625"></polygon>
                </g>
            </g>
        </g>
    </g>
</svg>