<?xml version="1.0" encoding="UTF-8"?>
<svg width="128px" height="128px" viewBox="0 0 128 128" version="1.1" xmlns="http://www.w3.org/2000/svg" xmlns:xlink="http://www.w3.org/1999/xlink">
    <title>3C017F72-5AD0-443B-851B-22C6DAB986D3</title>
    <defs>
        <linearGradient x1="26.9765274%" y1="28.1964529%" x2="85.854113%" y2="81.9140397%" id="linearGradient-1">
            <stop stop-color="#FFDA77" offset="0%"></stop>
            <stop stop-color="#FFC21C" offset="100%"></stop>
        </linearGradient>
    </defs>
    <g id="BrainGym-New-(As-per-Mobile)" stroke="none" stroke-width="1" fill="none" fill-rule="evenodd">
        <g id="Brain-gym-page---Updated-7" transform="translate(-646.000000, -156.000000)" fill-rule="nonzero">
            <g id="Group-2" transform="translate(489.000000, 106.000000)">
                <g id="Group-7" transform="translate(56.000000, 40.000000)">
                    <g id="Group-9" transform="translate(101.364332, 10.000000)">
                        <ellipse id="Oval" fill="url(#linearGradient-1)" cx="63.5" cy="64" rx="63.5" ry="64"></ellipse>
                        <g id="noun_belt_4018687" transform="translate(27.000000, 37.000000)" fill="#6E5100">
                            <path d="M17.6647479,15.5096942 C21.134767,12.7832302 27.0327072,9.67886851 35.4240996,10.3714187 C38.5811304,10.6321083 41.3853864,10.4434741 44.097587,10.2612903 C51.9491293,9.7339327 58.1956317,9.31544486 65.1088334,20.6962688 C67.7597157,17.268287 68.9246061,13.4762523 68.5829091,9.36295739 C63.6091111,3.95329413 54.5057719,0.905255269 41.4673001,0.295144054 C32.5449511,-0.289480308 25.0273046,0.314652509 19.1078327,2.09243919 C14.2650966,3.54613378 10.4756922,5.78960617 7.82184531,8.76307238 C7.44956718,13.2997323 9.05133049,17.3530859 12.5940577,20.8675971 C14.0081889,18.8352753 15.7175558,17.0290868 17.6647479,15.5096942 L17.6647479,15.5096942 Z M22.8050257,3.81925216 C28.1088188,2.78923717 34.4172636,2.50400467 41.5540505,2.97205028 C41.9839997,3.00024573 42.3098744,3.37454988 42.281912,3.80808199 C42.2539496,4.2416141 41.8827388,4.5702044 41.4527896,4.54200897 C34.4481567,4.08293096 28.2737383,4.35935319 23.0999149,5.36403865 C23.051013,5.37351784 23.0013315,5.37831142 22.9515342,5.37835534 C22.5495104,5.37791839 22.2136465,5.06949424 22.1757235,4.66592766 C22.1378005,4.26236109 22.4102379,3.89581837 22.8050257,3.81925216 L22.8050257,3.81925216 Z M17.6939248,5.13717419 C18.2261296,4.96128344 18.7790859,4.79262969 19.337191,4.63609007 C19.6068215,4.55715031 19.8977225,4.63039411 20.0989006,4.82787529 C20.3000788,5.02535648 20.3804989,5.31661011 20.3094766,5.59050833 C20.2384543,5.86440656 20.026946,6.07869576 19.7556528,6.15161388 C19.2198594,6.30201778 18.689839,6.46359184 18.1797898,6.63224559 C17.7742963,6.75529126 17.3454957,6.52969216 17.2136344,6.12393528 C17.0817732,5.71817839 17.2950056,5.28044199 17.6940808,5.13764617 L17.6939248,5.13717419 Z" id="Shape"></path>
                            <path d="M60.6594388,27.0384048 C57.5404549,29.2625252 54.1321439,31.0422406 50.5308526,32.3272415 C50.5185265,32.3648424 50.5066686,32.4026007 50.4934063,32.4398871 C51.3203443,33.4368635 54.0405023,36.4045087 58.2251206,37.8728346 C58.7192551,38.0458935 59.1901417,38.2087262 59.6458937,38.3652658 C61.1412473,37.9206618 69.7836855,35.1303233 71.5177589,29.6091158 C73.8161784,22.2906131 73.3663554,16.1670032 70.1857646,11.4004897 C69.948605,17.3046294 66.6934338,22.6707133 60.6594388,27.0384048 Z" id="Path"></path>
                            <path d="M48.9801098,29.8542301 C46.9703384,25.2005195 34.6247782,28.3770939 29.0399822,30.0902195 L44.4709573,39.9260996 C44.6055572,40.0119166 44.7700206,40.0359065 44.9232213,39.9920703 C45.0764221,39.9482342 45.2038759,39.8407164 45.2737113,39.6964032 L48.8935153,32.2213609 C49.2650928,31.4832611 49.2967485,30.6179276 48.9801098,29.8542301 L48.9801098,29.8542301 Z" id="Path"></path>
                            <path d="M15.3053222,38.5177149 C21.3611608,35.2138636 25.5426586,31.9029326 27.1224222,30.5749416 C25.4006749,30.0826678 20.9461315,28.6495829 16.5546226,25.9171406 C10.0654997,21.8795196 6.53853115,16.7044297 6.23131588,10.8371044 C4.68291348,13.2102136 3.73115466,15.9491064 3.40147164,19.0050116 C3.04261175,22.3367097 3.4180104,25.965597 4.51924217,29.7909849 C5.82767652,34.3339378 13.6374038,37.8196583 15.3053222,38.5177149 Z" id="Path"></path>
                            <path d="M72.8296258,46.4839298 C67.3098927,42.6476864 64.5324732,41.6979078 59.9311093,40.124488 C59.234453,39.886296 58.5000385,39.635046 57.712263,39.3587811 C53.7435847,37.9661291 51.03076,35.4021831 49.7686654,34.0010355 L46.9205661,39.8822055 C46.9559042,41.0392729 46.8669718,42.1967991 46.6553218,43.3345729 C47.7244122,44.169818 50.9210737,46.6163985 54.6817693,49.0159386 C60.6873675,52.8476195 65.3840633,54.8244239 68.2479212,54.7301855 C68.6233266,54.7158007 68.9684102,54.5184419 69.1733116,54.20094 L73.1499473,48.094636 C73.4991082,47.5599702 73.3562293,46.8415174 72.8296258,46.4839298 L72.8296258,46.4839298 Z" id="Path"></path>
                            <path d="M43.6374662,41.2555064 L36.8994818,36.9604997 C36.0188708,38.1039469 33.8257688,40.7448254 30.1644618,43.8856867 C29.7357023,44.2534106 29.2780259,44.6339829 28.7914327,45.0274034 C30.2909754,45.7837696 31.8422423,46.4310351 33.4333634,46.9642469 C36.223733,47.8830322 40.0760159,48.6594373 42.5835103,47.1382497 C44.205401,46.1543313 45.122054,44.2634271 45.3233276,41.5114762 C44.7508564,41.6679762 44.139527,41.575056 43.6382464,41.2553491 L43.6374662,41.2555064 Z" id="Path"></path>
                            <path d="M6.02785793,54.607943 C6.31584426,54.9415307 6.77401652,55.0686663 7.19071999,54.9306191 C24.3763639,49.2564904 33.4417888,38.8221412 35.5718562,36.1143991 L28.4062044,31.5469032 C23.8878464,35.4839928 13.4759169,42.6000166 0.811283387,46.1846953 C0.446097226,46.2833665 0.158666741,46.5674041 0.0534649222,46.9335683 C-0.0559773771,47.2920207 0.0284084709,47.6820818 0.275958052,47.96201 L6.02785793,54.607943 Z" id="Path"></path>
                        </g>
                    </g>
                </g>
            </g>
        </g>
    </g>
</svg>