<?xml version="1.0" encoding="UTF-8"?>
<svg width="25px" height="21px" viewBox="0 0 25 21" version="1.1" xmlns="http://www.w3.org/2000/svg" xmlns:xlink="http://www.w3.org/1999/xlink">
    <title>treasure</title>
    <g id="Symbols" stroke="none" stroke-width="1" fill="none" fill-rule="evenodd">
        <g id="Level-/-active" transform="translate(-18.000000, 0.000000)" fill-rule="nonzero">
            <g id="treasure" transform="translate(18.000000, 0.000000)">
                <path d="M22.9531048,19.9649177 L1.64149113,19.9649177 C1.19434053,19.9658556 0.823184921,19.6188653 0.793349851,19.1716875 L0,7.22138449 L12.7213686,5.94695622 L24.5945959,7.22138449 L23.799182,19.1716875 C23.769347,19.6179254 23.3995049,19.9647278 22.9531048,19.9649177 Z" id="Path" fill="#FCA834"></path>
                <path d="M21.8467683,10.2245617 L21.7067875,12.3187218 L2.88780849,12.3187218 L2.74782763,10.2245617 C2.73957139,10.1068932 2.78066497,9.99091649 2.86097569,9.90482681 C2.94147405,9.81854913 3.05405917,9.76967725 3.17189827,9.77005101 L21.4226977,9.77005101 C21.5405368,9.76967725 21.6531219,9.81854913 21.7336203,9.90482681 C21.813931,9.99091649 21.8550246,10.1068932 21.8467683,10.2245617 Z" id="Path" fill="#AF8066"></path>
                <path d="M21.7067875,12.3187218 L21.5371592,14.8673905 L21.3930502,17.0211367 C21.377476,17.2440677 21.1920858,17.4166231 20.9689796,17.4160606 L3.6256163,17.4160606 C3.40251012,17.4166231 3.21711995,17.2440677 3.20154571,17.0211367 L3.05743675,14.8673905 L2.88780849,12.3187218 L12.297298,11.469103 L21.7067875,12.3187218 Z" id="Path" fill="#AF8066"></path>
                <polygon id="Path" fill="#805333" points="21.7067875 12.3187218 21.5371592 14.8673905 3.05743675 14.8673905 2.88780849 12.3187218"></polygon>
                <path d="M9.75306177,6.7965751 L14.8415342,6.7965751 L14.8415342,10.619672 C14.8415342,12.0271823 13.702548,13.1683407 12.297298,13.1683407 C10.892048,13.1683407 9.75306177,12.0271823 9.75306177,10.619672 L9.75306177,6.7965751 Z" id="Path" fill="#F3D55B"></path>
                <path d="M13.1454393,9.77005316 C13.1454393,10.2392232 12.7656521,10.619672 12.297298,10.619672 C11.8289439,10.619672 11.4491567,10.2392232 11.4491567,9.77005316 C11.4491567,9.30088309 11.8289439,8.92043429 12.297298,8.92043429 C12.7656521,8.92043429 13.1454393,9.30088309 13.1454393,9.77005316 Z" id="Path" fill="#2C2F38"></path>
                <path d="M12.297298,11.8939124 C12.0631209,11.8939124 11.8732273,11.703688 11.8732273,11.469103 L11.8732273,10.619672 C11.8732273,10.385087 12.0631209,10.1948626 12.297298,10.1948626 C12.531475,10.1948626 12.7213686,10.385087 12.7213686,10.619672 L12.7213686,11.469103 C12.7213686,11.703688 12.531475,11.8939124 12.297298,11.8939124 Z" id="Path" fill="#2C2F38"></path>
                <path d="M7.20882556,-8.60317106e-07 C5.69924668,-8.60317106e-07 5.17328649,0.654131348 4.24051876,1.69923775 C3.6128567,2.39998536 3.97763251,3.27516799 3.81644812,4.24790643 C3.76972526,4.52403255 2.96830685,4.8086173 2.96830685,5.09733735 L2.12016557,7.22138449 L-8.58820901e-07,7.22138449 L-8.58820901e-07,4.67271587 C-0.000750567503,3.43324972 0.490495887,2.24434721 1.36546992,1.36784879 C2.240444,0.49135041 3.42727885,-0.000751875112 4.66440173,-8.60317106e-07 L7.20882556,-8.60317106e-07 Z" id="Path" fill="#FCA834"></path>
                <path d="M24.5945968,4.67271587 L24.5945968,7.22138449 L22.4744304,7.22138449 L21.6262891,5.09733735 C21.6262891,4.8086173 21.2489413,4.52403255 21.2022185,4.24790643 C21.0410341,3.27516799 20.9817392,2.39998536 20.3540772,1.69923775 C19.4213095,0.654131348 18.8953493,-8.60317105e-07 17.3857704,-8.60317105e-07 L19.9301942,-8.60317105e-07 C21.1675047,-0.000751875112 22.354152,0.49135041 23.229126,1.36784879 C24.1041001,2.24434721 24.5953465,3.43324972 24.5945968,4.67271587 L24.5945968,4.67271587 Z" id="Path" fill="#FCA834"></path>
                <path d="M22.4744304,5.09733735 L22.4744304,7.22138449 L2.12016557,7.22138449 L2.12016557,5.09733735 C2.12054083,4.81275259 2.14455899,4.5285438 2.19222005,4.24790643 L12.297298,2.97347811 L22.4023759,4.24790643 C22.450037,4.5285438 22.4740551,4.81275259 22.4744304,5.09733735 Z" id="Path" fill="#805333"></path>
                <path d="M21.1810149,1.69923775 L12.297298,2.12385924 L3.413581,1.69923775 C4.37806025,0.61559776 5.75947976,-0.00281953408 7.20882556,-9.59933822e-06 L17.3857704,-9.59933822e-06 C18.8351162,-0.00281953408 20.2165357,0.61559776 21.1810149,1.69923775 Z" id="Path" fill="#805333"></path>
                <path d="M22.4023759,4.24790643 L2.19222005,4.24790643 C2.34852572,3.29904004 2.7722211,2.41464695 3.413581,1.69923775 L21.1810149,1.69923775 C21.8223749,2.41464695 22.2460702,3.29904004 22.4023759,4.24790643 Z" id="Path" fill="#AF8066"></path>
            </g>
        </g>
    </g>
</svg>