<?xml version="1.0" encoding="UTF-8"?>
<svg width="12px" height="12px" viewBox="0 0 12 12" version="1.1" xmlns="http://www.w3.org/2000/svg" xmlns:xlink="http://www.w3.org/1999/xlink">
    <title>155F386F-D3F2-4C65-B3CB-ED75EF1BF793@1.5x</title>
    <g id="Dashboard-&amp;-others" stroke="none" stroke-width="1" fill="none" fill-rule="evenodd">
        <g id="My-subjects-(Study-material)-Copy" transform="translate(-420.000000, -603.000000)" fill="#43AA8B" fill-rule="nonzero">
            <g id="Group-6-Copy-4" transform="translate(408.000000, 597.000000)">
                <g id="Group-3" transform="translate(12.000000, 4.000000)">
                    <g id="play-button-(1)-copy-5" transform="translate(0.000000, 2.000000)">
                        <path d="M6,0 C2.69139844,0 0,2.69165625 0,6 C0,9.30834375 2.69139844,12 6,12 C9.30860156,12 12,9.30834375 12,6 C12,2.69165625 9.30860156,0 6,0 Z M8.38525781,6.21021094 L4.88526563,8.46021094 C4.84425,8.4868125 4.79688281,8.50000781 4.75000781,8.50000781 C4.70899219,8.50000781 4.66748438,8.48974219 4.63038281,8.46949219 C4.54980469,8.42554688 4.5,8.34154688 4.5,8.25 L4.5,3.75 C4.5,3.65845313 4.54980469,3.57445313 4.63038281,3.53050781 C4.70948437,3.48705469 4.80860156,3.48972656 4.88526562,3.53978906 L8.38525781,5.78978906 C8.45655469,5.83567969 8.5,5.91503906 8.5,6 C8.5,6.08496094 8.45655469,6.16429687 8.38525781,6.21021094 Z" id="Shape"></path>
                    </g>
                </g>
            </g>
        </g>
    </g>
</svg>