<?xml version="1.0" encoding="UTF-8"?>
<svg width="16px" height="16px" viewBox="0 0 16 16" version="1.1" xmlns="http://www.w3.org/2000/svg" xmlns:xlink="http://www.w3.org/1999/xlink">
    <title>5DB30B3A-91EA-4E00-BA27-8033A87430E9@1.5x</title>
    <g id="Dashboard-&amp;-others" stroke="none" stroke-width="1" fill="none" fill-rule="evenodd">
        <g id="My-subjects-(Study-material)-Copy" transform="translate(-636.000000, -599.000000)" fill="#F3722C" fill-rule="nonzero">
            <path d="M644,599 C639.588972,599 636,602.588972 636,607 C636,611.411028 639.588972,615 644,615 C648.411028,615 652,611.411028 652,607 C652,602.588972 648.411028,599 644,599 Z M648.471178,604.894737 L643.358396,609.967419 C643.057644,610.26817 642.576441,610.288221 642.255639,609.987469 L639.548872,607.521303 C639.22807,607.220551 639.20802,606.719298 639.488722,606.398496 C639.789474,606.077694 640.290727,606.057644 640.611529,606.358396 L642.756892,608.323308 L647.328321,603.75188 C647.649123,603.431078 648.150376,603.431078 648.471178,603.75188 C648.79198,604.072682 648.79198,604.573935 648.471178,604.894737 Z" id="Shape-Copy-2"></path>
        </g>
    </g>
</svg>