<?xml version="1.0" encoding="UTF-8"?>
<svg width="30px" height="30px" viewBox="0 0 30 30" version="1.1" xmlns="http://www.w3.org/2000/svg" xmlns:xlink="http://www.w3.org/1999/xlink">
    <!-- Generator: sketchtool 63.1 (101010) - https://sketch.com -->
    <title>08148222-4B4B-4807-A608-7962570716E2@1.5x</title>
    <desc>Created with sketchtool.</desc>
    <g id="Page-1" stroke="none" stroke-width="1" fill="none" fill-rule="evenodd">
        <g id="Tautmore-Home-page" transform="translate(-85.000000, -149.000000)" fill="#454C4E" fill-rule="nonzero">
            <g id="Header">
                <g id="Menu-items">
                    <g id="Group-9" transform="translate(60.000000, 43.000000)">
                        <g id="Tags" transform="translate(0.000000, 94.000000)">
                            <g id="Group-51" transform="translate(0.000000, 1.000000)">
                                <g id="Mathematics" transform="translate(25.000000, 11.000000)">
                                    <g id="Group-11">
                                        <g id="design-tool">
                                            <path d="M20.7976974,13.7385782 C21.0263615,13.510371 21.0263615,13.1396199 20.7976974,12.9116411 C20.5694901,12.682977 20.1994243,12.682977 19.9707602,12.9116411 C19.742553,13.1396199 19.742553,13.510371 19.9707602,13.7385782 C20.1994243,13.9672423 20.5694901,13.9672423 20.7976974,13.7385782 Z" id="Path"></path>
                                            <path d="M0.584795322,29.9705318 L29.3567251,29.9705318 C29.5931561,29.9705318 29.806515,29.8282164 29.8969755,29.6096035 C29.987436,29.3909905 29.9374087,29.1394828 29.7701937,28.9722679 L0.99826386,0.20056655 C0.831049006,0.0331231579 0.579541287,-0.0166757895 0.360928363,0.0737847368 C0.14254386,0.164245263 0,0.377375731 0,0.614035088 L0,29.3857365 C0,29.7087445 0.261787251,29.9705318 0.584795322,29.9705318 L0.584795322,29.9705318 Z M1.16959064,2.02576754 L5.87353801,6.72971491 L4.63267544,7.96989216 C4.40423977,8.19832784 4.40423977,8.56862211 4.63267544,8.79705778 C4.86065427,9.02526497 5.2311769,9.02572187 5.45961257,8.79705778 L6.70047515,7.55665205 L9.18151497,10.0379204 L7.94088082,11.2780976 C7.71244515,11.5065333 7.71244515,11.8768275 7.9406524,12.1052632 C8.16885965,12.3334704 8.53938234,12.3339273 8.76781801,12.1052632 L10.0086806,10.8648574 L12.4894919,13.3458973 L11.2490863,14.5865315 C11.0206506,14.8147387 11.0206506,15.1850329 11.2490863,15.4134685 C11.4775219,15.6419042 11.8475877,15.6419042 12.0760234,15.4134685 L13.3166575,14.1728344 L15.7976974,16.6541027 L14.5572917,17.8947368 C14.328856,18.1229441 14.328856,18.4932383 14.5572917,18.721674 C14.7857274,18.9501096 15.1557931,18.9501096 15.3842288,18.721674 L16.6248629,17.4812683 L19.1059028,19.9620796 L17.8654971,21.2029422 C17.6370614,21.4313779 17.6370614,21.8016722 17.8654971,22.0301078 C18.0939327,22.2583151 18.464227,22.2583151 18.6926626,22.0298794 L19.9328399,20.7892453 L22.4138798,23.2702851 L21.173474,24.5111477 C20.9452668,24.7395833 20.9452668,25.1098775 21.1737025,25.3380848 C21.4019097,25.5665205 21.7724324,25.5665205 22.0008681,25.3380848 L23.2410453,24.0972222 L27.9447643,28.8009412 L1.16959064,28.8009412 L1.16959064,2.02576754 Z" id="Shape"></path>
                                            <path d="M6.02750363,12.1881853 C5.86028877,12.0209704 5.60878105,11.970943 5.39016813,12.0614035 C5.17178363,12.151864 5.02923977,12.3652229 5.02923977,12.6016539 L5.02923977,24.3564967 C5.02923977,24.6795047 5.29102702,24.941292 5.61403509,24.941292 L17.3688779,24.941292 C17.6055373,24.941292 17.8186678,24.7989766 17.9093567,24.5803637 C17.9998173,24.3619792 17.9495614,24.110243 17.7825749,23.9430281 L6.02750363,12.1881853 Z M6.19883041,23.7719298 L6.19883041,14.0136147 L15.9571455,23.7719298 L6.19883041,23.7719298 Z" id="Shape"></path>
                                            <path d="M18.316886,12.084704 C18.5453216,12.3131396 18.9153874,12.3131396 19.1440515,12.084704 C19.3722588,11.8564967 19.3722588,11.4862025 19.1440515,11.2577668 L16.6625549,8.77649854 C16.4343476,8.54806287 16.0640533,8.54806287 15.8356177,8.77649854 C15.607182,9.00470579 15.607182,9.375 15.8356177,9.60343567 L18.316886,12.084704 Z" id="Path"></path>
                                            <path d="M8.87701023,5.98935491 L25.2923977,22.4045139 C25.9777047,23.0902778 27.087902,23.0902778 27.773666,22.4045139 L29.4275402,20.7508681 C30.1112482,20.0671601 30.1112482,18.953993 29.4275402,18.2693713 L13.0123812,1.85421234 C12.9481908,1.79002193 12.8698374,1.74159357 12.7837171,1.71303912 L7.82163743,0.0591648538 C7.61170503,-0.0107364912 7.37984281,0.0438596491 7.22336439,0.20056655 C7.06665754,0.357044971 7.0120614,0.588678713 7.08196269,0.798839532 L8.73583696,5.76091924 C8.76461988,5.84703947 8.81281982,5.92516444 8.87701023,5.98935491 L8.87701023,5.98935491 Z M28.6001462,19.0963085 C28.8283535,19.3245157 28.8283535,19.6959521 28.6003746,19.9237025 L26.9467288,21.5775767 C26.7182931,21.8060124 26.3479989,21.8062409 26.1193348,21.5775767 L24.8522021,20.3104441 L27.333242,17.8291758 L28.6001462,19.0963085 Z M26.5063048,17.0022387 L24.0250365,19.483507 L23.1980994,18.6563414 L25.6793677,16.1755299 L26.5063048,17.0022387 Z M12.9858827,3.48181649 L24.8522021,15.348136 L22.3711623,17.8294042 L10.5046144,5.96285637 L12.9858827,3.48181649 Z M12.0965826,2.71678544 L9.73958333,5.07355626 L8.56131216,1.53851427 L12.0965826,2.71678544 Z" id="Shape"></path>
                                        </g>
                                    </g>
                                </g>
                            </g>
                        </g>
                    </g>
                </g>
            </g>
        </g>
    </g>
</svg>